<?xml version="1.0" encoding="UTF-8" standalone="no"?>
<!DOCTYPE svg PUBLIC "-//W3C//DTD SVG 1.1//EN"
 "http://www.w3.org/Graphics/SVG/1.1/DTD/svg11.dtd">
<!-- Generated by graphviz version 5.0.0 (20220707.2338)
 -->
<!-- Title: my_graph Pages: 1 -->
<svg width="899pt" height="338pt"
 viewBox="0.00 0.00 899.00 338.00" xmlns="http://www.w3.org/2000/svg" xmlns:xlink="http://www.w3.org/1999/xlink">
<g id="graph0" class="graph" transform="scale(1 1) rotate(0) translate(4 334)">
<title>my_graph</title>
<polygon fill="white" stroke="transparent" points="-4,4 -4,-334 895,-334 895,4 -4,4"/>
<!-- Rotation Averaging -->
<g id="node1" class="node">
<title>Rotation Averaging</title>
<path fill="lightskyblue" stroke="black" d="M249,-256C249,-256 119,-256 119,-256 113,-256 107,-250 107,-244 107,-244 107,-232 107,-232 107,-226 113,-220 119,-220 119,-220 249,-220 249,-220 255,-220 261,-226 261,-232 261,-232 261,-244 261,-244 261,-250 255,-256 249,-256"/>
<text text-anchor="middle" x="184" y="-234.3" font-family="Times,serif" font-size="14.00">Rotation Averaging</text>
</g>
<!-- Global Rotations \n(wRi) -->
<g id="node4" class="node">
<title>Global Rotations \n(wRi)</title>
<path fill="gainsboro" stroke="black" d="M246,-184C246,-184 130,-184 130,-184 124,-184 118,-178 118,-172 118,-172 118,-158 118,-158 118,-152 124,-146 130,-146 130,-146 246,-146 246,-146 252,-146 258,-152 258,-158 258,-158 258,-172 258,-172 258,-178 252,-184 246,-184"/>
<text text-anchor="middle" x="188" y="-168.8" font-family="Times,serif" font-size="14.00">Global Rotations </text>
<text text-anchor="middle" x="188" y="-153.8" font-family="Times,serif" font-size="14.00">(wRi)</text>
</g>
<!-- Rotation Averaging&#45;&gt;Global Rotations \n(wRi) -->
<g id="edge3" class="edge">
<title>Rotation Averaging&#45;&gt;Global Rotations \n(wRi)</title>
<path fill="none" stroke="#bfbfbf" d="M184.97,-219.81C185.4,-212.11 185.93,-202.82 186.41,-194.15"/>
<polygon fill="#bfbfbf" stroke="#bfbfbf" points="189.92,-194.2 186.98,-184.02 182.93,-193.81 189.92,-194.2"/>
</g>
<!-- Relative Pose Rotations \n(i2Ri1) -->
<g id="node2" class="node">
<title>Relative Pose Rotations \n(i2Ri1)</title>
<path fill="gainsboro" stroke="black" d="M178,-330C178,-330 12,-330 12,-330 6,-330 0,-324 0,-318 0,-318 0,-304 0,-304 0,-298 6,-292 12,-292 12,-292 178,-292 178,-292 184,-292 190,-298 190,-304 190,-304 190,-318 190,-318 190,-324 184,-330 178,-330"/>
<text text-anchor="middle" x="95" y="-314.8" font-family="Times,serif" font-size="14.00">Relative Pose Rotations </text>
<text text-anchor="middle" x="95" y="-299.8" font-family="Times,serif" font-size="14.00">(i2Ri1)</text>
</g>
<!-- Relative Pose Rotations \n(i2Ri1)&#45;&gt;Rotation Averaging -->
<g id="edge1" class="edge">
<title>Relative Pose Rotations \n(i2Ri1)&#45;&gt;Rotation Averaging</title>
<path fill="none" stroke="#bfbfbf" d="M117.92,-291.72C129.13,-282.77 142.76,-271.9 154.72,-262.36"/>
<polygon fill="#bfbfbf" stroke="#bfbfbf" points="157.05,-264.98 162.69,-256 152.69,-259.5 157.05,-264.98"/>
</g>
<!-- Relative Pose Priors -->
<g id="node3" class="node">
<title>Relative Pose Priors</title>
<path fill="gainsboro" stroke="black" d="M357.5,-329C357.5,-329 220.5,-329 220.5,-329 214.5,-329 208.5,-323 208.5,-317 208.5,-317 208.5,-305 208.5,-305 208.5,-299 214.5,-293 220.5,-293 220.5,-293 357.5,-293 357.5,-293 363.5,-293 369.5,-299 369.5,-305 369.5,-305 369.5,-317 369.5,-317 369.5,-323 363.5,-329 357.5,-329"/>
<text text-anchor="middle" x="289" y="-307.3" font-family="Times,serif" font-size="14.00">Relative Pose Priors</text>
</g>
<!-- Relative Pose Priors&#45;&gt;Rotation Averaging -->
<g id="edge2" class="edge">
<title>Relative Pose Priors&#45;&gt;Rotation Averaging</title>
<path fill="none" stroke="#bfbfbf" d="M263.85,-292.99C250.05,-283.67 232.76,-271.97 217.8,-261.86"/>
<polygon fill="#bfbfbf" stroke="#bfbfbf" points="219.55,-258.82 209.31,-256.11 215.63,-264.61 219.55,-258.82"/>
</g>
<!-- Translation Averaging -->
<g id="node5" class="node">
<title>Translation Averaging</title>
<path fill="lightskyblue" stroke="black" d="M497,-110C497,-110 347,-110 347,-110 341,-110 335,-104 335,-98 335,-98 335,-86 335,-86 335,-80 341,-74 347,-74 347,-74 497,-74 497,-74 503,-74 509,-80 509,-86 509,-86 509,-98 509,-98 509,-104 503,-110 497,-110"/>
<text text-anchor="middle" x="422" y="-88.3" font-family="Times,serif" font-size="14.00">Translation Averaging</text>
</g>
<!-- Relative Pose Priors&#45;&gt;Translation Averaging -->
<g id="edge7" class="edge">
<title>Relative Pose Priors&#45;&gt;Translation Averaging</title>
<path fill="none" stroke="#bfbfbf" d="M285.93,-292.74C281.2,-260.56 275.78,-190.61 308,-146 317.84,-132.37 332.08,-122.15 347.18,-114.51"/>
<polygon fill="#bfbfbf" stroke="#bfbfbf" points="349.08,-117.49 356.66,-110.08 346.12,-111.14 349.08,-117.49"/>
</g>
<!-- Global Rotations \n(wRi)&#45;&gt;Translation Averaging -->
<g id="edge5" class="edge">
<title>Global Rotations \n(wRi)&#45;&gt;Translation Averaging</title>
<path fill="none" stroke="#bfbfbf" d="M247.35,-145.99C280.5,-135.93 321.88,-123.38 356.04,-113.01"/>
<polygon fill="#bfbfbf" stroke="#bfbfbf" points="357.38,-116.26 365.93,-110.01 355.35,-109.57 357.38,-116.26"/>
</g>
<!-- Global Translations \n(wTi) -->
<g id="node9" class="node">
<title>Global Translations \n(wTi)</title>
<path fill="gainsboro" stroke="black" d="M490,-38C490,-38 354,-38 354,-38 348,-38 342,-32 342,-26 342,-26 342,-12 342,-12 342,-6 348,0 354,0 354,0 490,0 490,0 496,0 502,-6 502,-12 502,-12 502,-26 502,-26 502,-32 496,-38 490,-38"/>
<text text-anchor="middle" x="422" y="-22.8" font-family="Times,serif" font-size="14.00">Global Translations </text>
<text text-anchor="middle" x="422" y="-7.8" font-family="Times,serif" font-size="14.00">(wTi)</text>
</g>
<!-- Translation Averaging&#45;&gt;Global Translations \n(wTi) -->
<g id="edge9" class="edge">
<title>Translation Averaging&#45;&gt;Global Translations \n(wTi)</title>
<path fill="none" stroke="#bfbfbf" d="M422,-73.81C422,-66.11 422,-56.82 422,-48.15"/>
<polygon fill="#bfbfbf" stroke="#bfbfbf" points="425.5,-48.02 422,-38.02 418.5,-48.02 425.5,-48.02"/>
</g>
<!-- Relative Pose Translations \n(i2Ui1) -->
<g id="node6" class="node">
<title>Relative Pose Translations \n(i2Ui1)</title>
<path fill="gainsboro" stroke="black" d="M515,-184C515,-184 329,-184 329,-184 323,-184 317,-178 317,-172 317,-172 317,-158 317,-158 317,-152 323,-146 329,-146 329,-146 515,-146 515,-146 521,-146 527,-152 527,-158 527,-158 527,-172 527,-172 527,-178 521,-184 515,-184"/>
<text text-anchor="middle" x="422" y="-168.8" font-family="Times,serif" font-size="14.00">Relative Pose Translations </text>
<text text-anchor="middle" x="422" y="-153.8" font-family="Times,serif" font-size="14.00">(i2Ui1)</text>
</g>
<!-- Relative Pose Translations \n(i2Ui1)&#45;&gt;Translation Averaging -->
<g id="edge4" class="edge">
<title>Relative Pose Translations \n(i2Ui1)&#45;&gt;Translation Averaging</title>
<path fill="none" stroke="#bfbfbf" d="M422,-145.72C422,-137.97 422,-128.79 422,-120.27"/>
<polygon fill="#bfbfbf" stroke="#bfbfbf" points="425.5,-120 422,-110 418.5,-120 425.5,-120"/>
</g>
<!-- Absolute Pose Priors -->
<g id="node7" class="node">
<title>Absolute Pose Priors</title>
<path fill="gainsboro" stroke="black" d="M697,-183C697,-183 557,-183 557,-183 551,-183 545,-177 545,-171 545,-171 545,-159 545,-159 545,-153 551,-147 557,-147 557,-147 697,-147 697,-147 703,-147 709,-153 709,-159 709,-159 709,-171 709,-171 709,-177 703,-183 697,-183"/>
<text text-anchor="middle" x="627" y="-161.3" font-family="Times,serif" font-size="14.00">Absolute Pose Priors</text>
</g>
<!-- Absolute Pose Priors&#45;&gt;Translation Averaging -->
<g id="edge6" class="edge">
<title>Absolute Pose Priors&#45;&gt;Translation Averaging</title>
<path fill="none" stroke="#bfbfbf" d="M577.9,-146.99C548.82,-136.92 511.8,-124.1 481.13,-113.48"/>
<polygon fill="#bfbfbf" stroke="#bfbfbf" points="482.01,-110.08 471.41,-110.11 479.72,-116.69 482.01,-110.08"/>
</g>
<!-- Ground Truth Poses \n(wTi) -->
<g id="node8" class="node">
<title>Ground Truth Poses \n(wTi)</title>
<path fill="gainsboro" stroke="black" d="M879,-184C879,-184 739,-184 739,-184 733,-184 727,-178 727,-172 727,-172 727,-158 727,-158 727,-152 733,-146 739,-146 739,-146 879,-146 879,-146 885,-146 891,-152 891,-158 891,-158 891,-172 891,-172 891,-178 885,-184 879,-184"/>
<text text-anchor="middle" x="809" y="-168.8" font-family="Times,serif" font-size="14.00">Ground Truth Poses </text>
<text text-anchor="middle" x="809" y="-153.8" font-family="Times,serif" font-size="14.00">(wTi)</text>
</g>
<!-- Ground Truth Poses \n(wTi)&#45;&gt;Translation Averaging -->
<g id="edge8" class="edge">
<title>Ground Truth Poses \n(wTi)&#45;&gt;Translation Averaging</title>
<path fill="none" stroke="#bfbfbf" d="M726.67,-147.65C723.75,-147.09 720.85,-146.54 718,-146 651.68,-133.5 576.86,-120.11 519.04,-109.92"/>
<polygon fill="#bfbfbf" stroke="#bfbfbf" points="519.63,-106.47 509.18,-108.18 518.42,-113.36 519.63,-106.47"/>
</g>
</g>
</svg>
