<?xml version="1.0" encoding="UTF-8" standalone="no"?>
<!DOCTYPE svg PUBLIC "-//W3C//DTD SVG 1.1//EN"
 "http://www.w3.org/Graphics/SVG/1.1/DTD/svg11.dtd">
<!-- Generated by graphviz version 5.0.0 (20220707.2338)
 -->
<!-- Title: my_graph Pages: 1 -->
<svg width="2178pt" height="764pt"
 viewBox="0.00 0.00 2177.83 764.00" xmlns="http://www.w3.org/2000/svg" xmlns:xlink="http://www.w3.org/1999/xlink">
<g id="graph0" class="graph" transform="scale(1 1) rotate(0) translate(4 760)">
<title>my_graph</title>
<polygon fill="white" stroke="transparent" points="-4,4 -4,-760 2173.83,-760 2173.83,4 -4,4"/>
<!-- Bundle Adjustment -->
<g id="node1" class="node">
<title>Bundle Adjustment</title>
<path fill="lightskyblue" stroke="black" d="M413.33,-252C413.33,-252 283.33,-252 283.33,-252 277.33,-252 271.33,-246 271.33,-240 271.33,-240 271.33,-228 271.33,-228 271.33,-222 277.33,-216 283.33,-216 283.33,-216 413.33,-216 413.33,-216 419.33,-216 425.33,-222 425.33,-228 425.33,-228 425.33,-240 425.33,-240 425.33,-246 419.33,-252 413.33,-252"/>
<text text-anchor="middle" x="348.33" y="-230.3" font-family="Times,serif" font-size="14.00">Bundle Adjustment</text>
</g>
<!-- Optimized Camera Poses -->
<g id="node5" class="node">
<title>Optimized Camera Poses</title>
<path fill="gainsboro" stroke="black" d="M480.83,-180C480.83,-180 309.83,-180 309.83,-180 303.83,-180 297.83,-174 297.83,-168 297.83,-168 297.83,-156 297.83,-156 297.83,-150 303.83,-144 309.83,-144 309.83,-144 480.83,-144 480.83,-144 486.83,-144 492.83,-150 492.83,-156 492.83,-156 492.83,-168 492.83,-168 492.83,-174 486.83,-180 480.83,-180"/>
<text text-anchor="middle" x="395.33" y="-158.3" font-family="Times,serif" font-size="14.00">Optimized Camera Poses</text>
</g>
<!-- Bundle Adjustment&#45;&gt;Optimized Camera Poses -->
<g id="edge4" class="edge">
<title>Bundle Adjustment&#45;&gt;Optimized Camera Poses</title>
<path fill="none" stroke="#bfbfbf" d="M359.95,-215.7C365.47,-207.47 372.18,-197.48 378.26,-188.42"/>
<polygon fill="#bfbfbf" stroke="#bfbfbf" points="381.18,-190.36 383.85,-180.1 375.37,-186.46 381.18,-190.36"/>
</g>
<!-- Filtered Optimized Camera Poses -->
<g id="node6" class="node">
<title>Filtered Optimized Camera Poses</title>
<path fill="gainsboro" stroke="black" d="M267.83,-180C267.83,-180 34.83,-180 34.83,-180 28.83,-180 22.83,-174 22.83,-168 22.83,-168 22.83,-156 22.83,-156 22.83,-150 28.83,-144 34.83,-144 34.83,-144 267.83,-144 267.83,-144 273.83,-144 279.83,-150 279.83,-156 279.83,-156 279.83,-168 279.83,-168 279.83,-174 273.83,-180 267.83,-180"/>
<text text-anchor="middle" x="151.33" y="-158.3" font-family="Times,serif" font-size="14.00">Filtered Optimized Camera Poses</text>
</g>
<!-- Bundle Adjustment&#45;&gt;Filtered Optimized Camera Poses -->
<g id="edge5" class="edge">
<title>Bundle Adjustment&#45;&gt;Filtered Optimized Camera Poses</title>
<path fill="none" stroke="#bfbfbf" d="M300.39,-215.97C272.87,-206.19 238.11,-193.84 209.09,-183.52"/>
<polygon fill="#bfbfbf" stroke="#bfbfbf" points="210.08,-180.16 199.49,-180.11 207.74,-186.76 210.08,-180.16"/>
</g>
<!-- Initialized Cameras -->
<g id="node2" class="node">
<title>Initialized Cameras</title>
<path fill="gainsboro" stroke="black" d="M413.83,-324C413.83,-324 282.83,-324 282.83,-324 276.83,-324 270.83,-318 270.83,-312 270.83,-312 270.83,-300 270.83,-300 270.83,-294 276.83,-288 282.83,-288 282.83,-288 413.83,-288 413.83,-288 419.83,-288 425.83,-294 425.83,-300 425.83,-300 425.83,-312 425.83,-312 425.83,-318 419.83,-324 413.83,-324"/>
<text text-anchor="middle" x="348.33" y="-302.3" font-family="Times,serif" font-size="14.00">Initialized Cameras</text>
</g>
<!-- Initialized Cameras&#45;&gt;Bundle Adjustment -->
<g id="edge1" class="edge">
<title>Initialized Cameras&#45;&gt;Bundle Adjustment</title>
<path fill="none" stroke="#bfbfbf" d="M348.33,-287.7C348.33,-279.98 348.33,-270.71 348.33,-262.11"/>
<polygon fill="#bfbfbf" stroke="#bfbfbf" points="351.83,-262.1 348.33,-252.1 344.83,-262.1 351.83,-262.1"/>
</g>
<!-- Absolute Pose Priors -->
<g id="node3" class="node">
<title>Absolute Pose Priors</title>
<path fill="gainsboro" stroke="black" d="M154.33,-324C154.33,-324 14.33,-324 14.33,-324 8.33,-324 2.33,-318 2.33,-312 2.33,-312 2.33,-300 2.33,-300 2.33,-294 8.33,-288 14.33,-288 14.33,-288 154.33,-288 154.33,-288 160.33,-288 166.33,-294 166.33,-300 166.33,-300 166.33,-312 166.33,-312 166.33,-318 160.33,-324 154.33,-324"/>
<text text-anchor="middle" x="84.33" y="-302.3" font-family="Times,serif" font-size="14.00">Absolute Pose Priors</text>
</g>
<!-- Absolute Pose Priors&#45;&gt;Bundle Adjustment -->
<g id="edge2" class="edge">
<title>Absolute Pose Priors&#45;&gt;Bundle Adjustment</title>
<path fill="none" stroke="#bfbfbf" d="M148.57,-287.97C186.42,-277.93 234.47,-265.19 273.96,-254.72"/>
<polygon fill="#bfbfbf" stroke="#bfbfbf" points="275.03,-258.06 283.8,-252.11 273.24,-251.29 275.03,-258.06"/>
</g>
<!-- Translation Averaging -->
<g id="node26" class="node">
<title>Translation Averaging</title>
<path fill="lightskyblue" stroke="black" d="M691.33,-108C691.33,-108 541.33,-108 541.33,-108 535.33,-108 529.33,-102 529.33,-96 529.33,-96 529.33,-84 529.33,-84 529.33,-78 535.33,-72 541.33,-72 541.33,-72 691.33,-72 691.33,-72 697.33,-72 703.33,-78 703.33,-84 703.33,-84 703.33,-96 703.33,-96 703.33,-102 697.33,-108 691.33,-108"/>
<text text-anchor="middle" x="616.33" y="-86.3" font-family="Times,serif" font-size="14.00">Translation Averaging</text>
</g>
<!-- Absolute Pose Priors&#45;&gt;Translation Averaging -->
<g id="edge32" class="edge">
<title>Absolute Pose Priors&#45;&gt;Translation Averaging</title>
<path fill="none" stroke="#bfbfbf" d="M65.81,-287.95C33.46,-256.19 -26.29,-187.25 13.33,-144 46.71,-107.55 356.65,-96.05 518.67,-92.52"/>
<polygon fill="#bfbfbf" stroke="#bfbfbf" points="519.2,-96.01 529.12,-92.29 519.05,-89.01 519.2,-96.01"/>
</g>
<!-- Relative Pose Priors -->
<g id="node4" class="node">
<title>Relative Pose Priors</title>
<path fill="gainsboro" stroke="black" d="M635.83,-324C635.83,-324 498.83,-324 498.83,-324 492.83,-324 486.83,-318 486.83,-312 486.83,-312 486.83,-300 486.83,-300 486.83,-294 492.83,-288 498.83,-288 498.83,-288 635.83,-288 635.83,-288 641.83,-288 647.83,-294 647.83,-300 647.83,-300 647.83,-312 647.83,-312 647.83,-318 641.83,-324 635.83,-324"/>
<text text-anchor="middle" x="567.33" y="-302.3" font-family="Times,serif" font-size="14.00">Relative Pose Priors</text>
</g>
<!-- Relative Pose Priors&#45;&gt;Bundle Adjustment -->
<g id="edge3" class="edge">
<title>Relative Pose Priors&#45;&gt;Bundle Adjustment</title>
<path fill="none" stroke="#bfbfbf" d="M514.04,-287.97C483.17,-278.1 444.13,-265.62 411.7,-255.25"/>
<polygon fill="#bfbfbf" stroke="#bfbfbf" points="412.45,-251.82 401.86,-252.11 410.32,-258.49 412.45,-251.82"/>
</g>
<!-- Two&#45;View Estimator -->
<g id="node15" class="node">
<title>Two&#45;View Estimator</title>
<path fill="lightskyblue" stroke="black" d="M1294.83,-252C1294.83,-252 1157.83,-252 1157.83,-252 1151.83,-252 1145.83,-246 1145.83,-240 1145.83,-240 1145.83,-228 1145.83,-228 1145.83,-222 1151.83,-216 1157.83,-216 1157.83,-216 1294.83,-216 1294.83,-216 1300.83,-216 1306.83,-222 1306.83,-228 1306.83,-228 1306.83,-240 1306.83,-240 1306.83,-246 1300.83,-252 1294.83,-252"/>
<text text-anchor="middle" x="1226.33" y="-230.3" font-family="Times,serif" font-size="14.00">Two&#45;View Estimator</text>
</g>
<!-- Relative Pose Priors&#45;&gt;Two&#45;View Estimator -->
<g id="edge17" class="edge">
<title>Relative Pose Priors&#45;&gt;Two&#45;View Estimator</title>
<path fill="none" stroke="#bfbfbf" d="M648.14,-296.42C771.53,-283.31 1006.18,-258.38 1135.38,-244.66"/>
<polygon fill="#bfbfbf" stroke="#bfbfbf" points="1136.06,-248.11 1145.64,-243.57 1135.32,-241.15 1136.06,-248.11"/>
</g>
<!-- Rotation Averaging -->
<g id="node24" class="node">
<title>Rotation Averaging</title>
<path fill="lightskyblue" stroke="black" d="M690.33,-252C690.33,-252 560.33,-252 560.33,-252 554.33,-252 548.33,-246 548.33,-240 548.33,-240 548.33,-228 548.33,-228 548.33,-222 554.33,-216 560.33,-216 560.33,-216 690.33,-216 690.33,-216 696.33,-216 702.33,-222 702.33,-228 702.33,-228 702.33,-240 702.33,-240 702.33,-246 696.33,-252 690.33,-252"/>
<text text-anchor="middle" x="625.33" y="-230.3" font-family="Times,serif" font-size="14.00">Rotation Averaging</text>
</g>
<!-- Relative Pose Priors&#45;&gt;Rotation Averaging -->
<g id="edge28" class="edge">
<title>Relative Pose Priors&#45;&gt;Rotation Averaging</title>
<path fill="none" stroke="#bfbfbf" d="M581.67,-287.7C588.62,-279.3 597.1,-269.07 604.73,-259.86"/>
<polygon fill="#bfbfbf" stroke="#bfbfbf" points="607.47,-262.04 611.16,-252.1 602.08,-257.57 607.47,-262.04"/>
</g>
<!-- Relative Pose Priors&#45;&gt;Translation Averaging -->
<g id="edge33" class="edge">
<title>Relative Pose Priors&#45;&gt;Translation Averaging</title>
<path fill="none" stroke="#bfbfbf" d="M555.44,-287.72C549.32,-277.76 542.49,-264.73 539.33,-252 527.78,-205.41 517,-186.49 539.33,-144 545.89,-131.52 556.87,-121.4 568.52,-113.48"/>
<polygon fill="#bfbfbf" stroke="#bfbfbf" points="570.46,-116.4 577.06,-108.1 566.73,-110.47 570.46,-116.4"/>
</g>
<!-- Verifier -->
<g id="node7" class="node">
<title>Verifier</title>
<path fill="lightskyblue" stroke="black" d="M1222.33,-396C1222.33,-396 1176.33,-396 1176.33,-396 1170.33,-396 1164.33,-390 1164.33,-384 1164.33,-384 1164.33,-372 1164.33,-372 1164.33,-366 1170.33,-360 1176.33,-360 1176.33,-360 1222.33,-360 1222.33,-360 1228.33,-360 1234.33,-366 1234.33,-372 1234.33,-372 1234.33,-384 1234.33,-384 1234.33,-390 1228.33,-396 1222.33,-396"/>
<text text-anchor="middle" x="1199.33" y="-374.3" font-family="Times,serif" font-size="14.00">Verifier</text>
</g>
<!-- Relative Rotations -->
<g id="node11" class="node">
<title>Relative Rotations</title>
<path fill="gainsboro" stroke="black" d="M1222.33,-324C1222.33,-324 1098.33,-324 1098.33,-324 1092.33,-324 1086.33,-318 1086.33,-312 1086.33,-312 1086.33,-300 1086.33,-300 1086.33,-294 1092.33,-288 1098.33,-288 1098.33,-288 1222.33,-288 1222.33,-288 1228.33,-288 1234.33,-294 1234.33,-300 1234.33,-300 1234.33,-312 1234.33,-312 1234.33,-318 1228.33,-324 1222.33,-324"/>
<text text-anchor="middle" x="1160.33" y="-302.3" font-family="Times,serif" font-size="14.00">Relative Rotations</text>
</g>
<!-- Verifier&#45;&gt;Relative Rotations -->
<g id="edge9" class="edge">
<title>Verifier&#45;&gt;Relative Rotations</title>
<path fill="none" stroke="#bfbfbf" d="M1189.69,-359.7C1185.2,-351.64 1179.77,-341.89 1174.81,-332.98"/>
<polygon fill="#bfbfbf" stroke="#bfbfbf" points="1177.78,-331.14 1169.86,-324.1 1171.67,-334.54 1177.78,-331.14"/>
</g>
<!-- Relative Translations -->
<g id="node12" class="node">
<title>Relative Translations</title>
<path fill="gainsboro" stroke="black" d="M1446.33,-324C1446.33,-324 1302.33,-324 1302.33,-324 1296.33,-324 1290.33,-318 1290.33,-312 1290.33,-312 1290.33,-300 1290.33,-300 1290.33,-294 1296.33,-288 1302.33,-288 1302.33,-288 1446.33,-288 1446.33,-288 1452.33,-288 1458.33,-294 1458.33,-300 1458.33,-300 1458.33,-312 1458.33,-312 1458.33,-318 1452.33,-324 1446.33,-324"/>
<text text-anchor="middle" x="1374.33" y="-302.3" font-family="Times,serif" font-size="14.00">Relative Translations</text>
</g>
<!-- Verifier&#45;&gt;Relative Translations -->
<g id="edge10" class="edge">
<title>Verifier&#45;&gt;Relative Translations</title>
<path fill="none" stroke="#bfbfbf" d="M1234.74,-362.83C1259.87,-352.78 1294,-339.13 1322.23,-327.84"/>
<polygon fill="#bfbfbf" stroke="#bfbfbf" points="1323.56,-331.08 1331.55,-324.11 1320.96,-324.58 1323.56,-331.08"/>
</g>
<!-- Correspondences -->
<g id="node13" class="node">
<title>Correspondences</title>
<path fill="gainsboro" stroke="black" d="M1604.33,-324C1604.33,-324 1488.33,-324 1488.33,-324 1482.33,-324 1476.33,-318 1476.33,-312 1476.33,-312 1476.33,-300 1476.33,-300 1476.33,-294 1482.33,-288 1488.33,-288 1488.33,-288 1604.33,-288 1604.33,-288 1610.33,-288 1616.33,-294 1616.33,-300 1616.33,-300 1616.33,-312 1616.33,-312 1616.33,-318 1610.33,-324 1604.33,-324"/>
<text text-anchor="middle" x="1546.33" y="-302.3" font-family="Times,serif" font-size="14.00">Correspondences</text>
</g>
<!-- Verifier&#45;&gt;Correspondences -->
<g id="edge11" class="edge">
<title>Verifier&#45;&gt;Correspondences</title>
<path fill="none" stroke="#bfbfbf" d="M1234.49,-370.24C1283.89,-360.7 1376.92,-342.58 1466.12,-324.23"/>
<polygon fill="#bfbfbf" stroke="#bfbfbf" points="1467.04,-327.62 1476.13,-322.17 1465.63,-320.76 1467.04,-327.62"/>
</g>
<!-- Inlier Ratio -->
<g id="node14" class="node">
<title>Inlier Ratio</title>
<path fill="gainsboro" stroke="black" d="M1055.83,-324C1055.83,-324 982.83,-324 982.83,-324 976.83,-324 970.83,-318 970.83,-312 970.83,-312 970.83,-300 970.83,-300 970.83,-294 976.83,-288 982.83,-288 982.83,-288 1055.83,-288 1055.83,-288 1061.83,-288 1067.83,-294 1067.83,-300 1067.83,-300 1067.83,-312 1067.83,-312 1067.83,-318 1061.83,-324 1055.83,-324"/>
<text text-anchor="middle" x="1019.33" y="-302.3" font-family="Times,serif" font-size="14.00">Inlier Ratio</text>
</g>
<!-- Verifier&#45;&gt;Inlier Ratio -->
<g id="edge12" class="edge">
<title>Verifier&#45;&gt;Inlier Ratio</title>
<path fill="none" stroke="#bfbfbf" d="M1164.2,-363.34C1138.16,-353.21 1102.22,-339.24 1072.66,-327.74"/>
<polygon fill="#bfbfbf" stroke="#bfbfbf" points="1073.89,-324.46 1063.3,-324.1 1071.35,-330.99 1073.89,-324.46"/>
</g>
<!-- Keypoints -->
<g id="node8" class="node">
<title>Keypoints</title>
<path fill="gainsboro" stroke="black" d="M1760.33,-468C1760.33,-468 1696.33,-468 1696.33,-468 1690.33,-468 1684.33,-462 1684.33,-456 1684.33,-456 1684.33,-444 1684.33,-444 1684.33,-438 1690.33,-432 1696.33,-432 1696.33,-432 1760.33,-432 1760.33,-432 1766.33,-432 1772.33,-438 1772.33,-444 1772.33,-444 1772.33,-456 1772.33,-456 1772.33,-462 1766.33,-468 1760.33,-468"/>
<text text-anchor="middle" x="1728.33" y="-446.3" font-family="Times,serif" font-size="14.00">Keypoints</text>
</g>
<!-- Keypoints&#45;&gt;Verifier -->
<g id="edge6" class="edge">
<title>Keypoints&#45;&gt;Verifier</title>
<path fill="none" stroke="#bfbfbf" d="M1684.11,-447.42C1598.84,-443.66 1406.17,-431.62 1248.33,-396 1246.9,-395.68 1245.46,-395.33 1244.01,-394.96"/>
<polygon fill="#bfbfbf" stroke="#bfbfbf" points="1244.96,-391.59 1234.39,-392.22 1243.05,-398.32 1244.96,-391.59"/>
</g>
<!-- Keypoints&#45;&gt;Two&#45;View Estimator -->
<g id="edge13" class="edge">
<title>Keypoints&#45;&gt;Two&#45;View Estimator</title>
<path fill="none" stroke="#bfbfbf" d="M1684.02,-447.07C1598.05,-441.25 1406.09,-417.86 1281.33,-324 1260.22,-308.12 1245.35,-281.56 1236.43,-261.58"/>
<polygon fill="#bfbfbf" stroke="#bfbfbf" points="1239.54,-259.95 1232.43,-252.1 1233.1,-262.67 1239.54,-259.95"/>
</g>
<!-- Tracks Estimator -->
<g id="node29" class="node">
<title>Tracks Estimator</title>
<path fill="lightskyblue" stroke="black" d="M2043.33,-396C2043.33,-396 1927.33,-396 1927.33,-396 1921.33,-396 1915.33,-390 1915.33,-384 1915.33,-384 1915.33,-372 1915.33,-372 1915.33,-366 1921.33,-360 1927.33,-360 1927.33,-360 2043.33,-360 2043.33,-360 2049.33,-360 2055.33,-366 2055.33,-372 2055.33,-372 2055.33,-384 2055.33,-384 2055.33,-390 2049.33,-396 2043.33,-396"/>
<text text-anchor="middle" x="1985.33" y="-374.3" font-family="Times,serif" font-size="14.00">Tracks Estimator</text>
</g>
<!-- Keypoints&#45;&gt;Tracks Estimator -->
<g id="edge36" class="edge">
<title>Keypoints&#45;&gt;Tracks Estimator</title>
<path fill="none" stroke="#bfbfbf" d="M1772.51,-436.97C1811.02,-426.48 1867.61,-411.06 1912.76,-398.77"/>
<polygon fill="#bfbfbf" stroke="#bfbfbf" points="1913.77,-402.12 1922.5,-396.11 1911.93,-395.36 1913.77,-402.12"/>
</g>
<!-- View&#45;Graph Estimator -->
<g id="node32" class="node">
<title>View&#45;Graph Estimator</title>
<path fill="lightskyblue" stroke="black" d="M1762.33,-252C1762.33,-252 1610.33,-252 1610.33,-252 1604.33,-252 1598.33,-246 1598.33,-240 1598.33,-240 1598.33,-228 1598.33,-228 1598.33,-222 1604.33,-216 1610.33,-216 1610.33,-216 1762.33,-216 1762.33,-216 1768.33,-216 1774.33,-222 1774.33,-228 1774.33,-228 1774.33,-240 1774.33,-240 1774.33,-246 1768.33,-252 1762.33,-252"/>
<text text-anchor="middle" x="1686.33" y="-230.3" font-family="Times,serif" font-size="14.00">View&#45;Graph Estimator</text>
</g>
<!-- Keypoints&#45;&gt;View&#45;Graph Estimator -->
<g id="edge43" class="edge">
<title>Keypoints&#45;&gt;View&#45;Graph Estimator</title>
<path fill="none" stroke="#bfbfbf" d="M1736.09,-431.63C1748.52,-401.09 1769.4,-336.4 1747.33,-288 1742.1,-276.53 1733.03,-266.58 1723.46,-258.5"/>
<polygon fill="#bfbfbf" stroke="#bfbfbf" points="1725.4,-255.58 1715.37,-252.16 1721.08,-261.09 1725.4,-255.58"/>
</g>
<!-- Camera Intrinsics -->
<g id="node9" class="node">
<title>Camera Intrinsics</title>
<path fill="gainsboro" stroke="black" d="M1195.33,-468C1195.33,-468 1075.33,-468 1075.33,-468 1069.33,-468 1063.33,-462 1063.33,-456 1063.33,-456 1063.33,-444 1063.33,-444 1063.33,-438 1069.33,-432 1075.33,-432 1075.33,-432 1195.33,-432 1195.33,-432 1201.33,-432 1207.33,-438 1207.33,-444 1207.33,-444 1207.33,-456 1207.33,-456 1207.33,-462 1201.33,-468 1195.33,-468"/>
<text text-anchor="middle" x="1135.33" y="-446.3" font-family="Times,serif" font-size="14.00">Camera Intrinsics</text>
</g>
<!-- Camera Intrinsics&#45;&gt;Verifier -->
<g id="edge7" class="edge">
<title>Camera Intrinsics&#45;&gt;Verifier</title>
<path fill="none" stroke="#bfbfbf" d="M1151.15,-431.7C1158.9,-423.22 1168.37,-412.86 1176.86,-403.58"/>
<polygon fill="#bfbfbf" stroke="#bfbfbf" points="1179.53,-405.85 1183.69,-396.1 1174.36,-401.12 1179.53,-405.85"/>
</g>
<!-- Matches -->
<g id="node10" class="node">
<title>Matches</title>
<path fill="gainsboro" stroke="black" d="M1290.83,-468C1290.83,-468 1237.83,-468 1237.83,-468 1231.83,-468 1225.83,-462 1225.83,-456 1225.83,-456 1225.83,-444 1225.83,-444 1225.83,-438 1231.83,-432 1237.83,-432 1237.83,-432 1290.83,-432 1290.83,-432 1296.83,-432 1302.83,-438 1302.83,-444 1302.83,-444 1302.83,-456 1302.83,-456 1302.83,-462 1296.83,-468 1290.83,-468"/>
<text text-anchor="middle" x="1264.33" y="-446.3" font-family="Times,serif" font-size="14.00">Matches</text>
</g>
<!-- Matches&#45;&gt;Verifier -->
<g id="edge8" class="edge">
<title>Matches&#45;&gt;Verifier</title>
<path fill="none" stroke="#bfbfbf" d="M1248.26,-431.7C1240.39,-423.22 1230.78,-412.86 1222.16,-403.58"/>
<polygon fill="#bfbfbf" stroke="#bfbfbf" points="1224.58,-401.05 1215.21,-396.1 1219.45,-405.81 1224.58,-401.05"/>
</g>
<!-- Relative Rotations&#45;&gt;Two&#45;View Estimator -->
<g id="edge15" class="edge">
<title>Relative Rotations&#45;&gt;Two&#45;View Estimator</title>
<path fill="none" stroke="#bfbfbf" d="M1176.65,-287.7C1184.64,-279.22 1194.4,-268.86 1203.15,-259.58"/>
<polygon fill="#bfbfbf" stroke="#bfbfbf" points="1205.89,-261.78 1210.2,-252.1 1200.8,-256.98 1205.89,-261.78"/>
</g>
<!-- Relative Rotations&#45;&gt;Rotation Averaging -->
<g id="edge27" class="edge">
<title>Relative Rotations&#45;&gt;Rotation Averaging</title>
<path fill="none" stroke="#bfbfbf" d="M1086.19,-289.65C1082.86,-289.07 1079.56,-288.52 1076.33,-288 950.45,-267.9 803.67,-252.05 712.61,-243.1"/>
<polygon fill="#bfbfbf" stroke="#bfbfbf" points="712.9,-239.61 702.61,-242.12 712.22,-246.57 712.9,-239.61"/>
</g>
<!-- Relative Rotations&#45;&gt;View&#45;Graph Estimator -->
<g id="edge39" class="edge">
<title>Relative Rotations&#45;&gt;View&#45;Graph Estimator</title>
<path fill="none" stroke="#bfbfbf" d="M1234.54,-294.46C1250,-292.3 1266.2,-290.05 1281.33,-288 1386.05,-273.79 1506.11,-258.16 1588.15,-247.58"/>
<polygon fill="#bfbfbf" stroke="#bfbfbf" points="1588.74,-251.04 1598.21,-246.29 1587.84,-244.09 1588.74,-251.04"/>
</g>
<!-- Relative Translations&#45;&gt;Two&#45;View Estimator -->
<g id="edge16" class="edge">
<title>Relative Translations&#45;&gt;Two&#45;View Estimator</title>
<path fill="none" stroke="#bfbfbf" d="M1338.13,-287.88C1318.07,-278.39 1292.96,-266.51 1271.62,-256.42"/>
<polygon fill="#bfbfbf" stroke="#bfbfbf" points="1272.95,-253.18 1262.42,-252.07 1269.96,-259.51 1272.95,-253.18"/>
</g>
<!-- Relative Translations&#45;&gt;Translation Averaging -->
<g id="edge30" class="edge">
<title>Relative Translations&#45;&gt;Translation Averaging</title>
<path fill="none" stroke="#bfbfbf" d="M1418.97,-287.95C1487.23,-259.54 1604.32,-200.08 1551.33,-144 1522.89,-113.91 947.6,-98.15 713.82,-92.96"/>
<polygon fill="#bfbfbf" stroke="#bfbfbf" points="713.7,-89.46 703.63,-92.74 713.55,-96.46 713.7,-89.46"/>
</g>
<!-- Relative Translations&#45;&gt;View&#45;Graph Estimator -->
<g id="edge40" class="edge">
<title>Relative Translations&#45;&gt;View&#45;Graph Estimator</title>
<path fill="none" stroke="#bfbfbf" d="M1450.26,-287.97C1495.64,-277.78 1553.43,-264.82 1600.47,-254.26"/>
<polygon fill="#bfbfbf" stroke="#bfbfbf" points="1601.34,-257.65 1610.34,-252.05 1599.81,-250.82 1601.34,-257.65"/>
</g>
<!-- Correspondences&#45;&gt;Two&#45;View Estimator -->
<g id="edge14" class="edge">
<title>Correspondences&#45;&gt;Two&#45;View Estimator</title>
<path fill="none" stroke="#bfbfbf" d="M1476.11,-289.64C1428.5,-279.22 1365.22,-265.38 1314.27,-254.24"/>
<polygon fill="#bfbfbf" stroke="#bfbfbf" points="1314.76,-250.76 1304.25,-252.04 1313.27,-257.6 1314.76,-250.76"/>
</g>
<!-- Correspondences&#45;&gt;View&#45;Graph Estimator -->
<g id="edge42" class="edge">
<title>Correspondences&#45;&gt;View&#45;Graph Estimator</title>
<path fill="none" stroke="#bfbfbf" d="M1580.58,-287.88C1599.39,-278.47 1622.92,-266.71 1643,-256.67"/>
<polygon fill="#bfbfbf" stroke="#bfbfbf" points="1644.57,-259.79 1651.95,-252.19 1641.44,-253.53 1644.57,-259.79"/>
</g>
<!-- Optimized Relative Rotations -->
<g id="node16" class="node">
<title>Optimized Relative Rotations</title>
<path fill="gainsboro" stroke="black" d="M1530.33,-180C1530.33,-180 1328.33,-180 1328.33,-180 1322.33,-180 1316.33,-174 1316.33,-168 1316.33,-168 1316.33,-156 1316.33,-156 1316.33,-150 1322.33,-144 1328.33,-144 1328.33,-144 1530.33,-144 1530.33,-144 1536.33,-144 1542.33,-150 1542.33,-156 1542.33,-156 1542.33,-168 1542.33,-168 1542.33,-174 1536.33,-180 1530.33,-180"/>
<text text-anchor="middle" x="1429.33" y="-158.3" font-family="Times,serif" font-size="14.00">Optimized Relative Rotations</text>
</g>
<!-- Two&#45;View Estimator&#45;&gt;Optimized Relative Rotations -->
<g id="edge18" class="edge">
<title>Two&#45;View Estimator&#45;&gt;Optimized Relative Rotations</title>
<path fill="none" stroke="#bfbfbf" d="M1275.73,-215.97C1304.22,-206.14 1340.22,-193.73 1370.2,-183.39"/>
<polygon fill="#bfbfbf" stroke="#bfbfbf" points="1371.4,-186.68 1379.71,-180.11 1369.11,-180.06 1371.4,-186.68"/>
</g>
<!-- Optimized Translations -->
<g id="node17" class="node">
<title>Optimized Translations</title>
<path fill="gainsboro" stroke="black" d="M872.83,-180C872.83,-180 713.83,-180 713.83,-180 707.83,-180 701.83,-174 701.83,-168 701.83,-168 701.83,-156 701.83,-156 701.83,-150 707.83,-144 713.83,-144 713.83,-144 872.83,-144 872.83,-144 878.83,-144 884.83,-150 884.83,-156 884.83,-156 884.83,-168 884.83,-168 884.83,-174 878.83,-180 872.83,-180"/>
<text text-anchor="middle" x="793.33" y="-158.3" font-family="Times,serif" font-size="14.00">Optimized Translations</text>
</g>
<!-- Two&#45;View Estimator&#45;&gt;Optimized Translations -->
<g id="edge19" class="edge">
<title>Two&#45;View Estimator&#45;&gt;Optimized Translations</title>
<path fill="none" stroke="#bfbfbf" d="M1145.54,-220.39C1080.46,-210.17 986.3,-195.26 894.86,-180.24"/>
<polygon fill="#bfbfbf" stroke="#bfbfbf" points="895.31,-176.77 884.88,-178.6 894.18,-183.68 895.31,-176.77"/>
</g>
<!-- Optimized Correspondences -->
<g id="node18" class="node">
<title>Optimized Correspondences</title>
<path fill="gainsboro" stroke="black" d="M1286.33,-180C1286.33,-180 1092.33,-180 1092.33,-180 1086.33,-180 1080.33,-174 1080.33,-168 1080.33,-168 1080.33,-156 1080.33,-156 1080.33,-150 1086.33,-144 1092.33,-144 1092.33,-144 1286.33,-144 1286.33,-144 1292.33,-144 1298.33,-150 1298.33,-156 1298.33,-156 1298.33,-168 1298.33,-168 1298.33,-174 1292.33,-180 1286.33,-180"/>
<text text-anchor="middle" x="1189.33" y="-158.3" font-family="Times,serif" font-size="14.00">Optimized Correspondences</text>
</g>
<!-- Two&#45;View Estimator&#45;&gt;Optimized Correspondences -->
<g id="edge20" class="edge">
<title>Two&#45;View Estimator&#45;&gt;Optimized Correspondences</title>
<path fill="none" stroke="#bfbfbf" d="M1217.18,-215.7C1212.93,-207.64 1207.77,-197.89 1203.06,-188.98"/>
<polygon fill="#bfbfbf" stroke="#bfbfbf" points="1206.14,-187.31 1198.37,-180.1 1199.95,-190.58 1206.14,-187.31"/>
</g>
<!-- Multi&#45;view Stereo -->
<g id="node19" class="node">
<title>Multi&#45;view Stereo</title>
<path fill="lightskyblue" stroke="black" d="M1956.33,-540C1956.33,-540 1836.33,-540 1836.33,-540 1830.33,-540 1824.33,-534 1824.33,-528 1824.33,-528 1824.33,-516 1824.33,-516 1824.33,-510 1830.33,-504 1836.33,-504 1836.33,-504 1956.33,-504 1956.33,-504 1962.33,-504 1968.33,-510 1968.33,-516 1968.33,-516 1968.33,-528 1968.33,-528 1968.33,-534 1962.33,-540 1956.33,-540"/>
<text text-anchor="middle" x="1896.33" y="-518.3" font-family="Times,serif" font-size="14.00">Multi&#45;view Stereo</text>
</g>
<!-- Dense Points -->
<g id="node22" class="node">
<title>Dense Points</title>
<path fill="gainsboro" stroke="black" d="M1936.33,-468C1936.33,-468 1850.33,-468 1850.33,-468 1844.33,-468 1838.33,-462 1838.33,-456 1838.33,-456 1838.33,-444 1838.33,-444 1838.33,-438 1844.33,-432 1850.33,-432 1850.33,-432 1936.33,-432 1936.33,-432 1942.33,-432 1948.33,-438 1948.33,-444 1948.33,-444 1948.33,-456 1948.33,-456 1948.33,-462 1942.33,-468 1936.33,-468"/>
<text text-anchor="middle" x="1893.33" y="-446.3" font-family="Times,serif" font-size="14.00">Dense Points</text>
</g>
<!-- Multi&#45;view Stereo&#45;&gt;Dense Points -->
<g id="edge23" class="edge">
<title>Multi&#45;view Stereo&#45;&gt;Dense Points</title>
<path fill="none" stroke="#bfbfbf" d="M1895.59,-503.7C1895.26,-495.98 1894.86,-486.71 1894.49,-478.11"/>
<polygon fill="#bfbfbf" stroke="#bfbfbf" points="1897.99,-477.95 1894.06,-468.1 1891,-478.25 1897.99,-477.95"/>
</g>
<!-- Images -->
<g id="node20" class="node">
<title>Images</title>
<path fill="gainsboro" stroke="black" d="M1783.33,-612C1783.33,-612 1739.33,-612 1739.33,-612 1733.33,-612 1727.33,-606 1727.33,-600 1727.33,-600 1727.33,-588 1727.33,-588 1727.33,-582 1733.33,-576 1739.33,-576 1739.33,-576 1783.33,-576 1783.33,-576 1789.33,-576 1795.33,-582 1795.33,-588 1795.33,-588 1795.33,-600 1795.33,-600 1795.33,-606 1789.33,-612 1783.33,-612"/>
<text text-anchor="middle" x="1761.33" y="-590.3" font-family="Times,serif" font-size="14.00">Images</text>
</g>
<!-- Images&#45;&gt;Multi&#45;view Stereo -->
<g id="edge21" class="edge">
<title>Images&#45;&gt;Multi&#45;view Stereo</title>
<path fill="none" stroke="#bfbfbf" d="M1794.36,-575.88C1812.42,-566.51 1834.98,-554.81 1854.28,-544.8"/>
<polygon fill="#bfbfbf" stroke="#bfbfbf" points="1855.91,-547.9 1863.18,-540.19 1852.69,-541.69 1855.91,-547.9"/>
</g>
<!-- DetectorDescriptor -->
<g id="node23" class="node">
<title>DetectorDescriptor</title>
<path fill="lightskyblue" stroke="black" d="M1793.83,-540C1793.83,-540 1662.83,-540 1662.83,-540 1656.83,-540 1650.83,-534 1650.83,-528 1650.83,-528 1650.83,-516 1650.83,-516 1650.83,-510 1656.83,-504 1662.83,-504 1662.83,-504 1793.83,-504 1793.83,-504 1799.83,-504 1805.83,-510 1805.83,-516 1805.83,-516 1805.83,-528 1805.83,-528 1805.83,-534 1799.83,-540 1793.83,-540"/>
<text text-anchor="middle" x="1728.33" y="-518.3" font-family="Times,serif" font-size="14.00">DetectorDescriptor</text>
</g>
<!-- Images&#45;&gt;DetectorDescriptor -->
<g id="edge24" class="edge">
<title>Images&#45;&gt;DetectorDescriptor</title>
<path fill="none" stroke="#bfbfbf" d="M1753.17,-575.7C1749.42,-567.73 1744.88,-558.1 1740.71,-549.26"/>
<polygon fill="#bfbfbf" stroke="#bfbfbf" points="1743.82,-547.66 1736.39,-540.1 1737.49,-550.64 1743.82,-547.66"/>
</g>
<!-- SFM Result -->
<g id="node21" class="node">
<title>SFM Result</title>
<path fill="gainsboro" stroke="black" d="M1934.83,-612C1934.83,-612 1857.83,-612 1857.83,-612 1851.83,-612 1845.83,-606 1845.83,-600 1845.83,-600 1845.83,-588 1845.83,-588 1845.83,-582 1851.83,-576 1857.83,-576 1857.83,-576 1934.83,-576 1934.83,-576 1940.83,-576 1946.83,-582 1946.83,-588 1946.83,-588 1946.83,-600 1946.83,-600 1946.83,-606 1940.83,-612 1934.83,-612"/>
<text text-anchor="middle" x="1896.33" y="-590.3" font-family="Times,serif" font-size="14.00">SFM Result</text>
</g>
<!-- SFM Result&#45;&gt;Multi&#45;view Stereo -->
<g id="edge22" class="edge">
<title>SFM Result&#45;&gt;Multi&#45;view Stereo</title>
<path fill="none" stroke="#bfbfbf" d="M1896.33,-575.7C1896.33,-567.98 1896.33,-558.71 1896.33,-550.11"/>
<polygon fill="#bfbfbf" stroke="#bfbfbf" points="1899.83,-550.1 1896.33,-540.1 1892.83,-550.1 1899.83,-550.1"/>
</g>
<!-- DetectorDescriptor&#45;&gt;Keypoints -->
<g id="edge25" class="edge">
<title>DetectorDescriptor&#45;&gt;Keypoints</title>
<path fill="none" stroke="#bfbfbf" d="M1728.33,-503.7C1728.33,-495.98 1728.33,-486.71 1728.33,-478.11"/>
<polygon fill="#bfbfbf" stroke="#bfbfbf" points="1731.83,-478.1 1728.33,-468.1 1724.83,-478.1 1731.83,-478.1"/>
</g>
<!-- DetectorDescriptor&#45;&gt;Correspondences -->
<g id="edge26" class="edge">
<title>DetectorDescriptor&#45;&gt;Correspondences</title>
<path fill="none" stroke="#bfbfbf" d="M1752.81,-503.77C1763.73,-494.56 1775.45,-482.19 1781.33,-468 1787.45,-453.22 1789.57,-445.72 1781.33,-432 1747.88,-376.32 1680.32,-344.1 1626.19,-326.36"/>
<polygon fill="#bfbfbf" stroke="#bfbfbf" points="1627.18,-323.01 1616.59,-323.32 1625.07,-329.68 1627.18,-323.01"/>
</g>
<!-- Global Rotations -->
<g id="node25" class="node">
<title>Global Rotations</title>
<path fill="gainsboro" stroke="black" d="M671.83,-180C671.83,-180 560.83,-180 560.83,-180 554.83,-180 548.83,-174 548.83,-168 548.83,-168 548.83,-156 548.83,-156 548.83,-150 554.83,-144 560.83,-144 560.83,-144 671.83,-144 671.83,-144 677.83,-144 683.83,-150 683.83,-156 683.83,-156 683.83,-168 683.83,-168 683.83,-174 677.83,-180 671.83,-180"/>
<text text-anchor="middle" x="616.33" y="-158.3" font-family="Times,serif" font-size="14.00">Global Rotations</text>
</g>
<!-- Rotation Averaging&#45;&gt;Global Rotations -->
<g id="edge29" class="edge">
<title>Rotation Averaging&#45;&gt;Global Rotations</title>
<path fill="none" stroke="#bfbfbf" d="M623.11,-215.7C622.11,-207.98 620.92,-198.71 619.82,-190.11"/>
<polygon fill="#bfbfbf" stroke="#bfbfbf" points="623.28,-189.58 618.53,-180.1 616.33,-190.47 623.28,-189.58"/>
</g>
<!-- Global Rotations&#45;&gt;Translation Averaging -->
<g id="edge31" class="edge">
<title>Global Rotations&#45;&gt;Translation Averaging</title>
<path fill="none" stroke="#bfbfbf" d="M616.33,-143.7C616.33,-135.98 616.33,-126.71 616.33,-118.11"/>
<polygon fill="#bfbfbf" stroke="#bfbfbf" points="619.83,-118.1 616.33,-108.1 612.83,-118.1 619.83,-118.1"/>
</g>
<!-- Global Translations -->
<g id="node28" class="node">
<title>Global Translations</title>
<path fill="gainsboro" stroke="black" d="M681.83,-36C681.83,-36 550.83,-36 550.83,-36 544.83,-36 538.83,-30 538.83,-24 538.83,-24 538.83,-12 538.83,-12 538.83,-6 544.83,0 550.83,0 550.83,0 681.83,0 681.83,0 687.83,0 693.83,-6 693.83,-12 693.83,-12 693.83,-24 693.83,-24 693.83,-30 687.83,-36 681.83,-36"/>
<text text-anchor="middle" x="616.33" y="-14.3" font-family="Times,serif" font-size="14.00">Global Translations</text>
</g>
<!-- Translation Averaging&#45;&gt;Global Translations -->
<g id="edge35" class="edge">
<title>Translation Averaging&#45;&gt;Global Translations</title>
<path fill="none" stroke="#bfbfbf" d="M616.33,-71.7C616.33,-63.98 616.33,-54.71 616.33,-46.11"/>
<polygon fill="#bfbfbf" stroke="#bfbfbf" points="619.83,-46.1 616.33,-36.1 612.83,-46.1 619.83,-46.1"/>
</g>
<!-- Ground Truth Poses -->
<g id="node27" class="node">
<title>Ground Truth Poses</title>
<path fill="gainsboro" stroke="black" d="M1049.83,-180C1049.83,-180 914.83,-180 914.83,-180 908.83,-180 902.83,-174 902.83,-168 902.83,-168 902.83,-156 902.83,-156 902.83,-150 908.83,-144 914.83,-144 914.83,-144 1049.83,-144 1049.83,-144 1055.83,-144 1061.83,-150 1061.83,-156 1061.83,-156 1061.83,-168 1061.83,-168 1061.83,-174 1055.83,-180 1049.83,-180"/>
<text text-anchor="middle" x="982.33" y="-158.3" font-family="Times,serif" font-size="14.00">Ground Truth Poses</text>
</g>
<!-- Ground Truth Poses&#45;&gt;Translation Averaging -->
<g id="edge34" class="edge">
<title>Ground Truth Poses&#45;&gt;Translation Averaging</title>
<path fill="none" stroke="#bfbfbf" d="M902.46,-145.72C846.89,-135.1 772.47,-120.86 713.46,-109.58"/>
<polygon fill="#bfbfbf" stroke="#bfbfbf" points="713.86,-106.09 703.38,-107.65 712.55,-112.97 713.86,-106.09"/>
</g>
<!-- 2D Tracks -->
<g id="node31" class="node">
<title>2D Tracks</title>
<path fill="gainsboro" stroke="black" d="M2017.83,-324C2017.83,-324 1952.83,-324 1952.83,-324 1946.83,-324 1940.83,-318 1940.83,-312 1940.83,-312 1940.83,-300 1940.83,-300 1940.83,-294 1946.83,-288 1952.83,-288 1952.83,-288 2017.83,-288 2017.83,-288 2023.83,-288 2029.83,-294 2029.83,-300 2029.83,-300 2029.83,-312 2029.83,-312 2029.83,-318 2023.83,-324 2017.83,-324"/>
<text text-anchor="middle" x="1985.33" y="-302.3" font-family="Times,serif" font-size="14.00">2D Tracks</text>
</g>
<!-- Tracks Estimator&#45;&gt;2D Tracks -->
<g id="edge38" class="edge">
<title>Tracks Estimator&#45;&gt;2D Tracks</title>
<path fill="none" stroke="#bfbfbf" d="M1985.33,-359.7C1985.33,-351.98 1985.33,-342.71 1985.33,-334.11"/>
<polygon fill="#bfbfbf" stroke="#bfbfbf" points="1988.83,-334.1 1985.33,-324.1 1981.83,-334.1 1988.83,-334.1"/>
</g>
<!-- Pairwise Feature Matches -->
<g id="node30" class="node">
<title>Pairwise Feature Matches</title>
<path fill="gainsboro" stroke="black" d="M2157.83,-468C2157.83,-468 1978.83,-468 1978.83,-468 1972.83,-468 1966.83,-462 1966.83,-456 1966.83,-456 1966.83,-444 1966.83,-444 1966.83,-438 1972.83,-432 1978.83,-432 1978.83,-432 2157.83,-432 2157.83,-432 2163.83,-432 2169.83,-438 2169.83,-444 2169.83,-444 2169.83,-456 2169.83,-456 2169.83,-462 2163.83,-468 2157.83,-468"/>
<text text-anchor="middle" x="2068.33" y="-446.3" font-family="Times,serif" font-size="14.00">Pairwise Feature Matches</text>
</g>
<!-- Pairwise Feature Matches&#45;&gt;Tracks Estimator -->
<g id="edge37" class="edge">
<title>Pairwise Feature Matches&#45;&gt;Tracks Estimator</title>
<path fill="none" stroke="#bfbfbf" d="M2047.81,-431.7C2037.46,-422.97 2024.74,-412.24 2013.49,-402.75"/>
<polygon fill="#bfbfbf" stroke="#bfbfbf" points="2015.51,-399.88 2005.61,-396.1 2011,-405.23 2015.51,-399.88"/>
</g>
<!-- View&#45;Graph Edges -->
<g id="node34" class="node">
<title>View&#45;Graph Edges</title>
<path fill="gainsboro" stroke="black" d="M1748.83,-180C1748.83,-180 1623.83,-180 1623.83,-180 1617.83,-180 1611.83,-174 1611.83,-168 1611.83,-168 1611.83,-156 1611.83,-156 1611.83,-150 1617.83,-144 1623.83,-144 1623.83,-144 1748.83,-144 1748.83,-144 1754.83,-144 1760.83,-150 1760.83,-156 1760.83,-156 1760.83,-168 1760.83,-168 1760.83,-174 1754.83,-180 1748.83,-180"/>
<text text-anchor="middle" x="1686.33" y="-158.3" font-family="Times,serif" font-size="14.00">View&#45;Graph Edges</text>
</g>
<!-- View&#45;Graph Estimator&#45;&gt;View&#45;Graph Edges -->
<g id="edge44" class="edge">
<title>View&#45;Graph Estimator&#45;&gt;View&#45;Graph Edges</title>
<path fill="none" stroke="#bfbfbf" d="M1686.33,-215.7C1686.33,-207.98 1686.33,-198.71 1686.33,-190.11"/>
<polygon fill="#bfbfbf" stroke="#bfbfbf" points="1689.83,-190.1 1686.33,-180.1 1682.83,-190.1 1689.83,-190.1"/>
</g>
<!-- Calibrations -->
<g id="node33" class="node">
<title>Calibrations</title>
<path fill="gainsboro" stroke="black" d="M1726.33,-324C1726.33,-324 1646.33,-324 1646.33,-324 1640.33,-324 1634.33,-318 1634.33,-312 1634.33,-312 1634.33,-300 1634.33,-300 1634.33,-294 1640.33,-288 1646.33,-288 1646.33,-288 1726.33,-288 1726.33,-288 1732.33,-288 1738.33,-294 1738.33,-300 1738.33,-300 1738.33,-312 1738.33,-312 1738.33,-318 1732.33,-324 1726.33,-324"/>
<text text-anchor="middle" x="1686.33" y="-302.3" font-family="Times,serif" font-size="14.00">Calibrations</text>
</g>
<!-- Calibrations&#45;&gt;View&#45;Graph Estimator -->
<g id="edge41" class="edge">
<title>Calibrations&#45;&gt;View&#45;Graph Estimator</title>
<path fill="none" stroke="#bfbfbf" d="M1686.33,-287.7C1686.33,-279.98 1686.33,-270.71 1686.33,-262.11"/>
<polygon fill="#bfbfbf" stroke="#bfbfbf" points="1689.83,-262.1 1686.33,-252.1 1682.83,-262.1 1689.83,-262.1"/>
</g>
<!-- Image Retriever -->
<g id="node35" class="node">
<title>Image Retriever</title>
<path fill="lightskyblue" stroke="black" d="M1815.83,-684C1815.83,-684 1706.83,-684 1706.83,-684 1700.83,-684 1694.83,-678 1694.83,-672 1694.83,-672 1694.83,-660 1694.83,-660 1694.83,-654 1700.83,-648 1706.83,-648 1706.83,-648 1815.83,-648 1815.83,-648 1821.83,-648 1827.83,-654 1827.83,-660 1827.83,-660 1827.83,-672 1827.83,-672 1827.83,-678 1821.83,-684 1815.83,-684"/>
<text text-anchor="middle" x="1761.33" y="-662.3" font-family="Times,serif" font-size="14.00">Image Retriever</text>
</g>
<!-- Image Retriever&#45;&gt;Images -->
<g id="edge46" class="edge">
<title>Image Retriever&#45;&gt;Images</title>
<path fill="none" stroke="#bfbfbf" d="M1761.33,-647.7C1761.33,-639.98 1761.33,-630.71 1761.33,-622.11"/>
<polygon fill="#bfbfbf" stroke="#bfbfbf" points="1764.83,-622.1 1761.33,-612.1 1757.83,-622.1 1764.83,-622.1"/>
</g>
<!-- Image Loader -->
<g id="node36" class="node">
<title>Image Loader</title>
<path fill="gainsboro" stroke="black" d="M1806.83,-756C1806.83,-756 1715.83,-756 1715.83,-756 1709.83,-756 1703.83,-750 1703.83,-744 1703.83,-744 1703.83,-732 1703.83,-732 1703.83,-726 1709.83,-720 1715.83,-720 1715.83,-720 1806.83,-720 1806.83,-720 1812.83,-720 1818.83,-726 1818.83,-732 1818.83,-732 1818.83,-744 1818.83,-744 1818.83,-750 1812.83,-756 1806.83,-756"/>
<text text-anchor="middle" x="1761.33" y="-734.3" font-family="Times,serif" font-size="14.00">Image Loader</text>
</g>
<!-- Image Loader&#45;&gt;Image Retriever -->
<g id="edge45" class="edge">
<title>Image Loader&#45;&gt;Image Retriever</title>
<path fill="none" stroke="#bfbfbf" d="M1761.33,-719.7C1761.33,-711.98 1761.33,-702.71 1761.33,-694.11"/>
<polygon fill="#bfbfbf" stroke="#bfbfbf" points="1764.83,-694.1 1761.33,-684.1 1757.83,-694.1 1764.83,-694.1"/>
</g>
</g>
</svg>
