<?xml version="1.0" encoding="UTF-8" standalone="no"?>
<!DOCTYPE svg PUBLIC "-//W3C//DTD SVG 1.1//EN"
 "http://www.w3.org/Graphics/SVG/1.1/DTD/svg11.dtd">
<!-- Generated by graphviz version 5.0.0 (0)
 -->
<!-- Title: my_graph Pages: 1 -->
<svg width="1073pt" height="766pt"
 viewBox="0.00 0.00 1072.50 766.00" xmlns="http://www.w3.org/2000/svg" xmlns:xlink="http://www.w3.org/1999/xlink">
<g id="graph0" class="graph" transform="scale(1 1) rotate(0) translate(4 762)">
<title>my_graph</title>
<polygon fill="white" stroke="transparent" points="-4,4 -4,-762 1068.5,-762 1068.5,4 -4,4"/>
<!-- Data Loader -->
<g id="node1" class="node">
<title>Data Loader</title>
<path fill="lightskyblue" stroke="black" d="M576,-686C576,-686 516,-686 516,-686 510,-686 504,-680 504,-674 504,-674 504,-662 504,-662 504,-656 510,-650 516,-650 516,-650 576,-650 576,-650 582,-650 588,-656 588,-662 588,-662 588,-674 588,-674 588,-680 582,-686 576,-686"/>
<text text-anchor="middle" x="546" y="-664.3" font-family="Times,serif" font-size="14.00">Data Loader</text>
</g>
<!-- Images -->
<g id="node4" class="node">
<title>Images</title>
<path fill="gainsboro" stroke="black" d="M590,-614C590,-614 558,-614 558,-614 552,-614 546,-608 546,-602 546,-602 546,-590 546,-590 546,-584 552,-578 558,-578 558,-578 590,-578 590,-578 596,-578 602,-584 602,-590 602,-590 602,-602 602,-602 602,-608 596,-614 590,-614"/>
<text text-anchor="middle" x="574" y="-592.3" font-family="Times,serif" font-size="14.00">Images</text>
</g>
<!-- Data Loader&#45;&gt;Images -->
<g id="edge3" class="edge">
<title>Data Loader&#45;&gt;Images</title>
<path fill="none" stroke="#bfbfbf" d="M552.92,-649.7C556.07,-641.81 559.88,-632.3 563.38,-623.55"/>
<polygon fill="#bfbfbf" stroke="#bfbfbf" points="566.69,-624.69 567.16,-614.1 560.19,-622.09 566.69,-624.69"/>
</g>
<!-- Intrinsics -->
<g id="node5" class="node">
<title>Intrinsics</title>
<path fill="gainsboro" stroke="black" d="M477.5,-614C477.5,-614 434.5,-614 434.5,-614 428.5,-614 422.5,-608 422.5,-602 422.5,-602 422.5,-590 422.5,-590 422.5,-584 428.5,-578 434.5,-578 434.5,-578 477.5,-578 477.5,-578 483.5,-578 489.5,-584 489.5,-590 489.5,-590 489.5,-602 489.5,-602 489.5,-608 483.5,-614 477.5,-614"/>
<text text-anchor="middle" x="456" y="-592.3" font-family="Times,serif" font-size="14.00">Intrinsics</text>
</g>
<!-- Data Loader&#45;&gt;Intrinsics -->
<g id="edge4" class="edge">
<title>Data Loader&#45;&gt;Intrinsics</title>
<path fill="none" stroke="#bfbfbf" d="M523.75,-649.7C512.42,-640.88 498.47,-630.03 486.18,-620.47"/>
<polygon fill="#bfbfbf" stroke="#bfbfbf" points="488.03,-617.48 477.99,-614.1 483.74,-623.01 488.03,-617.48"/>
</g>
<!-- Image i -->
<g id="node6" class="node">
<title>Image i</title>
<path fill="gainsboro" stroke="black" d="M535.5,-396C535.5,-396 500.5,-396 500.5,-396 494.5,-396 488.5,-390 488.5,-384 488.5,-384 488.5,-372 488.5,-372 488.5,-366 494.5,-360 500.5,-360 500.5,-360 535.5,-360 535.5,-360 541.5,-360 547.5,-366 547.5,-372 547.5,-372 547.5,-384 547.5,-384 547.5,-390 541.5,-396 535.5,-396"/>
<text text-anchor="middle" x="518" y="-374.3" font-family="Times,serif" font-size="14.00">Image i</text>
</g>
<!-- Data Loader&#45;&gt;Image i -->
<g id="edge5" class="edge">
<title>Data Loader&#45;&gt;Image i</title>
<path fill="none" stroke="#bfbfbf" d="M542.7,-649.87C540.8,-639.52 538.51,-626.04 537,-614 527.63,-539.12 521.9,-450.2 519.43,-406.31"/>
<polygon fill="#bfbfbf" stroke="#bfbfbf" points="522.92,-405.95 518.87,-396.15 515.93,-406.33 522.92,-405.95"/>
</g>
<!-- Image Pair Indices -->
<g id="node7" class="node">
<title>Image Pair Indices</title>
<path fill="gainsboro" stroke="black" d="M783.5,-541C783.5,-541 688.5,-541 688.5,-541 682.5,-541 676.5,-535 676.5,-529 676.5,-529 676.5,-517 676.5,-517 676.5,-511 682.5,-505 688.5,-505 688.5,-505 783.5,-505 783.5,-505 789.5,-505 795.5,-511 795.5,-517 795.5,-517 795.5,-529 795.5,-529 795.5,-535 789.5,-541 783.5,-541"/>
<text text-anchor="middle" x="736" y="-519.3" font-family="Times,serif" font-size="14.00">Image Pair Indices</text>
</g>
<!-- Data Loader&#45;&gt;Image Pair Indices -->
<g id="edge6" class="edge">
<title>Data Loader&#45;&gt;Image Pair Indices</title>
<path fill="none" stroke="#bfbfbf" d="M588.14,-663.83C624.56,-658.88 676.22,-646.25 708,-614 724.45,-597.3 731.26,-571.11 734.07,-551.28"/>
<polygon fill="#bfbfbf" stroke="#bfbfbf" points="737.55,-551.63 735.22,-541.29 730.59,-550.82 737.55,-551.63"/>
</g>
<!-- DigiCamDB -->
<g id="node2" class="node">
<title>DigiCamDB</title>
<path fill="gainsboro" stroke="black" d="M521,-758C521,-758 459,-758 459,-758 453,-758 447,-752 447,-746 447,-746 447,-734 447,-734 447,-728 453,-722 459,-722 459,-722 521,-722 521,-722 527,-722 533,-728 533,-734 533,-734 533,-746 533,-746 533,-752 527,-758 521,-758"/>
<text text-anchor="middle" x="490" y="-736.3" font-family="Times,serif" font-size="14.00">DigiCamDB</text>
</g>
<!-- DigiCamDB&#45;&gt;Data Loader -->
<g id="edge1" class="edge">
<title>DigiCamDB&#45;&gt;Data Loader</title>
<path fill="none" stroke="#bfbfbf" d="M503.84,-721.7C510.49,-713.39 518.58,-703.28 525.89,-694.14"/>
<polygon fill="#bfbfbf" stroke="#bfbfbf" points="528.8,-696.1 532.32,-686.1 523.34,-691.73 528.8,-696.1"/>
</g>
<!-- Scene Directory -->
<g id="node3" class="node">
<title>Scene Directory</title>
<path fill="gainsboro" stroke="black" d="M643,-758C643,-758 563,-758 563,-758 557,-758 551,-752 551,-746 551,-746 551,-734 551,-734 551,-728 557,-722 563,-722 563,-722 643,-722 643,-722 649,-722 655,-728 655,-734 655,-734 655,-746 655,-746 655,-752 649,-758 643,-758"/>
<text text-anchor="middle" x="603" y="-736.3" font-family="Times,serif" font-size="14.00">Scene Directory</text>
</g>
<!-- Scene Directory&#45;&gt;Data Loader -->
<g id="edge2" class="edge">
<title>Scene Directory&#45;&gt;Data Loader</title>
<path fill="none" stroke="#bfbfbf" d="M588.91,-721.7C582.08,-713.3 573.74,-703.07 566.24,-693.86"/>
<polygon fill="#bfbfbf" stroke="#bfbfbf" points="568.96,-691.65 559.93,-686.1 563.53,-696.07 568.96,-691.65"/>
</g>
<!-- Multiview Stereo\nPatchmatch Net -->
<g id="node28" class="node">
<title>Multiview Stereo\nPatchmatch Net</title>
<path fill="lightskyblue" stroke="black" d="M646,-542C646,-542 558,-542 558,-542 552,-542 546,-536 546,-530 546,-530 546,-516 546,-516 546,-510 552,-504 558,-504 558,-504 646,-504 646,-504 652,-504 658,-510 658,-516 658,-516 658,-530 658,-530 658,-536 652,-542 646,-542"/>
<text text-anchor="middle" x="602" y="-526.8" font-family="Times,serif" font-size="14.00">Multiview Stereo</text>
<text text-anchor="middle" x="602" y="-511.8" font-family="Times,serif" font-size="14.00">Patchmatch Net</text>
</g>
<!-- Images&#45;&gt;Multiview Stereo\nPatchmatch Net -->
<g id="edge37" class="edge">
<title>Images&#45;&gt;Multiview Stereo\nPatchmatch Net</title>
<path fill="none" stroke="#bfbfbf" d="M580.78,-577.81C583.88,-569.94 587.64,-560.41 591.12,-551.58"/>
<polygon fill="#bfbfbf" stroke="#bfbfbf" points="594.48,-552.61 594.89,-542.02 587.97,-550.04 594.48,-552.61"/>
</g>
<!-- Verifier -->
<g id="node11" class="node">
<title>Verifier</title>
<path fill="lightskyblue" stroke="black" d="M398,-541C398,-541 364,-541 364,-541 358,-541 352,-535 352,-529 352,-529 352,-517 352,-517 352,-511 358,-505 364,-505 364,-505 398,-505 398,-505 404,-505 410,-511 410,-517 410,-517 410,-529 410,-529 410,-535 404,-541 398,-541"/>
<text text-anchor="middle" x="381" y="-519.3" font-family="Times,serif" font-size="14.00">Verifier</text>
</g>
<!-- Intrinsics&#45;&gt;Verifier -->
<g id="edge12" class="edge">
<title>Intrinsics&#45;&gt;Verifier</title>
<path fill="none" stroke="#bfbfbf" d="M437.84,-577.81C428.45,-568.92 416.82,-557.91 406.53,-548.17"/>
<polygon fill="#bfbfbf" stroke="#bfbfbf" points="408.66,-545.36 398.99,-541.03 403.84,-550.45 408.66,-545.36"/>
</g>
<!-- View Graph Estimator -->
<g id="node19" class="node">
<title>View Graph Estimator</title>
<path fill="lightskyblue" stroke="black" d="M402,-396C402,-396 286,-396 286,-396 280,-396 274,-390 274,-384 274,-384 274,-372 274,-372 274,-366 280,-360 286,-360 286,-360 402,-360 402,-360 408,-360 414,-366 414,-372 414,-372 414,-384 414,-384 414,-390 408,-396 402,-396"/>
<text text-anchor="middle" x="344" y="-374.3" font-family="Times,serif" font-size="14.00">View Graph Estimator</text>
</g>
<!-- Intrinsics&#45;&gt;View Graph Estimator -->
<g id="edge26" class="edge">
<title>Intrinsics&#45;&gt;View Graph Estimator</title>
<path fill="none" stroke="#bfbfbf" d="M456.48,-577.93C456.54,-546.39 452.79,-478.01 422,-432 413.87,-419.85 401.91,-409.72 389.8,-401.69"/>
<polygon fill="#bfbfbf" stroke="#bfbfbf" points="391.33,-398.53 381,-396.21 387.64,-404.47 391.33,-398.53"/>
</g>
<!-- Keypoints Detector Descriptor -->
<g id="node15" class="node">
<title>Keypoints Detector Descriptor</title>
<path fill="lightskyblue" stroke="black" d="M565.5,-252C565.5,-252 406.5,-252 406.5,-252 400.5,-252 394.5,-246 394.5,-240 394.5,-240 394.5,-228 394.5,-228 394.5,-222 400.5,-216 406.5,-216 406.5,-216 565.5,-216 565.5,-216 571.5,-216 577.5,-222 577.5,-228 577.5,-228 577.5,-240 577.5,-240 577.5,-246 571.5,-252 565.5,-252"/>
<text text-anchor="middle" x="486" y="-230.3" font-family="Times,serif" font-size="14.00">Keypoints Detector Descriptor</text>
</g>
<!-- Image i&#45;&gt;Keypoints Detector Descriptor -->
<g id="edge15" class="edge">
<title>Image i&#45;&gt;Keypoints Detector Descriptor</title>
<path fill="none" stroke="#bfbfbf" d="M514.51,-359.9C510.81,-341.96 504.72,-312.95 499,-288 497.06,-279.56 494.85,-270.39 492.81,-262.09"/>
<polygon fill="#bfbfbf" stroke="#bfbfbf" points="496.15,-261.02 490.35,-252.15 489.36,-262.7 496.15,-261.02"/>
</g>
<!-- Matcher -->
<g id="node8" class="node">
<title>Matcher</title>
<path fill="lightskyblue" stroke="black" d="M505,-108C505,-108 467,-108 467,-108 461,-108 455,-102 455,-96 455,-96 455,-84 455,-84 455,-78 461,-72 467,-72 467,-72 505,-72 505,-72 511,-72 517,-78 517,-84 517,-84 517,-96 517,-96 517,-102 511,-108 505,-108"/>
<text text-anchor="middle" x="486" y="-86.3" font-family="Times,serif" font-size="14.00">Matcher</text>
</g>
<!-- Image Pair Indices&#45;&gt;Matcher -->
<g id="edge8" class="edge">
<title>Image Pair Indices&#45;&gt;Matcher</title>
<path fill="none" stroke="#bfbfbf" d="M731.85,-504.95C725.73,-478.26 715,-424.92 715,-379 715,-379 715,-379 715,-233 715,-145.75 593.43,-110.26 527.45,-97.42"/>
<polygon fill="#bfbfbf" stroke="#bfbfbf" points="527.83,-93.93 517.36,-95.55 526.56,-100.81 527.83,-93.93"/>
</g>
<!-- Putative Correspondence Indices -->
<g id="node10" class="node">
<title>Putative Correspondence Indices</title>
<path fill="gainsboro" stroke="black" d="M312.5,-36C312.5,-36 141.5,-36 141.5,-36 135.5,-36 129.5,-30 129.5,-24 129.5,-24 129.5,-12 129.5,-12 129.5,-6 135.5,0 141.5,0 141.5,0 312.5,0 312.5,0 318.5,0 324.5,-6 324.5,-12 324.5,-12 324.5,-24 324.5,-24 324.5,-30 318.5,-36 312.5,-36"/>
<text text-anchor="middle" x="227" y="-14.3" font-family="Times,serif" font-size="14.00">Putative Correspondence Indices</text>
</g>
<!-- Matcher&#45;&gt;Putative Correspondence Indices -->
<g id="edge9" class="edge">
<title>Matcher&#45;&gt;Putative Correspondence Indices</title>
<path fill="none" stroke="#bfbfbf" d="M454.76,-80.56C416.59,-70.24 350.78,-52.45 299.69,-38.65"/>
<polygon fill="#bfbfbf" stroke="#bfbfbf" points="300.58,-35.26 290.01,-36.03 298.75,-42.02 300.58,-35.26"/>
</g>
<!-- Descriptors -->
<g id="node9" class="node">
<title>Descriptors</title>
<path fill="gainsboro" stroke="black" d="M513.5,-180C513.5,-180 458.5,-180 458.5,-180 452.5,-180 446.5,-174 446.5,-168 446.5,-168 446.5,-156 446.5,-156 446.5,-150 452.5,-144 458.5,-144 458.5,-144 513.5,-144 513.5,-144 519.5,-144 525.5,-150 525.5,-156 525.5,-156 525.5,-168 525.5,-168 525.5,-174 519.5,-180 513.5,-180"/>
<text text-anchor="middle" x="486" y="-158.3" font-family="Times,serif" font-size="14.00">Descriptors</text>
</g>
<!-- Descriptors&#45;&gt;Matcher -->
<g id="edge7" class="edge">
<title>Descriptors&#45;&gt;Matcher</title>
<path fill="none" stroke="#bfbfbf" d="M486,-143.7C486,-135.98 486,-126.71 486,-118.11"/>
<polygon fill="#bfbfbf" stroke="#bfbfbf" points="489.5,-118.1 486,-108.1 482.5,-118.1 489.5,-118.1"/>
</g>
<!-- Putative Correspondence Indices&#45;&gt;Verifier -->
<g id="edge10" class="edge">
<title>Putative Correspondence Indices&#45;&gt;Verifier</title>
<path fill="none" stroke="#bfbfbf" d="M142.47,-36.01C77.93,-54.5 0,-91.27 0,-161 0,-379 0,-379 0,-379 0,-447.92 63.8,-440.5 127,-468 198.94,-499.3 290.43,-513 341.66,-518.56"/>
<polygon fill="#bfbfbf" stroke="#bfbfbf" points="341.35,-522.05 351.66,-519.6 342.07,-515.09 341.35,-522.05"/>
</g>
<!-- E matrix -->
<g id="node13" class="node">
<title>E matrix</title>
<path fill="gainsboro" stroke="black" d="M401.5,-468C401.5,-468 360.5,-468 360.5,-468 354.5,-468 348.5,-462 348.5,-456 348.5,-456 348.5,-444 348.5,-444 348.5,-438 354.5,-432 360.5,-432 360.5,-432 401.5,-432 401.5,-432 407.5,-432 413.5,-438 413.5,-444 413.5,-444 413.5,-456 413.5,-456 413.5,-462 407.5,-468 401.5,-468"/>
<text text-anchor="middle" x="381" y="-446.3" font-family="Times,serif" font-size="14.00">E matrix</text>
</g>
<!-- Verifier&#45;&gt;E matrix -->
<g id="edge13" class="edge">
<title>Verifier&#45;&gt;E matrix</title>
<path fill="none" stroke="#bfbfbf" d="M381,-504.81C381,-496.79 381,-487.05 381,-478.07"/>
<polygon fill="#bfbfbf" stroke="#bfbfbf" points="384.5,-478.03 381,-468.03 377.5,-478.03 384.5,-478.03"/>
</g>
<!-- Verified Correspondence Indices -->
<g id="node14" class="node">
<title>Verified Correspondence Indices</title>
<path fill="gainsboro" stroke="black" d="M318,-468C318,-468 148,-468 148,-468 142,-468 136,-462 136,-456 136,-456 136,-444 136,-444 136,-438 142,-432 148,-432 148,-432 318,-432 318,-432 324,-432 330,-438 330,-444 330,-444 330,-456 330,-456 330,-462 324,-468 318,-468"/>
<text text-anchor="middle" x="233" y="-446.3" font-family="Times,serif" font-size="14.00">Verified Correspondence Indices</text>
</g>
<!-- Verifier&#45;&gt;Verified Correspondence Indices -->
<g id="edge14" class="edge">
<title>Verifier&#45;&gt;Verified Correspondence Indices</title>
<path fill="none" stroke="#bfbfbf" d="M351.76,-507.97C330.64,-497.84 301.73,-483.97 277.72,-472.45"/>
<polygon fill="#bfbfbf" stroke="#bfbfbf" points="278.97,-469.17 268.44,-468 275.95,-475.48 278.97,-469.17"/>
</g>
<!-- Keypoints -->
<g id="node12" class="node">
<title>Keypoints</title>
<path fill="gainsboro" stroke="black" d="M478,-324C478,-324 430,-324 430,-324 424,-324 418,-318 418,-312 418,-312 418,-300 418,-300 418,-294 424,-288 430,-288 430,-288 478,-288 478,-288 484,-288 490,-294 490,-300 490,-300 490,-312 490,-312 490,-318 484,-324 478,-324"/>
<text text-anchor="middle" x="454" y="-302.3" font-family="Times,serif" font-size="14.00">Keypoints</text>
</g>
<!-- Keypoints&#45;&gt;Verifier -->
<g id="edge11" class="edge">
<title>Keypoints&#45;&gt;Verifier</title>
<path fill="none" stroke="#bfbfbf" d="M453.11,-324.22C451.01,-354.53 444.1,-418.88 422,-468 417.39,-478.25 410.51,-488.37 403.7,-497.02"/>
<polygon fill="#bfbfbf" stroke="#bfbfbf" points="400.93,-494.89 397.27,-504.83 406.33,-499.34 400.93,-494.89"/>
</g>
<!-- Keypoints&#45;&gt;Keypoints Detector Descriptor -->
<g id="edge16" class="edge">
<title>Keypoints&#45;&gt;Keypoints Detector Descriptor</title>
<path fill="none" stroke="#bfbfbf" d="M461.91,-287.7C465.55,-279.73 469.95,-270.1 473.99,-261.26"/>
<polygon fill="#bfbfbf" stroke="#bfbfbf" points="477.21,-262.65 478.18,-252.1 470.84,-259.74 477.21,-262.65"/>
</g>
<!-- Data Association -->
<g id="node16" class="node">
<title>Data Association</title>
<path fill="lightskyblue" stroke="black" d="M238.5,-252C238.5,-252 153.5,-252 153.5,-252 147.5,-252 141.5,-246 141.5,-240 141.5,-240 141.5,-228 141.5,-228 141.5,-222 147.5,-216 153.5,-216 153.5,-216 238.5,-216 238.5,-216 244.5,-216 250.5,-222 250.5,-228 250.5,-228 250.5,-240 250.5,-240 250.5,-246 244.5,-252 238.5,-252"/>
<text text-anchor="middle" x="196" y="-230.3" font-family="Times,serif" font-size="14.00">Data Association</text>
</g>
<!-- Keypoints&#45;&gt;Data Association -->
<g id="edge18" class="edge">
<title>Keypoints&#45;&gt;Data Association</title>
<path fill="none" stroke="#bfbfbf" d="M417.78,-290.9C414.82,-289.88 411.87,-288.9 409,-288 359.83,-272.65 303.21,-258.74 260.71,-249.02"/>
<polygon fill="#bfbfbf" stroke="#bfbfbf" points="261.29,-245.56 250.77,-246.77 259.74,-252.39 261.29,-245.56"/>
</g>
<!-- Keypoints&#45;&gt;View Graph Estimator -->
<g id="edge25" class="edge">
<title>Keypoints&#45;&gt;View Graph Estimator</title>
<path fill="none" stroke="#bfbfbf" d="M432.89,-324.19C419.45,-333.35 401.7,-344.74 385.57,-354.59"/>
<polygon fill="#bfbfbf" stroke="#bfbfbf" points="383.56,-351.71 376.81,-359.88 387.18,-357.7 383.56,-351.71"/>
</g>
<!-- Verified Correspondence Indices&#45;&gt;Data Association -->
<g id="edge20" class="edge">
<title>Verified Correspondence Indices&#45;&gt;Data Association</title>
<path fill="none" stroke="#bfbfbf" d="M230.03,-431.85C223.62,-394.75 208.42,-306.81 200.69,-262.1"/>
<polygon fill="#bfbfbf" stroke="#bfbfbf" points="204.13,-261.49 198.98,-252.23 197.23,-262.68 204.13,-261.49"/>
</g>
<!-- Verified Correspondence Indices&#45;&gt;View Graph Estimator -->
<g id="edge24" class="edge">
<title>Verified Correspondence Indices&#45;&gt;View Graph Estimator</title>
<path fill="none" stroke="#bfbfbf" d="M254.26,-431.88C267.81,-422.72 285.71,-411.34 301.99,-401.48"/>
<polygon fill="#bfbfbf" stroke="#bfbfbf" points="304.06,-404.33 310.84,-396.19 300.46,-398.32 304.06,-404.33"/>
</g>
<!-- Keypoints Detector Descriptor&#45;&gt;Descriptors -->
<g id="edge17" class="edge">
<title>Keypoints Detector Descriptor&#45;&gt;Descriptors</title>
<path fill="none" stroke="#bfbfbf" d="M486,-215.7C486,-207.98 486,-198.71 486,-190.11"/>
<polygon fill="#bfbfbf" stroke="#bfbfbf" points="489.5,-190.1 486,-180.1 482.5,-190.1 489.5,-190.1"/>
</g>
<!-- GtsfmData -->
<g id="node18" class="node">
<title>GtsfmData</title>
<path fill="gainsboro" stroke="black" d="M222.5,-180C222.5,-180 169.5,-180 169.5,-180 163.5,-180 157.5,-174 157.5,-168 157.5,-168 157.5,-156 157.5,-156 157.5,-150 163.5,-144 169.5,-144 169.5,-144 222.5,-144 222.5,-144 228.5,-144 234.5,-150 234.5,-156 234.5,-156 234.5,-168 234.5,-168 234.5,-174 228.5,-180 222.5,-180"/>
<text text-anchor="middle" x="196" y="-158.3" font-family="Times,serif" font-size="14.00">GtsfmData</text>
</g>
<!-- Data Association&#45;&gt;GtsfmData -->
<g id="edge21" class="edge">
<title>Data Association&#45;&gt;GtsfmData</title>
<path fill="none" stroke="#bfbfbf" d="M196,-215.7C196,-207.98 196,-198.71 196,-190.11"/>
<polygon fill="#bfbfbf" stroke="#bfbfbf" points="199.5,-190.1 196,-180.1 192.5,-190.1 199.5,-190.1"/>
</g>
<!-- Bundler Pinhole Cams -->
<g id="node17" class="node">
<title>Bundler Pinhole Cams</title>
<path fill="gainsboro" stroke="black" d="M156,-324C156,-324 40,-324 40,-324 34,-324 28,-318 28,-312 28,-312 28,-300 28,-300 28,-294 34,-288 40,-288 40,-288 156,-288 156,-288 162,-288 168,-294 168,-300 168,-300 168,-312 168,-312 168,-318 162,-324 156,-324"/>
<text text-anchor="middle" x="98" y="-302.3" font-family="Times,serif" font-size="14.00">Bundler Pinhole Cams</text>
</g>
<!-- Bundler Pinhole Cams&#45;&gt;Data Association -->
<g id="edge19" class="edge">
<title>Bundler Pinhole Cams&#45;&gt;Data Association</title>
<path fill="none" stroke="#bfbfbf" d="M121.97,-287.88C134.55,-278.89 150.13,-267.76 163.75,-258.03"/>
<polygon fill="#bfbfbf" stroke="#bfbfbf" points="165.83,-260.85 171.93,-252.19 161.76,-255.15 165.83,-260.85"/>
</g>
<!-- View Graph Estimator&#45;&gt;Keypoints -->
<g id="edge30" class="edge">
<title>View Graph Estimator&#45;&gt;Keypoints</title>
<path fill="none" stroke="#bfbfbf" d="M365.01,-359.88C378.44,-350.72 396.17,-339.34 412.32,-329.48"/>
<polygon fill="#bfbfbf" stroke="#bfbfbf" points="414.33,-332.36 421.08,-324.19 410.71,-326.36 414.33,-332.36"/>
</g>
<!-- View Graph Estimator&#45;&gt;Verified Correspondence Indices -->
<g id="edge29" class="edge">
<title>View Graph Estimator&#45;&gt;Verified Correspondence Indices</title>
<path fill="none" stroke="#bfbfbf" d="M322.65,-396.19C309.07,-405.35 291.17,-416.74 274.89,-426.59"/>
<polygon fill="#bfbfbf" stroke="#bfbfbf" points="272.83,-423.74 266.05,-431.88 276.43,-429.74 272.83,-423.74"/>
</g>
<!-- Relative Rs -->
<g id="node20" class="node">
<title>Relative Rs</title>
<path fill="gainsboro" stroke="black" d="M388,-324C388,-324 332,-324 332,-324 326,-324 320,-318 320,-312 320,-312 320,-300 320,-300 320,-294 326,-288 332,-288 332,-288 388,-288 388,-288 394,-288 400,-294 400,-300 400,-300 400,-312 400,-312 400,-318 394,-324 388,-324"/>
<text text-anchor="middle" x="360" y="-302.3" font-family="Times,serif" font-size="14.00">Relative Rs</text>
</g>
<!-- View Graph Estimator&#45;&gt;Relative Rs -->
<g id="edge27" class="edge">
<title>View Graph Estimator&#45;&gt;Relative Rs</title>
<path fill="none" stroke="#bfbfbf" d="M342.04,-359.7C343.02,-351.9 344.94,-342.51 347.28,-333.83"/>
<polygon fill="#bfbfbf" stroke="#bfbfbf" points="350.68,-334.69 350.2,-324.1 343.97,-332.68 350.68,-334.69"/>
</g>
<!-- Relative Ts -->
<g id="node21" class="node">
<title>Relative Ts</title>
<path fill="gainsboro" stroke="black" d="M289.5,-324C289.5,-324 236.5,-324 236.5,-324 230.5,-324 224.5,-318 224.5,-312 224.5,-312 224.5,-300 224.5,-300 224.5,-294 230.5,-288 236.5,-288 236.5,-288 289.5,-288 289.5,-288 295.5,-288 301.5,-294 301.5,-300 301.5,-300 301.5,-312 301.5,-312 301.5,-318 295.5,-324 289.5,-324"/>
<text text-anchor="middle" x="263" y="-302.3" font-family="Times,serif" font-size="14.00">Relative Ts</text>
</g>
<!-- View Graph Estimator&#45;&gt;Relative Ts -->
<g id="edge28" class="edge">
<title>View Graph Estimator&#45;&gt;Relative Ts</title>
<path fill="none" stroke="#bfbfbf" d="M318.06,-359.7C307.16,-351.05 294.72,-340.45 284.36,-331.03"/>
<polygon fill="#bfbfbf" stroke="#bfbfbf" points="286.61,-328.34 276.9,-324.1 281.85,-333.47 286.61,-328.34"/>
</g>
<!-- Relative Rs&#45;&gt;View Graph Estimator -->
<g id="edge22" class="edge">
<title>Relative Rs&#45;&gt;View Graph Estimator</title>
<path fill="none" stroke="#bfbfbf" d="M361.99,-324.1C361.02,-331.88 359.11,-341.26 356.78,-349.95"/>
<polygon fill="#bfbfbf" stroke="#bfbfbf" points="353.37,-349.11 353.87,-359.7 360.08,-351.11 353.37,-349.11"/>
</g>
<!-- Relative Ts&#45;&gt;View Graph Estimator -->
<g id="edge23" class="edge">
<title>Relative Ts&#45;&gt;View Graph Estimator</title>
<path fill="none" stroke="#bfbfbf" d="M288.69,-324.1C299.56,-332.72 312.01,-343.32 322.4,-352.76"/>
<polygon fill="#bfbfbf" stroke="#bfbfbf" points="320.18,-355.47 329.89,-359.7 324.94,-350.33 320.18,-355.47"/>
</g>
<!-- Shonan Rotation Averaging -->
<g id="node22" class="node">
<title>Shonan Rotation Averaging</title>
<path fill="lightskyblue" stroke="black" d="M1052.5,-686C1052.5,-686 909.5,-686 909.5,-686 903.5,-686 897.5,-680 897.5,-674 897.5,-674 897.5,-662 897.5,-662 897.5,-656 903.5,-650 909.5,-650 909.5,-650 1052.5,-650 1052.5,-650 1058.5,-650 1064.5,-656 1064.5,-662 1064.5,-662 1064.5,-674 1064.5,-674 1064.5,-680 1058.5,-686 1052.5,-686"/>
<text text-anchor="middle" x="981" y="-664.3" font-family="Times,serif" font-size="14.00">Shonan Rotation Averaging</text>
</g>
<!-- Absolute Rs -->
<g id="node24" class="node">
<title>Absolute Rs</title>
<path fill="gainsboro" stroke="black" d="M1010.5,-614C1010.5,-614 951.5,-614 951.5,-614 945.5,-614 939.5,-608 939.5,-602 939.5,-602 939.5,-590 939.5,-590 939.5,-584 945.5,-578 951.5,-578 951.5,-578 1010.5,-578 1010.5,-578 1016.5,-578 1022.5,-584 1022.5,-590 1022.5,-590 1022.5,-602 1022.5,-602 1022.5,-608 1016.5,-614 1010.5,-614"/>
<text text-anchor="middle" x="981" y="-592.3" font-family="Times,serif" font-size="14.00">Absolute Rs</text>
</g>
<!-- Shonan Rotation Averaging&#45;&gt;Absolute Rs -->
<g id="edge32" class="edge">
<title>Shonan Rotation Averaging&#45;&gt;Absolute Rs</title>
<path fill="none" stroke="#bfbfbf" d="M981,-649.7C981,-641.98 981,-632.71 981,-624.11"/>
<polygon fill="#bfbfbf" stroke="#bfbfbf" points="984.5,-624.1 981,-614.1 977.5,-624.1 984.5,-624.1"/>
</g>
<!-- Pruned Relative Rs -->
<g id="node23" class="node">
<title>Pruned Relative Rs</title>
<path fill="gainsboro" stroke="black" d="M1030,-758C1030,-758 932,-758 932,-758 926,-758 920,-752 920,-746 920,-746 920,-734 920,-734 920,-728 926,-722 932,-722 932,-722 1030,-722 1030,-722 1036,-722 1042,-728 1042,-734 1042,-734 1042,-746 1042,-746 1042,-752 1036,-758 1030,-758"/>
<text text-anchor="middle" x="981" y="-736.3" font-family="Times,serif" font-size="14.00">Pruned Relative Rs</text>
</g>
<!-- Pruned Relative Rs&#45;&gt;Shonan Rotation Averaging -->
<g id="edge31" class="edge">
<title>Pruned Relative Rs&#45;&gt;Shonan Rotation Averaging</title>
<path fill="none" stroke="#bfbfbf" d="M981,-721.7C981,-713.98 981,-704.71 981,-696.11"/>
<polygon fill="#bfbfbf" stroke="#bfbfbf" points="984.5,-696.1 981,-686.1 977.5,-696.1 984.5,-696.1"/>
</g>
<!-- Averaging 1D SfM -->
<g id="node25" class="node">
<title>Averaging 1D SfM</title>
<path fill="lightskyblue" stroke="black" d="M954,-541C954,-541 856,-541 856,-541 850,-541 844,-535 844,-529 844,-529 844,-517 844,-517 844,-511 850,-505 856,-505 856,-505 954,-505 954,-505 960,-505 966,-511 966,-517 966,-517 966,-529 966,-529 966,-535 960,-541 954,-541"/>
<text text-anchor="middle" x="905" y="-519.3" font-family="Times,serif" font-size="14.00">Averaging 1D SfM</text>
</g>
<!-- Absolute Rs&#45;&gt;Averaging 1D SfM -->
<g id="edge34" class="edge">
<title>Absolute Rs&#45;&gt;Averaging 1D SfM</title>
<path fill="none" stroke="#bfbfbf" d="M962.6,-577.81C952.99,-568.83 941.07,-557.69 930.57,-547.89"/>
<polygon fill="#bfbfbf" stroke="#bfbfbf" points="932.92,-545.3 923.23,-541.03 928.15,-550.41 932.92,-545.3"/>
</g>
<!-- Absolute Ts -->
<g id="node27" class="node">
<title>Absolute Ts</title>
<path fill="gainsboro" stroke="black" d="M933.5,-468C933.5,-468 876.5,-468 876.5,-468 870.5,-468 864.5,-462 864.5,-456 864.5,-456 864.5,-444 864.5,-444 864.5,-438 870.5,-432 876.5,-432 876.5,-432 933.5,-432 933.5,-432 939.5,-432 945.5,-438 945.5,-444 945.5,-444 945.5,-456 945.5,-456 945.5,-462 939.5,-468 933.5,-468"/>
<text text-anchor="middle" x="905" y="-446.3" font-family="Times,serif" font-size="14.00">Absolute Ts</text>
</g>
<!-- Averaging 1D SfM&#45;&gt;Absolute Ts -->
<g id="edge35" class="edge">
<title>Averaging 1D SfM&#45;&gt;Absolute Ts</title>
<path fill="none" stroke="#bfbfbf" d="M905,-504.81C905,-496.79 905,-487.05 905,-478.07"/>
<polygon fill="#bfbfbf" stroke="#bfbfbf" points="908.5,-478.03 905,-468.03 901.5,-478.03 908.5,-478.03"/>
</g>
<!-- Pruned Relative Ts -->
<g id="node26" class="node">
<title>Pruned Relative Ts</title>
<path fill="gainsboro" stroke="black" d="M909.5,-614C909.5,-614 814.5,-614 814.5,-614 808.5,-614 802.5,-608 802.5,-602 802.5,-602 802.5,-590 802.5,-590 802.5,-584 808.5,-578 814.5,-578 814.5,-578 909.5,-578 909.5,-578 915.5,-578 921.5,-584 921.5,-590 921.5,-590 921.5,-602 921.5,-602 921.5,-608 915.5,-614 909.5,-614"/>
<text text-anchor="middle" x="862" y="-592.3" font-family="Times,serif" font-size="14.00">Pruned Relative Ts</text>
</g>
<!-- Pruned Relative Ts&#45;&gt;Averaging 1D SfM -->
<g id="edge33" class="edge">
<title>Pruned Relative Ts&#45;&gt;Averaging 1D SfM</title>
<path fill="none" stroke="#bfbfbf" d="M872.41,-577.81C877.53,-569.35 883.81,-558.98 889.49,-549.61"/>
<polygon fill="#bfbfbf" stroke="#bfbfbf" points="892.5,-551.4 894.69,-541.03 886.51,-547.77 892.5,-551.4"/>
</g>
<!-- Dense Point Cloud -->
<g id="node30" class="node">
<title>Dense Point Cloud</title>
<path fill="gainsboro" stroke="black" d="M653.5,-468C653.5,-468 558.5,-468 558.5,-468 552.5,-468 546.5,-462 546.5,-456 546.5,-456 546.5,-444 546.5,-444 546.5,-438 552.5,-432 558.5,-432 558.5,-432 653.5,-432 653.5,-432 659.5,-432 665.5,-438 665.5,-444 665.5,-444 665.5,-456 665.5,-456 665.5,-462 659.5,-468 653.5,-468"/>
<text text-anchor="middle" x="606" y="-446.3" font-family="Times,serif" font-size="14.00">Dense Point Cloud</text>
</g>
<!-- Multiview Stereo\nPatchmatch Net&#45;&gt;Dense Point Cloud -->
<g id="edge38" class="edge">
<title>Multiview Stereo\nPatchmatch Net&#45;&gt;Dense Point Cloud</title>
<path fill="none" stroke="#bfbfbf" d="M603.03,-503.72C603.47,-495.89 604,-486.59 604.48,-477.99"/>
<polygon fill="#bfbfbf" stroke="#bfbfbf" points="607.97,-478.18 605.04,-468 600.99,-477.79 607.97,-478.18"/>
</g>
<!-- SFMResult -->
<g id="node29" class="node">
<title>SFMResult</title>
<path fill="gainsboro" stroke="black" d="M687.5,-614C687.5,-614 632.5,-614 632.5,-614 626.5,-614 620.5,-608 620.5,-602 620.5,-602 620.5,-590 620.5,-590 620.5,-584 626.5,-578 632.5,-578 632.5,-578 687.5,-578 687.5,-578 693.5,-578 699.5,-584 699.5,-590 699.5,-590 699.5,-602 699.5,-602 699.5,-608 693.5,-614 687.5,-614"/>
<text text-anchor="middle" x="660" y="-592.3" font-family="Times,serif" font-size="14.00">SFMResult</text>
</g>
<!-- SFMResult&#45;&gt;Multiview Stereo\nPatchmatch Net -->
<g id="edge36" class="edge">
<title>SFMResult&#45;&gt;Multiview Stereo\nPatchmatch Net</title>
<path fill="none" stroke="#bfbfbf" d="M645.96,-577.81C639.11,-569.43 630.74,-559.18 623.14,-549.88"/>
<polygon fill="#bfbfbf" stroke="#bfbfbf" points="625.76,-547.55 616.72,-542.02 620.34,-551.98 625.76,-547.55"/>
</g>
</g>
</svg>
