<?xml version="1.0" encoding="UTF-8" standalone="no"?>
<!DOCTYPE svg PUBLIC "-//W3C//DTD SVG 1.1//EN"
 "http://www.w3.org/Graphics/SVG/1.1/DTD/svg11.dtd">
<!-- Generated by graphviz version 2.49.0 (20210829.0051)
 -->
<!-- Title: G Pages: 1 -->
<svg width="1757pt" height="1503pt"
 viewBox="0.00 0.00 1756.76 1503.00" xmlns="http://www.w3.org/2000/svg" xmlns:xlink="http://www.w3.org/1999/xlink">
<g id="graph0" class="graph" transform="scale(1 1) rotate(0) translate(4 1499)">
<title>G</title>
<polygon fill="white" stroke="transparent" points="-4,4 -4,-1499 1752.76,-1499 1752.76,4 -4,4"/>
<g id="clust1" class="cluster">
<title>cluster_Loader and Retriever</title>
<polygon fill="white" stroke="black" points="8,-1110 8,-1340 903,-1340 903,-1110 8,-1110"/>
<text text-anchor="middle" x="455.5" y="-1324.8" font-family="Veranda" font-size="14.00">Loader and Retriever</text>
</g>
<g id="clust2" class="cluster">
<title>cluster_ImageCorrespondenceGenerator</title>
<polygon fill="white" stroke="black" points="1251,-1193 1251,-1487 1577,-1487 1577,-1193 1251,-1193"/>
<text text-anchor="middle" x="1414" y="-1471.8" font-family="Veranda" font-size="14.00">ImageCorrespondenceGenerator</text>
</g>
<g id="clust3" class="cluster">
<title>cluster_Two&#45;View Estimator</title>
<polygon fill="white" stroke="black" points="978,-894 978,-1185 1671,-1185 1671,-894 978,-894"/>
<text text-anchor="middle" x="1324.5" y="-1169.8" font-family="Veranda" font-size="14.00">Two&#45;View Estimator</text>
</g>
<g id="clust4" class="cluster">
<title>cluster_Dense Reconstruction</title>
<polygon fill="white" stroke="black" points="523,-8 523,-155 771,-155 771,-8 523,-8"/>
<text text-anchor="middle" x="647" y="-139.8" font-family="Veranda" font-size="14.00">Dense Reconstruction</text>
</g>
<g id="clust5" class="cluster">
<title>cluster_Sparse Reconstruction</title>
<polygon fill="white" stroke="black" points="542,-163 542,-886 1006,-886 1006,-163 542,-163"/>
<text text-anchor="middle" x="774" y="-870.8" font-family="Veranda" font-size="14.00">Sparse Reconstruction</text>
</g>
<!-- Data Association -->
<g id="node1" class="node">
<title>Data Association</title>
<path fill="lightskyblue" stroke="black" d="M886,-423C886,-423 774,-423 774,-423 768,-423 762,-417 762,-411 762,-411 762,-399 762,-399 762,-393 768,-387 774,-387 774,-387 886,-387 886,-387 892,-387 898,-393 898,-399 898,-399 898,-411 898,-411 898,-417 892,-423 886,-423"/>
<text text-anchor="middle" x="830" y="-401.3" font-family="Times,serif" font-size="14.00">Data Association</text>
</g>
<!-- 3D Tracks -->
<g id="node2" class="node">
<title>3D Tracks</title>
<path fill="gainsboro" stroke="black" d="M850.5,-351C850.5,-351 785.5,-351 785.5,-351 779.5,-351 773.5,-345 773.5,-339 773.5,-339 773.5,-327 773.5,-327 773.5,-321 779.5,-315 785.5,-315 785.5,-315 850.5,-315 850.5,-315 856.5,-315 862.5,-321 862.5,-327 862.5,-327 862.5,-339 862.5,-339 862.5,-345 856.5,-351 850.5,-351"/>
<text text-anchor="middle" x="818" y="-329.3" font-family="Times,serif" font-size="14.00">3D Tracks</text>
</g>
<!-- Data Association&#45;&gt;3D Tracks -->
<g id="edge1" class="edge">
<title>Data Association&#45;&gt;3D Tracks</title>
<path fill="none" stroke="#bfbfbf" d="M827.03,-386.7C825.71,-378.98 824.12,-369.71 822.65,-361.11"/>
<polygon fill="#bfbfbf" stroke="#bfbfbf" points="826.07,-360.37 820.93,-351.1 819.17,-361.55 826.07,-360.37"/>
</g>
<!-- Global Bundle Adjustment -->
<g id="node11" class="node">
<title>Global Bundle Adjustment</title>
<path fill="lightskyblue" stroke="black" d="M742,-279C742,-279 562,-279 562,-279 556,-279 550,-273 550,-267 550,-267 550,-255 550,-255 550,-249 556,-243 562,-243 562,-243 742,-243 742,-243 748,-243 754,-249 754,-255 754,-255 754,-267 754,-267 754,-273 748,-279 742,-279"/>
<text text-anchor="middle" x="652" y="-257.3" font-family="Times,serif" font-size="14.00">Global Bundle Adjustment</text>
</g>
<!-- 3D Tracks&#45;&gt;Global Bundle Adjustment -->
<g id="edge16" class="edge">
<title>3D Tracks&#45;&gt;Global Bundle Adjustment</title>
<path fill="none" stroke="#bfbfbf" d="M777.39,-314.88C754.6,-305.26 725.97,-293.19 701.83,-283.01"/>
<polygon fill="#bfbfbf" stroke="#bfbfbf" points="703.05,-279.73 692.48,-279.07 700.33,-286.18 703.05,-279.73"/>
</g>
<!-- View&#45;Graph Correspondences -->
<g id="node3" class="node">
<title>View&#45;Graph Correspondences</title>
<path fill="gainsboro" stroke="black" d="M986,-639C986,-639 782,-639 782,-639 776,-639 770,-633 770,-627 770,-627 770,-615 770,-615 770,-609 776,-603 782,-603 782,-603 986,-603 986,-603 992,-603 998,-609 998,-615 998,-615 998,-627 998,-627 998,-633 992,-639 986,-639"/>
<text text-anchor="middle" x="884" y="-617.3" font-family="Times,serif" font-size="14.00">View&#45;Graph Correspondences</text>
</g>
<!-- View&#45;Graph Correspondences&#45;&gt;Data Association -->
<g id="edge2" class="edge">
<title>View&#45;Graph Correspondences&#45;&gt;Data Association</title>
<path fill="none" stroke="#bfbfbf" d="M879.67,-602.85C870.31,-565.75 848.12,-477.81 836.84,-433.1"/>
<polygon fill="#bfbfbf" stroke="#bfbfbf" points="840.19,-432.07 834.35,-423.23 833.4,-433.78 840.19,-432.07"/>
</g>
<!-- Global Rotations -->
<g id="node4" class="node">
<title>Global Rotations</title>
<path fill="gainsboro" stroke="black" d="M739.5,-639C739.5,-639 628.5,-639 628.5,-639 622.5,-639 616.5,-633 616.5,-627 616.5,-627 616.5,-615 616.5,-615 616.5,-609 622.5,-603 628.5,-603 628.5,-603 739.5,-603 739.5,-603 745.5,-603 751.5,-609 751.5,-615 751.5,-615 751.5,-627 751.5,-627 751.5,-633 745.5,-639 739.5,-639"/>
<text text-anchor="middle" x="684" y="-617.3" font-family="Times,serif" font-size="14.00">Global Rotations</text>
</g>
<!-- Global Rotations&#45;&gt;Data Association -->
<g id="edge3" class="edge">
<title>Global Rotations&#45;&gt;Data Association</title>
<path fill="none" stroke="#bfbfbf" d="M709.21,-602.93C721.95,-593.42 737,-580.74 748,-567 781.76,-524.84 807.2,-466.56 820.24,-432.91"/>
<polygon fill="#bfbfbf" stroke="#bfbfbf" points="823.61,-433.9 823.89,-423.31 817.07,-431.42 823.61,-433.9"/>
</g>
<!-- Global Rotations&#45;&gt;Global Bundle Adjustment -->
<g id="edge15" class="edge">
<title>Global Rotations&#45;&gt;Global Bundle Adjustment</title>
<path fill="none" stroke="#bfbfbf" d="M705.25,-602.83C715.4,-593.38 726.69,-580.79 733,-567 749.56,-530.8 743,-517.8 743,-478 743,-478 743,-478 743,-404 743,-356.83 706.96,-312.79 680.25,-286.63"/>
<polygon fill="#bfbfbf" stroke="#bfbfbf" points="682.31,-283.76 672.65,-279.42 677.49,-288.84 682.31,-283.76"/>
</g>
<!-- Translation Averaging -->
<g id="node28" class="node">
<title>Translation Averaging</title>
<path fill="lightskyblue" stroke="black" d="M712,-567C712,-567 562,-567 562,-567 556,-567 550,-561 550,-555 550,-555 550,-543 550,-543 550,-537 556,-531 562,-531 562,-531 712,-531 712,-531 718,-531 724,-537 724,-543 724,-543 724,-555 724,-555 724,-561 718,-567 712,-567"/>
<text text-anchor="middle" x="637" y="-545.3" font-family="Times,serif" font-size="14.00">Translation Averaging</text>
</g>
<!-- Global Rotations&#45;&gt;Translation Averaging -->
<g id="edge38" class="edge">
<title>Global Rotations&#45;&gt;Translation Averaging</title>
<path fill="none" stroke="#bfbfbf" d="M672.38,-602.7C666.86,-594.47 660.15,-584.48 654.07,-575.42"/>
<polygon fill="#bfbfbf" stroke="#bfbfbf" points="656.96,-573.46 648.48,-567.1 651.15,-577.36 656.96,-573.46"/>
</g>
<!-- Global Translations -->
<g id="node5" class="node">
<title>Global Translations</title>
<path fill="gainsboro" stroke="black" d="M711.5,-495C711.5,-495 580.5,-495 580.5,-495 574.5,-495 568.5,-489 568.5,-483 568.5,-483 568.5,-471 568.5,-471 568.5,-465 574.5,-459 580.5,-459 580.5,-459 711.5,-459 711.5,-459 717.5,-459 723.5,-465 723.5,-471 723.5,-471 723.5,-483 723.5,-483 723.5,-489 717.5,-495 711.5,-495"/>
<text text-anchor="middle" x="646" y="-473.3" font-family="Times,serif" font-size="14.00">Global Translations</text>
</g>
<!-- Global Translations&#45;&gt;Data Association -->
<g id="edge4" class="edge">
<title>Global Translations&#45;&gt;Data Association</title>
<path fill="none" stroke="#bfbfbf" d="M691.01,-458.88C716.5,-449.18 748.57,-436.98 775.48,-426.74"/>
<polygon fill="#bfbfbf" stroke="#bfbfbf" points="777.03,-429.9 785.13,-423.07 774.54,-423.35 777.03,-429.9"/>
</g>
<!-- Global Translations&#45;&gt;Global Bundle Adjustment -->
<g id="edge14" class="edge">
<title>Global Translations&#45;&gt;Global Bundle Adjustment</title>
<path fill="none" stroke="#bfbfbf" d="M646.48,-458.85C647.52,-421.83 649.98,-334.18 651.23,-289.39"/>
<polygon fill="#bfbfbf" stroke="#bfbfbf" points="654.74,-289.33 651.52,-279.23 647.74,-289.13 654.74,-289.33"/>
</g>
<!-- Camera Intrinsics -->
<g id="node6" class="node">
<title>Camera Intrinsics</title>
<path fill="gainsboro" stroke="black" d="M883,-1237C883,-1237 763,-1237 763,-1237 757,-1237 751,-1231 751,-1225 751,-1225 751,-1213 751,-1213 751,-1207 757,-1201 763,-1201 763,-1201 883,-1201 883,-1201 889,-1201 895,-1207 895,-1213 895,-1213 895,-1225 895,-1225 895,-1231 889,-1237 883,-1237"/>
<text text-anchor="middle" x="823" y="-1215.3" font-family="Times,serif" font-size="14.00">Camera Intrinsics</text>
</g>
<!-- Camera Intrinsics&#45;&gt;Data Association -->
<g id="edge5" class="edge">
<title>Camera Intrinsics&#45;&gt;Data Association</title>
<path fill="none" stroke="#bfbfbf" d="M895.35,-1212.85C979.72,-1207.04 1123.4,-1197.8 1247,-1193 1258.88,-1192.54 1665.64,-1192.33 1675,-1185 1718.45,-1150.96 1707,-1120.2 1707,-1065 1707,-1065 1707,-1065 1707,-548 1707,-467.48 1123.41,-423.83 908.35,-410.48"/>
<polygon fill="#bfbfbf" stroke="#bfbfbf" points="908.28,-406.97 898.09,-409.85 907.85,-413.96 908.28,-406.97"/>
</g>
<!-- Camera Intrinsics&#45;&gt;Global Bundle Adjustment -->
<g id="edge13" class="edge">
<title>Camera Intrinsics&#45;&gt;Global Bundle Adjustment</title>
<path fill="none" stroke="#bfbfbf" d="M775.1,-1200.99C764.33,-1197.79 752.88,-1194.87 742,-1193 720.96,-1189.38 566.45,-1198.62 550,-1185 507.82,-1150.07 522,-1119.77 522,-1065 522,-1065 522,-1065 522,-404 522,-350.62 572.59,-308.58 610.65,-284.51"/>
<polygon fill="#bfbfbf" stroke="#bfbfbf" points="612.83,-287.27 619.53,-279.06 609.18,-281.3 612.83,-287.27"/>
</g>
<!-- Two&#45;View Bundle Adjustment -->
<g id="node30" class="node">
<title>Two&#45;View Bundle Adjustment</title>
<path fill="lightskyblue" stroke="black" d="M1289.5,-1010C1289.5,-1010 1086.5,-1010 1086.5,-1010 1080.5,-1010 1074.5,-1004 1074.5,-998 1074.5,-998 1074.5,-986 1074.5,-986 1074.5,-980 1080.5,-974 1086.5,-974 1086.5,-974 1289.5,-974 1289.5,-974 1295.5,-974 1301.5,-980 1301.5,-986 1301.5,-986 1301.5,-998 1301.5,-998 1301.5,-1004 1295.5,-1010 1289.5,-1010"/>
<text text-anchor="middle" x="1188" y="-988.3" font-family="Times,serif" font-size="14.00">Two&#45;View Bundle Adjustment</text>
</g>
<!-- Camera Intrinsics&#45;&gt;Two&#45;View Bundle Adjustment -->
<g id="edge48" class="edge">
<title>Camera Intrinsics&#45;&gt;Two&#45;View Bundle Adjustment</title>
<path fill="none" stroke="#bfbfbf" d="M817.37,-1200.92C809.86,-1179.11 795.43,-1140.51 778,-1110 770.28,-1096.49 761.92,-1096.76 757,-1082 751.94,-1066.82 746.4,-1057.98 757,-1046 777.22,-1023.14 944.34,-1007.99 1064.41,-999.95"/>
<polygon fill="#bfbfbf" stroke="#bfbfbf" points="1064.67,-1003.44 1074.42,-999.29 1064.21,-996.45 1064.67,-1003.44"/>
</g>
<!-- Verifier -->
<g id="node38" class="node">
<title>Verifier</title>
<path fill="lightskyblue" stroke="black" d="M1384,-1154C1384,-1154 1338,-1154 1338,-1154 1332,-1154 1326,-1148 1326,-1142 1326,-1142 1326,-1130 1326,-1130 1326,-1124 1332,-1118 1338,-1118 1338,-1118 1384,-1118 1384,-1118 1390,-1118 1396,-1124 1396,-1130 1396,-1130 1396,-1142 1396,-1142 1396,-1148 1390,-1154 1384,-1154"/>
<text text-anchor="middle" x="1361" y="-1132.3" font-family="Times,serif" font-size="14.00">Verifier</text>
</g>
<!-- Camera Intrinsics&#45;&gt;Verifier -->
<g id="edge57" class="edge">
<title>Camera Intrinsics&#45;&gt;Verifier</title>
<path fill="none" stroke="#bfbfbf" d="M895.28,-1207.12C1008.11,-1190.13 1222.83,-1157.8 1316,-1143.78"/>
<polygon fill="#bfbfbf" stroke="#bfbfbf" points="1316.58,-1147.23 1325.95,-1142.28 1315.54,-1140.3 1316.58,-1147.23"/>
</g>
<!-- View&#45;Graph Estimator -->
<g id="node40" class="node">
<title>View&#45;Graph Estimator</title>
<path fill="lightskyblue" stroke="black" d="M986,-855C986,-855 834,-855 834,-855 828,-855 822,-849 822,-843 822,-843 822,-831 822,-831 822,-825 828,-819 834,-819 834,-819 986,-819 986,-819 992,-819 998,-825 998,-831 998,-831 998,-843 998,-843 998,-849 992,-855 986,-855"/>
<text text-anchor="middle" x="910" y="-833.3" font-family="Times,serif" font-size="14.00">View&#45;Graph Estimator</text>
</g>
<!-- Camera Intrinsics&#45;&gt;View&#45;Graph Estimator -->
<g id="edge63" class="edge">
<title>Camera Intrinsics&#45;&gt;View&#45;Graph Estimator</title>
<path fill="none" stroke="#bfbfbf" d="M774.66,-1200.92C764.02,-1197.77 752.73,-1194.89 742,-1193 724.14,-1189.86 592.5,-1197.11 579,-1185 538.81,-1148.93 560,-1119 560,-1065 560,-1065 560,-1065 560,-991 560,-880.61 707.98,-849.09 811.49,-840.55"/>
<polygon fill="#bfbfbf" stroke="#bfbfbf" points="811.98,-844.02 821.68,-839.77 811.44,-837.04 811.98,-844.02"/>
</g>
<!-- Direct Image Matcher -->
<g id="node7" class="node">
<title>Direct Image Matcher</title>
<path fill="lightskyblue" stroke="black" d="M1421,-1456C1421,-1456 1271,-1456 1271,-1456 1265,-1456 1259,-1450 1259,-1444 1259,-1444 1259,-1432 1259,-1432 1259,-1426 1265,-1420 1271,-1420 1271,-1420 1421,-1420 1421,-1420 1427,-1420 1433,-1426 1433,-1432 1433,-1432 1433,-1444 1433,-1444 1433,-1450 1427,-1456 1421,-1456"/>
<text text-anchor="middle" x="1346" y="-1434.3" font-family="Times,serif" font-size="14.00">Direct Image Matcher</text>
</g>
<!-- Detections i -->
<g id="node8" class="node">
<title>Detections i</title>
<path fill="gainsboro" stroke="black" d="M1367,-1384C1367,-1384 1289,-1384 1289,-1384 1283,-1384 1277,-1378 1277,-1372 1277,-1372 1277,-1360 1277,-1360 1277,-1354 1283,-1348 1289,-1348 1289,-1348 1367,-1348 1367,-1348 1373,-1348 1379,-1354 1379,-1360 1379,-1360 1379,-1372 1379,-1372 1379,-1378 1373,-1384 1367,-1384"/>
<text text-anchor="middle" x="1328" y="-1362.3" font-family="Times,serif" font-size="14.00">Detections i</text>
</g>
<!-- Direct Image Matcher&#45;&gt;Detections i -->
<g id="edge6" class="edge">
<title>Direct Image Matcher&#45;&gt;Detections i</title>
<path fill="none" stroke="#bfbfbf" d="M1341.55,-1419.7C1339.55,-1411.9 1337.13,-1402.51 1334.9,-1393.83"/>
<polygon fill="#bfbfbf" stroke="#bfbfbf" points="1338.28,-1392.92 1332.4,-1384.1 1331.5,-1394.66 1338.28,-1392.92"/>
</g>
<!-- Detections j -->
<g id="node9" class="node">
<title>Detections j</title>
<path fill="gainsboro" stroke="black" d="M1487,-1384C1487,-1384 1409,-1384 1409,-1384 1403,-1384 1397,-1378 1397,-1372 1397,-1372 1397,-1360 1397,-1360 1397,-1354 1403,-1348 1409,-1348 1409,-1348 1487,-1348 1487,-1348 1493,-1348 1499,-1354 1499,-1360 1499,-1360 1499,-1372 1499,-1372 1499,-1378 1493,-1384 1487,-1384"/>
<text text-anchor="middle" x="1448" y="-1362.3" font-family="Times,serif" font-size="14.00">Detections j</text>
</g>
<!-- Direct Image Matcher&#45;&gt;Detections j -->
<g id="edge7" class="edge">
<title>Direct Image Matcher&#45;&gt;Detections j</title>
<path fill="none" stroke="#bfbfbf" d="M1370.95,-1419.88C1384.04,-1410.89 1400.26,-1399.76 1414.44,-1390.03"/>
<polygon fill="#bfbfbf" stroke="#bfbfbf" points="1416.69,-1392.73 1422.95,-1384.19 1412.73,-1386.96 1416.69,-1392.73"/>
</g>
<!-- KeypointAggregator -->
<g id="node21" class="node">
<title>KeypointAggregator</title>
<path fill="lightskyblue" stroke="black" d="M1472.5,-1309C1472.5,-1309 1335.5,-1309 1335.5,-1309 1329.5,-1309 1323.5,-1303 1323.5,-1297 1323.5,-1297 1323.5,-1285 1323.5,-1285 1323.5,-1279 1329.5,-1273 1335.5,-1273 1335.5,-1273 1472.5,-1273 1472.5,-1273 1478.5,-1273 1484.5,-1279 1484.5,-1285 1484.5,-1285 1484.5,-1297 1484.5,-1297 1484.5,-1303 1478.5,-1309 1472.5,-1309"/>
<text text-anchor="middle" x="1404" y="-1287.3" font-family="Times,serif" font-size="14.00">KeypointAggregator</text>
</g>
<!-- Detections i&#45;&gt;KeypointAggregator -->
<g id="edge27" class="edge">
<title>Detections i&#45;&gt;KeypointAggregator</title>
<path fill="none" stroke="#bfbfbf" d="M1346.01,-1347.7C1355.76,-1338.34 1367.96,-1326.62 1378.66,-1316.34"/>
<polygon fill="#bfbfbf" stroke="#bfbfbf" points="1381.33,-1318.63 1386.12,-1309.18 1376.48,-1313.58 1381.33,-1318.63"/>
</g>
<!-- Detections j&#45;&gt;KeypointAggregator -->
<g id="edge28" class="edge">
<title>Detections j&#45;&gt;KeypointAggregator</title>
<path fill="none" stroke="#bfbfbf" d="M1437.57,-1347.7C1432.2,-1338.79 1425.55,-1327.75 1419.58,-1317.85"/>
<polygon fill="#bfbfbf" stroke="#bfbfbf" points="1422.51,-1315.93 1414.35,-1309.18 1416.52,-1319.55 1422.51,-1315.93"/>
</g>
<!-- Images -->
<g id="node10" class="node">
<title>Images</title>
<path fill="gainsboro" stroke="black" d="M208,-1237C208,-1237 164,-1237 164,-1237 158,-1237 152,-1231 152,-1225 152,-1225 152,-1213 152,-1213 152,-1207 158,-1201 164,-1201 164,-1201 208,-1201 208,-1201 214,-1201 220,-1207 220,-1213 220,-1213 220,-1225 220,-1225 220,-1231 214,-1237 208,-1237"/>
<text text-anchor="middle" x="186" y="-1215.3" font-family="Times,serif" font-size="14.00">Images</text>
</g>
<!-- Images&#45;&gt;Direct Image Matcher -->
<g id="edge8" class="edge">
<title>Images&#45;&gt;Direct Image Matcher</title>
<path fill="none" stroke="#bfbfbf" d="M220.03,-1234.28C223.03,-1235.29 226.05,-1236.21 229,-1237 336.62,-1265.67 367.14,-1254.67 477,-1273 760.03,-1320.23 1092.97,-1385.91 1252.09,-1417.93"/>
<polygon fill="#bfbfbf" stroke="#bfbfbf" points="1251.83,-1421.44 1262.32,-1419.99 1253.21,-1414.58 1251.83,-1421.44"/>
</g>
<!-- Multi&#45;view Stereo -->
<g id="node24" class="node">
<title>Multi&#45;view Stereo</title>
<path fill="lightskyblue" stroke="black" d="M707,-124C707,-124 587,-124 587,-124 581,-124 575,-118 575,-112 575,-112 575,-100 575,-100 575,-94 581,-88 587,-88 587,-88 707,-88 707,-88 713,-88 719,-94 719,-100 719,-100 719,-112 719,-112 719,-118 713,-124 707,-124"/>
<text text-anchor="middle" x="647" y="-102.3" font-family="Times,serif" font-size="14.00">Multi&#45;view Stereo</text>
</g>
<!-- Images&#45;&gt;Multi&#45;view Stereo -->
<g id="edge30" class="edge">
<title>Images&#45;&gt;Multi&#45;view Stereo</title>
<path fill="none" stroke="#bfbfbf" d="M194.48,-1200.57C207.27,-1172.65 230,-1115.86 230,-1065 230,-1065 230,-1065 230,-260 230,-189.4 443.33,-141.52 564.82,-119.98"/>
<polygon fill="#bfbfbf" stroke="#bfbfbf" points="565.59,-123.4 574.84,-118.22 564.39,-116.5 565.59,-123.4"/>
</g>
<!-- Optimized Camera Poses -->
<g id="node12" class="node">
<title>Optimized Camera Poses</title>
<path fill="gainsboro" stroke="black" d="M732.5,-207C732.5,-207 561.5,-207 561.5,-207 555.5,-207 549.5,-201 549.5,-195 549.5,-195 549.5,-183 549.5,-183 549.5,-177 555.5,-171 561.5,-171 561.5,-171 732.5,-171 732.5,-171 738.5,-171 744.5,-177 744.5,-183 744.5,-183 744.5,-195 744.5,-195 744.5,-201 738.5,-207 732.5,-207"/>
<text text-anchor="middle" x="647" y="-185.3" font-family="Times,serif" font-size="14.00">Optimized Camera Poses</text>
</g>
<!-- Global Bundle Adjustment&#45;&gt;Optimized Camera Poses -->
<g id="edge9" class="edge">
<title>Global Bundle Adjustment&#45;&gt;Optimized Camera Poses</title>
<path fill="none" stroke="#bfbfbf" d="M650.76,-242.7C650.21,-234.98 649.55,-225.71 648.94,-217.11"/>
<polygon fill="#bfbfbf" stroke="#bfbfbf" points="652.43,-216.83 648.22,-207.1 645.44,-217.33 652.43,-216.83"/>
</g>
<!-- Optimized 3D Tracks -->
<g id="node13" class="node">
<title>Optimized 3D Tracks</title>
<path fill="gainsboro" stroke="black" d="M917.5,-207C917.5,-207 774.5,-207 774.5,-207 768.5,-207 762.5,-201 762.5,-195 762.5,-195 762.5,-183 762.5,-183 762.5,-177 768.5,-171 774.5,-171 774.5,-171 917.5,-171 917.5,-171 923.5,-171 929.5,-177 929.5,-183 929.5,-183 929.5,-195 929.5,-195 929.5,-201 923.5,-207 917.5,-207"/>
<text text-anchor="middle" x="846" y="-185.3" font-family="Times,serif" font-size="14.00">Optimized 3D Tracks</text>
</g>
<!-- Global Bundle Adjustment&#45;&gt;Optimized 3D Tracks -->
<g id="edge10" class="edge">
<title>Global Bundle Adjustment&#45;&gt;Optimized 3D Tracks</title>
<path fill="none" stroke="#bfbfbf" d="M699.46,-242.88C726.57,-233.09 760.74,-220.77 789.26,-210.47"/>
<polygon fill="#bfbfbf" stroke="#bfbfbf" points="790.48,-213.75 798.7,-207.07 788.1,-207.17 790.48,-213.75"/>
</g>
<!-- Optimized Camera Poses&#45;&gt;Multi&#45;view Stereo -->
<g id="edge31" class="edge">
<title>Optimized Camera Poses&#45;&gt;Multi&#45;view Stereo</title>
<path fill="none" stroke="#bfbfbf" d="M647,-170.82C647,-160.19 647,-146.31 647,-134.2"/>
<polygon fill="#bfbfbf" stroke="#bfbfbf" points="650.5,-134.15 647,-124.15 643.5,-134.15 650.5,-134.15"/>
</g>
<!-- Optimized 3D Tracks&#45;&gt;Multi&#45;view Stereo -->
<g id="edge32" class="edge">
<title>Optimized 3D Tracks&#45;&gt;Multi&#45;view Stereo</title>
<path fill="none" stroke="#bfbfbf" d="M803.8,-170.82C772.96,-158.27 730.98,-141.18 698.21,-127.85"/>
<polygon fill="#bfbfbf" stroke="#bfbfbf" points="699.38,-124.54 688.8,-124.01 696.74,-131.03 699.38,-124.54"/>
</g>
<!-- Absolute Pose Priors -->
<g id="node14" class="node">
<title>Absolute Pose Priors</title>
<path fill="gainsboro" stroke="black" d="M390,-1237C390,-1237 250,-1237 250,-1237 244,-1237 238,-1231 238,-1225 238,-1225 238,-1213 238,-1213 238,-1207 244,-1201 250,-1201 250,-1201 390,-1201 390,-1201 396,-1201 402,-1207 402,-1213 402,-1213 402,-1225 402,-1225 402,-1231 396,-1237 390,-1237"/>
<text text-anchor="middle" x="320" y="-1215.3" font-family="Times,serif" font-size="14.00">Absolute Pose Priors</text>
</g>
<!-- Absolute Pose Priors&#45;&gt;Global Bundle Adjustment -->
<g id="edge11" class="edge">
<title>Absolute Pose Priors&#45;&gt;Global Bundle Adjustment</title>
<path fill="none" stroke="#bfbfbf" d="M320.75,-1200.57C321.91,-1172.17 324,-1114.16 324,-1065 324,-1065 324,-1065 324,-404 324,-307.66 444.64,-275.95 539.59,-265.91"/>
<polygon fill="#bfbfbf" stroke="#bfbfbf" points="539.96,-269.39 549.57,-264.92 539.27,-262.42 539.96,-269.39"/>
</g>
<!-- Absolute Pose Priors&#45;&gt;Translation Averaging -->
<g id="edge39" class="edge">
<title>Absolute Pose Priors&#45;&gt;Translation Averaging</title>
<path fill="none" stroke="#bfbfbf" d="M338.23,-1200.58C364.01,-1173.98 408,-1120.46 408,-1065 408,-1065 408,-1065 408,-692 408,-645.96 424.72,-631.34 461,-603 483.83,-585.17 512.61,-573.31 540.24,-565.45"/>
<polygon fill="#bfbfbf" stroke="#bfbfbf" points="541.21,-568.81 549.95,-562.83 539.39,-562.05 541.21,-568.81"/>
</g>
<!-- Relative Pose Priors -->
<g id="node15" class="node">
<title>Relative Pose Priors</title>
<path fill="gainsboro" stroke="black" d="M569.5,-1237C569.5,-1237 432.5,-1237 432.5,-1237 426.5,-1237 420.5,-1231 420.5,-1225 420.5,-1225 420.5,-1213 420.5,-1213 420.5,-1207 426.5,-1201 432.5,-1201 432.5,-1201 569.5,-1201 569.5,-1201 575.5,-1201 581.5,-1207 581.5,-1213 581.5,-1213 581.5,-1225 581.5,-1225 581.5,-1231 575.5,-1237 569.5,-1237"/>
<text text-anchor="middle" x="501" y="-1215.3" font-family="Times,serif" font-size="14.00">Relative Pose Priors</text>
</g>
<!-- Relative Pose Priors&#45;&gt;Global Bundle Adjustment -->
<g id="edge12" class="edge">
<title>Relative Pose Priors&#45;&gt;Global Bundle Adjustment</title>
<path fill="none" stroke="#bfbfbf" d="M468.52,-1200.91C461.31,-1196.3 454.04,-1190.92 448,-1185 402.59,-1140.46 370,-1128.61 370,-1065 370,-1065 370,-1065 370,-404 370,-324.23 461.13,-289.27 539.78,-273.94"/>
<polygon fill="#bfbfbf" stroke="#bfbfbf" points="540.6,-277.35 549.79,-272.08 539.32,-270.47 540.6,-277.35"/>
</g>
<!-- Rotation Averaging -->
<g id="node26" class="node">
<title>Rotation Averaging</title>
<path fill="lightskyblue" stroke="black" d="M966,-711C966,-711 836,-711 836,-711 830,-711 824,-705 824,-699 824,-699 824,-687 824,-687 824,-681 830,-675 836,-675 836,-675 966,-675 966,-675 972,-675 978,-681 978,-687 978,-687 978,-699 978,-699 978,-705 972,-711 966,-711"/>
<text text-anchor="middle" x="901" y="-689.3" font-family="Times,serif" font-size="14.00">Rotation Averaging</text>
</g>
<!-- Relative Pose Priors&#45;&gt;Rotation Averaging -->
<g id="edge35" class="edge">
<title>Relative Pose Priors&#45;&gt;Rotation Averaging</title>
<path fill="none" stroke="#bfbfbf" d="M497.8,-1200.63C492.88,-1172.33 484,-1114.44 484,-1065 484,-1065 484,-1065 484,-836 484,-800.99 697.33,-743.42 818.82,-713.47"/>
<polygon fill="#bfbfbf" stroke="#bfbfbf" points="819.96,-716.79 828.84,-711.01 818.29,-709.99 819.96,-716.79"/>
</g>
<!-- Relative Pose Priors&#45;&gt;Translation Averaging -->
<g id="edge40" class="edge">
<title>Relative Pose Priors&#45;&gt;Translation Averaging</title>
<path fill="none" stroke="#bfbfbf" d="M490.4,-1200.82C474.41,-1173.25 446,-1116.94 446,-1065 446,-1065 446,-1065 446,-692 446,-629.63 512.4,-591.45 566.9,-570.61"/>
<polygon fill="#bfbfbf" stroke="#bfbfbf" points="568.4,-573.78 576.57,-567.04 565.97,-567.22 568.4,-573.78"/>
</g>
<!-- Relative Pose Priors&#45;&gt;Two&#45;View Bundle Adjustment -->
<g id="edge47" class="edge">
<title>Relative Pose Priors&#45;&gt;Two&#45;View Bundle Adjustment</title>
<path fill="none" stroke="#bfbfbf" d="M554.83,-1200.98C566.64,-1197.83 579.16,-1194.93 591,-1193 608.02,-1190.23 734.12,-1197.5 746,-1185 746,-1185 746,-1046 746,-1046 766.92,-1022.42 940.73,-1007.37 1064.03,-999.55"/>
<polygon fill="#bfbfbf" stroke="#bfbfbf" points="1064.54,-1003.03 1074.31,-998.91 1064.11,-996.04 1064.54,-1003.03"/>
</g>
<!-- Image Loader -->
<g id="node16" class="node">
<title>Image Loader</title>
<path fill="lightskyblue" stroke="black" d="M455.5,-1309C455.5,-1309 364.5,-1309 364.5,-1309 358.5,-1309 352.5,-1303 352.5,-1297 352.5,-1297 352.5,-1285 352.5,-1285 352.5,-1279 358.5,-1273 364.5,-1273 364.5,-1273 455.5,-1273 455.5,-1273 461.5,-1273 467.5,-1279 467.5,-1285 467.5,-1285 467.5,-1297 467.5,-1297 467.5,-1303 461.5,-1309 455.5,-1309"/>
<text text-anchor="middle" x="410" y="-1287.3" font-family="Times,serif" font-size="14.00">Image Loader</text>
</g>
<!-- Image Loader&#45;&gt;Camera Intrinsics -->
<g id="edge18" class="edge">
<title>Image Loader&#45;&gt;Camera Intrinsics</title>
<path fill="none" stroke="#bfbfbf" d="M467.72,-1281.65C531.93,-1272.18 638.97,-1255.8 740.49,-1237.24"/>
<polygon fill="#bfbfbf" stroke="#bfbfbf" points="741.41,-1240.63 750.61,-1235.37 740.14,-1233.74 741.41,-1240.63"/>
</g>
<!-- Image Loader&#45;&gt;Images -->
<g id="edge17" class="edge">
<title>Image Loader&#45;&gt;Images</title>
<path fill="none" stroke="#bfbfbf" d="M352.11,-1274.51C318.67,-1265.22 275.69,-1252.72 229.71,-1237.1"/>
<polygon fill="#bfbfbf" stroke="#bfbfbf" points="230.76,-1233.76 220.16,-1233.83 228.49,-1240.39 230.76,-1233.76"/>
</g>
<!-- Image Loader&#45;&gt;Absolute Pose Priors -->
<g id="edge21" class="edge">
<title>Image Loader&#45;&gt;Absolute Pose Priors</title>
<path fill="none" stroke="#bfbfbf" d="M387.75,-1272.7C376.42,-1263.88 362.47,-1253.03 350.18,-1243.47"/>
<polygon fill="#bfbfbf" stroke="#bfbfbf" points="352.03,-1240.48 341.99,-1237.1 347.74,-1246.01 352.03,-1240.48"/>
</g>
<!-- Image Loader&#45;&gt;Relative Pose Priors -->
<g id="edge20" class="edge">
<title>Image Loader&#45;&gt;Relative Pose Priors</title>
<path fill="none" stroke="#bfbfbf" d="M432.49,-1272.7C443.96,-1263.88 458.06,-1253.03 470.48,-1243.47"/>
<polygon fill="#bfbfbf" stroke="#bfbfbf" points="472.97,-1245.98 478.76,-1237.1 468.7,-1240.43 472.97,-1245.98"/>
</g>
<!-- Image Shapes -->
<g id="node17" class="node">
<title>Image Shapes</title>
<path fill="gainsboro" stroke="black" d="M121.5,-1237C121.5,-1237 28.5,-1237 28.5,-1237 22.5,-1237 16.5,-1231 16.5,-1225 16.5,-1225 16.5,-1213 16.5,-1213 16.5,-1207 22.5,-1201 28.5,-1201 28.5,-1201 121.5,-1201 121.5,-1201 127.5,-1201 133.5,-1207 133.5,-1213 133.5,-1213 133.5,-1225 133.5,-1225 133.5,-1231 127.5,-1237 121.5,-1237"/>
<text text-anchor="middle" x="75" y="-1215.3" font-family="Times,serif" font-size="14.00">Image Shapes</text>
</g>
<!-- Image Loader&#45;&gt;Image Shapes -->
<g id="edge19" class="edge">
<title>Image Loader&#45;&gt;Image Shapes</title>
<path fill="none" stroke="#bfbfbf" d="M352.28,-1279.39C300.31,-1269.64 221.6,-1254.41 143.57,-1237.07"/>
<polygon fill="#bfbfbf" stroke="#bfbfbf" points="144.08,-1233.6 133.56,-1234.83 142.56,-1240.43 144.08,-1233.6"/>
</g>
<!-- Image Retriever -->
<g id="node19" class="node">
<title>Image Retriever</title>
<path fill="lightskyblue" stroke="black" d="M720.5,-1237C720.5,-1237 611.5,-1237 611.5,-1237 605.5,-1237 599.5,-1231 599.5,-1225 599.5,-1225 599.5,-1213 599.5,-1213 599.5,-1207 605.5,-1201 611.5,-1201 611.5,-1201 720.5,-1201 720.5,-1201 726.5,-1201 732.5,-1207 732.5,-1213 732.5,-1213 732.5,-1225 732.5,-1225 732.5,-1231 726.5,-1237 720.5,-1237"/>
<text text-anchor="middle" x="666" y="-1215.3" font-family="Times,serif" font-size="14.00">Image Retriever</text>
</g>
<!-- Image Loader&#45;&gt;Image Retriever -->
<g id="edge24" class="edge">
<title>Image Loader&#45;&gt;Image Retriever</title>
<path fill="none" stroke="#bfbfbf" d="M467.77,-1274.2C505.1,-1264 553.97,-1250.63 593.85,-1239.73"/>
<polygon fill="#bfbfbf" stroke="#bfbfbf" points="594.79,-1243.1 603.51,-1237.09 592.95,-1236.35 594.79,-1243.1"/>
</g>
<!-- Source Directory -->
<g id="node18" class="node">
<title>Source Directory</title>
<ellipse fill="none" stroke="black" cx="410" cy="-1366" rx="89.88" ry="18"/>
<text text-anchor="middle" x="410" y="-1362.3" font-family="Times,serif" font-size="14.00">Source Directory</text>
</g>
<!-- Source Directory&#45;&gt;Image Loader -->
<g id="edge22" class="edge">
<title>Source Directory&#45;&gt;Image Loader</title>
<path fill="none" stroke="#bfbfbf" d="M410,-1347.7C410,-1339.25 410,-1328.87 410,-1319.37"/>
<polygon fill="#bfbfbf" stroke="#bfbfbf" points="413.5,-1319.18 410,-1309.18 406.5,-1319.18 413.5,-1319.18"/>
</g>
<!-- Image Pair Indices -->
<g id="node20" class="node">
<title>Image Pair Indices</title>
<path fill="gainsboro" stroke="black" d="M724.5,-1154C724.5,-1154 599.5,-1154 599.5,-1154 593.5,-1154 587.5,-1148 587.5,-1142 587.5,-1142 587.5,-1130 587.5,-1130 587.5,-1124 593.5,-1118 599.5,-1118 599.5,-1118 724.5,-1118 724.5,-1118 730.5,-1118 736.5,-1124 736.5,-1130 736.5,-1130 736.5,-1142 736.5,-1142 736.5,-1148 730.5,-1154 724.5,-1154"/>
<text text-anchor="middle" x="662" y="-1132.3" font-family="Times,serif" font-size="14.00">Image Pair Indices</text>
</g>
<!-- Image Retriever&#45;&gt;Image Pair Indices -->
<g id="edge23" class="edge">
<title>Image Retriever&#45;&gt;Image Pair Indices</title>
<path fill="none" stroke="#bfbfbf" d="M665.15,-1200.82C664.63,-1190.19 663.94,-1176.31 663.34,-1164.2"/>
<polygon fill="#bfbfbf" stroke="#bfbfbf" points="666.84,-1163.97 662.85,-1154.15 659.84,-1164.31 666.84,-1163.97"/>
</g>
<!-- Keypoints -->
<g id="node22" class="node">
<title>Keypoints</title>
<path fill="gainsboro" stroke="black" d="M1557,-1237C1557,-1237 1493,-1237 1493,-1237 1487,-1237 1481,-1231 1481,-1225 1481,-1225 1481,-1213 1481,-1213 1481,-1207 1487,-1201 1493,-1201 1493,-1201 1557,-1201 1557,-1201 1563,-1201 1569,-1207 1569,-1213 1569,-1213 1569,-1225 1569,-1225 1569,-1231 1563,-1237 1557,-1237"/>
<text text-anchor="middle" x="1525" y="-1215.3" font-family="Times,serif" font-size="14.00">Keypoints</text>
</g>
<!-- KeypointAggregator&#45;&gt;Keypoints -->
<g id="edge25" class="edge">
<title>KeypointAggregator&#45;&gt;Keypoints</title>
<path fill="none" stroke="#bfbfbf" d="M1433.6,-1272.88C1449.57,-1263.64 1469.46,-1252.13 1486.61,-1242.21"/>
<polygon fill="#bfbfbf" stroke="#bfbfbf" points="1488.38,-1245.23 1495.29,-1237.19 1484.88,-1239.17 1488.38,-1245.23"/>
</g>
<!-- Putative Correspondences -->
<g id="node23" class="node">
<title>Putative Correspondences</title>
<path fill="gainsboro" stroke="black" d="M1451.5,-1237C1451.5,-1237 1270.5,-1237 1270.5,-1237 1264.5,-1237 1258.5,-1231 1258.5,-1225 1258.5,-1225 1258.5,-1213 1258.5,-1213 1258.5,-1207 1264.5,-1201 1270.5,-1201 1270.5,-1201 1451.5,-1201 1451.5,-1201 1457.5,-1201 1463.5,-1207 1463.5,-1213 1463.5,-1213 1463.5,-1225 1463.5,-1225 1463.5,-1231 1457.5,-1237 1451.5,-1237"/>
<text text-anchor="middle" x="1361" y="-1215.3" font-family="Times,serif" font-size="14.00">Putative Correspondences</text>
</g>
<!-- KeypointAggregator&#45;&gt;Putative Correspondences -->
<g id="edge26" class="edge">
<title>KeypointAggregator&#45;&gt;Putative Correspondences</title>
<path fill="none" stroke="#bfbfbf" d="M1393.37,-1272.7C1388.37,-1264.56 1382.31,-1254.69 1376.79,-1245.7"/>
<polygon fill="#bfbfbf" stroke="#bfbfbf" points="1379.72,-1243.79 1371.51,-1237.1 1373.76,-1247.46 1379.72,-1243.79"/>
</g>
<!-- Keypoints&#45;&gt;Two&#45;View Bundle Adjustment -->
<g id="edge49" class="edge">
<title>Keypoints&#45;&gt;Two&#45;View Bundle Adjustment</title>
<path fill="none" stroke="#bfbfbf" d="M1553.77,-1200.79C1603.76,-1168.83 1697.05,-1098.76 1650,-1046 1627.76,-1021.07 1441.15,-1006.22 1312.01,-998.84"/>
<polygon fill="#bfbfbf" stroke="#bfbfbf" points="1311.83,-995.32 1301.65,-998.26 1311.44,-1002.31 1311.83,-995.32"/>
</g>
<!-- Keypoints&#45;&gt;Verifier -->
<g id="edge55" class="edge">
<title>Keypoints&#45;&gt;Verifier</title>
<path fill="none" stroke="#bfbfbf" d="M1490.22,-1200.82C1465.24,-1188.48 1431.39,-1171.77 1404.6,-1158.54"/>
<polygon fill="#bfbfbf" stroke="#bfbfbf" points="1405.96,-1155.3 1395.45,-1154.01 1402.86,-1161.58 1405.96,-1155.3"/>
</g>
<!-- Keypoints&#45;&gt;View&#45;Graph Estimator -->
<g id="edge65" class="edge">
<title>Keypoints&#45;&gt;View&#45;Graph Estimator</title>
<path fill="none" stroke="#bfbfbf" d="M1569.37,-1216.24C1620.42,-1213.27 1699.95,-1205.42 1721,-1185 1760.04,-1147.13 1745,-1119.39 1745,-1065 1745,-1065 1745,-1065 1745,-991 1745,-937.84 1721.42,-919.92 1675,-894 1618.18,-862.26 1201.99,-846.34 1008.46,-840.59"/>
<polygon fill="#bfbfbf" stroke="#bfbfbf" points="1008.38,-837.08 998.29,-840.29 1008.18,-844.08 1008.38,-837.08"/>
</g>
<!-- Putative Correspondences&#45;&gt;Verifier -->
<g id="edge56" class="edge">
<title>Putative Correspondences&#45;&gt;Verifier</title>
<path fill="none" stroke="#bfbfbf" d="M1361,-1200.82C1361,-1190.19 1361,-1176.31 1361,-1164.2"/>
<polygon fill="#bfbfbf" stroke="#bfbfbf" points="1364.5,-1164.15 1361,-1154.15 1357.5,-1164.15 1364.5,-1164.15"/>
</g>
<!-- Dense Colored 3D Point Cloud -->
<g id="node25" class="node">
<title>Dense Colored 3D Point Cloud</title>
<path fill="gainsboro" stroke="black" d="M751.5,-52C751.5,-52 542.5,-52 542.5,-52 536.5,-52 530.5,-46 530.5,-40 530.5,-40 530.5,-28 530.5,-28 530.5,-22 536.5,-16 542.5,-16 542.5,-16 751.5,-16 751.5,-16 757.5,-16 763.5,-22 763.5,-28 763.5,-28 763.5,-40 763.5,-40 763.5,-46 757.5,-52 751.5,-52"/>
<text text-anchor="middle" x="647" y="-30.3" font-family="Times,serif" font-size="14.00">Dense Colored 3D Point Cloud</text>
</g>
<!-- Multi&#45;view Stereo&#45;&gt;Dense Colored 3D Point Cloud -->
<g id="edge29" class="edge">
<title>Multi&#45;view Stereo&#45;&gt;Dense Colored 3D Point Cloud</title>
<path fill="none" stroke="#bfbfbf" d="M647,-87.7C647,-79.98 647,-70.71 647,-62.11"/>
<polygon fill="#bfbfbf" stroke="#bfbfbf" points="650.5,-62.1 647,-52.1 643.5,-62.1 650.5,-62.1"/>
</g>
<!-- Rotation Averaging&#45;&gt;Global Rotations -->
<g id="edge33" class="edge">
<title>Rotation Averaging&#45;&gt;Global Rotations</title>
<path fill="none" stroke="#bfbfbf" d="M848.19,-674.97C817.61,-665.1 778.93,-652.62 746.79,-642.25"/>
<polygon fill="#bfbfbf" stroke="#bfbfbf" points="747.64,-638.85 737.04,-639.11 745.49,-645.51 747.64,-638.85"/>
</g>
<!-- View&#45;Graph Relative Rotations -->
<g id="node27" class="node">
<title>View&#45;Graph Relative Rotations</title>
<path fill="gainsboro" stroke="black" d="M966,-783C966,-783 754,-783 754,-783 748,-783 742,-777 742,-771 742,-771 742,-759 742,-759 742,-753 748,-747 754,-747 754,-747 966,-747 966,-747 972,-747 978,-753 978,-759 978,-759 978,-771 978,-771 978,-777 972,-783 966,-783"/>
<text text-anchor="middle" x="860" y="-761.3" font-family="Times,serif" font-size="14.00">View&#45;Graph Relative Rotations</text>
</g>
<!-- View&#45;Graph Relative Rotations&#45;&gt;Rotation Averaging -->
<g id="edge34" class="edge">
<title>View&#45;Graph Relative Rotations&#45;&gt;Rotation Averaging</title>
<path fill="none" stroke="#bfbfbf" d="M870.13,-746.7C874.85,-738.64 880.56,-728.89 885.78,-719.98"/>
<polygon fill="#bfbfbf" stroke="#bfbfbf" points="888.95,-721.5 890.98,-711.1 882.91,-717.96 888.95,-721.5"/>
</g>
<!-- Translation Averaging&#45;&gt;Global Translations -->
<g id="edge36" class="edge">
<title>Translation Averaging&#45;&gt;Global Translations</title>
<path fill="none" stroke="#bfbfbf" d="M639.22,-530.7C640.22,-522.98 641.41,-513.71 642.51,-505.11"/>
<polygon fill="#bfbfbf" stroke="#bfbfbf" points="646,-505.47 643.8,-495.1 639.05,-504.58 646,-505.47"/>
</g>
<!-- View&#45;Graph Relative Translations -->
<g id="node29" class="node">
<title>View&#45;Graph Relative Translations</title>
<path fill="gainsboro" stroke="black" d="M794,-711C794,-711 562,-711 562,-711 556,-711 550,-705 550,-699 550,-699 550,-687 550,-687 550,-681 556,-675 562,-675 562,-675 794,-675 794,-675 800,-675 806,-681 806,-687 806,-687 806,-699 806,-699 806,-705 800,-711 794,-711"/>
<text text-anchor="middle" x="678" y="-689.3" font-family="Times,serif" font-size="14.00">View&#45;Graph Relative Translations</text>
</g>
<!-- View&#45;Graph Relative Translations&#45;&gt;Translation Averaging -->
<g id="edge37" class="edge">
<title>View&#45;Graph Relative Translations&#45;&gt;Translation Averaging</title>
<path fill="none" stroke="#bfbfbf" d="M643.32,-674.83C629.69,-666.13 615.53,-654.15 608,-639 597.96,-618.8 607.33,-594.34 618.02,-576.18"/>
<polygon fill="#bfbfbf" stroke="#bfbfbf" points="621.24,-577.63 623.63,-567.31 615.32,-573.89 621.24,-577.63"/>
</g>
<!-- Optimized Relative Rotation -->
<g id="node31" class="node">
<title>Optimized Relative Rotation</title>
<path fill="gainsboro" stroke="black" d="M1394,-938C1394,-938 1200,-938 1200,-938 1194,-938 1188,-932 1188,-926 1188,-926 1188,-914 1188,-914 1188,-908 1194,-902 1200,-902 1200,-902 1394,-902 1394,-902 1400,-902 1406,-908 1406,-914 1406,-914 1406,-926 1406,-926 1406,-932 1400,-938 1394,-938"/>
<text text-anchor="middle" x="1297" y="-916.3" font-family="Times,serif" font-size="14.00">Optimized Relative Rotation</text>
</g>
<!-- Two&#45;View Bundle Adjustment&#45;&gt;Optimized Relative Rotation -->
<g id="edge41" class="edge">
<title>Two&#45;View Bundle Adjustment&#45;&gt;Optimized Relative Rotation</title>
<path fill="none" stroke="#bfbfbf" d="M1214.66,-973.88C1228.78,-964.81 1246.31,-953.55 1261.56,-943.76"/>
<polygon fill="#bfbfbf" stroke="#bfbfbf" points="1263.71,-946.54 1270.23,-938.19 1259.93,-940.65 1263.71,-946.54"/>
</g>
<!-- Optimized Relative Translation -->
<g id="node32" class="node">
<title>Optimized Relative Translation</title>
<path fill="gainsboro" stroke="black" d="M1651.5,-938C1651.5,-938 1436.5,-938 1436.5,-938 1430.5,-938 1424.5,-932 1424.5,-926 1424.5,-926 1424.5,-914 1424.5,-914 1424.5,-908 1430.5,-902 1436.5,-902 1436.5,-902 1651.5,-902 1651.5,-902 1657.5,-902 1663.5,-908 1663.5,-914 1663.5,-914 1663.5,-926 1663.5,-926 1663.5,-932 1657.5,-938 1651.5,-938"/>
<text text-anchor="middle" x="1544" y="-916.3" font-family="Times,serif" font-size="14.00">Optimized Relative Translation</text>
</g>
<!-- Two&#45;View Bundle Adjustment&#45;&gt;Optimized Relative Translation -->
<g id="edge42" class="edge">
<title>Two&#45;View Bundle Adjustment&#45;&gt;Optimized Relative Translation</title>
<path fill="none" stroke="#bfbfbf" d="M1274.63,-973.97C1326.85,-963.7 1393.46,-950.6 1447.37,-940"/>
<polygon fill="#bfbfbf" stroke="#bfbfbf" points="1448.15,-943.41 1457.29,-938.05 1446.8,-936.55 1448.15,-943.41"/>
</g>
<!-- Inlier Correspondences -->
<g id="node33" class="node">
<title>Inlier Correspondences</title>
<path fill="gainsboro" stroke="black" d="M1157.5,-938C1157.5,-938 998.5,-938 998.5,-938 992.5,-938 986.5,-932 986.5,-926 986.5,-926 986.5,-914 986.5,-914 986.5,-908 992.5,-902 998.5,-902 998.5,-902 1157.5,-902 1157.5,-902 1163.5,-902 1169.5,-908 1169.5,-914 1169.5,-914 1169.5,-926 1169.5,-926 1169.5,-932 1163.5,-938 1157.5,-938"/>
<text text-anchor="middle" x="1078" y="-916.3" font-family="Times,serif" font-size="14.00">Inlier Correspondences</text>
</g>
<!-- Two&#45;View Bundle Adjustment&#45;&gt;Inlier Correspondences -->
<g id="edge43" class="edge">
<title>Two&#45;View Bundle Adjustment&#45;&gt;Inlier Correspondences</title>
<path fill="none" stroke="#bfbfbf" d="M1161.09,-973.88C1146.84,-964.81 1129.15,-953.55 1113.76,-943.76"/>
<polygon fill="#bfbfbf" stroke="#bfbfbf" points="1115.33,-940.61 1105.01,-938.19 1111.57,-946.51 1115.33,-940.61"/>
</g>
<!-- Optimized Relative Rotation&#45;&gt;View&#45;Graph Estimator -->
<g id="edge61" class="edge">
<title>Optimized Relative Rotation&#45;&gt;View&#45;Graph Estimator</title>
<path fill="none" stroke="#bfbfbf" d="M1216.71,-901.95C1204.09,-899.28 1191.19,-896.56 1179,-894 1120.12,-881.63 1053.97,-867.86 1002,-857.07"/>
<polygon fill="#bfbfbf" stroke="#bfbfbf" points="1002.63,-853.63 992.13,-855.02 1001.21,-860.48 1002.63,-853.63"/>
</g>
<!-- Optimized Relative Translation&#45;&gt;View&#45;Graph Estimator -->
<g id="edge62" class="edge">
<title>Optimized Relative Translation&#45;&gt;View&#45;Graph Estimator</title>
<path fill="none" stroke="#bfbfbf" d="M1461.59,-902C1446.15,-899.11 1430.11,-896.3 1415,-894 1274.27,-872.6 1110.29,-855.92 1008.3,-846.52"/>
<polygon fill="#bfbfbf" stroke="#bfbfbf" points="1008.59,-843.04 998.32,-845.61 1007.96,-850.01 1008.59,-843.04"/>
</g>
<!-- Inlier Correspondences&#45;&gt;View&#45;Graph Estimator -->
<g id="edge64" class="edge">
<title>Inlier Correspondences&#45;&gt;View&#45;Graph Estimator</title>
<path fill="none" stroke="#bfbfbf" d="M1042.37,-901.82C1016.67,-889.43 981.8,-872.62 954.31,-859.36"/>
<polygon fill="#bfbfbf" stroke="#bfbfbf" points="955.82,-856.2 945.29,-855.01 952.78,-862.51 955.82,-856.2"/>
</g>
<!-- Relative Rotation -->
<g id="node34" class="node">
<title>Relative Rotation</title>
<path fill="gainsboro" stroke="black" d="M1334,-1082C1334,-1082 1218,-1082 1218,-1082 1212,-1082 1206,-1076 1206,-1070 1206,-1070 1206,-1058 1206,-1058 1206,-1052 1212,-1046 1218,-1046 1218,-1046 1334,-1046 1334,-1046 1340,-1046 1346,-1052 1346,-1058 1346,-1058 1346,-1070 1346,-1070 1346,-1076 1340,-1082 1334,-1082"/>
<text text-anchor="middle" x="1276" y="-1060.3" font-family="Times,serif" font-size="14.00">Relative Rotation</text>
</g>
<!-- Relative Rotation&#45;&gt;Two&#45;View Bundle Adjustment -->
<g id="edge44" class="edge">
<title>Relative Rotation&#45;&gt;Two&#45;View Bundle Adjustment</title>
<path fill="none" stroke="#bfbfbf" d="M1254.25,-1045.7C1243.16,-1036.88 1229.53,-1026.03 1217.51,-1016.47"/>
<polygon fill="#bfbfbf" stroke="#bfbfbf" points="1219.51,-1013.59 1209.5,-1010.1 1215.15,-1019.07 1219.51,-1013.59"/>
</g>
<!-- Relative Translation -->
<g id="node35" class="node">
<title>Relative Translation</title>
<path fill="gainsboro" stroke="black" d="M1513.5,-1082C1513.5,-1082 1376.5,-1082 1376.5,-1082 1370.5,-1082 1364.5,-1076 1364.5,-1070 1364.5,-1070 1364.5,-1058 1364.5,-1058 1364.5,-1052 1370.5,-1046 1376.5,-1046 1376.5,-1046 1513.5,-1046 1513.5,-1046 1519.5,-1046 1525.5,-1052 1525.5,-1058 1525.5,-1058 1525.5,-1070 1525.5,-1070 1525.5,-1076 1519.5,-1082 1513.5,-1082"/>
<text text-anchor="middle" x="1445" y="-1060.3" font-family="Times,serif" font-size="14.00">Relative Translation</text>
</g>
<!-- Relative Translation&#45;&gt;Two&#45;View Bundle Adjustment -->
<g id="edge45" class="edge">
<title>Relative Translation&#45;&gt;Two&#45;View Bundle Adjustment</title>
<path fill="none" stroke="#bfbfbf" d="M1382.46,-1045.97C1345.77,-1035.97 1299.24,-1023.3 1260.89,-1012.85"/>
<polygon fill="#bfbfbf" stroke="#bfbfbf" points="1261.39,-1009.36 1250.82,-1010.11 1259.55,-1016.12 1261.39,-1009.36"/>
</g>
<!-- Triangulated Points -->
<g id="node36" class="node">
<title>Triangulated Points</title>
<ellipse fill="none" stroke="black" cx="868" cy="-1064" rx="102.08" ry="18"/>
<text text-anchor="middle" x="868" y="-1060.3" font-family="Times,serif" font-size="14.00">Triangulated Points</text>
</g>
<!-- Triangulated Points&#45;&gt;Two&#45;View Bundle Adjustment -->
<g id="edge46" class="edge">
<title>Triangulated Points&#45;&gt;Two&#45;View Bundle Adjustment</title>
<path fill="none" stroke="#bfbfbf" d="M929.32,-1049.59C977.76,-1038.99 1045.98,-1024.07 1100.21,-1012.2"/>
<polygon fill="#bfbfbf" stroke="#bfbfbf" points="1101.14,-1015.58 1110.16,-1010.03 1099.65,-1008.74 1101.14,-1015.58"/>
</g>
<!-- Verified Correspondences -->
<g id="node37" class="node">
<title>Verified Correspondences</title>
<path fill="gainsboro" stroke="black" d="M1176,-1082C1176,-1082 1000,-1082 1000,-1082 994,-1082 988,-1076 988,-1070 988,-1070 988,-1058 988,-1058 988,-1052 994,-1046 1000,-1046 1000,-1046 1176,-1046 1176,-1046 1182,-1046 1188,-1052 1188,-1058 1188,-1058 1188,-1070 1188,-1070 1188,-1076 1182,-1082 1176,-1082"/>
<text text-anchor="middle" x="1088" y="-1060.3" font-family="Times,serif" font-size="14.00">Verified Correspondences</text>
</g>
<!-- Verified Correspondences&#45;&gt;Two&#45;View Bundle Adjustment -->
<g id="edge50" class="edge">
<title>Verified Correspondences&#45;&gt;Two&#45;View Bundle Adjustment</title>
<path fill="none" stroke="#bfbfbf" d="M1112.46,-1045.88C1125.3,-1036.89 1141.2,-1025.76 1155.09,-1016.03"/>
<polygon fill="#bfbfbf" stroke="#bfbfbf" points="1157.26,-1018.79 1163.44,-1010.19 1153.24,-1013.06 1157.26,-1018.79"/>
</g>
<!-- Verifier&#45;&gt;Relative Rotation -->
<g id="edge51" class="edge">
<title>Verifier&#45;&gt;Relative Rotation</title>
<path fill="none" stroke="#bfbfbf" d="M1339.99,-1117.7C1329.28,-1108.88 1316.11,-1098.03 1304.5,-1088.47"/>
<polygon fill="#bfbfbf" stroke="#bfbfbf" points="1306.71,-1085.76 1296.77,-1082.1 1302.26,-1091.16 1306.71,-1085.76"/>
</g>
<!-- Verifier&#45;&gt;Relative Translation -->
<g id="edge52" class="edge">
<title>Verifier&#45;&gt;Relative Translation</title>
<path fill="none" stroke="#bfbfbf" d="M1381.76,-1117.7C1392.24,-1108.97 1405.11,-1098.24 1416.5,-1088.75"/>
<polygon fill="#bfbfbf" stroke="#bfbfbf" points="1419.03,-1091.19 1424.47,-1082.1 1414.55,-1085.82 1419.03,-1091.19"/>
</g>
<!-- Verifier&#45;&gt;Verified Correspondences -->
<g id="edge53" class="edge">
<title>Verifier&#45;&gt;Verified Correspondences</title>
<path fill="none" stroke="#bfbfbf" d="M1325.87,-1125.99C1285.2,-1115.56 1217.02,-1098.08 1164.05,-1084.5"/>
<polygon fill="#bfbfbf" stroke="#bfbfbf" points="1164.91,-1081.11 1154.35,-1082.01 1163.17,-1087.89 1164.91,-1081.11"/>
</g>
<!-- Inlier Ratio -->
<g id="node39" class="node">
<title>Inlier Ratio</title>
<path fill="gainsboro" stroke="black" d="M1628.5,-1082C1628.5,-1082 1555.5,-1082 1555.5,-1082 1549.5,-1082 1543.5,-1076 1543.5,-1070 1543.5,-1070 1543.5,-1058 1543.5,-1058 1543.5,-1052 1549.5,-1046 1555.5,-1046 1555.5,-1046 1628.5,-1046 1628.5,-1046 1634.5,-1046 1640.5,-1052 1640.5,-1058 1640.5,-1058 1640.5,-1070 1640.5,-1070 1640.5,-1076 1634.5,-1082 1628.5,-1082"/>
<text text-anchor="middle" x="1592" y="-1060.3" font-family="Times,serif" font-size="14.00">Inlier Ratio</text>
</g>
<!-- Verifier&#45;&gt;Inlier Ratio -->
<g id="edge54" class="edge">
<title>Verifier&#45;&gt;Inlier Ratio</title>
<path fill="none" stroke="#bfbfbf" d="M1396.08,-1124.37C1432.58,-1113.31 1490.33,-1095.81 1533.7,-1082.67"/>
<polygon fill="#bfbfbf" stroke="#bfbfbf" points="1534.72,-1086.02 1543.27,-1079.77 1532.69,-1079.32 1534.72,-1086.02"/>
</g>
<!-- View&#45;Graph Estimator&#45;&gt;View&#45;Graph Correspondences -->
<g id="edge60" class="edge">
<title>View&#45;Graph Estimator&#45;&gt;View&#45;Graph Correspondences</title>
<path fill="none" stroke="#bfbfbf" d="M949.27,-818.9C963.87,-810.37 978.84,-798.51 987,-783 1009.33,-740.51 1012,-715.98 987,-675 978.8,-661.55 965.97,-651.37 952.11,-643.72"/>
<polygon fill="#bfbfbf" stroke="#bfbfbf" points="953.4,-640.44 942.9,-639.04 950.23,-646.69 953.4,-640.44"/>
</g>
<!-- View&#45;Graph Estimator&#45;&gt;View&#45;Graph Relative Rotations -->
<g id="edge58" class="edge">
<title>View&#45;Graph Estimator&#45;&gt;View&#45;Graph Relative Rotations</title>
<path fill="none" stroke="#bfbfbf" d="M897.64,-818.7C891.77,-810.47 884.63,-800.48 878.16,-791.42"/>
<polygon fill="#bfbfbf" stroke="#bfbfbf" points="880.88,-789.21 872.22,-783.1 875.18,-793.28 880.88,-789.21"/>
</g>
<!-- View&#45;Graph Estimator&#45;&gt;View&#45;Graph Relative Translations -->
<g id="edge59" class="edge">
<title>View&#45;Graph Estimator&#45;&gt;View&#45;Graph Relative Translations</title>
<path fill="none" stroke="#bfbfbf" d="M821.74,-822.8C791.36,-815 758.58,-802.61 733,-783 712.04,-766.93 697.14,-740.39 688.19,-720.47"/>
<polygon fill="#bfbfbf" stroke="#bfbfbf" points="691.3,-718.85 684.15,-711.02 684.86,-721.59 691.3,-718.85"/>
</g>
</g>
</svg>
