<?xml version="1.0" encoding="UTF-8" standalone="no"?>
<!DOCTYPE svg PUBLIC "-//W3C//DTD SVG 1.1//EN"
 "http://www.w3.org/Graphics/SVG/1.1/DTD/svg11.dtd">
<!-- Generated by graphviz version 5.0.0 (0)
 -->
<!-- Title: G Pages: 1 -->
<svg width="1084pt" height="1653pt"
 viewBox="0.00 0.00 1083.50 1653.00" xmlns="http://www.w3.org/2000/svg" xmlns:xlink="http://www.w3.org/1999/xlink">
<g id="graph0" class="graph" transform="scale(1 1) rotate(0) translate(4 1649)">
<title>G</title>
<polygon fill="white" stroke="transparent" points="-4,4 -4,-1649 1079.5,-1649 1079.5,4 -4,4"/>
<g id="clust1" class="cluster">
<title>cluster_Two&#45;View Estimator</title>
<polygon fill="white" stroke="black" points="172,-867 172,-1374 1054,-1374 1054,-867 172,-867"/>
<text text-anchor="middle" x="613" y="-1358.8" font-family="Veranda" font-size="14.00">Two&#45;View Estimator</text>
</g>
<g id="clust2" class="cluster">
<title>cluster_Multi&#45;View Optimizer</title>
<polygon fill="white" stroke="black" points="163,-136 163,-859 579,-859 579,-136 163,-136"/>
<text text-anchor="middle" x="371" y="-843.8" font-family="Veranda" font-size="14.00">Multi&#45;View Optimizer</text>
</g>
<g id="clust3" class="cluster">
<title>cluster_Feature Extractor</title>
<polygon fill="white" stroke="black" points="335,-1382 335,-1529 471,-1529 471,-1382 335,-1382"/>
<text text-anchor="middle" x="403" y="-1513.8" font-family="Veranda" font-size="14.00">Feature Extractor</text>
</g>
<!-- View&#45;Graph Correspondences -->
<g id="node1" class="node">
<title>View&#45;Graph Correspondences</title>
<path fill="gainsboro" stroke="black" d="M359,-540C359,-540 203,-540 203,-540 197,-540 191,-534 191,-528 191,-528 191,-516 191,-516 191,-510 197,-504 203,-504 203,-504 359,-504 359,-504 365,-504 371,-510 371,-516 371,-516 371,-528 371,-528 371,-534 365,-540 359,-540"/>
<text text-anchor="middle" x="281" y="-518.3" font-family="Times,serif" font-size="14.00">View&#45;Graph Correspondences</text>
</g>
<!-- Data Association -->
<g id="node2" class="node">
<title>Data Association</title>
<path fill="lightskyblue" stroke="black" d="M446.5,-396C446.5,-396 361.5,-396 361.5,-396 355.5,-396 349.5,-390 349.5,-384 349.5,-384 349.5,-372 349.5,-372 349.5,-366 355.5,-360 361.5,-360 361.5,-360 446.5,-360 446.5,-360 452.5,-360 458.5,-366 458.5,-372 458.5,-372 458.5,-384 458.5,-384 458.5,-390 452.5,-396 446.5,-396"/>
<text text-anchor="middle" x="404" y="-374.3" font-family="Times,serif" font-size="14.00">Data Association</text>
</g>
<!-- View&#45;Graph Correspondences&#45;&gt;Data Association -->
<g id="edge1" class="edge">
<title>View&#45;Graph Correspondences&#45;&gt;Data Association</title>
<path fill="none" stroke="#bfbfbf" d="M295.84,-503.87C317.45,-478.92 357.7,-432.45 382.54,-403.77"/>
<polygon fill="#bfbfbf" stroke="#bfbfbf" points="385.21,-406.04 389.11,-396.19 379.92,-401.46 385.21,-406.04"/>
</g>
<!-- 3D Tracks -->
<g id="node6" class="node">
<title>3D Tracks</title>
<path fill="gainsboro" stroke="black" d="M440.5,-324C440.5,-324 391.5,-324 391.5,-324 385.5,-324 379.5,-318 379.5,-312 379.5,-312 379.5,-300 379.5,-300 379.5,-294 385.5,-288 391.5,-288 391.5,-288 440.5,-288 440.5,-288 446.5,-288 452.5,-294 452.5,-300 452.5,-300 452.5,-312 452.5,-312 452.5,-318 446.5,-324 440.5,-324"/>
<text text-anchor="middle" x="416" y="-302.3" font-family="Times,serif" font-size="14.00">3D Tracks</text>
</g>
<!-- Data Association&#45;&gt;3D Tracks -->
<g id="edge5" class="edge">
<title>Data Association&#45;&gt;3D Tracks</title>
<path fill="none" stroke="#bfbfbf" d="M406.97,-359.7C408.29,-351.98 409.88,-342.71 411.35,-334.11"/>
<polygon fill="#bfbfbf" stroke="#bfbfbf" points="414.83,-334.55 413.07,-324.1 407.93,-333.37 414.83,-334.55"/>
</g>
<!-- Global Rotations -->
<g id="node3" class="node">
<title>Global Rotations</title>
<path fill="gainsboro" stroke="black" d="M555.5,-612C555.5,-612 470.5,-612 470.5,-612 464.5,-612 458.5,-606 458.5,-600 458.5,-600 458.5,-588 458.5,-588 458.5,-582 464.5,-576 470.5,-576 470.5,-576 555.5,-576 555.5,-576 561.5,-576 567.5,-582 567.5,-588 567.5,-588 567.5,-600 567.5,-600 567.5,-606 561.5,-612 555.5,-612"/>
<text text-anchor="middle" x="513" y="-590.3" font-family="Times,serif" font-size="14.00">Global Rotations</text>
</g>
<!-- Global Rotations&#45;&gt;Data Association -->
<g id="edge2" class="edge">
<title>Global Rotations&#45;&gt;Data Association</title>
<path fill="none" stroke="#bfbfbf" d="M525.18,-575.96C537.29,-556.73 551.93,-525.36 536,-504 502.46,-459.02 451.24,-510.83 415,-468 400.74,-451.15 398.9,-425.68 400.1,-406.29"/>
<polygon fill="#bfbfbf" stroke="#bfbfbf" points="403.59,-406.52 401.02,-396.24 396.62,-405.88 403.59,-406.52"/>
</g>
<!-- Global Bundle Adjustment -->
<g id="node12" class="node">
<title>Global Bundle Adjustment</title>
<path fill="lightskyblue" stroke="black" d="M552.5,-252C552.5,-252 413.5,-252 413.5,-252 407.5,-252 401.5,-246 401.5,-240 401.5,-240 401.5,-228 401.5,-228 401.5,-222 407.5,-216 413.5,-216 413.5,-216 552.5,-216 552.5,-216 558.5,-216 564.5,-222 564.5,-228 564.5,-228 564.5,-240 564.5,-240 564.5,-246 558.5,-252 552.5,-252"/>
<text text-anchor="middle" x="483" y="-230.3" font-family="Times,serif" font-size="14.00">Global Bundle Adjustment</text>
</g>
<!-- Global Rotations&#45;&gt;Global Bundle Adjustment -->
<g id="edge13" class="edge">
<title>Global Rotations&#45;&gt;Global Bundle Adjustment</title>
<path fill="none" stroke="#bfbfbf" d="M524.65,-575.98C531.12,-565.89 538.87,-552.64 544,-540 559.33,-502.25 566,-491.75 566,-451 566,-451 566,-451 566,-377 566,-330.74 532.76,-286.16 508.35,-259.66"/>
<polygon fill="#bfbfbf" stroke="#bfbfbf" points="510.84,-257.2 501.42,-252.36 505.76,-262.02 510.84,-257.2"/>
</g>
<!-- Translation Averaging -->
<g id="node28" class="node">
<title>Translation Averaging</title>
<path fill="lightskyblue" stroke="black" d="M514.5,-540C514.5,-540 401.5,-540 401.5,-540 395.5,-540 389.5,-534 389.5,-528 389.5,-528 389.5,-516 389.5,-516 389.5,-510 395.5,-504 401.5,-504 401.5,-504 514.5,-504 514.5,-504 520.5,-504 526.5,-510 526.5,-516 526.5,-516 526.5,-528 526.5,-528 526.5,-534 520.5,-540 514.5,-540"/>
<text text-anchor="middle" x="458" y="-518.3" font-family="Times,serif" font-size="14.00">Translation Averaging</text>
</g>
<!-- Global Rotations&#45;&gt;Translation Averaging -->
<g id="edge37" class="edge">
<title>Global Rotations&#45;&gt;Translation Averaging</title>
<path fill="none" stroke="#bfbfbf" d="M499.4,-575.7C492.88,-567.39 484.93,-557.28 477.75,-548.14"/>
<polygon fill="#bfbfbf" stroke="#bfbfbf" points="480.37,-545.81 471.44,-540.1 474.87,-550.13 480.37,-545.81"/>
</g>
<!-- Global Translations -->
<g id="node4" class="node">
<title>Global Translations</title>
<path fill="gainsboro" stroke="black" d="M534.5,-468C534.5,-468 435.5,-468 435.5,-468 429.5,-468 423.5,-462 423.5,-456 423.5,-456 423.5,-444 423.5,-444 423.5,-438 429.5,-432 435.5,-432 435.5,-432 534.5,-432 534.5,-432 540.5,-432 546.5,-438 546.5,-444 546.5,-444 546.5,-456 546.5,-456 546.5,-462 540.5,-468 534.5,-468"/>
<text text-anchor="middle" x="485" y="-446.3" font-family="Times,serif" font-size="14.00">Global Translations</text>
</g>
<!-- Global Translations&#45;&gt;Data Association -->
<g id="edge3" class="edge">
<title>Global Translations&#45;&gt;Data Association</title>
<path fill="none" stroke="#bfbfbf" d="M464.98,-431.7C454.87,-422.97 442.46,-412.24 431.48,-402.75"/>
<polygon fill="#bfbfbf" stroke="#bfbfbf" points="433.65,-399.99 423.79,-396.1 429.07,-405.29 433.65,-399.99"/>
</g>
<!-- Global Translations&#45;&gt;Global Bundle Adjustment -->
<g id="edge12" class="edge">
<title>Global Translations&#45;&gt;Global Bundle Adjustment</title>
<path fill="none" stroke="#bfbfbf" d="M484.84,-431.85C484.49,-394.83 483.67,-307.18 483.26,-262.39"/>
<polygon fill="#bfbfbf" stroke="#bfbfbf" points="486.75,-262.2 483.16,-252.23 479.75,-262.26 486.75,-262.2"/>
</g>
<!-- Camera Intrinsics -->
<g id="node5" class="node">
<title>Camera Intrinsics</title>
<path fill="gainsboro" stroke="black" d="M533.5,-1199C533.5,-1199 444.5,-1199 444.5,-1199 438.5,-1199 432.5,-1193 432.5,-1187 432.5,-1187 432.5,-1175 432.5,-1175 432.5,-1169 438.5,-1163 444.5,-1163 444.5,-1163 533.5,-1163 533.5,-1163 539.5,-1163 545.5,-1169 545.5,-1175 545.5,-1175 545.5,-1187 545.5,-1187 545.5,-1193 539.5,-1199 533.5,-1199"/>
<text text-anchor="middle" x="489" y="-1177.3" font-family="Times,serif" font-size="14.00">Camera Intrinsics</text>
</g>
<!-- Camera Intrinsics&#45;&gt;Data Association -->
<g id="edge4" class="edge">
<title>Camera Intrinsics&#45;&gt;Data Association</title>
<path fill="none" stroke="#bfbfbf" d="M432.19,-1165.78C428.07,-1164.82 423.97,-1163.88 420,-1163 339.5,-1145.13 312.78,-1161.75 238,-1127 94.87,-1060.49 76,-968.82 76,-811 76,-811 76,-811 76,-521 76,-407.4 243.75,-383.66 339.32,-379.35"/>
<polygon fill="#bfbfbf" stroke="#bfbfbf" points="339.61,-382.84 349.47,-378.95 339.34,-375.84 339.61,-382.84"/>
</g>
<!-- Camera Intrinsics&#45;&gt;Global Bundle Adjustment -->
<g id="edge11" class="edge">
<title>Camera Intrinsics&#45;&gt;Global Bundle Adjustment</title>
<path fill="none" stroke="#bfbfbf" d="M545.62,-1178.25C692.44,-1172.19 1074,-1146.04 1074,-1038 1074,-1038 1074,-1038 1074,-377 1074,-275.58 740.78,-246.4 574.76,-238.16"/>
<polygon fill="#bfbfbf" stroke="#bfbfbf" points="574.71,-234.66 564.56,-237.67 574.38,-241.65 574.71,-234.66"/>
</g>
<!-- Two&#45;View Bundle Adjustment -->
<g id="node30" class="node">
<title>Two&#45;View Bundle Adjustment</title>
<path fill="lightskyblue" stroke="black" d="M649.5,-983C649.5,-983 490.5,-983 490.5,-983 484.5,-983 478.5,-977 478.5,-971 478.5,-971 478.5,-959 478.5,-959 478.5,-953 484.5,-947 490.5,-947 490.5,-947 649.5,-947 649.5,-947 655.5,-947 661.5,-953 661.5,-959 661.5,-959 661.5,-971 661.5,-971 661.5,-977 655.5,-983 649.5,-983"/>
<text text-anchor="middle" x="570" y="-961.3" font-family="Times,serif" font-size="14.00">Two&#45;View Bundle Adjustment</text>
</g>
<!-- Camera Intrinsics&#45;&gt;Two&#45;View Bundle Adjustment -->
<g id="edge45" class="edge">
<title>Camera Intrinsics&#45;&gt;Two&#45;View Bundle Adjustment</title>
<path fill="none" stroke="#bfbfbf" d="M545.7,-1170.67C645.97,-1152.9 847.9,-1110.91 889,-1055 898.48,-1042.11 899.35,-1031.21 889,-1019 874.87,-1002.32 759.86,-986.32 671.95,-976.35"/>
<polygon fill="#bfbfbf" stroke="#bfbfbf" points="672.24,-972.86 661.91,-975.22 671.46,-979.81 672.24,-972.86"/>
</g>
<!-- Verifier -->
<g id="node37" class="node">
<title>Verifier</title>
<path fill="lightskyblue" stroke="black" d="M392,-1127C392,-1127 358,-1127 358,-1127 352,-1127 346,-1121 346,-1115 346,-1115 346,-1103 346,-1103 346,-1097 352,-1091 358,-1091 358,-1091 392,-1091 392,-1091 398,-1091 404,-1097 404,-1103 404,-1103 404,-1115 404,-1115 404,-1121 398,-1127 392,-1127"/>
<text text-anchor="middle" x="375" y="-1105.3" font-family="Times,serif" font-size="14.00">Verifier</text>
</g>
<!-- Camera Intrinsics&#45;&gt;Verifier -->
<g id="edge53" class="edge">
<title>Camera Intrinsics&#45;&gt;Verifier</title>
<path fill="none" stroke="#bfbfbf" d="M461.11,-1162.88C446.21,-1153.72 427.67,-1142.34 411.62,-1132.48"/>
<polygon fill="#bfbfbf" stroke="#bfbfbf" points="413.35,-1129.44 402.99,-1127.19 409.69,-1135.41 413.35,-1129.44"/>
</g>
<!-- View&#45;Graph Estimator -->
<g id="node39" class="node">
<title>View&#45;Graph Estimator</title>
<path fill="lightskyblue" stroke="black" d="M363,-828C363,-828 247,-828 247,-828 241,-828 235,-822 235,-816 235,-816 235,-804 235,-804 235,-798 241,-792 247,-792 247,-792 363,-792 363,-792 369,-792 375,-798 375,-804 375,-804 375,-816 375,-816 375,-822 369,-828 363,-828"/>
<text text-anchor="middle" x="305" y="-806.3" font-family="Times,serif" font-size="14.00">View&#45;Graph Estimator</text>
</g>
<!-- Camera Intrinsics&#45;&gt;View&#45;Graph Estimator -->
<g id="edge60" class="edge">
<title>Camera Intrinsics&#45;&gt;View&#45;Graph Estimator</title>
<path fill="none" stroke="#bfbfbf" d="M434.48,-1162.93C339.1,-1132.27 152,-1068.28 152,-1038 152,-1038 152,-1038 152,-964 152,-919.89 144.88,-900.98 173,-867 186.57,-850.61 205.79,-838.92 225.37,-830.62"/>
<polygon fill="#bfbfbf" stroke="#bfbfbf" points="226.68,-833.87 234.68,-826.93 224.1,-827.36 226.68,-833.87"/>
</g>
<!-- 3D Tracks&#45;&gt;Global Bundle Adjustment -->
<g id="edge14" class="edge">
<title>3D Tracks&#45;&gt;Global Bundle Adjustment</title>
<path fill="none" stroke="#bfbfbf" d="M432.56,-287.7C440.68,-279.22 450.59,-268.86 459.47,-259.58"/>
<polygon fill="#bfbfbf" stroke="#bfbfbf" points="462.24,-261.75 466.63,-252.1 457.19,-256.91 462.24,-261.75"/>
</g>
<!-- Images -->
<g id="node7" class="node">
<title>Images</title>
<path fill="gainsboro" stroke="black" d="M419,-1498C419,-1498 387,-1498 387,-1498 381,-1498 375,-1492 375,-1486 375,-1486 375,-1474 375,-1474 375,-1468 381,-1462 387,-1462 387,-1462 419,-1462 419,-1462 425,-1462 431,-1468 431,-1474 431,-1474 431,-1486 431,-1486 431,-1492 425,-1498 419,-1498"/>
<text text-anchor="middle" x="403" y="-1476.3" font-family="Times,serif" font-size="14.00">Images</text>
</g>
<!-- DetectorDescriptor -->
<g id="node8" class="node">
<title>DetectorDescriptor</title>
<path fill="lightskyblue" stroke="black" d="M451,-1426C451,-1426 355,-1426 355,-1426 349,-1426 343,-1420 343,-1414 343,-1414 343,-1402 343,-1402 343,-1396 349,-1390 355,-1390 355,-1390 451,-1390 451,-1390 457,-1390 463,-1396 463,-1402 463,-1402 463,-1414 463,-1414 463,-1420 457,-1426 451,-1426"/>
<text text-anchor="middle" x="403" y="-1404.3" font-family="Times,serif" font-size="14.00">DetectorDescriptor</text>
</g>
<!-- Images&#45;&gt;DetectorDescriptor -->
<g id="edge6" class="edge">
<title>Images&#45;&gt;DetectorDescriptor</title>
<path fill="none" stroke="#bfbfbf" d="M403,-1461.7C403,-1453.98 403,-1444.71 403,-1436.11"/>
<polygon fill="#bfbfbf" stroke="#bfbfbf" points="406.5,-1436.1 403,-1426.1 399.5,-1436.1 406.5,-1436.1"/>
</g>
<!-- Multi&#45;view Stereo -->
<g id="node23" class="node">
<title>Multi&#45;view Stereo</title>
<path fill="lightskyblue" stroke="black" d="M318,-108C318,-108 226,-108 226,-108 220,-108 214,-102 214,-96 214,-96 214,-84 214,-84 214,-78 220,-72 226,-72 226,-72 318,-72 318,-72 324,-72 330,-78 330,-84 330,-84 330,-96 330,-96 330,-102 324,-108 318,-108"/>
<text text-anchor="middle" x="272" y="-86.3" font-family="Times,serif" font-size="14.00">Multi&#45;view Stereo</text>
</g>
<!-- Images&#45;&gt;Multi&#45;view Stereo -->
<g id="edge29" class="edge">
<title>Images&#45;&gt;Multi&#45;view Stereo</title>
<path fill="none" stroke="#bfbfbf" d="M374.91,-1471.4C328.24,-1457.77 233.41,-1425.64 168,-1374 58.85,-1287.82 0,-1249.08 0,-1110 0,-1110 0,-1110 0,-233 0,-141.17 123.32,-108.63 203.89,-97.16"/>
<polygon fill="#bfbfbf" stroke="#bfbfbf" points="204.54,-100.61 213.98,-95.8 203.61,-93.67 204.54,-100.61"/>
</g>
<!-- Keypoints -->
<g id="node9" class="node">
<title>Keypoints</title>
<path fill="gainsboro" stroke="black" d="M240,-1343C240,-1343 192,-1343 192,-1343 186,-1343 180,-1337 180,-1331 180,-1331 180,-1319 180,-1319 180,-1313 186,-1307 192,-1307 192,-1307 240,-1307 240,-1307 246,-1307 252,-1313 252,-1319 252,-1319 252,-1331 252,-1331 252,-1337 246,-1343 240,-1343"/>
<text text-anchor="middle" x="216" y="-1321.3" font-family="Times,serif" font-size="14.00">Keypoints</text>
</g>
<!-- DetectorDescriptor&#45;&gt;Keypoints -->
<g id="edge7" class="edge">
<title>DetectorDescriptor&#45;&gt;Keypoints</title>
<path fill="none" stroke="#bfbfbf" d="M342.92,-1400.73C316.77,-1396.08 286.57,-1388.01 262,-1374 251.82,-1368.19 242.48,-1359.44 234.91,-1350.99"/>
<polygon fill="#bfbfbf" stroke="#bfbfbf" points="237.36,-1348.47 228.23,-1343.09 232.01,-1352.99 237.36,-1348.47"/>
</g>
<!-- Descriptors -->
<g id="node10" class="node">
<title>Descriptors</title>
<path fill="gainsboro" stroke="black" d="M448.5,-1343C448.5,-1343 393.5,-1343 393.5,-1343 387.5,-1343 381.5,-1337 381.5,-1331 381.5,-1331 381.5,-1319 381.5,-1319 381.5,-1313 387.5,-1307 393.5,-1307 393.5,-1307 448.5,-1307 448.5,-1307 454.5,-1307 460.5,-1313 460.5,-1319 460.5,-1319 460.5,-1331 460.5,-1331 460.5,-1337 454.5,-1343 448.5,-1343"/>
<text text-anchor="middle" x="421" y="-1321.3" font-family="Times,serif" font-size="14.00">Descriptors</text>
</g>
<!-- DetectorDescriptor&#45;&gt;Descriptors -->
<g id="edge8" class="edge">
<title>DetectorDescriptor&#45;&gt;Descriptors</title>
<path fill="none" stroke="#bfbfbf" d="M406.82,-1389.82C409.18,-1379.19 412.27,-1365.31 414.95,-1353.2"/>
<polygon fill="#bfbfbf" stroke="#bfbfbf" points="418.44,-1353.67 417.19,-1343.15 411.6,-1352.16 418.44,-1353.67"/>
</g>
<!-- Matcher -->
<g id="node21" class="node">
<title>Matcher</title>
<path fill="lightskyblue" stroke="black" d="M341,-1271C341,-1271 303,-1271 303,-1271 297,-1271 291,-1265 291,-1259 291,-1259 291,-1247 291,-1247 291,-1241 297,-1235 303,-1235 303,-1235 341,-1235 341,-1235 347,-1235 353,-1241 353,-1247 353,-1247 353,-1259 353,-1259 353,-1265 347,-1271 341,-1271"/>
<text text-anchor="middle" x="322" y="-1249.3" font-family="Times,serif" font-size="14.00">Matcher</text>
</g>
<!-- Keypoints&#45;&gt;Matcher -->
<g id="edge25" class="edge">
<title>Keypoints&#45;&gt;Matcher</title>
<path fill="none" stroke="#bfbfbf" d="M241.93,-1306.88C255.66,-1297.81 272.71,-1286.55 287.54,-1276.76"/>
<polygon fill="#bfbfbf" stroke="#bfbfbf" points="289.55,-1279.62 295.97,-1271.19 285.7,-1273.78 289.55,-1279.62"/>
</g>
<!-- Keypoints&#45;&gt;Two&#45;View Bundle Adjustment -->
<g id="edge46" class="edge">
<title>Keypoints&#45;&gt;Two&#45;View Bundle Adjustment</title>
<path fill="none" stroke="#bfbfbf" d="M208.92,-1306.85C198.69,-1280.49 181,-1228.21 181,-1182 181,-1182 181,-1182 181,-1108 181,-1068.14 164.05,-1047.41 192,-1019 229.46,-980.92 369.64,-969.78 468.32,-966.76"/>
<polygon fill="#bfbfbf" stroke="#bfbfbf" points="468.44,-970.25 478.33,-966.47 468.24,-963.26 468.44,-970.25"/>
</g>
<!-- Keypoints&#45;&gt;Verifier -->
<g id="edge51" class="edge">
<title>Keypoints&#45;&gt;Verifier</title>
<path fill="none" stroke="#bfbfbf" d="M213.96,-1306.79C211.14,-1274.75 209.78,-1205.38 244,-1163 266.54,-1135.08 306.09,-1121.77 335.85,-1115.48"/>
<polygon fill="#bfbfbf" stroke="#bfbfbf" points="336.76,-1118.87 345.92,-1113.53 335.44,-1111.99 336.76,-1118.87"/>
</g>
<!-- Keypoints&#45;&gt;View&#45;Graph Estimator -->
<g id="edge62" class="edge">
<title>Keypoints&#45;&gt;View&#45;Graph Estimator</title>
<path fill="none" stroke="#bfbfbf" d="M179.95,-1307.01C138.47,-1284.67 76,-1241.2 76,-1182 76,-1182 76,-1182 76,-1036 76,-954.36 88.56,-922.97 148,-867 169.11,-847.12 197.75,-834.23 224.78,-825.89"/>
<polygon fill="#bfbfbf" stroke="#bfbfbf" points="226.03,-829.17 234.65,-823.02 224.07,-822.45 226.03,-829.17"/>
</g>
<!-- Descriptors&#45;&gt;Matcher -->
<g id="edge26" class="edge">
<title>Descriptors&#45;&gt;Matcher</title>
<path fill="none" stroke="#bfbfbf" d="M396.78,-1306.88C384.08,-1297.89 368.34,-1286.76 354.58,-1277.03"/>
<polygon fill="#bfbfbf" stroke="#bfbfbf" points="356.5,-1274.11 346.31,-1271.19 352.46,-1279.82 356.5,-1274.11"/>
</g>
<!-- Absolute Pose Priors -->
<g id="node11" class="node">
<title>Absolute Pose Priors</title>
<path fill="gainsboro" stroke="black" d="M290.5,-612C290.5,-612 183.5,-612 183.5,-612 177.5,-612 171.5,-606 171.5,-600 171.5,-600 171.5,-588 171.5,-588 171.5,-582 177.5,-576 183.5,-576 183.5,-576 290.5,-576 290.5,-576 296.5,-576 302.5,-582 302.5,-588 302.5,-588 302.5,-600 302.5,-600 302.5,-606 296.5,-612 290.5,-612"/>
<text text-anchor="middle" x="237" y="-590.3" font-family="Times,serif" font-size="14.00">Absolute Pose Priors</text>
</g>
<!-- Absolute Pose Priors&#45;&gt;Global Bundle Adjustment -->
<g id="edge9" class="edge">
<title>Absolute Pose Priors&#45;&gt;Global Bundle Adjustment</title>
<path fill="none" stroke="#bfbfbf" d="M212.6,-575.87C201.35,-566.6 188.98,-554.15 182,-540 164.4,-504.3 172,-490.8 172,-451 172,-451 172,-451 172,-377 172,-279.74 299.41,-248.81 391.13,-239.15"/>
<polygon fill="#bfbfbf" stroke="#bfbfbf" points="391.68,-242.61 401.29,-238.15 390.99,-235.64 391.68,-242.61"/>
</g>
<!-- Absolute Pose Priors&#45;&gt;Translation Averaging -->
<g id="edge38" class="edge">
<title>Absolute Pose Priors&#45;&gt;Translation Averaging</title>
<path fill="none" stroke="#bfbfbf" d="M290.78,-575.97C321.93,-566.1 361.32,-553.62 394.05,-543.25"/>
<polygon fill="#bfbfbf" stroke="#bfbfbf" points="395.5,-546.47 403.98,-540.11 393.39,-539.79 395.5,-546.47"/>
</g>
<!-- Filtered Optimized Camera Poses -->
<g id="node14" class="node">
<title>Filtered Optimized Camera Poses</title>
<path fill="gainsboro" stroke="black" d="M360.5,-180C360.5,-180 183.5,-180 183.5,-180 177.5,-180 171.5,-174 171.5,-168 171.5,-168 171.5,-156 171.5,-156 171.5,-150 177.5,-144 183.5,-144 183.5,-144 360.5,-144 360.5,-144 366.5,-144 372.5,-150 372.5,-156 372.5,-156 372.5,-168 372.5,-168 372.5,-174 366.5,-180 360.5,-180"/>
<text text-anchor="middle" x="272" y="-158.3" font-family="Times,serif" font-size="14.00">Filtered Optimized Camera Poses</text>
</g>
<!-- Global Bundle Adjustment&#45;&gt;Filtered Optimized Camera Poses -->
<g id="edge15" class="edge">
<title>Global Bundle Adjustment&#45;&gt;Filtered Optimized Camera Poses</title>
<path fill="none" stroke="#bfbfbf" d="M431.65,-215.97C402.04,-206.14 364.63,-193.73 333.46,-183.39"/>
<polygon fill="#bfbfbf" stroke="#bfbfbf" points="334.17,-179.94 323.58,-180.11 331.97,-186.58 334.17,-179.94"/>
</g>
<!-- Filtered Optimized 3D Tracks -->
<g id="node15" class="node">
<title>Filtered Optimized 3D Tracks</title>
<path fill="gainsboro" stroke="black" d="M559,-180C559,-180 403,-180 403,-180 397,-180 391,-174 391,-168 391,-168 391,-156 391,-156 391,-150 397,-144 403,-144 403,-144 559,-144 559,-144 565,-144 571,-150 571,-156 571,-156 571,-168 571,-168 571,-174 565,-180 559,-180"/>
<text text-anchor="middle" x="481" y="-158.3" font-family="Times,serif" font-size="14.00">Filtered Optimized 3D Tracks</text>
</g>
<!-- Global Bundle Adjustment&#45;&gt;Filtered Optimized 3D Tracks -->
<g id="edge16" class="edge">
<title>Global Bundle Adjustment&#45;&gt;Filtered Optimized 3D Tracks</title>
<path fill="none" stroke="#bfbfbf" d="M482.51,-215.7C482.29,-207.98 482.02,-198.71 481.77,-190.11"/>
<polygon fill="#bfbfbf" stroke="#bfbfbf" points="485.27,-190 481.49,-180.1 478.28,-190.2 485.27,-190"/>
</g>
<!-- Relative Pose Priors -->
<g id="node13" class="node">
<title>Relative Pose Priors</title>
<path fill="gainsboro" stroke="black" d="M1033.5,-1055C1033.5,-1055 930.5,-1055 930.5,-1055 924.5,-1055 918.5,-1049 918.5,-1043 918.5,-1043 918.5,-1031 918.5,-1031 918.5,-1025 924.5,-1019 930.5,-1019 930.5,-1019 1033.5,-1019 1033.5,-1019 1039.5,-1019 1045.5,-1025 1045.5,-1031 1045.5,-1031 1045.5,-1043 1045.5,-1043 1045.5,-1049 1039.5,-1055 1033.5,-1055"/>
<text text-anchor="middle" x="982" y="-1033.3" font-family="Times,serif" font-size="14.00">Relative Pose Priors</text>
</g>
<!-- Relative Pose Priors&#45;&gt;Global Bundle Adjustment -->
<g id="edge10" class="edge">
<title>Relative Pose Priors&#45;&gt;Global Bundle Adjustment</title>
<path fill="none" stroke="#bfbfbf" d="M974.71,-1018.87C964.2,-992.53 946,-940.29 946,-894 946,-894 946,-894 946,-377 946,-300.1 709.61,-260.6 574.65,-244.31"/>
<polygon fill="#bfbfbf" stroke="#bfbfbf" points="575.05,-240.83 564.71,-243.13 574.23,-247.78 575.05,-240.83"/>
</g>
<!-- Rotation Averaging -->
<g id="node26" class="node">
<title>Rotation Averaging</title>
<path fill="lightskyblue" stroke="black" d="M559,-684C559,-684 461,-684 461,-684 455,-684 449,-678 449,-672 449,-672 449,-660 449,-660 449,-654 455,-648 461,-648 461,-648 559,-648 559,-648 565,-648 571,-654 571,-660 571,-660 571,-672 571,-672 571,-678 565,-684 559,-684"/>
<text text-anchor="middle" x="510" y="-662.3" font-family="Times,serif" font-size="14.00">Rotation Averaging</text>
</g>
<!-- Relative Pose Priors&#45;&gt;Rotation Averaging -->
<g id="edge34" class="edge">
<title>Relative Pose Priors&#45;&gt;Rotation Averaging</title>
<path fill="none" stroke="#bfbfbf" d="M918.37,-1023.36C853.39,-1006.32 762,-969.01 762,-894 762,-894 762,-894 762,-809 762,-725.55 655.81,-690.6 581.29,-676.35"/>
<polygon fill="#bfbfbf" stroke="#bfbfbf" points="581.47,-672.83 571,-674.48 580.21,-679.72 581.47,-672.83"/>
</g>
<!-- Relative Pose Priors&#45;&gt;Translation Averaging -->
<g id="edge39" class="edge">
<title>Relative Pose Priors&#45;&gt;Translation Averaging</title>
<path fill="none" stroke="#bfbfbf" d="M956.44,-1018.89C924.23,-995.04 873,-948.54 873,-894 873,-894 873,-894 873,-665 873,-594.64 656.73,-551.86 536.44,-533.51"/>
<polygon fill="#bfbfbf" stroke="#bfbfbf" points="536.94,-530.05 526.53,-532.02 535.9,-536.97 536.94,-530.05"/>
</g>
<!-- Relative Pose Priors&#45;&gt;Two&#45;View Bundle Adjustment -->
<g id="edge44" class="edge">
<title>Relative Pose Priors&#45;&gt;Two&#45;View Bundle Adjustment</title>
<path fill="none" stroke="#bfbfbf" d="M918.21,-1021.79C913.41,-1020.81 908.63,-1019.87 904,-1019 826.34,-1004.39 738.02,-990.49 671.71,-980.6"/>
<polygon fill="#bfbfbf" stroke="#bfbfbf" points="672.09,-977.11 661.68,-979.1 671.06,-984.04 672.09,-977.11"/>
</g>
<!-- Filtered Optimized Camera Poses&#45;&gt;Multi&#45;view Stereo -->
<g id="edge30" class="edge">
<title>Filtered Optimized Camera Poses&#45;&gt;Multi&#45;view Stereo</title>
<path fill="none" stroke="#bfbfbf" d="M272,-143.7C272,-135.98 272,-126.71 272,-118.11"/>
<polygon fill="#bfbfbf" stroke="#bfbfbf" points="275.5,-118.1 272,-108.1 268.5,-118.1 275.5,-118.1"/>
</g>
<!-- Filtered Optimized 3D Tracks&#45;&gt;Multi&#45;view Stereo -->
<g id="edge31" class="edge">
<title>Filtered Optimized 3D Tracks&#45;&gt;Multi&#45;view Stereo</title>
<path fill="none" stroke="#bfbfbf" d="M430.14,-143.97C400.81,-134.14 363.75,-121.73 332.88,-111.39"/>
<polygon fill="#bfbfbf" stroke="#bfbfbf" points="333.68,-107.97 323.09,-108.11 331.46,-114.61 333.68,-107.97"/>
</g>
<!-- Image Loader -->
<g id="node16" class="node">
<title>Image Loader</title>
<path fill="gainsboro" stroke="black" d="M481.5,-1573C481.5,-1573 412.5,-1573 412.5,-1573 406.5,-1573 400.5,-1567 400.5,-1561 400.5,-1561 400.5,-1549 400.5,-1549 400.5,-1543 406.5,-1537 412.5,-1537 412.5,-1537 481.5,-1537 481.5,-1537 487.5,-1537 493.5,-1543 493.5,-1549 493.5,-1549 493.5,-1561 493.5,-1561 493.5,-1567 487.5,-1573 481.5,-1573"/>
<text text-anchor="middle" x="447" y="-1551.3" font-family="Times,serif" font-size="14.00">Image Loader</text>
</g>
<!-- Image Loader&#45;&gt;Camera Intrinsics -->
<g id="edge19" class="edge">
<title>Image Loader&#45;&gt;Camera Intrinsics</title>
<path fill="none" stroke="#bfbfbf" d="M469.52,-1536.78C471.64,-1534.37 473.54,-1531.76 475,-1529 500.19,-1481.46 491,-1462.81 491,-1409 491,-1409 491,-1409 491,-1324 491,-1283.99 490.2,-1237.65 489.61,-1209.08"/>
<polygon fill="#bfbfbf" stroke="#bfbfbf" points="493.11,-1208.97 489.4,-1199.05 486.11,-1209.12 493.11,-1208.97"/>
</g>
<!-- Image Loader&#45;&gt;Images -->
<g id="edge18" class="edge">
<title>Image Loader&#45;&gt;Images</title>
<path fill="none" stroke="#bfbfbf" d="M436.57,-1536.7C431.2,-1527.79 424.55,-1516.75 418.58,-1506.85"/>
<polygon fill="#bfbfbf" stroke="#bfbfbf" points="421.51,-1504.93 413.35,-1498.18 415.52,-1508.55 421.51,-1504.93"/>
</g>
<!-- Image Loader&#45;&gt;Absolute Pose Priors -->
<g id="edge22" class="edge">
<title>Image Loader&#45;&gt;Absolute Pose Priors</title>
<path fill="none" stroke="#bfbfbf" d="M400.43,-1548.94C285.94,-1535.2 0,-1492.52 0,-1409 0,-1409 0,-1409 0,-1324 0,-1227.4 38,-1206.6 38,-1110 38,-1110 38,-1110 38,-809 38,-718.46 134.7,-650.16 193.28,-617.09"/>
<polygon fill="#bfbfbf" stroke="#bfbfbf" points="195.28,-619.99 202.34,-612.09 191.89,-613.86 195.28,-619.99"/>
</g>
<!-- Image Loader&#45;&gt;Relative Pose Priors -->
<g id="edge21" class="edge">
<title>Image Loader&#45;&gt;Relative Pose Priors</title>
<path fill="none" stroke="#bfbfbf" d="M493.56,-1549.98C614.27,-1538.27 928,-1499.16 928,-1409 928,-1409 928,-1409 928,-1180 928,-1137.11 949.79,-1091.41 965.69,-1063.78"/>
<polygon fill="#bfbfbf" stroke="#bfbfbf" points="968.72,-1065.52 970.81,-1055.13 962.7,-1061.95 968.72,-1065.52"/>
</g>
<!-- Image Shapes -->
<g id="node18" class="node">
<title>Image Shapes</title>
<path fill="gainsboro" stroke="black" d="M351.5,-1343C351.5,-1343 282.5,-1343 282.5,-1343 276.5,-1343 270.5,-1337 270.5,-1331 270.5,-1331 270.5,-1319 270.5,-1319 270.5,-1313 276.5,-1307 282.5,-1307 282.5,-1307 351.5,-1307 351.5,-1307 357.5,-1307 363.5,-1313 363.5,-1319 363.5,-1319 363.5,-1331 363.5,-1331 363.5,-1337 357.5,-1343 351.5,-1343"/>
<text text-anchor="middle" x="317" y="-1321.3" font-family="Times,serif" font-size="14.00">Image Shapes</text>
</g>
<!-- Image Loader&#45;&gt;Image Shapes -->
<g id="edge20" class="edge">
<title>Image Loader&#45;&gt;Image Shapes</title>
<path fill="none" stroke="#bfbfbf" d="M400.48,-1549.65C372.34,-1545.98 340.17,-1539.59 331,-1529 288.27,-1479.66 299.93,-1395.8 309.72,-1352.95"/>
<polygon fill="#bfbfbf" stroke="#bfbfbf" points="313.13,-1353.77 312.08,-1343.22 306.32,-1352.12 313.13,-1353.77"/>
</g>
<!-- Image Retriever -->
<g id="node19" class="node">
<title>Image Retriever</title>
<path fill="lightskyblue" stroke="black" d="M1052.5,-1498C1052.5,-1498 971.5,-1498 971.5,-1498 965.5,-1498 959.5,-1492 959.5,-1486 959.5,-1486 959.5,-1474 959.5,-1474 959.5,-1468 965.5,-1462 971.5,-1462 971.5,-1462 1052.5,-1462 1052.5,-1462 1058.5,-1462 1064.5,-1468 1064.5,-1474 1064.5,-1474 1064.5,-1486 1064.5,-1486 1064.5,-1492 1058.5,-1498 1052.5,-1498"/>
<text text-anchor="middle" x="1012" y="-1476.3" font-family="Times,serif" font-size="14.00">Image Retriever</text>
</g>
<!-- Image Loader&#45;&gt;Image Retriever -->
<g id="edge23" class="edge">
<title>Image Loader&#45;&gt;Image Retriever</title>
<path fill="none" stroke="#bfbfbf" d="M493.56,-1553.09C608.65,-1550.64 900.27,-1543.1 942,-1529 957.65,-1523.71 973.02,-1513.85 985.35,-1504.43"/>
<polygon fill="#bfbfbf" stroke="#bfbfbf" points="987.73,-1507.01 993.37,-1498.05 983.37,-1501.54 987.73,-1507.01"/>
</g>
<!-- Source Directory -->
<g id="node17" class="node">
<title>Source Directory</title>
<path fill="gainsboro" stroke="black" d="M490,-1645C490,-1645 404,-1645 404,-1645 398,-1645 392,-1639 392,-1633 392,-1633 392,-1621 392,-1621 392,-1615 398,-1609 404,-1609 404,-1609 490,-1609 490,-1609 496,-1609 502,-1615 502,-1621 502,-1621 502,-1633 502,-1633 502,-1639 496,-1645 490,-1645"/>
<text text-anchor="middle" x="447" y="-1623.3" font-family="Times,serif" font-size="14.00">Source Directory</text>
</g>
<!-- Source Directory&#45;&gt;Image Loader -->
<g id="edge17" class="edge">
<title>Source Directory&#45;&gt;Image Loader</title>
<path fill="none" stroke="#bfbfbf" d="M447,-1608.7C447,-1600.98 447,-1591.71 447,-1583.11"/>
<polygon fill="#bfbfbf" stroke="#bfbfbf" points="450.5,-1583.1 447,-1573.1 443.5,-1583.1 450.5,-1583.1"/>
</g>
<!-- Image Shapes&#45;&gt;Matcher -->
<g id="edge27" class="edge">
<title>Image Shapes&#45;&gt;Matcher</title>
<path fill="none" stroke="#bfbfbf" d="M318.24,-1306.7C318.79,-1298.98 319.45,-1289.71 320.06,-1281.11"/>
<polygon fill="#bfbfbf" stroke="#bfbfbf" points="323.56,-1281.33 320.78,-1271.1 316.57,-1280.83 323.56,-1281.33"/>
</g>
<!-- Image Pair Indices -->
<g id="node20" class="node">
<title>Image Pair Indices</title>
<path fill="gainsboro" stroke="black" d="M1063.5,-1426C1063.5,-1426 968.5,-1426 968.5,-1426 962.5,-1426 956.5,-1420 956.5,-1414 956.5,-1414 956.5,-1402 956.5,-1402 956.5,-1396 962.5,-1390 968.5,-1390 968.5,-1390 1063.5,-1390 1063.5,-1390 1069.5,-1390 1075.5,-1396 1075.5,-1402 1075.5,-1402 1075.5,-1414 1075.5,-1414 1075.5,-1420 1069.5,-1426 1063.5,-1426"/>
<text text-anchor="middle" x="1016" y="-1404.3" font-family="Times,serif" font-size="14.00">Image Pair Indices</text>
</g>
<!-- Image Retriever&#45;&gt;Image Pair Indices -->
<g id="edge24" class="edge">
<title>Image Retriever&#45;&gt;Image Pair Indices</title>
<path fill="none" stroke="#bfbfbf" d="M1012.99,-1461.7C1013.43,-1453.98 1013.96,-1444.71 1014.45,-1436.11"/>
<polygon fill="#bfbfbf" stroke="#bfbfbf" points="1017.95,-1436.29 1015.02,-1426.1 1010.96,-1435.89 1017.95,-1436.29"/>
</g>
<!-- Putative Correspondences -->
<g id="node22" class="node">
<title>Putative Correspondences</title>
<path fill="gainsboro" stroke="black" d="M399,-1199C399,-1199 265,-1199 265,-1199 259,-1199 253,-1193 253,-1187 253,-1187 253,-1175 253,-1175 253,-1169 259,-1163 265,-1163 265,-1163 399,-1163 399,-1163 405,-1163 411,-1169 411,-1175 411,-1175 411,-1187 411,-1187 411,-1193 405,-1199 399,-1199"/>
<text text-anchor="middle" x="332" y="-1177.3" font-family="Times,serif" font-size="14.00">Putative Correspondences</text>
</g>
<!-- Matcher&#45;&gt;Putative Correspondences -->
<g id="edge28" class="edge">
<title>Matcher&#45;&gt;Putative Correspondences</title>
<path fill="none" stroke="#bfbfbf" d="M324.47,-1234.7C325.57,-1226.98 326.9,-1217.71 328.13,-1209.11"/>
<polygon fill="#bfbfbf" stroke="#bfbfbf" points="331.61,-1209.5 329.56,-1199.1 324.68,-1208.51 331.61,-1209.5"/>
</g>
<!-- Putative Correspondences&#45;&gt;Verifier -->
<g id="edge52" class="edge">
<title>Putative Correspondences&#45;&gt;Verifier</title>
<path fill="none" stroke="#bfbfbf" d="M342.63,-1162.7C347.63,-1154.56 353.69,-1144.69 359.21,-1135.7"/>
<polygon fill="#bfbfbf" stroke="#bfbfbf" points="362.24,-1137.46 364.49,-1127.1 356.28,-1133.79 362.24,-1137.46"/>
</g>
<!-- Dense Colored 3D Point Cloud -->
<g id="node24" class="node">
<title>Dense Colored 3D Point Cloud</title>
<path fill="gainsboro" stroke="black" d="M353.5,-36C353.5,-36 190.5,-36 190.5,-36 184.5,-36 178.5,-30 178.5,-24 178.5,-24 178.5,-12 178.5,-12 178.5,-6 184.5,0 190.5,0 190.5,0 353.5,0 353.5,0 359.5,0 365.5,-6 365.5,-12 365.5,-12 365.5,-24 365.5,-24 365.5,-30 359.5,-36 353.5,-36"/>
<text text-anchor="middle" x="272" y="-14.3" font-family="Times,serif" font-size="14.00">Dense Colored 3D Point Cloud</text>
</g>
<!-- Multi&#45;view Stereo&#45;&gt;Dense Colored 3D Point Cloud -->
<g id="edge32" class="edge">
<title>Multi&#45;view Stereo&#45;&gt;Dense Colored 3D Point Cloud</title>
<path fill="none" stroke="#bfbfbf" d="M272,-71.7C272,-63.98 272,-54.71 272,-46.11"/>
<polygon fill="#bfbfbf" stroke="#bfbfbf" points="275.5,-46.1 272,-36.1 268.5,-46.1 275.5,-46.1"/>
</g>
<!-- View&#45;Graph Relative Rotations -->
<g id="node25" class="node">
<title>View&#45;Graph Relative Rotations</title>
<path fill="gainsboro" stroke="black" d="M525,-756C525,-756 361,-756 361,-756 355,-756 349,-750 349,-744 349,-744 349,-732 349,-732 349,-726 355,-720 361,-720 361,-720 525,-720 525,-720 531,-720 537,-726 537,-732 537,-732 537,-744 537,-744 537,-750 531,-756 525,-756"/>
<text text-anchor="middle" x="443" y="-734.3" font-family="Times,serif" font-size="14.00">View&#45;Graph Relative Rotations</text>
</g>
<!-- View&#45;Graph Relative Rotations&#45;&gt;Rotation Averaging -->
<g id="edge33" class="edge">
<title>View&#45;Graph Relative Rotations&#45;&gt;Rotation Averaging</title>
<path fill="none" stroke="#bfbfbf" d="M459.56,-719.7C467.68,-711.22 477.59,-700.86 486.47,-691.58"/>
<polygon fill="#bfbfbf" stroke="#bfbfbf" points="489.24,-693.75 493.63,-684.1 484.19,-688.91 489.24,-693.75"/>
</g>
<!-- Rotation Averaging&#45;&gt;Global Rotations -->
<g id="edge35" class="edge">
<title>Rotation Averaging&#45;&gt;Global Rotations</title>
<path fill="none" stroke="#bfbfbf" d="M510.74,-647.7C511.07,-639.98 511.47,-630.71 511.84,-622.11"/>
<polygon fill="#bfbfbf" stroke="#bfbfbf" points="515.34,-622.25 512.27,-612.1 508.34,-621.95 515.34,-622.25"/>
</g>
<!-- View&#45;Graph Relative Translations -->
<g id="node27" class="node">
<title>View&#45;Graph Relative Translations</title>
<path fill="gainsboro" stroke="black" d="M419,-684C419,-684 241,-684 241,-684 235,-684 229,-678 229,-672 229,-672 229,-660 229,-660 229,-654 235,-648 241,-648 241,-648 419,-648 419,-648 425,-648 431,-654 431,-660 431,-660 431,-672 431,-672 431,-678 425,-684 419,-684"/>
<text text-anchor="middle" x="330" y="-662.3" font-family="Times,serif" font-size="14.00">View&#45;Graph Relative Translations</text>
</g>
<!-- View&#45;Graph Relative Translations&#45;&gt;Translation Averaging -->
<g id="edge36" class="edge">
<title>View&#45;Graph Relative Translations&#45;&gt;Translation Averaging</title>
<path fill="none" stroke="#bfbfbf" d="M345.44,-647.87C367.93,-622.92 409.82,-576.45 435.67,-547.77"/>
<polygon fill="#bfbfbf" stroke="#bfbfbf" points="438.41,-549.96 442.51,-540.19 433.21,-545.27 438.41,-549.96"/>
</g>
<!-- Translation Averaging&#45;&gt;Global Translations -->
<g id="edge40" class="edge">
<title>Translation Averaging&#45;&gt;Global Translations</title>
<path fill="none" stroke="#bfbfbf" d="M464.67,-503.7C467.71,-495.81 471.38,-486.3 474.76,-477.55"/>
<polygon fill="#bfbfbf" stroke="#bfbfbf" points="478.07,-478.69 478.4,-468.1 471.54,-476.17 478.07,-478.69"/>
</g>
<!-- Relative Rotations -->
<g id="node29" class="node">
<title>Relative Rotations</title>
<path fill="gainsboro" stroke="black" d="M305.5,-1055C305.5,-1055 212.5,-1055 212.5,-1055 206.5,-1055 200.5,-1049 200.5,-1043 200.5,-1043 200.5,-1031 200.5,-1031 200.5,-1025 206.5,-1019 212.5,-1019 212.5,-1019 305.5,-1019 305.5,-1019 311.5,-1019 317.5,-1025 317.5,-1031 317.5,-1031 317.5,-1043 317.5,-1043 317.5,-1049 311.5,-1055 305.5,-1055"/>
<text text-anchor="middle" x="259" y="-1033.3" font-family="Times,serif" font-size="14.00">Relative Rotations</text>
</g>
<!-- Relative Rotations&#45;&gt;Two&#45;View Bundle Adjustment -->
<g id="edge41" class="edge">
<title>Relative Rotations&#45;&gt;Two&#45;View Bundle Adjustment</title>
<path fill="none" stroke="#bfbfbf" d="M317.58,-1021.24C320.76,-1020.47 323.92,-1019.72 327,-1019 377.14,-1007.27 433.29,-994.97 478.98,-985.17"/>
<polygon fill="#bfbfbf" stroke="#bfbfbf" points="479.82,-988.57 488.86,-983.06 478.35,-981.73 479.82,-988.57"/>
</g>
<!-- Optimized Relative Rotations -->
<g id="node34" class="node">
<title>Optimized Relative Rotations</title>
<path fill="gainsboro" stroke="black" d="M348.5,-911C348.5,-911 193.5,-911 193.5,-911 187.5,-911 181.5,-905 181.5,-899 181.5,-899 181.5,-887 181.5,-887 181.5,-881 187.5,-875 193.5,-875 193.5,-875 348.5,-875 348.5,-875 354.5,-875 360.5,-881 360.5,-887 360.5,-887 360.5,-899 360.5,-899 360.5,-905 354.5,-911 348.5,-911"/>
<text text-anchor="middle" x="271" y="-889.3" font-family="Times,serif" font-size="14.00">Optimized Relative Rotations</text>
</g>
<!-- Two&#45;View Bundle Adjustment&#45;&gt;Optimized Relative Rotations -->
<g id="edge48" class="edge">
<title>Two&#45;View Bundle Adjustment&#45;&gt;Optimized Relative Rotations</title>
<path fill="none" stroke="#bfbfbf" d="M497.24,-946.97C453.84,-936.8 398.6,-923.87 353.57,-913.33"/>
<polygon fill="#bfbfbf" stroke="#bfbfbf" points="354.36,-909.92 343.83,-911.05 352.77,-916.74 354.36,-909.92"/>
</g>
<!-- Optimized Relative Translations -->
<g id="node35" class="node">
<title>Optimized Relative Translations</title>
<path fill="gainsboro" stroke="black" d="M559.5,-911C559.5,-911 390.5,-911 390.5,-911 384.5,-911 378.5,-905 378.5,-899 378.5,-899 378.5,-887 378.5,-887 378.5,-881 384.5,-875 390.5,-875 390.5,-875 559.5,-875 559.5,-875 565.5,-875 571.5,-881 571.5,-887 571.5,-887 571.5,-899 571.5,-899 571.5,-905 565.5,-911 559.5,-911"/>
<text text-anchor="middle" x="475" y="-889.3" font-family="Times,serif" font-size="14.00">Optimized Relative Translations</text>
</g>
<!-- Two&#45;View Bundle Adjustment&#45;&gt;Optimized Relative Translations -->
<g id="edge49" class="edge">
<title>Two&#45;View Bundle Adjustment&#45;&gt;Optimized Relative Translations</title>
<path fill="none" stroke="#bfbfbf" d="M546.52,-946.7C534.44,-937.8 519.55,-926.82 506.48,-917.2"/>
<polygon fill="#bfbfbf" stroke="#bfbfbf" points="508.34,-914.22 498.21,-911.1 504.19,-919.85 508.34,-914.22"/>
</g>
<!-- Inlier Correspondences -->
<g id="node36" class="node">
<title>Inlier Correspondences</title>
<path fill="gainsboro" stroke="black" d="M720.5,-911C720.5,-911 601.5,-911 601.5,-911 595.5,-911 589.5,-905 589.5,-899 589.5,-899 589.5,-887 589.5,-887 589.5,-881 595.5,-875 601.5,-875 601.5,-875 720.5,-875 720.5,-875 726.5,-875 732.5,-881 732.5,-887 732.5,-887 732.5,-899 732.5,-899 732.5,-905 726.5,-911 720.5,-911"/>
<text text-anchor="middle" x="661" y="-889.3" font-family="Times,serif" font-size="14.00">Inlier Correspondences</text>
</g>
<!-- Two&#45;View Bundle Adjustment&#45;&gt;Inlier Correspondences -->
<g id="edge50" class="edge">
<title>Two&#45;View Bundle Adjustment&#45;&gt;Inlier Correspondences</title>
<path fill="none" stroke="#bfbfbf" d="M592.49,-946.7C603.96,-937.88 618.06,-927.03 630.48,-917.47"/>
<polygon fill="#bfbfbf" stroke="#bfbfbf" points="632.97,-919.98 638.76,-911.1 628.7,-914.43 632.97,-919.98"/>
</g>
<!-- Relative Translations -->
<g id="node31" class="node">
<title>Relative Translations</title>
<path fill="gainsboro" stroke="black" d="M551.5,-1055C551.5,-1055 444.5,-1055 444.5,-1055 438.5,-1055 432.5,-1049 432.5,-1043 432.5,-1043 432.5,-1031 432.5,-1031 432.5,-1025 438.5,-1019 444.5,-1019 444.5,-1019 551.5,-1019 551.5,-1019 557.5,-1019 563.5,-1025 563.5,-1031 563.5,-1031 563.5,-1043 563.5,-1043 563.5,-1049 557.5,-1055 551.5,-1055"/>
<text text-anchor="middle" x="498" y="-1033.3" font-family="Times,serif" font-size="14.00">Relative Translations</text>
</g>
<!-- Relative Translations&#45;&gt;Two&#45;View Bundle Adjustment -->
<g id="edge42" class="edge">
<title>Relative Translations&#45;&gt;Two&#45;View Bundle Adjustment</title>
<path fill="none" stroke="#bfbfbf" d="M515.8,-1018.7C524.6,-1010.14 535.38,-999.66 545,-990.3"/>
<polygon fill="#bfbfbf" stroke="#bfbfbf" points="547.68,-992.58 552.41,-983.1 542.8,-987.57 547.68,-992.58"/>
</g>
<!-- Triangulated Points -->
<g id="node32" class="node">
<title>Triangulated Points</title>
<path fill="gainsboro" stroke="black" d="M692.5,-1055C692.5,-1055 593.5,-1055 593.5,-1055 587.5,-1055 581.5,-1049 581.5,-1043 581.5,-1043 581.5,-1031 581.5,-1031 581.5,-1025 587.5,-1019 593.5,-1019 593.5,-1019 692.5,-1019 692.5,-1019 698.5,-1019 704.5,-1025 704.5,-1031 704.5,-1031 704.5,-1043 704.5,-1043 704.5,-1049 698.5,-1055 692.5,-1055"/>
<text text-anchor="middle" x="643" y="-1033.3" font-family="Times,serif" font-size="14.00">Triangulated Points</text>
</g>
<!-- Triangulated Points&#45;&gt;Two&#45;View Bundle Adjustment -->
<g id="edge43" class="edge">
<title>Triangulated Points&#45;&gt;Two&#45;View Bundle Adjustment</title>
<path fill="none" stroke="#bfbfbf" d="M624.96,-1018.7C615.94,-1010.05 604.88,-999.45 595.06,-990.03"/>
<polygon fill="#bfbfbf" stroke="#bfbfbf" points="597.48,-987.5 587.84,-983.1 592.63,-992.55 597.48,-987.5"/>
</g>
<!-- Verified Correspondences -->
<g id="node33" class="node">
<title>Verified Correspondences</title>
<path fill="gainsboro" stroke="black" d="M867.5,-1055C867.5,-1055 734.5,-1055 734.5,-1055 728.5,-1055 722.5,-1049 722.5,-1043 722.5,-1043 722.5,-1031 722.5,-1031 722.5,-1025 728.5,-1019 734.5,-1019 734.5,-1019 867.5,-1019 867.5,-1019 873.5,-1019 879.5,-1025 879.5,-1031 879.5,-1031 879.5,-1043 879.5,-1043 879.5,-1049 873.5,-1055 867.5,-1055"/>
<text text-anchor="middle" x="801" y="-1033.3" font-family="Times,serif" font-size="14.00">Verified Correspondences</text>
</g>
<!-- Verified Correspondences&#45;&gt;Two&#45;View Bundle Adjustment -->
<g id="edge47" class="edge">
<title>Verified Correspondences&#45;&gt;Two&#45;View Bundle Adjustment</title>
<path fill="none" stroke="#bfbfbf" d="M744.79,-1018.97C712.09,-1009.06 670.7,-996.51 636.4,-986.12"/>
<polygon fill="#bfbfbf" stroke="#bfbfbf" points="637.05,-982.66 626.47,-983.11 635.02,-989.36 637.05,-982.66"/>
</g>
<!-- Optimized Relative Rotations&#45;&gt;View&#45;Graph Estimator -->
<g id="edge58" class="edge">
<title>Optimized Relative Rotations&#45;&gt;View&#45;Graph Estimator</title>
<path fill="none" stroke="#bfbfbf" d="M278.21,-874.82C282.76,-863.98 288.74,-849.74 293.89,-837.47"/>
<polygon fill="#bfbfbf" stroke="#bfbfbf" points="297.16,-838.73 297.8,-828.15 290.7,-836.02 297.16,-838.73"/>
</g>
<!-- Optimized Relative Translations&#45;&gt;View&#45;Graph Estimator -->
<g id="edge59" class="edge">
<title>Optimized Relative Translations&#45;&gt;View&#45;Graph Estimator</title>
<path fill="none" stroke="#bfbfbf" d="M438.95,-874.82C412.94,-862.43 377.66,-845.62 349.83,-832.36"/>
<polygon fill="#bfbfbf" stroke="#bfbfbf" points="351.24,-829.16 340.71,-828.01 348.23,-835.48 351.24,-829.16"/>
</g>
<!-- Inlier Correspondences&#45;&gt;View&#45;Graph Estimator -->
<g id="edge61" class="edge">
<title>Inlier Correspondences&#45;&gt;View&#45;Graph Estimator</title>
<path fill="none" stroke="#bfbfbf" d="M609.15,-874.95C599.83,-872.12 590.16,-869.35 581,-867 515.69,-850.22 440.65,-835.26 385.31,-825.04"/>
<polygon fill="#bfbfbf" stroke="#bfbfbf" points="385.68,-821.55 375.21,-823.19 384.42,-828.44 385.68,-821.55"/>
</g>
<!-- Verifier&#45;&gt;Relative Rotations -->
<g id="edge54" class="edge">
<title>Verifier&#45;&gt;Relative Rotations</title>
<path fill="none" stroke="#bfbfbf" d="M346.62,-1090.88C331.46,-1081.72 312.59,-1070.34 296.26,-1060.48"/>
<polygon fill="#bfbfbf" stroke="#bfbfbf" points="297.86,-1057.36 287.49,-1055.19 294.24,-1063.35 297.86,-1057.36"/>
</g>
<!-- Verifier&#45;&gt;Relative Translations -->
<g id="edge55" class="edge">
<title>Verifier&#45;&gt;Relative Translations</title>
<path fill="none" stroke="#bfbfbf" d="M404.15,-1091.41C420.48,-1082.12 441.07,-1070.4 458.8,-1060.31"/>
<polygon fill="#bfbfbf" stroke="#bfbfbf" points="460.82,-1063.19 467.78,-1055.2 457.35,-1057.11 460.82,-1063.19"/>
</g>
<!-- Verifier&#45;&gt;Verified Correspondences -->
<g id="edge56" class="edge">
<title>Verifier&#45;&gt;Verified Correspondences</title>
<path fill="none" stroke="#bfbfbf" d="M404.08,-1103.83C461.18,-1095.57 592.17,-1076.21 712.21,-1055.28"/>
<polygon fill="#bfbfbf" stroke="#bfbfbf" points="713.06,-1058.69 722.3,-1053.52 711.85,-1051.79 713.06,-1058.69"/>
</g>
<!-- Inlier Ratio -->
<g id="node38" class="node">
<title>Inlier Ratio</title>
<path fill="gainsboro" stroke="black" d="M402.5,-1055C402.5,-1055 347.5,-1055 347.5,-1055 341.5,-1055 335.5,-1049 335.5,-1043 335.5,-1043 335.5,-1031 335.5,-1031 335.5,-1025 341.5,-1019 347.5,-1019 347.5,-1019 402.5,-1019 402.5,-1019 408.5,-1019 414.5,-1025 414.5,-1031 414.5,-1031 414.5,-1043 414.5,-1043 414.5,-1049 408.5,-1055 402.5,-1055"/>
<text text-anchor="middle" x="375" y="-1033.3" font-family="Times,serif" font-size="14.00">Inlier Ratio</text>
</g>
<!-- Verifier&#45;&gt;Inlier Ratio -->
<g id="edge57" class="edge">
<title>Verifier&#45;&gt;Inlier Ratio</title>
<path fill="none" stroke="#bfbfbf" d="M375,-1090.7C375,-1082.98 375,-1073.71 375,-1065.11"/>
<polygon fill="#bfbfbf" stroke="#bfbfbf" points="378.5,-1065.1 375,-1055.1 371.5,-1065.1 378.5,-1065.1"/>
</g>
<!-- View&#45;Graph Estimator&#45;&gt;View&#45;Graph Correspondences -->
<g id="edge65" class="edge">
<title>View&#45;Graph Estimator&#45;&gt;View&#45;Graph Correspondences</title>
<path fill="none" stroke="#bfbfbf" d="M288.2,-791.79C267.48,-769.22 233.36,-727.39 220,-684 215.29,-668.71 210.98,-661.22 220,-648 244.75,-611.73 287.25,-648.27 312,-612 325.14,-592.75 314.06,-567.37 301.64,-548.64"/>
<polygon fill="#bfbfbf" stroke="#bfbfbf" points="304.37,-546.43 295.74,-540.29 298.66,-550.47 304.37,-546.43"/>
</g>
<!-- View&#45;Graph Estimator&#45;&gt;View&#45;Graph Relative Rotations -->
<g id="edge63" class="edge">
<title>View&#45;Graph Estimator&#45;&gt;View&#45;Graph Relative Rotations</title>
<path fill="none" stroke="#bfbfbf" d="M338.76,-791.88C357.22,-782.51 380.28,-770.81 400.02,-760.8"/>
<polygon fill="#bfbfbf" stroke="#bfbfbf" points="401.78,-763.83 409.11,-756.19 398.61,-757.59 401.78,-763.83"/>
</g>
<!-- View&#45;Graph Estimator&#45;&gt;View&#45;Graph Relative Translations -->
<g id="edge64" class="edge">
<title>View&#45;Graph Estimator&#45;&gt;View&#45;Graph Relative Translations</title>
<path fill="none" stroke="#bfbfbf" d="M308.02,-791.87C312.28,-767.67 320.1,-723.21 325.18,-694.39"/>
<polygon fill="#bfbfbf" stroke="#bfbfbf" points="328.69,-694.64 326.97,-684.19 321.79,-693.43 328.69,-694.64"/>
</g>
</g>
</svg>
