<?xml version="1.0" encoding="UTF-8" standalone="no"?>
<!DOCTYPE svg PUBLIC "-//W3C//DTD SVG 1.1//EN"
 "http://www.w3.org/Graphics/SVG/1.1/DTD/svg11.dtd">
<!-- Generated by graphviz version 5.0.0 (0)
 -->
<!-- Title: G Pages: 1 -->
<svg width="1075pt" height="1653pt"
 viewBox="0.00 0.00 1074.50 1653.00" xmlns="http://www.w3.org/2000/svg" xmlns:xlink="http://www.w3.org/1999/xlink">
<g id="graph0" class="graph" transform="scale(1 1) rotate(0) translate(4 1649)">
<title>G</title>
<polygon fill="white" stroke="transparent" points="-4,4 -4,-1649 1070.5,-1649 1070.5,4 -4,4"/>
<g id="clust1" class="cluster">
<title>cluster_Two&#45;View Estimator</title>
<polygon fill="white" stroke="black" points="172,-867 172,-1374 1045,-1374 1045,-867 172,-867"/>
<text text-anchor="middle" x="608.5" y="-1358.8" font-family="Veranda" font-size="14.00">Two&#45;View Estimator</text>
</g>
<g id="clust2" class="cluster">
<title>cluster_Multi&#45;View Optimizer</title>
<polygon fill="white" stroke="black" points="166,-136 166,-859 578,-859 578,-136 166,-136"/>
<text text-anchor="middle" x="372" y="-843.8" font-family="Veranda" font-size="14.00">Multi&#45;View Optimizer</text>
</g>
<g id="clust3" class="cluster">
<title>cluster_Feature Extractor</title>
<polygon fill="white" stroke="black" points="336,-1382 336,-1529 472,-1529 472,-1382 336,-1382"/>
<text text-anchor="middle" x="404" y="-1513.8" font-family="Veranda" font-size="14.00">Feature Extractor</text>
</g>
<!-- View&#45;Graph Correspondences -->
<g id="node1" class="node">
<title>View&#45;Graph Correspondences</title>
<path fill="gainsboro" stroke="black" d="M362,-540C362,-540 206,-540 206,-540 200,-540 194,-534 194,-528 194,-528 194,-516 194,-516 194,-510 200,-504 206,-504 206,-504 362,-504 362,-504 368,-504 374,-510 374,-516 374,-516 374,-528 374,-528 374,-534 368,-540 362,-540"/>
<text text-anchor="middle" x="284" y="-518.3" font-family="Times,serif" font-size="14.00">View&#45;Graph Correspondences</text>
</g>
<!-- Data Association -->
<g id="node2" class="node">
<title>Data Association</title>
<path fill="lightskyblue" stroke="black" d="M449.5,-396C449.5,-396 364.5,-396 364.5,-396 358.5,-396 352.5,-390 352.5,-384 352.5,-384 352.5,-372 352.5,-372 352.5,-366 358.5,-360 364.5,-360 364.5,-360 449.5,-360 449.5,-360 455.5,-360 461.5,-366 461.5,-372 461.5,-372 461.5,-384 461.5,-384 461.5,-390 455.5,-396 449.5,-396"/>
<text text-anchor="middle" x="407" y="-374.3" font-family="Times,serif" font-size="14.00">Data Association</text>
</g>
<!-- View&#45;Graph Correspondences&#45;&gt;Data Association -->
<g id="edge1" class="edge">
<title>View&#45;Graph Correspondences&#45;&gt;Data Association</title>
<path fill="none" stroke="#bfbfbf" d="M298.84,-503.87C320.45,-478.92 360.7,-432.45 385.54,-403.77"/>
<polygon fill="#bfbfbf" stroke="#bfbfbf" points="388.21,-406.04 392.11,-396.19 382.92,-401.46 388.21,-406.04"/>
</g>
<!-- 3D Tracks -->
<g id="node6" class="node">
<title>3D Tracks</title>
<path fill="gainsboro" stroke="black" d="M444.5,-324C444.5,-324 395.5,-324 395.5,-324 389.5,-324 383.5,-318 383.5,-312 383.5,-312 383.5,-300 383.5,-300 383.5,-294 389.5,-288 395.5,-288 395.5,-288 444.5,-288 444.5,-288 450.5,-288 456.5,-294 456.5,-300 456.5,-300 456.5,-312 456.5,-312 456.5,-318 450.5,-324 444.5,-324"/>
<text text-anchor="middle" x="420" y="-302.3" font-family="Times,serif" font-size="14.00">3D Tracks</text>
</g>
<!-- Data Association&#45;&gt;3D Tracks -->
<g id="edge5" class="edge">
<title>Data Association&#45;&gt;3D Tracks</title>
<path fill="none" stroke="#bfbfbf" d="M410.21,-359.7C411.65,-351.98 413.37,-342.71 414.96,-334.11"/>
<polygon fill="#bfbfbf" stroke="#bfbfbf" points="418.44,-334.58 416.82,-324.1 411.56,-333.3 418.44,-334.58"/>
</g>
<!-- Global Rotations -->
<g id="node3" class="node">
<title>Global Rotations</title>
<path fill="gainsboro" stroke="black" d="M554.5,-612C554.5,-612 469.5,-612 469.5,-612 463.5,-612 457.5,-606 457.5,-600 457.5,-600 457.5,-588 457.5,-588 457.5,-582 463.5,-576 469.5,-576 469.5,-576 554.5,-576 554.5,-576 560.5,-576 566.5,-582 566.5,-588 566.5,-588 566.5,-600 566.5,-600 566.5,-606 560.5,-612 554.5,-612"/>
<text text-anchor="middle" x="512" y="-590.3" font-family="Times,serif" font-size="14.00">Global Rotations</text>
</g>
<!-- Global Rotations&#45;&gt;Data Association -->
<g id="edge2" class="edge">
<title>Global Rotations&#45;&gt;Data Association</title>
<path fill="none" stroke="#bfbfbf" d="M525.61,-575.7C538.91,-556.53 555.02,-525.49 539,-504 505.46,-459.02 454.24,-510.83 418,-468 403.74,-451.15 401.9,-425.68 403.1,-406.29"/>
<polygon fill="#bfbfbf" stroke="#bfbfbf" points="406.59,-406.52 404.02,-396.24 399.62,-405.88 406.59,-406.52"/>
</g>
<!-- Global Bundle Adjustment -->
<g id="node12" class="node">
<title>Global Bundle Adjustment</title>
<path fill="lightskyblue" stroke="black" d="M557.5,-252C557.5,-252 418.5,-252 418.5,-252 412.5,-252 406.5,-246 406.5,-240 406.5,-240 406.5,-228 406.5,-228 406.5,-222 412.5,-216 418.5,-216 418.5,-216 557.5,-216 557.5,-216 563.5,-216 569.5,-222 569.5,-228 569.5,-228 569.5,-240 569.5,-240 569.5,-246 563.5,-252 557.5,-252"/>
<text text-anchor="middle" x="488" y="-230.3" font-family="Times,serif" font-size="14.00">Global Bundle Adjustment</text>
</g>
<!-- Global Rotations&#45;&gt;Global Bundle Adjustment -->
<g id="edge13" class="edge">
<title>Global Rotations&#45;&gt;Global Bundle Adjustment</title>
<path fill="none" stroke="#bfbfbf" d="M525.6,-575.72C532.86,-565.76 541.42,-552.73 547,-540 563.35,-502.68 569,-491.75 569,-451 569,-451 569,-451 569,-377 569,-330.96 536.48,-286.25 512.65,-259.67"/>
<polygon fill="#bfbfbf" stroke="#bfbfbf" points="514.93,-256.99 505.58,-252.02 509.79,-261.74 514.93,-256.99"/>
</g>
<!-- Translation Averaging -->
<g id="node28" class="node">
<title>Translation Averaging</title>
<path fill="lightskyblue" stroke="black" d="M517.5,-540C517.5,-540 404.5,-540 404.5,-540 398.5,-540 392.5,-534 392.5,-528 392.5,-528 392.5,-516 392.5,-516 392.5,-510 398.5,-504 404.5,-504 404.5,-504 517.5,-504 517.5,-504 523.5,-504 529.5,-510 529.5,-516 529.5,-516 529.5,-528 529.5,-528 529.5,-534 523.5,-540 517.5,-540"/>
<text text-anchor="middle" x="461" y="-518.3" font-family="Times,serif" font-size="14.00">Translation Averaging</text>
</g>
<!-- Global Rotations&#45;&gt;Translation Averaging -->
<g id="edge37" class="edge">
<title>Global Rotations&#45;&gt;Translation Averaging</title>
<path fill="none" stroke="#bfbfbf" d="M499.39,-575.7C493.4,-567.47 486.12,-557.48 479.52,-548.42"/>
<polygon fill="#bfbfbf" stroke="#bfbfbf" points="482.18,-546.13 473.46,-540.1 476.52,-550.25 482.18,-546.13"/>
</g>
<!-- Global Translations -->
<g id="node4" class="node">
<title>Global Translations</title>
<path fill="gainsboro" stroke="black" d="M537.5,-468C537.5,-468 438.5,-468 438.5,-468 432.5,-468 426.5,-462 426.5,-456 426.5,-456 426.5,-444 426.5,-444 426.5,-438 432.5,-432 438.5,-432 438.5,-432 537.5,-432 537.5,-432 543.5,-432 549.5,-438 549.5,-444 549.5,-444 549.5,-456 549.5,-456 549.5,-462 543.5,-468 537.5,-468"/>
<text text-anchor="middle" x="488" y="-446.3" font-family="Times,serif" font-size="14.00">Global Translations</text>
</g>
<!-- Global Translations&#45;&gt;Data Association -->
<g id="edge3" class="edge">
<title>Global Translations&#45;&gt;Data Association</title>
<path fill="none" stroke="#bfbfbf" d="M467.98,-431.7C457.87,-422.97 445.46,-412.24 434.48,-402.75"/>
<polygon fill="#bfbfbf" stroke="#bfbfbf" points="436.65,-399.99 426.79,-396.1 432.07,-405.29 436.65,-399.99"/>
</g>
<!-- Global Translations&#45;&gt;Global Bundle Adjustment -->
<g id="edge12" class="edge">
<title>Global Translations&#45;&gt;Global Bundle Adjustment</title>
<path fill="none" stroke="#bfbfbf" d="M488,-431.85C488,-394.83 488,-307.18 488,-262.39"/>
<polygon fill="#bfbfbf" stroke="#bfbfbf" points="491.5,-262.23 488,-252.23 484.5,-262.23 491.5,-262.23"/>
</g>
<!-- Camera Intrinsics -->
<g id="node5" class="node">
<title>Camera Intrinsics</title>
<path fill="gainsboro" stroke="black" d="M533.5,-1199C533.5,-1199 444.5,-1199 444.5,-1199 438.5,-1199 432.5,-1193 432.5,-1187 432.5,-1187 432.5,-1175 432.5,-1175 432.5,-1169 438.5,-1163 444.5,-1163 444.5,-1163 533.5,-1163 533.5,-1163 539.5,-1163 545.5,-1169 545.5,-1175 545.5,-1175 545.5,-1187 545.5,-1187 545.5,-1193 539.5,-1199 533.5,-1199"/>
<text text-anchor="middle" x="489" y="-1177.3" font-family="Times,serif" font-size="14.00">Camera Intrinsics</text>
</g>
<!-- Camera Intrinsics&#45;&gt;Data Association -->
<g id="edge4" class="edge">
<title>Camera Intrinsics&#45;&gt;Data Association</title>
<path fill="none" stroke="#bfbfbf" d="M432.25,-1167.38C425.43,-1165.89 418.56,-1164.4 412,-1163 334.77,-1146.49 309.47,-1160.59 238,-1127 95.17,-1059.86 76,-968.82 76,-811 76,-811 76,-811 76,-521 76,-406.37 245.73,-383.1 342.11,-379.12"/>
<polygon fill="#bfbfbf" stroke="#bfbfbf" points="342.47,-382.61 352.34,-378.76 342.22,-375.61 342.47,-382.61"/>
</g>
<!-- Camera Intrinsics&#45;&gt;Global Bundle Adjustment -->
<g id="edge11" class="edge">
<title>Camera Intrinsics&#45;&gt;Global Bundle Adjustment</title>
<path fill="none" stroke="#bfbfbf" d="M545.54,-1178.04C690.67,-1171.49 1065,-1144.28 1065,-1038 1065,-1038 1065,-1038 1065,-377 1065,-278.29 742.57,-247.81 579.76,-238.71"/>
<polygon fill="#bfbfbf" stroke="#bfbfbf" points="579.93,-235.21 569.75,-238.16 579.55,-242.2 579.93,-235.21"/>
</g>
<!-- Two&#45;View Bundle Adjustment -->
<g id="node30" class="node">
<title>Two&#45;View Bundle Adjustment</title>
<path fill="lightskyblue" stroke="black" d="M641.5,-983C641.5,-983 482.5,-983 482.5,-983 476.5,-983 470.5,-977 470.5,-971 470.5,-971 470.5,-959 470.5,-959 470.5,-953 476.5,-947 482.5,-947 482.5,-947 641.5,-947 641.5,-947 647.5,-947 653.5,-953 653.5,-959 653.5,-959 653.5,-971 653.5,-971 653.5,-977 647.5,-983 641.5,-983"/>
<text text-anchor="middle" x="562" y="-961.3" font-family="Times,serif" font-size="14.00">Two&#45;View Bundle Adjustment</text>
</g>
<!-- Camera Intrinsics&#45;&gt;Two&#45;View Bundle Adjustment -->
<g id="edge45" class="edge">
<title>Camera Intrinsics&#45;&gt;Two&#45;View Bundle Adjustment</title>
<path fill="none" stroke="#bfbfbf" d="M545.6,-1170.26C644.03,-1152.05 840.08,-1109.68 880,-1055 889.44,-1042.08 890.34,-1031.21 880,-1019 865.91,-1002.37 751.26,-986.36 663.63,-976.37"/>
<polygon fill="#bfbfbf" stroke="#bfbfbf" points="663.95,-972.88 653.62,-975.24 663.17,-979.84 663.95,-972.88"/>
</g>
<!-- Verifier -->
<g id="node37" class="node">
<title>Verifier</title>
<path fill="lightskyblue" stroke="black" d="M387,-1127C387,-1127 353,-1127 353,-1127 347,-1127 341,-1121 341,-1115 341,-1115 341,-1103 341,-1103 341,-1097 347,-1091 353,-1091 353,-1091 387,-1091 387,-1091 393,-1091 399,-1097 399,-1103 399,-1103 399,-1115 399,-1115 399,-1121 393,-1127 387,-1127"/>
<text text-anchor="middle" x="370" y="-1105.3" font-family="Times,serif" font-size="14.00">Verifier</text>
</g>
<!-- Camera Intrinsics&#45;&gt;Verifier -->
<g id="edge53" class="edge">
<title>Camera Intrinsics&#45;&gt;Verifier</title>
<path fill="none" stroke="#bfbfbf" d="M459.89,-1162.88C444.33,-1153.72 424.98,-1142.34 408.22,-1132.48"/>
<polygon fill="#bfbfbf" stroke="#bfbfbf" points="409.62,-1129.24 399.22,-1127.19 406.07,-1135.28 409.62,-1129.24"/>
</g>
<!-- View&#45;Graph Estimator -->
<g id="node39" class="node">
<title>View&#45;Graph Estimator</title>
<path fill="lightskyblue" stroke="black" d="M371,-828C371,-828 255,-828 255,-828 249,-828 243,-822 243,-816 243,-816 243,-804 243,-804 243,-798 249,-792 255,-792 255,-792 371,-792 371,-792 377,-792 383,-798 383,-804 383,-804 383,-816 383,-816 383,-822 377,-828 371,-828"/>
<text text-anchor="middle" x="313" y="-806.3" font-family="Times,serif" font-size="14.00">View&#45;Graph Estimator</text>
</g>
<!-- Camera Intrinsics&#45;&gt;View&#45;Graph Estimator -->
<g id="edge60" class="edge">
<title>Camera Intrinsics&#45;&gt;View&#45;Graph Estimator</title>
<path fill="none" stroke="#bfbfbf" d="M434.48,-1162.93C339.1,-1132.27 152,-1068.28 152,-1038 152,-1038 152,-1038 152,-964 152,-918.6 153.39,-900.53 184,-867 198.08,-851.58 217.14,-840.22 236.29,-831.92"/>
<polygon fill="#bfbfbf" stroke="#bfbfbf" points="237.74,-835.1 245.68,-828.08 235.1,-828.62 237.74,-835.1"/>
</g>
<!-- 3D Tracks&#45;&gt;Global Bundle Adjustment -->
<g id="edge14" class="edge">
<title>3D Tracks&#45;&gt;Global Bundle Adjustment</title>
<path fill="none" stroke="#bfbfbf" d="M436.81,-287.7C445.13,-279.14 455.31,-268.66 464.39,-259.3"/>
<polygon fill="#bfbfbf" stroke="#bfbfbf" points="466.93,-261.72 471.38,-252.1 461.91,-256.84 466.93,-261.72"/>
</g>
<!-- Images -->
<g id="node7" class="node">
<title>Images</title>
<path fill="gainsboro" stroke="black" d="M420,-1498C420,-1498 388,-1498 388,-1498 382,-1498 376,-1492 376,-1486 376,-1486 376,-1474 376,-1474 376,-1468 382,-1462 388,-1462 388,-1462 420,-1462 420,-1462 426,-1462 432,-1468 432,-1474 432,-1474 432,-1486 432,-1486 432,-1492 426,-1498 420,-1498"/>
<text text-anchor="middle" x="404" y="-1476.3" font-family="Times,serif" font-size="14.00">Images</text>
</g>
<!-- DetectorDescriptor -->
<g id="node8" class="node">
<title>DetectorDescriptor</title>
<path fill="lightskyblue" stroke="black" d="M452,-1426C452,-1426 356,-1426 356,-1426 350,-1426 344,-1420 344,-1414 344,-1414 344,-1402 344,-1402 344,-1396 350,-1390 356,-1390 356,-1390 452,-1390 452,-1390 458,-1390 464,-1396 464,-1402 464,-1402 464,-1414 464,-1414 464,-1420 458,-1426 452,-1426"/>
<text text-anchor="middle" x="404" y="-1404.3" font-family="Times,serif" font-size="14.00">DetectorDescriptor</text>
</g>
<!-- Images&#45;&gt;DetectorDescriptor -->
<g id="edge6" class="edge">
<title>Images&#45;&gt;DetectorDescriptor</title>
<path fill="none" stroke="#bfbfbf" d="M404,-1461.7C404,-1453.98 404,-1444.71 404,-1436.11"/>
<polygon fill="#bfbfbf" stroke="#bfbfbf" points="407.5,-1436.1 404,-1426.1 400.5,-1436.1 407.5,-1436.1"/>
</g>
<!-- Multi&#45;view Stereo -->
<g id="node23" class="node">
<title>Multi&#45;view Stereo</title>
<path fill="lightskyblue" stroke="black" d="M371,-108C371,-108 279,-108 279,-108 273,-108 267,-102 267,-96 267,-96 267,-84 267,-84 267,-78 273,-72 279,-72 279,-72 371,-72 371,-72 377,-72 383,-78 383,-84 383,-84 383,-96 383,-96 383,-102 377,-108 371,-108"/>
<text text-anchor="middle" x="325" y="-86.3" font-family="Times,serif" font-size="14.00">Multi&#45;view Stereo</text>
</g>
<!-- Images&#45;&gt;Multi&#45;view Stereo -->
<g id="edge29" class="edge">
<title>Images&#45;&gt;Multi&#45;view Stereo</title>
<path fill="none" stroke="#bfbfbf" d="M375.79,-1471.43C328.92,-1457.84 233.68,-1425.78 168,-1374 58.78,-1287.9 0,-1249.08 0,-1110 0,-1110 0,-1110 0,-233 0,-121.9 161.44,-96.87 256.75,-91.77"/>
<polygon fill="#bfbfbf" stroke="#bfbfbf" points="257.07,-95.26 266.9,-91.29 256.74,-88.27 257.07,-95.26"/>
</g>
<!-- Keypoints -->
<g id="node9" class="node">
<title>Keypoints</title>
<path fill="gainsboro" stroke="black" d="M240,-1343C240,-1343 192,-1343 192,-1343 186,-1343 180,-1337 180,-1331 180,-1331 180,-1319 180,-1319 180,-1313 186,-1307 192,-1307 192,-1307 240,-1307 240,-1307 246,-1307 252,-1313 252,-1319 252,-1319 252,-1331 252,-1331 252,-1337 246,-1343 240,-1343"/>
<text text-anchor="middle" x="216" y="-1321.3" font-family="Times,serif" font-size="14.00">Keypoints</text>
</g>
<!-- DetectorDescriptor&#45;&gt;Keypoints -->
<g id="edge7" class="edge">
<title>DetectorDescriptor&#45;&gt;Keypoints</title>
<path fill="none" stroke="#bfbfbf" d="M343.84,-1400.86C317.43,-1396.24 286.85,-1388.15 262,-1374 251.81,-1368.2 242.47,-1359.45 234.91,-1351"/>
<polygon fill="#bfbfbf" stroke="#bfbfbf" points="237.35,-1348.48 228.23,-1343.1 232.01,-1353 237.35,-1348.48"/>
</g>
<!-- Descriptors -->
<g id="node10" class="node">
<title>Descriptors</title>
<path fill="gainsboro" stroke="black" d="M448.5,-1343C448.5,-1343 393.5,-1343 393.5,-1343 387.5,-1343 381.5,-1337 381.5,-1331 381.5,-1331 381.5,-1319 381.5,-1319 381.5,-1313 387.5,-1307 393.5,-1307 393.5,-1307 448.5,-1307 448.5,-1307 454.5,-1307 460.5,-1313 460.5,-1319 460.5,-1319 460.5,-1331 460.5,-1331 460.5,-1337 454.5,-1343 448.5,-1343"/>
<text text-anchor="middle" x="421" y="-1321.3" font-family="Times,serif" font-size="14.00">Descriptors</text>
</g>
<!-- DetectorDescriptor&#45;&gt;Descriptors -->
<g id="edge8" class="edge">
<title>DetectorDescriptor&#45;&gt;Descriptors</title>
<path fill="none" stroke="#bfbfbf" d="M407.61,-1389.82C409.84,-1379.19 412.75,-1365.31 415.29,-1353.2"/>
<polygon fill="#bfbfbf" stroke="#bfbfbf" points="418.77,-1353.66 417.4,-1343.15 411.92,-1352.22 418.77,-1353.66"/>
</g>
<!-- Matcher -->
<g id="node21" class="node">
<title>Matcher</title>
<path fill="lightskyblue" stroke="black" d="M341,-1271C341,-1271 303,-1271 303,-1271 297,-1271 291,-1265 291,-1259 291,-1259 291,-1247 291,-1247 291,-1241 297,-1235 303,-1235 303,-1235 341,-1235 341,-1235 347,-1235 353,-1241 353,-1247 353,-1247 353,-1259 353,-1259 353,-1265 347,-1271 341,-1271"/>
<text text-anchor="middle" x="322" y="-1249.3" font-family="Times,serif" font-size="14.00">Matcher</text>
</g>
<!-- Keypoints&#45;&gt;Matcher -->
<g id="edge25" class="edge">
<title>Keypoints&#45;&gt;Matcher</title>
<path fill="none" stroke="#bfbfbf" d="M241.93,-1306.88C255.66,-1297.81 272.71,-1286.55 287.54,-1276.76"/>
<polygon fill="#bfbfbf" stroke="#bfbfbf" points="289.55,-1279.62 295.97,-1271.19 285.7,-1273.78 289.55,-1279.62"/>
</g>
<!-- Keypoints&#45;&gt;Two&#45;View Bundle Adjustment -->
<g id="edge46" class="edge">
<title>Keypoints&#45;&gt;Two&#45;View Bundle Adjustment</title>
<path fill="none" stroke="#bfbfbf" d="M208.92,-1306.85C198.69,-1280.49 181,-1228.21 181,-1182 181,-1182 181,-1182 181,-1108 181,-1068.2 163.28,-1047.57 191,-1019 227.27,-981.63 363.25,-970.27 460.06,-967.01"/>
<polygon fill="#bfbfbf" stroke="#bfbfbf" points="460.3,-970.5 470.18,-966.69 460.08,-963.5 460.3,-970.5"/>
</g>
<!-- Keypoints&#45;&gt;Verifier -->
<g id="edge51" class="edge">
<title>Keypoints&#45;&gt;Verifier</title>
<path fill="none" stroke="#bfbfbf" d="M212.92,-1306.86C208.2,-1274.94 202.89,-1205.76 236,-1163 258.71,-1133.68 300.05,-1120.54 330.83,-1114.68"/>
<polygon fill="#bfbfbf" stroke="#bfbfbf" points="331.56,-1118.11 340.82,-1112.96 330.37,-1111.21 331.56,-1118.11"/>
</g>
<!-- Keypoints&#45;&gt;View&#45;Graph Estimator -->
<g id="edge62" class="edge">
<title>Keypoints&#45;&gt;View&#45;Graph Estimator</title>
<path fill="none" stroke="#bfbfbf" d="M179.95,-1307.01C138.47,-1284.67 76,-1241.2 76,-1182 76,-1182 76,-1182 76,-1036 76,-953.46 92.05,-922.65 153,-867 175.16,-846.76 205.06,-833.76 233.01,-825.45"/>
<polygon fill="#bfbfbf" stroke="#bfbfbf" points="234.12,-828.77 242.8,-822.69 232.22,-822.03 234.12,-828.77"/>
</g>
<!-- Descriptors&#45;&gt;Matcher -->
<g id="edge26" class="edge">
<title>Descriptors&#45;&gt;Matcher</title>
<path fill="none" stroke="#bfbfbf" d="M396.78,-1306.88C384.08,-1297.89 368.34,-1286.76 354.58,-1277.03"/>
<polygon fill="#bfbfbf" stroke="#bfbfbf" points="356.5,-1274.11 346.31,-1271.19 352.46,-1279.82 356.5,-1274.11"/>
</g>
<!-- Absolute Pose Priors -->
<g id="node11" class="node">
<title>Absolute Pose Priors</title>
<path fill="gainsboro" stroke="black" d="M293.5,-612C293.5,-612 186.5,-612 186.5,-612 180.5,-612 174.5,-606 174.5,-600 174.5,-600 174.5,-588 174.5,-588 174.5,-582 180.5,-576 186.5,-576 186.5,-576 293.5,-576 293.5,-576 299.5,-576 305.5,-582 305.5,-588 305.5,-588 305.5,-600 305.5,-600 305.5,-606 299.5,-612 293.5,-612"/>
<text text-anchor="middle" x="240" y="-590.3" font-family="Times,serif" font-size="14.00">Absolute Pose Priors</text>
</g>
<!-- Absolute Pose Priors&#45;&gt;Global Bundle Adjustment -->
<g id="edge9" class="edge">
<title>Absolute Pose Priors&#45;&gt;Global Bundle Adjustment</title>
<path fill="none" stroke="#bfbfbf" d="M215.6,-575.87C204.35,-566.6 191.98,-554.15 185,-540 167.4,-504.3 175,-490.8 175,-451 175,-451 175,-451 175,-377 175,-279.08 303.61,-248.35 395.95,-238.9"/>
<polygon fill="#bfbfbf" stroke="#bfbfbf" points="396.55,-242.36 406.17,-237.93 395.88,-235.39 396.55,-242.36"/>
</g>
<!-- Absolute Pose Priors&#45;&gt;Translation Averaging -->
<g id="edge38" class="edge">
<title>Absolute Pose Priors&#45;&gt;Translation Averaging</title>
<path fill="none" stroke="#bfbfbf" d="M293.78,-575.97C324.93,-566.1 364.32,-553.62 397.05,-543.25"/>
<polygon fill="#bfbfbf" stroke="#bfbfbf" points="398.5,-546.47 406.98,-540.11 396.39,-539.79 398.5,-546.47"/>
</g>
<!-- Optimized Camera Poses -->
<g id="node14" class="node">
<title>Optimized Camera Poses</title>
<path fill="gainsboro" stroke="black" d="M390.5,-180C390.5,-180 259.5,-180 259.5,-180 253.5,-180 247.5,-174 247.5,-168 247.5,-168 247.5,-156 247.5,-156 247.5,-150 253.5,-144 259.5,-144 259.5,-144 390.5,-144 390.5,-144 396.5,-144 402.5,-150 402.5,-156 402.5,-156 402.5,-168 402.5,-168 402.5,-174 396.5,-180 390.5,-180"/>
<text text-anchor="middle" x="325" y="-158.3" font-family="Times,serif" font-size="14.00">Optimized Camera Poses</text>
</g>
<!-- Global Bundle Adjustment&#45;&gt;Optimized Camera Poses -->
<g id="edge15" class="edge">
<title>Global Bundle Adjustment&#45;&gt;Optimized Camera Poses</title>
<path fill="none" stroke="#bfbfbf" d="M448.13,-215.88C425.84,-206.31 397.88,-194.3 374.24,-184.15"/>
<polygon fill="#bfbfbf" stroke="#bfbfbf" points="375.31,-180.8 364.74,-180.07 372.55,-187.23 375.31,-180.8"/>
</g>
<!-- Optimized 3D Tracks -->
<g id="node15" class="node">
<title>Optimized 3D Tracks</title>
<path fill="gainsboro" stroke="black" d="M543,-180C543,-180 433,-180 433,-180 427,-180 421,-174 421,-168 421,-168 421,-156 421,-156 421,-150 427,-144 433,-144 433,-144 543,-144 543,-144 549,-144 555,-150 555,-156 555,-156 555,-168 555,-168 555,-174 549,-180 543,-180"/>
<text text-anchor="middle" x="488" y="-158.3" font-family="Times,serif" font-size="14.00">Optimized 3D Tracks</text>
</g>
<!-- Global Bundle Adjustment&#45;&gt;Optimized 3D Tracks -->
<g id="edge16" class="edge">
<title>Global Bundle Adjustment&#45;&gt;Optimized 3D Tracks</title>
<path fill="none" stroke="#bfbfbf" d="M488,-215.7C488,-207.98 488,-198.71 488,-190.11"/>
<polygon fill="#bfbfbf" stroke="#bfbfbf" points="491.5,-190.1 488,-180.1 484.5,-190.1 491.5,-190.1"/>
</g>
<!-- Relative Pose Priors -->
<g id="node13" class="node">
<title>Relative Pose Priors</title>
<path fill="gainsboro" stroke="black" d="M1024.5,-1055C1024.5,-1055 921.5,-1055 921.5,-1055 915.5,-1055 909.5,-1049 909.5,-1043 909.5,-1043 909.5,-1031 909.5,-1031 909.5,-1025 915.5,-1019 921.5,-1019 921.5,-1019 1024.5,-1019 1024.5,-1019 1030.5,-1019 1036.5,-1025 1036.5,-1031 1036.5,-1031 1036.5,-1043 1036.5,-1043 1036.5,-1049 1030.5,-1055 1024.5,-1055"/>
<text text-anchor="middle" x="973" y="-1033.3" font-family="Times,serif" font-size="14.00">Relative Pose Priors</text>
</g>
<!-- Relative Pose Priors&#45;&gt;Global Bundle Adjustment -->
<g id="edge10" class="edge">
<title>Relative Pose Priors&#45;&gt;Global Bundle Adjustment</title>
<path fill="none" stroke="#bfbfbf" d="M969.76,-1018.58C965.09,-991.87 957,-939.15 957,-894 957,-894 957,-894 957,-377 957,-298.98 716.26,-259.87 579.74,-243.96"/>
<polygon fill="#bfbfbf" stroke="#bfbfbf" points="580.03,-240.47 569.69,-242.81 579.23,-247.42 580.03,-240.47"/>
</g>
<!-- Rotation Averaging -->
<g id="node26" class="node">
<title>Rotation Averaging</title>
<path fill="lightskyblue" stroke="black" d="M558,-684C558,-684 460,-684 460,-684 454,-684 448,-678 448,-672 448,-672 448,-660 448,-660 448,-654 454,-648 460,-648 460,-648 558,-648 558,-648 564,-648 570,-654 570,-660 570,-660 570,-672 570,-672 570,-678 564,-684 558,-684"/>
<text text-anchor="middle" x="509" y="-662.3" font-family="Times,serif" font-size="14.00">Rotation Averaging</text>
</g>
<!-- Relative Pose Priors&#45;&gt;Rotation Averaging -->
<g id="edge34" class="edge">
<title>Relative Pose Priors&#45;&gt;Rotation Averaging</title>
<path fill="none" stroke="#bfbfbf" d="M918.51,-1018.89C865.53,-998.46 793,-958.68 793,-894 793,-894 793,-894 793,-809 793,-714.05 664.43,-682.59 580.3,-672.16"/>
<polygon fill="#bfbfbf" stroke="#bfbfbf" points="580.61,-668.67 570.27,-670.99 579.8,-675.63 580.61,-668.67"/>
</g>
<!-- Relative Pose Priors&#45;&gt;Translation Averaging -->
<g id="edge39" class="edge">
<title>Relative Pose Priors&#45;&gt;Translation Averaging</title>
<path fill="none" stroke="#bfbfbf" d="M958.37,-1018.93C938.11,-993.5 904,-943.34 904,-894 904,-894 904,-894 904,-665 904,-589.41 667.16,-548.44 539.83,-531.88"/>
<polygon fill="#bfbfbf" stroke="#bfbfbf" points="540.1,-528.39 529.73,-530.59 539.21,-535.33 540.1,-528.39"/>
</g>
<!-- Relative Pose Priors&#45;&gt;Two&#45;View Bundle Adjustment -->
<g id="edge44" class="edge">
<title>Relative Pose Priors&#45;&gt;Two&#45;View Bundle Adjustment</title>
<path fill="none" stroke="#bfbfbf" d="M909.21,-1021.79C904.41,-1020.81 899.63,-1019.87 895,-1019 817.71,-1004.44 729.83,-990.56 663.76,-980.66"/>
<polygon fill="#bfbfbf" stroke="#bfbfbf" points="664.17,-977.19 653.76,-979.17 663.13,-984.11 664.17,-977.19"/>
</g>
<!-- Optimized Camera Poses&#45;&gt;Multi&#45;view Stereo -->
<g id="edge30" class="edge">
<title>Optimized Camera Poses&#45;&gt;Multi&#45;view Stereo</title>
<path fill="none" stroke="#bfbfbf" d="M325,-143.7C325,-135.98 325,-126.71 325,-118.11"/>
<polygon fill="#bfbfbf" stroke="#bfbfbf" points="328.5,-118.1 325,-108.1 321.5,-118.1 328.5,-118.1"/>
</g>
<!-- Optimized 3D Tracks&#45;&gt;Multi&#45;view Stereo -->
<g id="edge31" class="edge">
<title>Optimized 3D Tracks&#45;&gt;Multi&#45;view Stereo</title>
<path fill="none" stroke="#bfbfbf" d="M448.13,-143.88C425.84,-134.31 397.88,-122.3 374.24,-112.15"/>
<polygon fill="#bfbfbf" stroke="#bfbfbf" points="375.31,-108.8 364.74,-108.07 372.55,-115.23 375.31,-108.8"/>
</g>
<!-- Image Loader -->
<g id="node16" class="node">
<title>Image Loader</title>
<path fill="gainsboro" stroke="black" d="M482.5,-1573C482.5,-1573 413.5,-1573 413.5,-1573 407.5,-1573 401.5,-1567 401.5,-1561 401.5,-1561 401.5,-1549 401.5,-1549 401.5,-1543 407.5,-1537 413.5,-1537 413.5,-1537 482.5,-1537 482.5,-1537 488.5,-1537 494.5,-1543 494.5,-1549 494.5,-1549 494.5,-1561 494.5,-1561 494.5,-1567 488.5,-1573 482.5,-1573"/>
<text text-anchor="middle" x="448" y="-1551.3" font-family="Times,serif" font-size="14.00">Image Loader</text>
</g>
<!-- Image Loader&#45;&gt;Camera Intrinsics -->
<g id="edge19" class="edge">
<title>Image Loader&#45;&gt;Camera Intrinsics</title>
<path fill="none" stroke="#bfbfbf" d="M470.52,-1536.78C472.64,-1534.37 474.54,-1531.76 476,-1529 501.19,-1481.46 492,-1462.81 492,-1409 492,-1409 492,-1409 492,-1324 492,-1283.99 490.79,-1237.65 489.91,-1209.08"/>
<polygon fill="#bfbfbf" stroke="#bfbfbf" points="493.41,-1208.93 489.59,-1199.05 486.41,-1209.15 493.41,-1208.93"/>
</g>
<!-- Image Loader&#45;&gt;Images -->
<g id="edge18" class="edge">
<title>Image Loader&#45;&gt;Images</title>
<path fill="none" stroke="#bfbfbf" d="M437.57,-1536.7C432.2,-1527.79 425.55,-1516.75 419.58,-1506.85"/>
<polygon fill="#bfbfbf" stroke="#bfbfbf" points="422.51,-1504.93 414.35,-1498.18 416.52,-1508.55 422.51,-1504.93"/>
</g>
<!-- Image Loader&#45;&gt;Absolute Pose Priors -->
<g id="edge22" class="edge">
<title>Image Loader&#45;&gt;Absolute Pose Priors</title>
<path fill="none" stroke="#bfbfbf" d="M401.32,-1548.96C286.58,-1535.26 0,-1492.69 0,-1409 0,-1409 0,-1409 0,-1324 0,-1227.4 38,-1206.6 38,-1110 38,-1110 38,-1110 38,-809 38,-717.88 136.04,-649.86 195.51,-616.98"/>
<polygon fill="#bfbfbf" stroke="#bfbfbf" points="197.22,-620.03 204.35,-612.19 193.89,-613.87 197.22,-620.03"/>
</g>
<!-- Image Loader&#45;&gt;Relative Pose Priors -->
<g id="edge21" class="edge">
<title>Image Loader&#45;&gt;Relative Pose Priors</title>
<path fill="none" stroke="#bfbfbf" d="M494.88,-1549.65C614.02,-1537.31 919,-1497.12 919,-1409 919,-1409 919,-1409 919,-1180 919,-1137.11 940.79,-1091.41 956.69,-1063.78"/>
<polygon fill="#bfbfbf" stroke="#bfbfbf" points="959.72,-1065.52 961.81,-1055.13 953.7,-1061.95 959.72,-1065.52"/>
</g>
<!-- Image Shapes -->
<g id="node18" class="node">
<title>Image Shapes</title>
<path fill="gainsboro" stroke="black" d="M351.5,-1343C351.5,-1343 282.5,-1343 282.5,-1343 276.5,-1343 270.5,-1337 270.5,-1331 270.5,-1331 270.5,-1319 270.5,-1319 270.5,-1313 276.5,-1307 282.5,-1307 282.5,-1307 351.5,-1307 351.5,-1307 357.5,-1307 363.5,-1313 363.5,-1319 363.5,-1319 363.5,-1331 363.5,-1331 363.5,-1337 357.5,-1343 351.5,-1343"/>
<text text-anchor="middle" x="317" y="-1321.3" font-family="Times,serif" font-size="14.00">Image Shapes</text>
</g>
<!-- Image Loader&#45;&gt;Image Shapes -->
<g id="edge20" class="edge">
<title>Image Loader&#45;&gt;Image Shapes</title>
<path fill="none" stroke="#bfbfbf" d="M401.49,-1549.64C373.36,-1545.96 341.2,-1539.57 332,-1529 289.23,-1479.85 300.28,-1396.2 309.82,-1353.24"/>
<polygon fill="#bfbfbf" stroke="#bfbfbf" points="313.29,-1353.77 312.18,-1343.24 306.48,-1352.17 313.29,-1353.77"/>
</g>
<!-- Image Retriever -->
<g id="node19" class="node">
<title>Image Retriever</title>
<path fill="lightskyblue" stroke="black" d="M1043.5,-1498C1043.5,-1498 962.5,-1498 962.5,-1498 956.5,-1498 950.5,-1492 950.5,-1486 950.5,-1486 950.5,-1474 950.5,-1474 950.5,-1468 956.5,-1462 962.5,-1462 962.5,-1462 1043.5,-1462 1043.5,-1462 1049.5,-1462 1055.5,-1468 1055.5,-1474 1055.5,-1474 1055.5,-1486 1055.5,-1486 1055.5,-1492 1049.5,-1498 1043.5,-1498"/>
<text text-anchor="middle" x="1003" y="-1476.3" font-family="Times,serif" font-size="14.00">Image Retriever</text>
</g>
<!-- Image Loader&#45;&gt;Image Retriever -->
<g id="edge23" class="edge">
<title>Image Loader&#45;&gt;Image Retriever</title>
<path fill="none" stroke="#bfbfbf" d="M494.86,-1553.03C608.47,-1550.47 892.27,-1542.78 933,-1529 948.65,-1523.7 964.02,-1513.84 976.35,-1504.42"/>
<polygon fill="#bfbfbf" stroke="#bfbfbf" points="978.73,-1507.01 984.37,-1498.04 974.37,-1501.53 978.73,-1507.01"/>
</g>
<!-- Source Directory -->
<g id="node17" class="node">
<title>Source Directory</title>
<path fill="gainsboro" stroke="black" d="M491,-1645C491,-1645 405,-1645 405,-1645 399,-1645 393,-1639 393,-1633 393,-1633 393,-1621 393,-1621 393,-1615 399,-1609 405,-1609 405,-1609 491,-1609 491,-1609 497,-1609 503,-1615 503,-1621 503,-1621 503,-1633 503,-1633 503,-1639 497,-1645 491,-1645"/>
<text text-anchor="middle" x="448" y="-1623.3" font-family="Times,serif" font-size="14.00">Source Directory</text>
</g>
<!-- Source Directory&#45;&gt;Image Loader -->
<g id="edge17" class="edge">
<title>Source Directory&#45;&gt;Image Loader</title>
<path fill="none" stroke="#bfbfbf" d="M448,-1608.7C448,-1600.98 448,-1591.71 448,-1583.11"/>
<polygon fill="#bfbfbf" stroke="#bfbfbf" points="451.5,-1583.1 448,-1573.1 444.5,-1583.1 451.5,-1583.1"/>
</g>
<!-- Image Shapes&#45;&gt;Matcher -->
<g id="edge27" class="edge">
<title>Image Shapes&#45;&gt;Matcher</title>
<path fill="none" stroke="#bfbfbf" d="M318.24,-1306.7C318.79,-1298.98 319.45,-1289.71 320.06,-1281.11"/>
<polygon fill="#bfbfbf" stroke="#bfbfbf" points="323.56,-1281.33 320.78,-1271.1 316.57,-1280.83 323.56,-1281.33"/>
</g>
<!-- Image Pair Indices -->
<g id="node20" class="node">
<title>Image Pair Indices</title>
<path fill="gainsboro" stroke="black" d="M1054.5,-1426C1054.5,-1426 959.5,-1426 959.5,-1426 953.5,-1426 947.5,-1420 947.5,-1414 947.5,-1414 947.5,-1402 947.5,-1402 947.5,-1396 953.5,-1390 959.5,-1390 959.5,-1390 1054.5,-1390 1054.5,-1390 1060.5,-1390 1066.5,-1396 1066.5,-1402 1066.5,-1402 1066.5,-1414 1066.5,-1414 1066.5,-1420 1060.5,-1426 1054.5,-1426"/>
<text text-anchor="middle" x="1007" y="-1404.3" font-family="Times,serif" font-size="14.00">Image Pair Indices</text>
</g>
<!-- Image Retriever&#45;&gt;Image Pair Indices -->
<g id="edge24" class="edge">
<title>Image Retriever&#45;&gt;Image Pair Indices</title>
<path fill="none" stroke="#bfbfbf" d="M1003.99,-1461.7C1004.43,-1453.98 1004.96,-1444.71 1005.45,-1436.11"/>
<polygon fill="#bfbfbf" stroke="#bfbfbf" points="1008.95,-1436.29 1006.02,-1426.1 1001.96,-1435.89 1008.95,-1436.29"/>
</g>
<!-- Putative Correspondences -->
<g id="node22" class="node">
<title>Putative Correspondences</title>
<path fill="gainsboro" stroke="black" d="M391,-1199C391,-1199 257,-1199 257,-1199 251,-1199 245,-1193 245,-1187 245,-1187 245,-1175 245,-1175 245,-1169 251,-1163 257,-1163 257,-1163 391,-1163 391,-1163 397,-1163 403,-1169 403,-1175 403,-1175 403,-1187 403,-1187 403,-1193 397,-1199 391,-1199"/>
<text text-anchor="middle" x="324" y="-1177.3" font-family="Times,serif" font-size="14.00">Putative Correspondences</text>
</g>
<!-- Matcher&#45;&gt;Putative Correspondences -->
<g id="edge28" class="edge">
<title>Matcher&#45;&gt;Putative Correspondences</title>
<path fill="none" stroke="#bfbfbf" d="M322.49,-1234.7C322.71,-1226.98 322.98,-1217.71 323.23,-1209.11"/>
<polygon fill="#bfbfbf" stroke="#bfbfbf" points="326.72,-1209.2 323.51,-1199.1 319.73,-1209 326.72,-1209.2"/>
</g>
<!-- Putative Correspondences&#45;&gt;Verifier -->
<g id="edge52" class="edge">
<title>Putative Correspondences&#45;&gt;Verifier</title>
<path fill="none" stroke="#bfbfbf" d="M335.37,-1162.7C340.72,-1154.56 347.2,-1144.69 353.11,-1135.7"/>
<polygon fill="#bfbfbf" stroke="#bfbfbf" points="356.19,-1137.38 358.76,-1127.1 350.34,-1133.54 356.19,-1137.38"/>
</g>
<!-- Dense Colored 3D Point Cloud -->
<g id="node24" class="node">
<title>Dense Colored 3D Point Cloud</title>
<path fill="gainsboro" stroke="black" d="M406.5,-36C406.5,-36 243.5,-36 243.5,-36 237.5,-36 231.5,-30 231.5,-24 231.5,-24 231.5,-12 231.5,-12 231.5,-6 237.5,0 243.5,0 243.5,0 406.5,0 406.5,0 412.5,0 418.5,-6 418.5,-12 418.5,-12 418.5,-24 418.5,-24 418.5,-30 412.5,-36 406.5,-36"/>
<text text-anchor="middle" x="325" y="-14.3" font-family="Times,serif" font-size="14.00">Dense Colored 3D Point Cloud</text>
</g>
<!-- Multi&#45;view Stereo&#45;&gt;Dense Colored 3D Point Cloud -->
<g id="edge32" class="edge">
<title>Multi&#45;view Stereo&#45;&gt;Dense Colored 3D Point Cloud</title>
<path fill="none" stroke="#bfbfbf" d="M325,-71.7C325,-63.98 325,-54.71 325,-46.11"/>
<polygon fill="#bfbfbf" stroke="#bfbfbf" points="328.5,-46.1 325,-36.1 321.5,-46.1 328.5,-46.1"/>
</g>
<!-- View&#45;Graph Relative Rotations -->
<g id="node25" class="node">
<title>View&#45;Graph Relative Rotations</title>
<path fill="gainsboro" stroke="black" d="M541,-756C541,-756 377,-756 377,-756 371,-756 365,-750 365,-744 365,-744 365,-732 365,-732 365,-726 371,-720 377,-720 377,-720 541,-720 541,-720 547,-720 553,-726 553,-732 553,-732 553,-744 553,-744 553,-750 547,-756 541,-756"/>
<text text-anchor="middle" x="459" y="-734.3" font-family="Times,serif" font-size="14.00">View&#45;Graph Relative Rotations</text>
</g>
<!-- View&#45;Graph Relative Rotations&#45;&gt;Rotation Averaging -->
<g id="edge33" class="edge">
<title>View&#45;Graph Relative Rotations&#45;&gt;Rotation Averaging</title>
<path fill="none" stroke="#bfbfbf" d="M471.36,-719.7C477.23,-711.47 484.37,-701.48 490.84,-692.42"/>
<polygon fill="#bfbfbf" stroke="#bfbfbf" points="493.82,-694.28 496.78,-684.1 488.12,-690.21 493.82,-694.28"/>
</g>
<!-- Rotation Averaging&#45;&gt;Global Rotations -->
<g id="edge35" class="edge">
<title>Rotation Averaging&#45;&gt;Global Rotations</title>
<path fill="none" stroke="#bfbfbf" d="M509.74,-647.7C510.07,-639.98 510.47,-630.71 510.84,-622.11"/>
<polygon fill="#bfbfbf" stroke="#bfbfbf" points="514.34,-622.25 511.27,-612.1 507.34,-621.95 514.34,-622.25"/>
</g>
<!-- View&#45;Graph Relative Translations -->
<g id="node27" class="node">
<title>View&#45;Graph Relative Translations</title>
<path fill="gainsboro" stroke="black" d="M418,-684C418,-684 240,-684 240,-684 234,-684 228,-678 228,-672 228,-672 228,-660 228,-660 228,-654 234,-648 240,-648 240,-648 418,-648 418,-648 424,-648 430,-654 430,-660 430,-660 430,-672 430,-672 430,-678 424,-684 418,-684"/>
<text text-anchor="middle" x="329" y="-662.3" font-family="Times,serif" font-size="14.00">View&#45;Graph Relative Translations</text>
</g>
<!-- View&#45;Graph Relative Translations&#45;&gt;Translation Averaging -->
<g id="edge36" class="edge">
<title>View&#45;Graph Relative Translations&#45;&gt;Translation Averaging</title>
<path fill="none" stroke="#bfbfbf" d="M344.92,-647.87C368.11,-622.92 411.31,-576.45 437.97,-547.77"/>
<polygon fill="#bfbfbf" stroke="#bfbfbf" points="440.78,-549.9 445.02,-540.19 435.65,-545.13 440.78,-549.9"/>
</g>
<!-- Translation Averaging&#45;&gt;Global Translations -->
<g id="edge40" class="edge">
<title>Translation Averaging&#45;&gt;Global Translations</title>
<path fill="none" stroke="#bfbfbf" d="M467.67,-503.7C470.71,-495.81 474.38,-486.3 477.76,-477.55"/>
<polygon fill="#bfbfbf" stroke="#bfbfbf" points="481.07,-478.69 481.4,-468.1 474.54,-476.17 481.07,-478.69"/>
</g>
<!-- Relative Rotation -->
<g id="node29" class="node">
<title>Relative Rotation</title>
<path fill="gainsboro" stroke="black" d="M300,-1055C300,-1055 212,-1055 212,-1055 206,-1055 200,-1049 200,-1043 200,-1043 200,-1031 200,-1031 200,-1025 206,-1019 212,-1019 212,-1019 300,-1019 300,-1019 306,-1019 312,-1025 312,-1031 312,-1031 312,-1043 312,-1043 312,-1049 306,-1055 300,-1055"/>
<text text-anchor="middle" x="256" y="-1033.3" font-family="Times,serif" font-size="14.00">Relative Rotation</text>
</g>
<!-- Relative Rotation&#45;&gt;Two&#45;View Bundle Adjustment -->
<g id="edge41" class="edge">
<title>Relative Rotation&#45;&gt;Two&#45;View Bundle Adjustment</title>
<path fill="none" stroke="#bfbfbf" d="M312.14,-1021.4C315.47,-1020.58 318.78,-1019.77 322,-1019 371.29,-1007.21 426.5,-994.96 471.53,-985.2"/>
<polygon fill="#bfbfbf" stroke="#bfbfbf" points="472.53,-988.57 481.57,-983.03 471.05,-981.72 472.53,-988.57"/>
</g>
<!-- Optimized Relative Rotation -->
<g id="node34" class="node">
<title>Optimized Relative Rotation</title>
<path fill="gainsboro" stroke="black" d="M353.5,-911C353.5,-911 204.5,-911 204.5,-911 198.5,-911 192.5,-905 192.5,-899 192.5,-899 192.5,-887 192.5,-887 192.5,-881 198.5,-875 204.5,-875 204.5,-875 353.5,-875 353.5,-875 359.5,-875 365.5,-881 365.5,-887 365.5,-887 365.5,-899 365.5,-899 365.5,-905 359.5,-911 353.5,-911"/>
<text text-anchor="middle" x="279" y="-889.3" font-family="Times,serif" font-size="14.00">Optimized Relative Rotation</text>
</g>
<!-- Two&#45;View Bundle Adjustment&#45;&gt;Optimized Relative Rotation -->
<g id="edge48" class="edge">
<title>Two&#45;View Bundle Adjustment&#45;&gt;Optimized Relative Rotation</title>
<path fill="none" stroke="#bfbfbf" d="M493.13,-946.97C452.3,-936.87 400.4,-924.03 357.92,-913.52"/>
<polygon fill="#bfbfbf" stroke="#bfbfbf" points="358.72,-910.11 348.18,-911.11 357.04,-916.91 358.72,-910.11"/>
</g>
<!-- Optimized Relative Translation -->
<g id="node35" class="node">
<title>Optimized Relative Translation</title>
<path fill="gainsboro" stroke="black" d="M560,-911C560,-911 396,-911 396,-911 390,-911 384,-905 384,-899 384,-899 384,-887 384,-887 384,-881 390,-875 396,-875 396,-875 560,-875 560,-875 566,-875 572,-881 572,-887 572,-887 572,-899 572,-899 572,-905 566,-911 560,-911"/>
<text text-anchor="middle" x="478" y="-889.3" font-family="Times,serif" font-size="14.00">Optimized Relative Translation</text>
</g>
<!-- Two&#45;View Bundle Adjustment&#45;&gt;Optimized Relative Translation -->
<g id="edge49" class="edge">
<title>Two&#45;View Bundle Adjustment&#45;&gt;Optimized Relative Translation</title>
<path fill="none" stroke="#bfbfbf" d="M541.24,-946.7C530.76,-937.97 517.89,-927.24 506.5,-917.75"/>
<polygon fill="#bfbfbf" stroke="#bfbfbf" points="508.45,-914.82 498.53,-911.1 503.97,-920.19 508.45,-914.82"/>
</g>
<!-- Inlier Correspondences -->
<g id="node36" class="node">
<title>Inlier Correspondences</title>
<path fill="gainsboro" stroke="black" d="M721.5,-911C721.5,-911 602.5,-911 602.5,-911 596.5,-911 590.5,-905 590.5,-899 590.5,-899 590.5,-887 590.5,-887 590.5,-881 596.5,-875 602.5,-875 602.5,-875 721.5,-875 721.5,-875 727.5,-875 733.5,-881 733.5,-887 733.5,-887 733.5,-899 733.5,-899 733.5,-905 727.5,-911 721.5,-911"/>
<text text-anchor="middle" x="662" y="-889.3" font-family="Times,serif" font-size="14.00">Inlier Correspondences</text>
</g>
<!-- Two&#45;View Bundle Adjustment&#45;&gt;Inlier Correspondences -->
<g id="edge50" class="edge">
<title>Two&#45;View Bundle Adjustment&#45;&gt;Inlier Correspondences</title>
<path fill="none" stroke="#bfbfbf" d="M586.46,-946.88C599.3,-937.89 615.2,-926.76 629.09,-917.03"/>
<polygon fill="#bfbfbf" stroke="#bfbfbf" points="631.26,-919.79 637.44,-911.19 627.24,-914.06 631.26,-919.79"/>
</g>
<!-- Relative Translation -->
<g id="node31" class="node">
<title>Relative Translation</title>
<path fill="gainsboro" stroke="black" d="M542,-1055C542,-1055 440,-1055 440,-1055 434,-1055 428,-1049 428,-1043 428,-1043 428,-1031 428,-1031 428,-1025 434,-1019 440,-1019 440,-1019 542,-1019 542,-1019 548,-1019 554,-1025 554,-1031 554,-1031 554,-1043 554,-1043 554,-1049 548,-1055 542,-1055"/>
<text text-anchor="middle" x="491" y="-1033.3" font-family="Times,serif" font-size="14.00">Relative Translation</text>
</g>
<!-- Relative Translation&#45;&gt;Two&#45;View Bundle Adjustment -->
<g id="edge42" class="edge">
<title>Relative Translation&#45;&gt;Two&#45;View Bundle Adjustment</title>
<path fill="none" stroke="#bfbfbf" d="M508.55,-1018.7C517.23,-1010.14 527.86,-999.66 537.35,-990.3"/>
<polygon fill="#bfbfbf" stroke="#bfbfbf" points="539.99,-992.62 544.65,-983.1 535.07,-987.63 539.99,-992.62"/>
</g>
<!-- Triangulated Points -->
<g id="node32" class="node">
<title>Triangulated Points</title>
<path fill="gainsboro" stroke="black" d="M683.5,-1055C683.5,-1055 584.5,-1055 584.5,-1055 578.5,-1055 572.5,-1049 572.5,-1043 572.5,-1043 572.5,-1031 572.5,-1031 572.5,-1025 578.5,-1019 584.5,-1019 584.5,-1019 683.5,-1019 683.5,-1019 689.5,-1019 695.5,-1025 695.5,-1031 695.5,-1031 695.5,-1043 695.5,-1043 695.5,-1049 689.5,-1055 683.5,-1055"/>
<text text-anchor="middle" x="634" y="-1033.3" font-family="Times,serif" font-size="14.00">Triangulated Points</text>
</g>
<!-- Triangulated Points&#45;&gt;Two&#45;View Bundle Adjustment -->
<g id="edge43" class="edge">
<title>Triangulated Points&#45;&gt;Two&#45;View Bundle Adjustment</title>
<path fill="none" stroke="#bfbfbf" d="M616.2,-1018.7C607.4,-1010.14 596.62,-999.66 587,-990.3"/>
<polygon fill="#bfbfbf" stroke="#bfbfbf" points="589.2,-987.57 579.59,-983.1 584.32,-992.58 589.2,-987.57"/>
</g>
<!-- Verified Correspondences -->
<g id="node33" class="node">
<title>Verified Correspondences</title>
<path fill="gainsboro" stroke="black" d="M858.5,-1055C858.5,-1055 725.5,-1055 725.5,-1055 719.5,-1055 713.5,-1049 713.5,-1043 713.5,-1043 713.5,-1031 713.5,-1031 713.5,-1025 719.5,-1019 725.5,-1019 725.5,-1019 858.5,-1019 858.5,-1019 864.5,-1019 870.5,-1025 870.5,-1031 870.5,-1031 870.5,-1043 870.5,-1043 870.5,-1049 864.5,-1055 858.5,-1055"/>
<text text-anchor="middle" x="792" y="-1033.3" font-family="Times,serif" font-size="14.00">Verified Correspondences</text>
</g>
<!-- Verified Correspondences&#45;&gt;Two&#45;View Bundle Adjustment -->
<g id="edge47" class="edge">
<title>Verified Correspondences&#45;&gt;Two&#45;View Bundle Adjustment</title>
<path fill="none" stroke="#bfbfbf" d="M736.03,-1018.97C703.47,-1009.06 662.26,-996.51 628.11,-986.12"/>
<polygon fill="#bfbfbf" stroke="#bfbfbf" points="628.81,-982.67 618.22,-983.11 626.77,-989.37 628.81,-982.67"/>
</g>
<!-- Optimized Relative Rotation&#45;&gt;View&#45;Graph Estimator -->
<g id="edge58" class="edge">
<title>Optimized Relative Rotation&#45;&gt;View&#45;Graph Estimator</title>
<path fill="none" stroke="#bfbfbf" d="M286.21,-874.82C290.76,-863.98 296.74,-849.74 301.89,-837.47"/>
<polygon fill="#bfbfbf" stroke="#bfbfbf" points="305.16,-838.73 305.8,-828.15 298.7,-836.02 305.16,-838.73"/>
</g>
<!-- Optimized Relative Translation&#45;&gt;View&#45;Graph Estimator -->
<g id="edge59" class="edge">
<title>Optimized Relative Translation&#45;&gt;View&#45;Graph Estimator</title>
<path fill="none" stroke="#bfbfbf" d="M443.01,-874.82C417.88,-862.48 383.82,-845.77 356.87,-832.54"/>
<polygon fill="#bfbfbf" stroke="#bfbfbf" points="358.18,-829.28 347.66,-828.01 355.09,-835.56 358.18,-829.28"/>
</g>
<!-- Inlier Correspondences&#45;&gt;View&#45;Graph Estimator -->
<g id="edge61" class="edge">
<title>Inlier Correspondences&#45;&gt;View&#45;Graph Estimator</title>
<path fill="none" stroke="#bfbfbf" d="M609.05,-874.88C599.74,-872.09 590.12,-869.35 581,-867 518.41,-850.84 446.7,-836.05 393.21,-825.73"/>
<polygon fill="#bfbfbf" stroke="#bfbfbf" points="393.58,-822.24 383.1,-823.79 392.27,-829.11 393.58,-822.24"/>
</g>
<!-- Verifier&#45;&gt;Relative Rotation -->
<g id="edge54" class="edge">
<title>Verifier&#45;&gt;Relative Rotation</title>
<path fill="none" stroke="#bfbfbf" d="M342.11,-1090.88C327.21,-1081.72 308.67,-1070.34 292.62,-1060.48"/>
<polygon fill="#bfbfbf" stroke="#bfbfbf" points="294.35,-1057.44 283.99,-1055.19 290.69,-1063.41 294.35,-1057.44"/>
</g>
<!-- Verifier&#45;&gt;Relative Translation -->
<g id="edge55" class="edge">
<title>Verifier&#45;&gt;Relative Translation</title>
<path fill="none" stroke="#bfbfbf" d="M399.29,-1091.05C415.37,-1081.75 435.5,-1070.11 452.81,-1060.1"/>
<polygon fill="#bfbfbf" stroke="#bfbfbf" points="454.66,-1063.07 461.56,-1055.03 451.15,-1057.01 454.66,-1063.07"/>
</g>
<!-- Verifier&#45;&gt;Verified Correspondences -->
<g id="edge56" class="edge">
<title>Verifier&#45;&gt;Verified Correspondences</title>
<path fill="none" stroke="#bfbfbf" d="M399.19,-1103.74C455.84,-1095.41 584.91,-1076.03 703.34,-1055.26"/>
<polygon fill="#bfbfbf" stroke="#bfbfbf" points="704.06,-1058.69 713.3,-1053.51 702.85,-1051.8 704.06,-1058.69"/>
</g>
<!-- Inlier Ratio -->
<g id="node38" class="node">
<title>Inlier Ratio</title>
<path fill="gainsboro" stroke="black" d="M397.5,-1055C397.5,-1055 342.5,-1055 342.5,-1055 336.5,-1055 330.5,-1049 330.5,-1043 330.5,-1043 330.5,-1031 330.5,-1031 330.5,-1025 336.5,-1019 342.5,-1019 342.5,-1019 397.5,-1019 397.5,-1019 403.5,-1019 409.5,-1025 409.5,-1031 409.5,-1031 409.5,-1043 409.5,-1043 409.5,-1049 403.5,-1055 397.5,-1055"/>
<text text-anchor="middle" x="370" y="-1033.3" font-family="Times,serif" font-size="14.00">Inlier Ratio</text>
</g>
<!-- Verifier&#45;&gt;Inlier Ratio -->
<g id="edge57" class="edge">
<title>Verifier&#45;&gt;Inlier Ratio</title>
<path fill="none" stroke="#bfbfbf" d="M370,-1090.7C370,-1082.98 370,-1073.71 370,-1065.11"/>
<polygon fill="#bfbfbf" stroke="#bfbfbf" points="373.5,-1065.1 370,-1055.1 366.5,-1065.1 373.5,-1065.1"/>
</g>
<!-- View&#45;Graph Estimator&#45;&gt;View&#45;Graph Correspondences -->
<g id="edge65" class="edge">
<title>View&#45;Graph Estimator&#45;&gt;View&#45;Graph Correspondences</title>
<path fill="none" stroke="#bfbfbf" d="M294.06,-791.76C271.14,-769.5 233.8,-728.3 219,-684 213.93,-668.82 209.89,-661.15 219,-648 244.96,-610.55 289.04,-649.45 315,-612 328.28,-592.84 317.18,-567.45 304.72,-548.69"/>
<polygon fill="#bfbfbf" stroke="#bfbfbf" points="307.43,-546.46 298.8,-540.33 301.72,-550.51 307.43,-546.46"/>
</g>
<!-- View&#45;Graph Estimator&#45;&gt;View&#45;Graph Relative Rotations -->
<g id="edge63" class="edge">
<title>View&#45;Graph Estimator&#45;&gt;View&#45;Graph Relative Rotations</title>
<path fill="none" stroke="#bfbfbf" d="M348.72,-791.88C368.5,-782.39 393.27,-770.51 414.33,-760.42"/>
<polygon fill="#bfbfbf" stroke="#bfbfbf" points="415.9,-763.55 423.4,-756.07 412.87,-757.24 415.9,-763.55"/>
</g>
<!-- View&#45;Graph Estimator&#45;&gt;View&#45;Graph Relative Translations -->
<g id="edge64" class="edge">
<title>View&#45;Graph Estimator&#45;&gt;View&#45;Graph Relative Translations</title>
<path fill="none" stroke="#bfbfbf" d="M314.93,-791.87C317.66,-767.67 322.67,-723.21 325.91,-694.39"/>
<polygon fill="#bfbfbf" stroke="#bfbfbf" points="329.42,-694.52 327.06,-684.19 322.47,-693.73 329.42,-694.52"/>
</g>
</g>
</svg>
