<?xml version="1.0" encoding="UTF-8" standalone="no"?>
<!DOCTYPE svg PUBLIC "-//W3C//DTD SVG 1.1//EN"
 "http://www.w3.org/Graphics/SVG/1.1/DTD/svg11.dtd">
<!-- Generated by graphviz version 5.0.0 (0)
 -->
<!-- Title: G Pages: 1 -->
<svg width="1255pt" height="1653pt"
 viewBox="0.00 0.00 1254.50 1653.00" xmlns="http://www.w3.org/2000/svg" xmlns:xlink="http://www.w3.org/1999/xlink">
<g id="graph0" class="graph" transform="scale(1 1) rotate(0) translate(4 1649)">
<title>G</title>
<polygon fill="white" stroke="transparent" points="-4,4 -4,-1649 1250.5,-1649 1250.5,4 -4,4"/>
<g id="clust1" class="cluster">
<title>cluster_Two&#45;View Estimator</title>
<polygon fill="white" stroke="black" points="123,-867 123,-1302 681,-1302 681,-867 123,-867"/>
<text text-anchor="middle" x="402" y="-1286.8" font-family="Veranda" font-size="14.00">Two&#45;View Estimator</text>
</g>
<g id="clust2" class="cluster">
<title>cluster_Multi&#45;View Optimizer</title>
<polygon fill="white" stroke="black" points="518,-136 518,-859 896,-859 896,-136 518,-136"/>
<text text-anchor="middle" x="707" y="-843.8" font-family="Veranda" font-size="14.00">Multi&#45;View Optimizer</text>
</g>
<g id="clust3" class="cluster">
<title>cluster_Feature Extractor</title>
<polygon fill="white" stroke="black" points="726,-1310 726,-1457 912,-1457 912,-1310 726,-1310"/>
<text text-anchor="middle" x="819" y="-1441.8" font-family="Veranda" font-size="14.00">Feature Extractor</text>
</g>
<!-- Data Association -->
<g id="node1" class="node">
<title>Data Association</title>
<path fill="lightskyblue" stroke="black" d="M699.5,-396C699.5,-396 614.5,-396 614.5,-396 608.5,-396 602.5,-390 602.5,-384 602.5,-384 602.5,-372 602.5,-372 602.5,-366 608.5,-360 614.5,-360 614.5,-360 699.5,-360 699.5,-360 705.5,-360 711.5,-366 711.5,-372 711.5,-372 711.5,-384 711.5,-384 711.5,-390 705.5,-396 699.5,-396"/>
<text text-anchor="middle" x="657" y="-374.3" font-family="Times,serif" font-size="14.00">Data Association</text>
</g>
<!-- 3D Tracks -->
<g id="node2" class="node">
<title>3D Tracks</title>
<path fill="gainsboro" stroke="black" d="M690.5,-324C690.5,-324 641.5,-324 641.5,-324 635.5,-324 629.5,-318 629.5,-312 629.5,-312 629.5,-300 629.5,-300 629.5,-294 635.5,-288 641.5,-288 641.5,-288 690.5,-288 690.5,-288 696.5,-288 702.5,-294 702.5,-300 702.5,-300 702.5,-312 702.5,-312 702.5,-318 696.5,-324 690.5,-324"/>
<text text-anchor="middle" x="666" y="-302.3" font-family="Times,serif" font-size="14.00">3D Tracks</text>
</g>
<!-- Data Association&#45;&gt;3D Tracks -->
<g id="edge1" class="edge">
<title>Data Association&#45;&gt;3D Tracks</title>
<path fill="none" stroke="#bfbfbf" d="M659.22,-359.7C660.22,-351.98 661.41,-342.71 662.51,-334.11"/>
<polygon fill="#bfbfbf" stroke="#bfbfbf" points="666,-334.47 663.8,-324.1 659.05,-333.58 666,-334.47"/>
</g>
<!-- Global Bundle Adjustment -->
<g id="node11" class="node">
<title>Global Bundle Adjustment</title>
<path fill="lightskyblue" stroke="black" d="M825.5,-252C825.5,-252 686.5,-252 686.5,-252 680.5,-252 674.5,-246 674.5,-240 674.5,-240 674.5,-228 674.5,-228 674.5,-222 680.5,-216 686.5,-216 686.5,-216 825.5,-216 825.5,-216 831.5,-216 837.5,-222 837.5,-228 837.5,-228 837.5,-240 837.5,-240 837.5,-246 831.5,-252 825.5,-252"/>
<text text-anchor="middle" x="756" y="-230.3" font-family="Times,serif" font-size="14.00">Global Bundle Adjustment</text>
</g>
<!-- 3D Tracks&#45;&gt;Global Bundle Adjustment -->
<g id="edge16" class="edge">
<title>3D Tracks&#45;&gt;Global Bundle Adjustment</title>
<path fill="none" stroke="#bfbfbf" d="M688.25,-287.7C699.58,-278.88 713.53,-268.03 725.82,-258.47"/>
<polygon fill="#bfbfbf" stroke="#bfbfbf" points="728.26,-261.01 734.01,-252.1 723.97,-255.48 728.26,-261.01"/>
</g>
<!-- View&#45;Graph Correspondences -->
<g id="node3" class="node">
<title>View&#45;Graph Correspondences</title>
<path fill="gainsboro" stroke="black" d="M694,-612C694,-612 538,-612 538,-612 532,-612 526,-606 526,-600 526,-600 526,-588 526,-588 526,-582 532,-576 538,-576 538,-576 694,-576 694,-576 700,-576 706,-582 706,-588 706,-588 706,-600 706,-600 706,-606 700,-612 694,-612"/>
<text text-anchor="middle" x="616" y="-590.3" font-family="Times,serif" font-size="14.00">View&#45;Graph Correspondences</text>
</g>
<!-- View&#45;Graph Correspondences&#45;&gt;Data Association -->
<g id="edge2" class="edge">
<title>View&#45;Graph Correspondences&#45;&gt;Data Association</title>
<path fill="none" stroke="#bfbfbf" d="M619.29,-575.85C626.39,-538.75 643.24,-450.81 651.81,-406.1"/>
<polygon fill="#bfbfbf" stroke="#bfbfbf" points="655.25,-406.71 653.7,-396.23 648.38,-405.4 655.25,-406.71"/>
</g>
<!-- Global Rotations -->
<g id="node4" class="node">
<title>Global Rotations</title>
<path fill="gainsboro" stroke="black" d="M821.5,-612C821.5,-612 736.5,-612 736.5,-612 730.5,-612 724.5,-606 724.5,-600 724.5,-600 724.5,-588 724.5,-588 724.5,-582 730.5,-576 736.5,-576 736.5,-576 821.5,-576 821.5,-576 827.5,-576 833.5,-582 833.5,-588 833.5,-588 833.5,-600 833.5,-600 833.5,-606 827.5,-612 821.5,-612"/>
<text text-anchor="middle" x="779" y="-590.3" font-family="Times,serif" font-size="14.00">Global Rotations</text>
</g>
<!-- Global Rotations&#45;&gt;Data Association -->
<g id="edge3" class="edge">
<title>Global Rotations&#45;&gt;Data Association</title>
<path fill="none" stroke="#bfbfbf" d="M758.47,-575.92C747.76,-566.21 735.05,-553.36 726,-540 696.77,-496.83 675.74,-439.27 665.04,-405.96"/>
<polygon fill="#bfbfbf" stroke="#bfbfbf" points="668.27,-404.54 661.93,-396.05 661.59,-406.63 668.27,-404.54"/>
</g>
<!-- Global Rotations&#45;&gt;Global Bundle Adjustment -->
<g id="edge15" class="edge">
<title>Global Rotations&#45;&gt;Global Bundle Adjustment</title>
<path fill="none" stroke="#bfbfbf" d="M763.61,-575.62C755.82,-565.83 746.98,-552.99 742,-540 727.73,-502.79 731,-490.86 731,-451 731,-451 731,-451 731,-377 731,-336.6 740.94,-290.71 748.28,-262.3"/>
<polygon fill="#bfbfbf" stroke="#bfbfbf" points="751.75,-262.88 750.94,-252.32 744.98,-261.08 751.75,-262.88"/>
</g>
<!-- Translation Averaging -->
<g id="node27" class="node">
<title>Translation Averaging</title>
<path fill="lightskyblue" stroke="black" d="M875.5,-540C875.5,-540 762.5,-540 762.5,-540 756.5,-540 750.5,-534 750.5,-528 750.5,-528 750.5,-516 750.5,-516 750.5,-510 756.5,-504 762.5,-504 762.5,-504 875.5,-504 875.5,-504 881.5,-504 887.5,-510 887.5,-516 887.5,-516 887.5,-528 887.5,-528 887.5,-534 881.5,-540 875.5,-540"/>
<text text-anchor="middle" x="819" y="-518.3" font-family="Times,serif" font-size="14.00">Translation Averaging</text>
</g>
<!-- Global Rotations&#45;&gt;Translation Averaging -->
<g id="edge38" class="edge">
<title>Global Rotations&#45;&gt;Translation Averaging</title>
<path fill="none" stroke="#bfbfbf" d="M788.89,-575.7C793.49,-567.64 799.06,-557.89 804.15,-548.98"/>
<polygon fill="#bfbfbf" stroke="#bfbfbf" points="807.3,-550.52 809.23,-540.1 801.23,-547.05 807.3,-550.52"/>
</g>
<!-- Global Translations -->
<g id="node5" class="node">
<title>Global Translations</title>
<path fill="gainsboro" stroke="black" d="M861.5,-468C861.5,-468 762.5,-468 762.5,-468 756.5,-468 750.5,-462 750.5,-456 750.5,-456 750.5,-444 750.5,-444 750.5,-438 756.5,-432 762.5,-432 762.5,-432 861.5,-432 861.5,-432 867.5,-432 873.5,-438 873.5,-444 873.5,-444 873.5,-456 873.5,-456 873.5,-462 867.5,-468 861.5,-468"/>
<text text-anchor="middle" x="812" y="-446.3" font-family="Times,serif" font-size="14.00">Global Translations</text>
</g>
<!-- Global Translations&#45;&gt;Data Association -->
<g id="edge4" class="edge">
<title>Global Translations&#45;&gt;Data Association</title>
<path fill="none" stroke="#bfbfbf" d="M774.08,-431.88C752.99,-422.35 726.54,-410.41 704.13,-400.28"/>
<polygon fill="#bfbfbf" stroke="#bfbfbf" points="705.35,-396.99 694.79,-396.07 702.47,-403.37 705.35,-396.99"/>
</g>
<!-- Global Translations&#45;&gt;Global Bundle Adjustment -->
<g id="edge14" class="edge">
<title>Global Translations&#45;&gt;Global Bundle Adjustment</title>
<path fill="none" stroke="#bfbfbf" d="M807.51,-431.85C797.8,-394.75 774.79,-306.81 763.09,-262.1"/>
<polygon fill="#bfbfbf" stroke="#bfbfbf" points="766.43,-261.02 760.51,-252.23 759.66,-262.79 766.43,-261.02"/>
</g>
<!-- Camera Intrinsics -->
<g id="node6" class="node">
<title>Camera Intrinsics</title>
<path fill="gainsboro" stroke="black" d="M102.5,-1199C102.5,-1199 13.5,-1199 13.5,-1199 7.5,-1199 1.5,-1193 1.5,-1187 1.5,-1187 1.5,-1175 1.5,-1175 1.5,-1169 7.5,-1163 13.5,-1163 13.5,-1163 102.5,-1163 102.5,-1163 108.5,-1163 114.5,-1169 114.5,-1175 114.5,-1175 114.5,-1187 114.5,-1187 114.5,-1193 108.5,-1199 102.5,-1199"/>
<text text-anchor="middle" x="58" y="-1177.3" font-family="Times,serif" font-size="14.00">Camera Intrinsics</text>
</g>
<!-- Camera Intrinsics&#45;&gt;Data Association -->
<g id="edge5" class="edge">
<title>Camera Intrinsics&#45;&gt;Data Association</title>
<path fill="none" stroke="#bfbfbf" d="M53.95,-1162.62C48.11,-1135.97 38,-1083.31 38,-1038 38,-1038 38,-1038 38,-521 38,-408.19 433.51,-385 592.23,-380.23"/>
<polygon fill="#bfbfbf" stroke="#bfbfbf" points="592.44,-383.73 602.34,-379.94 592.24,-376.73 592.44,-383.73"/>
</g>
<!-- Camera Intrinsics&#45;&gt;Global Bundle Adjustment -->
<g id="edge13" class="edge">
<title>Camera Intrinsics&#45;&gt;Global Bundle Adjustment</title>
<path fill="none" stroke="#bfbfbf" d="M45.98,-1162.99C28.99,-1137.23 0,-1086.2 0,-1038 0,-1038 0,-1038 0,-377 0,-310.1 463.12,-260.94 664.41,-242.73"/>
<polygon fill="#bfbfbf" stroke="#bfbfbf" points="664.73,-246.21 674.38,-241.83 664.1,-239.24 664.73,-246.21"/>
</g>
<!-- Two&#45;View Bundle Adjustment -->
<g id="node29" class="node">
<title>Two&#45;View Bundle Adjustment</title>
<path fill="lightskyblue" stroke="black" d="M546.5,-983C546.5,-983 387.5,-983 387.5,-983 381.5,-983 375.5,-977 375.5,-971 375.5,-971 375.5,-959 375.5,-959 375.5,-953 381.5,-947 387.5,-947 387.5,-947 546.5,-947 546.5,-947 552.5,-947 558.5,-953 558.5,-959 558.5,-959 558.5,-971 558.5,-971 558.5,-977 552.5,-983 546.5,-983"/>
<text text-anchor="middle" x="467" y="-961.3" font-family="Times,serif" font-size="14.00">Two&#45;View Bundle Adjustment</text>
</g>
<!-- Camera Intrinsics&#45;&gt;Two&#45;View Bundle Adjustment -->
<g id="edge48" class="edge">
<title>Camera Intrinsics&#45;&gt;Two&#45;View Bundle Adjustment</title>
<path fill="none" stroke="#bfbfbf" d="M69.41,-1162.74C75.88,-1152.57 83.88,-1139.32 90,-1127 112.98,-1080.73 92.65,-1051.27 133,-1019 168.03,-990.98 280.22,-977.53 364.99,-971.24"/>
<polygon fill="#bfbfbf" stroke="#bfbfbf" points="365.46,-974.71 375.18,-970.5 364.96,-967.73 365.46,-974.71"/>
</g>
<!-- Verifier -->
<g id="node37" class="node">
<title>Verifier</title>
<path fill="lightskyblue" stroke="black" d="M535,-1127C535,-1127 501,-1127 501,-1127 495,-1127 489,-1121 489,-1115 489,-1115 489,-1103 489,-1103 489,-1097 495,-1091 501,-1091 501,-1091 535,-1091 535,-1091 541,-1091 547,-1097 547,-1103 547,-1103 547,-1115 547,-1115 547,-1121 541,-1127 535,-1127"/>
<text text-anchor="middle" x="518" y="-1105.3" font-family="Times,serif" font-size="14.00">Verifier</text>
</g>
<!-- Camera Intrinsics&#45;&gt;Verifier -->
<g id="edge57" class="edge">
<title>Camera Intrinsics&#45;&gt;Verifier</title>
<path fill="none" stroke="#bfbfbf" d="M114.76,-1163.9C116.18,-1163.59 117.6,-1163.29 119,-1163 249.5,-1136.28 406.89,-1119.97 478.76,-1113.38"/>
<polygon fill="#bfbfbf" stroke="#bfbfbf" points="479.09,-1116.86 488.73,-1112.48 478.46,-1109.89 479.09,-1116.86"/>
</g>
<!-- View&#45;Graph Estimator -->
<g id="node39" class="node">
<title>View&#45;Graph Estimator</title>
<path fill="lightskyblue" stroke="black" d="M659,-828C659,-828 543,-828 543,-828 537,-828 531,-822 531,-816 531,-816 531,-804 531,-804 531,-798 537,-792 543,-792 543,-792 659,-792 659,-792 665,-792 671,-798 671,-804 671,-804 671,-816 671,-816 671,-822 665,-828 659,-828"/>
<text text-anchor="middle" x="601" y="-806.3" font-family="Times,serif" font-size="14.00">View&#45;Graph Estimator</text>
</g>
<!-- Camera Intrinsics&#45;&gt;View&#45;Graph Estimator -->
<g id="edge63" class="edge">
<title>Camera Intrinsics&#45;&gt;View&#45;Graph Estimator</title>
<path fill="none" stroke="#bfbfbf" d="M61.64,-1162.6C66.9,-1135.92 76,-1083.23 76,-1038 76,-1038 76,-1038 76,-964 76,-916.84 81.02,-894.96 119,-867 180.97,-821.38 399.93,-812.35 520.28,-810.92"/>
<polygon fill="#bfbfbf" stroke="#bfbfbf" points="520.58,-814.42 530.54,-810.82 520.5,-807.42 520.58,-814.42"/>
</g>
<!-- DetectorDescriptor -->
<g id="node7" class="node">
<title>DetectorDescriptor</title>
<path fill="lightskyblue" stroke="black" d="M892,-1426C892,-1426 796,-1426 796,-1426 790,-1426 784,-1420 784,-1414 784,-1414 784,-1402 784,-1402 784,-1396 790,-1390 796,-1390 796,-1390 892,-1390 892,-1390 898,-1390 904,-1396 904,-1402 904,-1402 904,-1414 904,-1414 904,-1420 898,-1426 892,-1426"/>
<text text-anchor="middle" x="844" y="-1404.3" font-family="Times,serif" font-size="14.00">DetectorDescriptor</text>
</g>
<!-- Keypoints -->
<g id="node8" class="node">
<title>Keypoints</title>
<path fill="gainsboro" stroke="black" d="M892,-1354C892,-1354 844,-1354 844,-1354 838,-1354 832,-1348 832,-1342 832,-1342 832,-1330 832,-1330 832,-1324 838,-1318 844,-1318 844,-1318 892,-1318 892,-1318 898,-1318 904,-1324 904,-1330 904,-1330 904,-1342 904,-1342 904,-1348 898,-1354 892,-1354"/>
<text text-anchor="middle" x="868" y="-1332.3" font-family="Times,serif" font-size="14.00">Keypoints</text>
</g>
<!-- DetectorDescriptor&#45;&gt;Keypoints -->
<g id="edge6" class="edge">
<title>DetectorDescriptor&#45;&gt;Keypoints</title>
<path fill="none" stroke="#bfbfbf" d="M849.93,-1389.7C852.61,-1381.9 855.83,-1372.51 858.8,-1363.83"/>
<polygon fill="#bfbfbf" stroke="#bfbfbf" points="862.2,-1364.7 862.14,-1354.1 855.58,-1362.43 862.2,-1364.7"/>
</g>
<!-- Descriptors -->
<g id="node9" class="node">
<title>Descriptors</title>
<path fill="gainsboro" stroke="black" d="M801.5,-1354C801.5,-1354 746.5,-1354 746.5,-1354 740.5,-1354 734.5,-1348 734.5,-1342 734.5,-1342 734.5,-1330 734.5,-1330 734.5,-1324 740.5,-1318 746.5,-1318 746.5,-1318 801.5,-1318 801.5,-1318 807.5,-1318 813.5,-1324 813.5,-1330 813.5,-1330 813.5,-1342 813.5,-1342 813.5,-1348 807.5,-1354 801.5,-1354"/>
<text text-anchor="middle" x="774" y="-1332.3" font-family="Times,serif" font-size="14.00">Descriptors</text>
</g>
<!-- DetectorDescriptor&#45;&gt;Descriptors -->
<g id="edge7" class="edge">
<title>DetectorDescriptor&#45;&gt;Descriptors</title>
<path fill="none" stroke="#bfbfbf" d="M826.7,-1389.7C818.14,-1381.14 807.66,-1370.66 798.3,-1361.3"/>
<polygon fill="#bfbfbf" stroke="#bfbfbf" points="800.65,-1358.7 791.1,-1354.1 795.7,-1363.65 800.65,-1358.7"/>
</g>
<!-- Matcher -->
<g id="node21" class="node">
<title>Matcher</title>
<path fill="lightskyblue" stroke="black" d="M661,-1271C661,-1271 623,-1271 623,-1271 617,-1271 611,-1265 611,-1259 611,-1259 611,-1247 611,-1247 611,-1241 617,-1235 623,-1235 623,-1235 661,-1235 661,-1235 667,-1235 673,-1241 673,-1247 673,-1247 673,-1259 673,-1259 673,-1265 667,-1271 661,-1271"/>
<text text-anchor="middle" x="642" y="-1249.3" font-family="Times,serif" font-size="14.00">Matcher</text>
</g>
<!-- Keypoints&#45;&gt;Matcher -->
<g id="edge26" class="edge">
<title>Keypoints&#45;&gt;Matcher</title>
<path fill="none" stroke="#bfbfbf" d="M841.16,-1317.89C835.36,-1314.83 829.12,-1311.98 823,-1310 794.47,-1300.77 784.99,-1309.67 756,-1302 730.68,-1295.3 703.62,-1284.09 682.21,-1274.19"/>
<polygon fill="#bfbfbf" stroke="#bfbfbf" points="683.64,-1270.99 673.11,-1269.9 680.66,-1277.33 683.64,-1270.99"/>
</g>
<!-- Keypoints&#45;&gt;Two&#45;View Bundle Adjustment -->
<g id="edge49" class="edge">
<title>Keypoints&#45;&gt;Two&#45;View Bundle Adjustment</title>
<path fill="none" stroke="#bfbfbf" d="M869.69,-1317.58C872.3,-1289.21 877,-1231.23 877,-1182 877,-1182 877,-1182 877,-1108 877,-1067.55 887.66,-1046.5 858,-1019 817.2,-981.18 670.78,-970.01 569.19,-966.91"/>
<polygon fill="#bfbfbf" stroke="#bfbfbf" points="568.98,-963.4 558.88,-966.61 568.78,-970.4 568.98,-963.4"/>
</g>
<!-- Keypoints&#45;&gt;Verifier -->
<g id="edge55" class="edge">
<title>Keypoints&#45;&gt;Verifier</title>
<path fill="none" stroke="#bfbfbf" d="M849.13,-1317.77C812.03,-1284.55 726.03,-1210.68 644,-1163 616.11,-1146.79 582.3,-1132.85 556.73,-1123.34"/>
<polygon fill="#bfbfbf" stroke="#bfbfbf" points="557.61,-1119.93 547.02,-1119.79 555.21,-1126.51 557.61,-1119.93"/>
</g>
<!-- Keypoints&#45;&gt;View&#45;Graph Estimator -->
<g id="edge65" class="edge">
<title>Keypoints&#45;&gt;View&#45;Graph Estimator</title>
<path fill="none" stroke="#bfbfbf" d="M879.25,-1317.67C882.08,-1312.75 884.91,-1307.29 887,-1302 907.1,-1251.06 915,-1236.77 915,-1182 915,-1182 915,-1182 915,-1108 915,-965.96 743.31,-871.58 653.84,-832.05"/>
<polygon fill="#bfbfbf" stroke="#bfbfbf" points="655.23,-828.84 644.66,-828.06 652.44,-835.26 655.23,-828.84"/>
</g>
<!-- Descriptors&#45;&gt;Matcher -->
<g id="edge27" class="edge">
<title>Descriptors&#45;&gt;Matcher</title>
<path fill="none" stroke="#bfbfbf" d="M746.01,-1317.82C726.41,-1305.79 700.02,-1289.6 678.73,-1276.54"/>
<polygon fill="#bfbfbf" stroke="#bfbfbf" points="680.31,-1273.4 669.95,-1271.15 676.65,-1279.37 680.31,-1273.4"/>
</g>
<!-- Images -->
<g id="node10" class="node">
<title>Images</title>
<path fill="gainsboro" stroke="black" d="M1021,-1501C1021,-1501 989,-1501 989,-1501 983,-1501 977,-1495 977,-1489 977,-1489 977,-1477 977,-1477 977,-1471 983,-1465 989,-1465 989,-1465 1021,-1465 1021,-1465 1027,-1465 1033,-1471 1033,-1477 1033,-1477 1033,-1489 1033,-1489 1033,-1495 1027,-1501 1021,-1501"/>
<text text-anchor="middle" x="1005" y="-1479.3" font-family="Times,serif" font-size="14.00">Images</text>
</g>
<!-- Images&#45;&gt;DetectorDescriptor -->
<g id="edge8" class="edge">
<title>Images&#45;&gt;DetectorDescriptor</title>
<path fill="none" stroke="#bfbfbf" d="M976.96,-1469.28C953.24,-1458.53 918.76,-1442.9 890.86,-1430.25"/>
<polygon fill="#bfbfbf" stroke="#bfbfbf" points="892.23,-1427.03 881.68,-1426.08 889.34,-1433.4 892.23,-1427.03"/>
</g>
<!-- Multi&#45;view Stereo -->
<g id="node23" class="node">
<title>Multi&#45;view Stereo</title>
<path fill="lightskyblue" stroke="black" d="M867,-108C867,-108 775,-108 775,-108 769,-108 763,-102 763,-96 763,-96 763,-84 763,-84 763,-78 769,-72 775,-72 775,-72 867,-72 867,-72 873,-72 879,-78 879,-84 879,-84 879,-96 879,-96 879,-102 873,-108 867,-108"/>
<text text-anchor="middle" x="821" y="-86.3" font-family="Times,serif" font-size="14.00">Multi&#45;view Stereo</text>
</g>
<!-- Images&#45;&gt;Multi&#45;view Stereo -->
<g id="edge30" class="edge">
<title>Images&#45;&gt;Multi&#45;view Stereo</title>
<path fill="none" stroke="#bfbfbf" d="M1008.56,-1464.68C1013.8,-1437.57 1023,-1383.42 1023,-1337 1023,-1337 1023,-1337 1023,-1252 1023,-1125.93 1087.26,-1106.41 1113,-983 1141.79,-844.98 1141,-807.99 1141,-667 1141,-667 1141,-667 1141,-233 1141,-123.78 983.32,-97.92 889.33,-92.22"/>
<polygon fill="#bfbfbf" stroke="#bfbfbf" points="889.5,-88.72 879.32,-91.67 889.12,-95.71 889.5,-88.72"/>
</g>
<!-- Optimized Camera Poses -->
<g id="node12" class="node">
<title>Optimized Camera Poses</title>
<path fill="gainsboro" stroke="black" d="M723.5,-180C723.5,-180 592.5,-180 592.5,-180 586.5,-180 580.5,-174 580.5,-168 580.5,-168 580.5,-156 580.5,-156 580.5,-150 586.5,-144 592.5,-144 592.5,-144 723.5,-144 723.5,-144 729.5,-144 735.5,-150 735.5,-156 735.5,-156 735.5,-168 735.5,-168 735.5,-174 729.5,-180 723.5,-180"/>
<text text-anchor="middle" x="658" y="-158.3" font-family="Times,serif" font-size="14.00">Optimized Camera Poses</text>
</g>
<!-- Global Bundle Adjustment&#45;&gt;Optimized Camera Poses -->
<g id="edge9" class="edge">
<title>Global Bundle Adjustment&#45;&gt;Optimized Camera Poses</title>
<path fill="none" stroke="#bfbfbf" d="M732.03,-215.88C719.45,-206.89 703.87,-195.76 690.25,-186.03"/>
<polygon fill="#bfbfbf" stroke="#bfbfbf" points="692.24,-183.15 682.07,-180.19 688.17,-188.85 692.24,-183.15"/>
</g>
<!-- Optimized 3D Tracks -->
<g id="node13" class="node">
<title>Optimized 3D Tracks</title>
<path fill="gainsboro" stroke="black" d="M876,-180C876,-180 766,-180 766,-180 760,-180 754,-174 754,-168 754,-168 754,-156 754,-156 754,-150 760,-144 766,-144 766,-144 876,-144 876,-144 882,-144 888,-150 888,-156 888,-156 888,-168 888,-168 888,-174 882,-180 876,-180"/>
<text text-anchor="middle" x="821" y="-158.3" font-family="Times,serif" font-size="14.00">Optimized 3D Tracks</text>
</g>
<!-- Global Bundle Adjustment&#45;&gt;Optimized 3D Tracks -->
<g id="edge10" class="edge">
<title>Global Bundle Adjustment&#45;&gt;Optimized 3D Tracks</title>
<path fill="none" stroke="#bfbfbf" d="M772.07,-215.7C779.94,-207.22 789.56,-196.86 798.17,-187.58"/>
<polygon fill="#bfbfbf" stroke="#bfbfbf" points="800.88,-189.81 805.12,-180.1 795.75,-185.05 800.88,-189.81"/>
</g>
<!-- Optimized Camera Poses&#45;&gt;Multi&#45;view Stereo -->
<g id="edge31" class="edge">
<title>Optimized Camera Poses&#45;&gt;Multi&#45;view Stereo</title>
<path fill="none" stroke="#bfbfbf" d="M697.87,-143.88C720.16,-134.31 748.12,-122.3 771.76,-112.15"/>
<polygon fill="#bfbfbf" stroke="#bfbfbf" points="773.45,-115.23 781.26,-108.07 770.69,-108.8 773.45,-115.23"/>
</g>
<!-- Optimized 3D Tracks&#45;&gt;Multi&#45;view Stereo -->
<g id="edge32" class="edge">
<title>Optimized 3D Tracks&#45;&gt;Multi&#45;view Stereo</title>
<path fill="none" stroke="#bfbfbf" d="M821,-143.7C821,-135.98 821,-126.71 821,-118.11"/>
<polygon fill="#bfbfbf" stroke="#bfbfbf" points="824.5,-118.1 821,-108.1 817.5,-118.1 824.5,-118.1"/>
</g>
<!-- Absolute Pose Priors -->
<g id="node14" class="node">
<title>Absolute Pose Priors</title>
<path fill="gainsboro" stroke="black" d="M1100.5,-612C1100.5,-612 993.5,-612 993.5,-612 987.5,-612 981.5,-606 981.5,-600 981.5,-600 981.5,-588 981.5,-588 981.5,-582 987.5,-576 993.5,-576 993.5,-576 1100.5,-576 1100.5,-576 1106.5,-576 1112.5,-582 1112.5,-588 1112.5,-588 1112.5,-600 1112.5,-600 1112.5,-606 1106.5,-612 1100.5,-612"/>
<text text-anchor="middle" x="1047" y="-590.3" font-family="Times,serif" font-size="14.00">Absolute Pose Priors</text>
</g>
<!-- Absolute Pose Priors&#45;&gt;Global Bundle Adjustment -->
<g id="edge11" class="edge">
<title>Absolute Pose Priors&#45;&gt;Global Bundle Adjustment</title>
<path fill="none" stroke="#bfbfbf" d="M1041.33,-575.73C1033.15,-549.21 1019,-496.73 1019,-451 1019,-451 1019,-451 1019,-377 1019,-331.19 1003.63,-315.51 967,-288 932.75,-262.28 887.45,-248.95 847.6,-242.08"/>
<polygon fill="#bfbfbf" stroke="#bfbfbf" points="848.03,-238.6 837.6,-240.46 846.91,-245.51 848.03,-238.6"/>
</g>
<!-- Absolute Pose Priors&#45;&gt;Translation Averaging -->
<g id="edge39" class="edge">
<title>Absolute Pose Priors&#45;&gt;Translation Averaging</title>
<path fill="none" stroke="#bfbfbf" d="M991.52,-575.97C959.24,-566.06 918.39,-553.51 884.54,-543.12"/>
<polygon fill="#bfbfbf" stroke="#bfbfbf" points="885.32,-539.7 874.73,-540.11 883.26,-546.39 885.32,-539.7"/>
</g>
<!-- Relative Pose Priors -->
<g id="node15" class="node">
<title>Relative Pose Priors</title>
<path fill="gainsboro" stroke="black" d="M1058.5,-1055C1058.5,-1055 955.5,-1055 955.5,-1055 949.5,-1055 943.5,-1049 943.5,-1043 943.5,-1043 943.5,-1031 943.5,-1031 943.5,-1025 949.5,-1019 955.5,-1019 955.5,-1019 1058.5,-1019 1058.5,-1019 1064.5,-1019 1070.5,-1025 1070.5,-1031 1070.5,-1031 1070.5,-1043 1070.5,-1043 1070.5,-1049 1064.5,-1055 1058.5,-1055"/>
<text text-anchor="middle" x="1007" y="-1033.3" font-family="Times,serif" font-size="14.00">Relative Pose Priors</text>
</g>
<!-- Relative Pose Priors&#45;&gt;Global Bundle Adjustment -->
<g id="edge12" class="edge">
<title>Relative Pose Priors&#45;&gt;Global Bundle Adjustment</title>
<path fill="none" stroke="#bfbfbf" d="M996.02,-1018.84C980.49,-992.89 954,-941.63 954,-894 954,-894 954,-894 954,-737 954,-641.89 953,-618.11 953,-523 953,-523 953,-523 953,-377 953,-313.83 885.52,-275.96 829.54,-255.42"/>
<polygon fill="#bfbfbf" stroke="#bfbfbf" points="830.56,-252.06 819.96,-252.02 828.22,-258.66 830.56,-252.06"/>
</g>
<!-- Rotation Averaging -->
<g id="node25" class="node">
<title>Rotation Averaging</title>
<path fill="lightskyblue" stroke="black" d="M656,-684C656,-684 558,-684 558,-684 552,-684 546,-678 546,-672 546,-672 546,-660 546,-660 546,-654 552,-648 558,-648 558,-648 656,-648 656,-648 662,-648 668,-654 668,-660 668,-660 668,-672 668,-672 668,-678 662,-684 656,-684"/>
<text text-anchor="middle" x="607" y="-662.3" font-family="Times,serif" font-size="14.00">Rotation Averaging</text>
</g>
<!-- Relative Pose Priors&#45;&gt;Rotation Averaging -->
<g id="edge35" class="edge">
<title>Relative Pose Priors&#45;&gt;Rotation Averaging</title>
<path fill="none" stroke="#bfbfbf" d="M952.73,-1018.95C934.3,-1010.73 915.09,-999.07 902,-983 876.13,-951.23 878,-934.97 878,-894 878,-894 878,-894 878,-809 878,-762.81 752.91,-713.84 672.7,-687.18"/>
<polygon fill="#bfbfbf" stroke="#bfbfbf" points="673.74,-683.84 663.15,-684.04 671.56,-690.49 673.74,-683.84"/>
</g>
<!-- Relative Pose Priors&#45;&gt;Translation Averaging -->
<g id="edge40" class="edge">
<title>Relative Pose Priors&#45;&gt;Translation Averaging</title>
<path fill="none" stroke="#bfbfbf" d="M977.63,-1018.91C964.36,-1009.81 949.55,-997.49 940,-983 917.46,-948.79 916,-934.97 916,-894 916,-894 916,-894 916,-737 916,-696.55 912.16,-685.5 897,-648 882.06,-611.04 856.4,-572.75 838.61,-548.45"/>
<polygon fill="#bfbfbf" stroke="#bfbfbf" points="841.22,-546.1 832.45,-540.16 835.6,-550.27 841.22,-546.1"/>
</g>
<!-- Relative Pose Priors&#45;&gt;Two&#45;View Bundle Adjustment -->
<g id="edge47" class="edge">
<title>Relative Pose Priors&#45;&gt;Two&#45;View Bundle Adjustment</title>
<path fill="none" stroke="#bfbfbf" d="M943.22,-1026.4C926.26,-1023.92 907.94,-1021.3 891,-1019 781.05,-1004.07 654.83,-988.5 568.9,-978.12"/>
<polygon fill="#bfbfbf" stroke="#bfbfbf" points="569.23,-974.64 558.88,-976.92 568.39,-981.59 569.23,-974.64"/>
</g>
<!-- Image Loader -->
<g id="node16" class="node">
<title>Image Loader</title>
<path fill="lightskyblue" stroke="black" d="M1067.5,-1573C1067.5,-1573 998.5,-1573 998.5,-1573 992.5,-1573 986.5,-1567 986.5,-1561 986.5,-1561 986.5,-1549 986.5,-1549 986.5,-1543 992.5,-1537 998.5,-1537 998.5,-1537 1067.5,-1537 1067.5,-1537 1073.5,-1537 1079.5,-1543 1079.5,-1549 1079.5,-1549 1079.5,-1561 1079.5,-1561 1079.5,-1567 1073.5,-1573 1067.5,-1573"/>
<text text-anchor="middle" x="1033" y="-1551.3" font-family="Times,serif" font-size="14.00">Image Loader</text>
</g>
<!-- Image Loader&#45;&gt;Camera Intrinsics -->
<g id="edge18" class="edge">
<title>Image Loader&#45;&gt;Camera Intrinsics</title>
<path fill="none" stroke="#bfbfbf" d="M986.49,-1551.88C795.56,-1542.57 82,-1501.59 82,-1409 82,-1409 82,-1409 82,-1335 82,-1290.5 71.97,-1239.6 64.88,-1209.17"/>
<polygon fill="#bfbfbf" stroke="#bfbfbf" points="68.25,-1208.21 62.51,-1199.3 61.44,-1209.84 68.25,-1208.21"/>
</g>
<!-- Image Loader&#45;&gt;Images -->
<g id="edge17" class="edge">
<title>Image Loader&#45;&gt;Images</title>
<path fill="none" stroke="#bfbfbf" d="M1026.08,-1536.7C1022.93,-1528.81 1019.12,-1519.3 1015.62,-1510.55"/>
<polygon fill="#bfbfbf" stroke="#bfbfbf" points="1018.81,-1509.09 1011.84,-1501.1 1012.31,-1511.69 1018.81,-1509.09"/>
</g>
<!-- Image Loader&#45;&gt;Absolute Pose Priors -->
<g id="edge21" class="edge">
<title>Image Loader&#45;&gt;Absolute Pose Priors</title>
<path fill="none" stroke="#bfbfbf" d="M1046.68,-1536.85C1066.01,-1510.82 1099,-1459.06 1099,-1409 1099,-1409 1099,-1409 1099,-737 1099,-694.49 1078.2,-648.95 1062.91,-621.22"/>
<polygon fill="#bfbfbf" stroke="#bfbfbf" points="1065.76,-619.15 1057.77,-612.19 1059.67,-622.61 1065.76,-619.15"/>
</g>
<!-- Image Loader&#45;&gt;Relative Pose Priors -->
<g id="edge20" class="edge">
<title>Image Loader&#45;&gt;Relative Pose Priors</title>
<path fill="none" stroke="#bfbfbf" d="M1038.53,-1536.8C1046.69,-1509.85 1061,-1455.92 1061,-1409 1061,-1409 1061,-1409 1061,-1180 1061,-1137.11 1039.21,-1091.41 1023.31,-1063.78"/>
<polygon fill="#bfbfbf" stroke="#bfbfbf" points="1026.3,-1061.95 1018.19,-1055.13 1020.28,-1065.52 1026.3,-1061.95"/>
</g>
<!-- Image Shapes -->
<g id="node17" class="node">
<title>Image Shapes</title>
<path fill="gainsboro" stroke="black" d="M686.5,-1354C686.5,-1354 617.5,-1354 617.5,-1354 611.5,-1354 605.5,-1348 605.5,-1342 605.5,-1342 605.5,-1330 605.5,-1330 605.5,-1324 611.5,-1318 617.5,-1318 617.5,-1318 686.5,-1318 686.5,-1318 692.5,-1318 698.5,-1324 698.5,-1330 698.5,-1330 698.5,-1342 698.5,-1342 698.5,-1348 692.5,-1354 686.5,-1354"/>
<text text-anchor="middle" x="652" y="-1332.3" font-family="Times,serif" font-size="14.00">Image Shapes</text>
</g>
<!-- Image Loader&#45;&gt;Image Shapes -->
<g id="edge19" class="edge">
<title>Image Loader&#45;&gt;Image Shapes</title>
<path fill="none" stroke="#bfbfbf" d="M986.46,-1550C921.02,-1542.24 800.97,-1519.89 722,-1457 691.38,-1432.62 671.46,-1390.93 660.97,-1363.67"/>
<polygon fill="#bfbfbf" stroke="#bfbfbf" points="664.15,-1362.18 657.41,-1354 657.58,-1364.59 664.15,-1362.18"/>
</g>
<!-- Image Retriever -->
<g id="node19" class="node">
<title>Image Retriever</title>
<path fill="lightskyblue" stroke="black" d="M1223.5,-1501C1223.5,-1501 1142.5,-1501 1142.5,-1501 1136.5,-1501 1130.5,-1495 1130.5,-1489 1130.5,-1489 1130.5,-1477 1130.5,-1477 1130.5,-1471 1136.5,-1465 1142.5,-1465 1142.5,-1465 1223.5,-1465 1223.5,-1465 1229.5,-1465 1235.5,-1471 1235.5,-1477 1235.5,-1477 1235.5,-1489 1235.5,-1489 1235.5,-1495 1229.5,-1501 1223.5,-1501"/>
<text text-anchor="middle" x="1183" y="-1479.3" font-family="Times,serif" font-size="14.00">Image Retriever</text>
</g>
<!-- Image Loader&#45;&gt;Image Retriever -->
<g id="edge24" class="edge">
<title>Image Loader&#45;&gt;Image Retriever</title>
<path fill="none" stroke="#bfbfbf" d="M1069.69,-1536.88C1090.02,-1527.39 1115.47,-1515.51 1137.1,-1505.42"/>
<polygon fill="#bfbfbf" stroke="#bfbfbf" points="1138.84,-1508.47 1146.43,-1501.07 1135.88,-1502.13 1138.84,-1508.47"/>
</g>
<!-- Image Shapes&#45;&gt;Matcher -->
<g id="edge28" class="edge">
<title>Image Shapes&#45;&gt;Matcher</title>
<path fill="none" stroke="#bfbfbf" d="M649.88,-1317.82C648.57,-1307.19 646.85,-1293.31 645.36,-1281.2"/>
<polygon fill="#bfbfbf" stroke="#bfbfbf" points="648.82,-1280.65 644.12,-1271.15 641.87,-1281.51 648.82,-1280.65"/>
</g>
<!-- Source Directory -->
<g id="node18" class="node">
<title>Source Directory</title>
<ellipse fill="none" stroke="black" cx="1033" cy="-1627" rx="71.49" ry="18"/>
<text text-anchor="middle" x="1033" y="-1623.3" font-family="Times,serif" font-size="14.00">Source Directory</text>
</g>
<!-- Source Directory&#45;&gt;Image Loader -->
<g id="edge22" class="edge">
<title>Source Directory&#45;&gt;Image Loader</title>
<path fill="none" stroke="#bfbfbf" d="M1033,-1608.7C1033,-1600.98 1033,-1591.71 1033,-1583.11"/>
<polygon fill="#bfbfbf" stroke="#bfbfbf" points="1036.5,-1583.1 1033,-1573.1 1029.5,-1583.1 1036.5,-1583.1"/>
</g>
<!-- Image Pair Indices -->
<g id="node20" class="node">
<title>Image Pair Indices</title>
<path fill="gainsboro" stroke="black" d="M1234.5,-1426C1234.5,-1426 1139.5,-1426 1139.5,-1426 1133.5,-1426 1127.5,-1420 1127.5,-1414 1127.5,-1414 1127.5,-1402 1127.5,-1402 1127.5,-1396 1133.5,-1390 1139.5,-1390 1139.5,-1390 1234.5,-1390 1234.5,-1390 1240.5,-1390 1246.5,-1396 1246.5,-1402 1246.5,-1402 1246.5,-1414 1246.5,-1414 1246.5,-1420 1240.5,-1426 1234.5,-1426"/>
<text text-anchor="middle" x="1187" y="-1404.3" font-family="Times,serif" font-size="14.00">Image Pair Indices</text>
</g>
<!-- Image Retriever&#45;&gt;Image Pair Indices -->
<g id="edge23" class="edge">
<title>Image Retriever&#45;&gt;Image Pair Indices</title>
<path fill="none" stroke="#bfbfbf" d="M1183.95,-1464.7C1184.41,-1456.25 1184.98,-1445.87 1185.5,-1436.37"/>
<polygon fill="#bfbfbf" stroke="#bfbfbf" points="1189.01,-1436.35 1186.06,-1426.18 1182.02,-1435.97 1189.01,-1436.35"/>
</g>
<!-- Putative Correspondences -->
<g id="node22" class="node">
<title>Putative Correspondences</title>
<path fill="gainsboro" stroke="black" d="M623,-1199C623,-1199 489,-1199 489,-1199 483,-1199 477,-1193 477,-1187 477,-1187 477,-1175 477,-1175 477,-1169 483,-1163 489,-1163 489,-1163 623,-1163 623,-1163 629,-1163 635,-1169 635,-1175 635,-1175 635,-1187 635,-1187 635,-1193 629,-1199 623,-1199"/>
<text text-anchor="middle" x="556" y="-1177.3" font-family="Times,serif" font-size="14.00">Putative Correspondences</text>
</g>
<!-- Matcher&#45;&gt;Putative Correspondences -->
<g id="edge25" class="edge">
<title>Matcher&#45;&gt;Putative Correspondences</title>
<path fill="none" stroke="#bfbfbf" d="M620.74,-1234.7C609.91,-1225.88 596.58,-1215.03 584.84,-1205.47"/>
<polygon fill="#bfbfbf" stroke="#bfbfbf" points="586.98,-1202.7 577.01,-1199.1 582.56,-1208.13 586.98,-1202.7"/>
</g>
<!-- Putative Correspondences&#45;&gt;Verifier -->
<g id="edge56" class="edge">
<title>Putative Correspondences&#45;&gt;Verifier</title>
<path fill="none" stroke="#bfbfbf" d="M546.61,-1162.7C542.24,-1154.64 536.94,-1144.89 532.1,-1135.98"/>
<polygon fill="#bfbfbf" stroke="#bfbfbf" points="535.13,-1134.22 527.29,-1127.1 528.98,-1137.56 535.13,-1134.22"/>
</g>
<!-- Dense Colored 3D Point Cloud -->
<g id="node24" class="node">
<title>Dense Colored 3D Point Cloud</title>
<path fill="gainsboro" stroke="black" d="M902.5,-36C902.5,-36 739.5,-36 739.5,-36 733.5,-36 727.5,-30 727.5,-24 727.5,-24 727.5,-12 727.5,-12 727.5,-6 733.5,0 739.5,0 739.5,0 902.5,0 902.5,0 908.5,0 914.5,-6 914.5,-12 914.5,-12 914.5,-24 914.5,-24 914.5,-30 908.5,-36 902.5,-36"/>
<text text-anchor="middle" x="821" y="-14.3" font-family="Times,serif" font-size="14.00">Dense Colored 3D Point Cloud</text>
</g>
<!-- Multi&#45;view Stereo&#45;&gt;Dense Colored 3D Point Cloud -->
<g id="edge29" class="edge">
<title>Multi&#45;view Stereo&#45;&gt;Dense Colored 3D Point Cloud</title>
<path fill="none" stroke="#bfbfbf" d="M821,-71.7C821,-63.98 821,-54.71 821,-46.11"/>
<polygon fill="#bfbfbf" stroke="#bfbfbf" points="824.5,-46.1 821,-36.1 817.5,-46.1 824.5,-46.1"/>
</g>
<!-- Rotation Averaging&#45;&gt;Global Rotations -->
<g id="edge33" class="edge">
<title>Rotation Averaging&#45;&gt;Global Rotations</title>
<path fill="none" stroke="#bfbfbf" d="M649.08,-647.88C672.8,-638.22 702.62,-626.09 727.7,-615.88"/>
<polygon fill="#bfbfbf" stroke="#bfbfbf" points="729.12,-619.08 737.06,-612.07 726.48,-612.6 729.12,-619.08"/>
</g>
<!-- View&#45;Graph Relative Rotations -->
<g id="node26" class="node">
<title>View&#45;Graph Relative Rotations</title>
<path fill="gainsboro" stroke="black" d="M722,-756C722,-756 558,-756 558,-756 552,-756 546,-750 546,-744 546,-744 546,-732 546,-732 546,-726 552,-720 558,-720 558,-720 722,-720 722,-720 728,-720 734,-726 734,-732 734,-732 734,-744 734,-744 734,-750 728,-756 722,-756"/>
<text text-anchor="middle" x="640" y="-734.3" font-family="Times,serif" font-size="14.00">View&#45;Graph Relative Rotations</text>
</g>
<!-- View&#45;Graph Relative Rotations&#45;&gt;Rotation Averaging -->
<g id="edge34" class="edge">
<title>View&#45;Graph Relative Rotations&#45;&gt;Rotation Averaging</title>
<path fill="none" stroke="#bfbfbf" d="M631.84,-719.7C628.09,-711.73 623.55,-702.1 619.38,-693.26"/>
<polygon fill="#bfbfbf" stroke="#bfbfbf" points="622.49,-691.66 615.06,-684.1 616.16,-694.64 622.49,-691.66"/>
</g>
<!-- Translation Averaging&#45;&gt;Global Translations -->
<g id="edge36" class="edge">
<title>Translation Averaging&#45;&gt;Global Translations</title>
<path fill="none" stroke="#bfbfbf" d="M817.27,-503.7C816.5,-495.98 815.57,-486.71 814.71,-478.11"/>
<polygon fill="#bfbfbf" stroke="#bfbfbf" points="818.19,-477.71 813.71,-468.1 811.22,-478.4 818.19,-477.71"/>
</g>
<!-- View&#45;Graph Relative Translations -->
<g id="node28" class="node">
<title>View&#45;Graph Relative Translations</title>
<path fill="gainsboro" stroke="black" d="M876,-684C876,-684 698,-684 698,-684 692,-684 686,-678 686,-672 686,-672 686,-660 686,-660 686,-654 692,-648 698,-648 698,-648 876,-648 876,-648 882,-648 888,-654 888,-660 888,-660 888,-672 888,-672 888,-678 882,-684 876,-684"/>
<text text-anchor="middle" x="787" y="-662.3" font-family="Times,serif" font-size="14.00">View&#45;Graph Relative Translations</text>
</g>
<!-- View&#45;Graph Relative Translations&#45;&gt;Translation Averaging -->
<g id="edge37" class="edge">
<title>View&#45;Graph Relative Translations&#45;&gt;Translation Averaging</title>
<path fill="none" stroke="#bfbfbf" d="M813.12,-647.82C824.58,-638.69 836.81,-626.39 843,-612 851.78,-591.6 843.99,-567.15 835.01,-549.05"/>
<polygon fill="#bfbfbf" stroke="#bfbfbf" points="838.08,-547.39 830.28,-540.22 831.91,-550.69 838.08,-547.39"/>
</g>
<!-- Optimized Relative Rotation -->
<g id="node30" class="node">
<title>Optimized Relative Rotation</title>
<path fill="gainsboro" stroke="black" d="M292.5,-911C292.5,-911 143.5,-911 143.5,-911 137.5,-911 131.5,-905 131.5,-899 131.5,-899 131.5,-887 131.5,-887 131.5,-881 137.5,-875 143.5,-875 143.5,-875 292.5,-875 292.5,-875 298.5,-875 304.5,-881 304.5,-887 304.5,-887 304.5,-899 304.5,-899 304.5,-905 298.5,-911 292.5,-911"/>
<text text-anchor="middle" x="218" y="-889.3" font-family="Times,serif" font-size="14.00">Optimized Relative Rotation</text>
</g>
<!-- Two&#45;View Bundle Adjustment&#45;&gt;Optimized Relative Rotation -->
<g id="edge41" class="edge">
<title>Two&#45;View Bundle Adjustment&#45;&gt;Optimized Relative Rotation</title>
<path fill="none" stroke="#bfbfbf" d="M406.41,-946.97C370.86,-936.97 325.78,-924.3 288.62,-913.85"/>
<polygon fill="#bfbfbf" stroke="#bfbfbf" points="289.44,-910.45 278.87,-911.11 287.55,-917.19 289.44,-910.45"/>
</g>
<!-- Optimized Relative Translation -->
<g id="node31" class="node">
<title>Optimized Relative Translation</title>
<path fill="gainsboro" stroke="black" d="M499,-911C499,-911 335,-911 335,-911 329,-911 323,-905 323,-899 323,-899 323,-887 323,-887 323,-881 329,-875 335,-875 335,-875 499,-875 499,-875 505,-875 511,-881 511,-887 511,-887 511,-899 511,-899 511,-905 505,-911 499,-911"/>
<text text-anchor="middle" x="417" y="-889.3" font-family="Times,serif" font-size="14.00">Optimized Relative Translation</text>
</g>
<!-- Two&#45;View Bundle Adjustment&#45;&gt;Optimized Relative Translation -->
<g id="edge42" class="edge">
<title>Two&#45;View Bundle Adjustment&#45;&gt;Optimized Relative Translation</title>
<path fill="none" stroke="#bfbfbf" d="M454.64,-946.7C448.77,-938.47 441.63,-928.48 435.16,-919.42"/>
<polygon fill="#bfbfbf" stroke="#bfbfbf" points="437.88,-917.21 429.22,-911.1 432.18,-921.28 437.88,-917.21"/>
</g>
<!-- Inlier Correspondences -->
<g id="node32" class="node">
<title>Inlier Correspondences</title>
<path fill="gainsboro" stroke="black" d="M660.5,-911C660.5,-911 541.5,-911 541.5,-911 535.5,-911 529.5,-905 529.5,-899 529.5,-899 529.5,-887 529.5,-887 529.5,-881 535.5,-875 541.5,-875 541.5,-875 660.5,-875 660.5,-875 666.5,-875 672.5,-881 672.5,-887 672.5,-887 672.5,-899 672.5,-899 672.5,-905 666.5,-911 660.5,-911"/>
<text text-anchor="middle" x="601" y="-889.3" font-family="Times,serif" font-size="14.00">Inlier Correspondences</text>
</g>
<!-- Two&#45;View Bundle Adjustment&#45;&gt;Inlier Correspondences -->
<g id="edge43" class="edge">
<title>Two&#45;View Bundle Adjustment&#45;&gt;Inlier Correspondences</title>
<path fill="none" stroke="#bfbfbf" d="M499.78,-946.88C517.63,-937.55 539.9,-925.92 559,-915.94"/>
<polygon fill="#bfbfbf" stroke="#bfbfbf" points="560.85,-918.92 568.09,-911.19 557.61,-912.72 560.85,-918.92"/>
</g>
<!-- Optimized Relative Rotation&#45;&gt;View&#45;Graph Estimator -->
<g id="edge61" class="edge">
<title>Optimized Relative Rotation&#45;&gt;View&#45;Graph Estimator</title>
<path fill="none" stroke="#bfbfbf" d="M281.12,-874.97C292.06,-872.19 303.34,-869.43 314,-867 383.46,-851.19 463.01,-835.89 520.71,-825.29"/>
<polygon fill="#bfbfbf" stroke="#bfbfbf" points="521.65,-828.67 530.86,-823.43 520.39,-821.79 521.65,-828.67"/>
</g>
<!-- Optimized Relative Translation&#45;&gt;View&#45;Graph Estimator -->
<g id="edge62" class="edge">
<title>Optimized Relative Translation&#45;&gt;View&#45;Graph Estimator</title>
<path fill="none" stroke="#bfbfbf" d="M456.02,-874.82C484.29,-862.38 522.69,-845.47 552.87,-832.19"/>
<polygon fill="#bfbfbf" stroke="#bfbfbf" points="554.61,-835.25 562.35,-828.01 551.79,-828.84 554.61,-835.25"/>
</g>
<!-- Inlier Correspondences&#45;&gt;View&#45;Graph Estimator -->
<g id="edge64" class="edge">
<title>Inlier Correspondences&#45;&gt;View&#45;Graph Estimator</title>
<path fill="none" stroke="#bfbfbf" d="M601,-874.82C601,-864.19 601,-850.31 601,-838.2"/>
<polygon fill="#bfbfbf" stroke="#bfbfbf" points="604.5,-838.15 601,-828.15 597.5,-838.15 604.5,-838.15"/>
</g>
<!-- Relative Rotation -->
<g id="node33" class="node">
<title>Relative Rotation</title>
<path fill="gainsboro" stroke="black" d="M562,-1055C562,-1055 474,-1055 474,-1055 468,-1055 462,-1049 462,-1043 462,-1043 462,-1031 462,-1031 462,-1025 468,-1019 474,-1019 474,-1019 562,-1019 562,-1019 568,-1019 574,-1025 574,-1031 574,-1031 574,-1043 574,-1043 574,-1049 568,-1055 562,-1055"/>
<text text-anchor="middle" x="518" y="-1033.3" font-family="Times,serif" font-size="14.00">Relative Rotation</text>
</g>
<!-- Relative Rotation&#45;&gt;Two&#45;View Bundle Adjustment -->
<g id="edge44" class="edge">
<title>Relative Rotation&#45;&gt;Two&#45;View Bundle Adjustment</title>
<path fill="none" stroke="#bfbfbf" d="M505.39,-1018.7C499.4,-1010.47 492.12,-1000.48 485.52,-991.42"/>
<polygon fill="#bfbfbf" stroke="#bfbfbf" points="488.18,-989.13 479.46,-983.1 482.52,-993.25 488.18,-989.13"/>
</g>
<!-- Relative Translation -->
<g id="node34" class="node">
<title>Relative Translation</title>
<path fill="gainsboro" stroke="black" d="M256,-1055C256,-1055 154,-1055 154,-1055 148,-1055 142,-1049 142,-1043 142,-1043 142,-1031 142,-1031 142,-1025 148,-1019 154,-1019 154,-1019 256,-1019 256,-1019 262,-1019 268,-1025 268,-1031 268,-1031 268,-1043 268,-1043 268,-1049 262,-1055 256,-1055"/>
<text text-anchor="middle" x="205" y="-1033.3" font-family="Times,serif" font-size="14.00">Relative Translation</text>
</g>
<!-- Relative Translation&#45;&gt;Two&#45;View Bundle Adjustment -->
<g id="edge45" class="edge">
<title>Relative Translation&#45;&gt;Two&#45;View Bundle Adjustment</title>
<path fill="none" stroke="#bfbfbf" d="M268.09,-1019.14C305.78,-1009.07 353.83,-996.24 393.27,-985.7"/>
<polygon fill="#bfbfbf" stroke="#bfbfbf" points="394.34,-989.04 403.09,-983.07 392.53,-982.27 394.34,-989.04"/>
</g>
<!-- Triangulated Points -->
<g id="node35" class="node">
<title>Triangulated Points</title>
<ellipse fill="none" stroke="black" cx="769" cy="-1037" rx="79.89" ry="18"/>
<text text-anchor="middle" x="769" y="-1033.3" font-family="Times,serif" font-size="14.00">Triangulated Points</text>
</g>
<!-- Triangulated Points&#45;&gt;Two&#45;View Bundle Adjustment -->
<g id="edge46" class="edge">
<title>Triangulated Points&#45;&gt;Two&#45;View Bundle Adjustment</title>
<path fill="none" stroke="#bfbfbf" d="M715.36,-1023.57C669.66,-1012.97 603.21,-997.57 550.55,-985.37"/>
<polygon fill="#bfbfbf" stroke="#bfbfbf" points="551.08,-981.9 540.55,-983.05 549.5,-988.72 551.08,-981.9"/>
</g>
<!-- Verified Correspondences -->
<g id="node36" class="node">
<title>Verified Correspondences</title>
<path fill="gainsboro" stroke="black" d="M431.5,-1055C431.5,-1055 298.5,-1055 298.5,-1055 292.5,-1055 286.5,-1049 286.5,-1043 286.5,-1043 286.5,-1031 286.5,-1031 286.5,-1025 292.5,-1019 298.5,-1019 298.5,-1019 431.5,-1019 431.5,-1019 437.5,-1019 443.5,-1025 443.5,-1031 443.5,-1031 443.5,-1043 443.5,-1043 443.5,-1049 437.5,-1055 431.5,-1055"/>
<text text-anchor="middle" x="365" y="-1033.3" font-family="Times,serif" font-size="14.00">Verified Correspondences</text>
</g>
<!-- Verified Correspondences&#45;&gt;Two&#45;View Bundle Adjustment -->
<g id="edge50" class="edge">
<title>Verified Correspondences&#45;&gt;Two&#45;View Bundle Adjustment</title>
<path fill="none" stroke="#bfbfbf" d="M389.95,-1018.88C403.04,-1009.89 419.26,-998.76 433.44,-989.03"/>
<polygon fill="#bfbfbf" stroke="#bfbfbf" points="435.69,-991.73 441.95,-983.19 431.73,-985.96 435.69,-991.73"/>
</g>
<!-- Verifier&#45;&gt;Relative Rotation -->
<g id="edge51" class="edge">
<title>Verifier&#45;&gt;Relative Rotation</title>
<path fill="none" stroke="#bfbfbf" d="M518,-1090.7C518,-1082.98 518,-1073.71 518,-1065.11"/>
<polygon fill="#bfbfbf" stroke="#bfbfbf" points="521.5,-1065.1 518,-1055.1 514.5,-1065.1 521.5,-1065.1"/>
</g>
<!-- Verifier&#45;&gt;Relative Translation -->
<g id="edge52" class="edge">
<title>Verifier&#45;&gt;Relative Translation</title>
<path fill="none" stroke="#bfbfbf" d="M488.79,-1101.66C445.3,-1092.2 360.71,-1073.71 278.1,-1055.01"/>
<polygon fill="#bfbfbf" stroke="#bfbfbf" points="278.82,-1051.58 268.3,-1052.79 277.28,-1058.41 278.82,-1051.58"/>
</g>
<!-- Verifier&#45;&gt;Verified Correspondences -->
<g id="edge53" class="edge">
<title>Verifier&#45;&gt;Verified Correspondences</title>
<path fill="none" stroke="#bfbfbf" d="M488.86,-1094.67C467.03,-1084.68 436.71,-1070.81 411.53,-1059.29"/>
<polygon fill="#bfbfbf" stroke="#bfbfbf" points="412.71,-1055.98 402.16,-1055 409.8,-1062.35 412.71,-1055.98"/>
</g>
<!-- Inlier Ratio -->
<g id="node38" class="node">
<title>Inlier Ratio</title>
<path fill="gainsboro" stroke="black" d="M659.5,-1055C659.5,-1055 604.5,-1055 604.5,-1055 598.5,-1055 592.5,-1049 592.5,-1043 592.5,-1043 592.5,-1031 592.5,-1031 592.5,-1025 598.5,-1019 604.5,-1019 604.5,-1019 659.5,-1019 659.5,-1019 665.5,-1019 671.5,-1025 671.5,-1031 671.5,-1031 671.5,-1043 671.5,-1043 671.5,-1049 665.5,-1055 659.5,-1055"/>
<text text-anchor="middle" x="632" y="-1033.3" font-family="Times,serif" font-size="14.00">Inlier Ratio</text>
</g>
<!-- Verifier&#45;&gt;Inlier Ratio -->
<g id="edge54" class="edge">
<title>Verifier&#45;&gt;Inlier Ratio</title>
<path fill="none" stroke="#bfbfbf" d="M545.89,-1090.88C560.79,-1081.72 579.33,-1070.34 595.38,-1060.48"/>
<polygon fill="#bfbfbf" stroke="#bfbfbf" points="597.31,-1063.41 604.01,-1055.19 593.65,-1057.44 597.31,-1063.41"/>
</g>
<!-- View&#45;Graph Estimator&#45;&gt;View&#45;Graph Correspondences -->
<g id="edge60" class="edge">
<title>View&#45;Graph Estimator&#45;&gt;View&#45;Graph Correspondences</title>
<path fill="none" stroke="#bfbfbf" d="M570.23,-791.91C557.46,-783.02 544,-770.88 537,-756 516.57,-712.56 514.41,-690.35 537,-648 543.69,-635.45 554.82,-625.35 566.64,-617.47"/>
<polygon fill="#bfbfbf" stroke="#bfbfbf" points="568.64,-620.34 575.32,-612.12 564.97,-614.39 568.64,-620.34"/>
</g>
<!-- View&#45;Graph Estimator&#45;&gt;View&#45;Graph Relative Rotations -->
<g id="edge58" class="edge">
<title>View&#45;Graph Estimator&#45;&gt;View&#45;Graph Relative Rotations</title>
<path fill="none" stroke="#bfbfbf" d="M610.64,-791.7C615.13,-783.64 620.56,-773.89 625.52,-764.98"/>
<polygon fill="#bfbfbf" stroke="#bfbfbf" points="628.66,-766.54 630.47,-756.1 622.55,-763.14 628.66,-766.54"/>
</g>
<!-- View&#45;Graph Estimator&#45;&gt;View&#45;Graph Relative Translations -->
<g id="edge59" class="edge">
<title>View&#45;Graph Estimator&#45;&gt;View&#45;Graph Relative Translations</title>
<path fill="none" stroke="#bfbfbf" d="M671.34,-794.18C696.23,-786.17 722.98,-774.08 743,-756 761.41,-739.38 773.03,-713.32 779.67,-693.68"/>
<polygon fill="#bfbfbf" stroke="#bfbfbf" points="783.03,-694.68 782.7,-684.09 776.35,-692.57 783.03,-694.68"/>
</g>
</g>
</svg>
