<?xml version="1.0" encoding="UTF-8" standalone="no"?>
<!DOCTYPE svg PUBLIC "-//W3C//DTD SVG 1.1//EN"
 "http://www.w3.org/Graphics/SVG/1.1/DTD/svg11.dtd">
<!-- Generated by graphviz version 5.0.0 (0)
 -->
<!-- Title: G Pages: 1 -->
<svg width="1692pt" height="911pt"
 viewBox="0.00 0.00 1691.92 911.00" xmlns="http://www.w3.org/2000/svg" xmlns:xlink="http://www.w3.org/1999/xlink">
<g id="graph0" class="graph" transform="scale(1 1) rotate(0) translate(4 907)">
<title>G</title>
<polygon fill="white" stroke="transparent" points="-4,4 -4,-907 1687.92,-907 1687.92,4 -4,4"/>
<g id="clust1" class="cluster">
<title>cluster_Temp</title>
<polygon fill="white" stroke="black" points="8,-136 8,-499 596,-499 596,-136 8,-136"/>
<text text-anchor="middle" x="302" y="-483.8" font-family="Veranda" font-size="14.00">Temp</text>
</g>
<!-- Verifier -->
<g id="node1" class="node">
<title>Verifier</title>
<path fill="lightskyblue" stroke="black" d="M888,-543C888,-543 854,-543 854,-543 848,-543 842,-537 842,-531 842,-531 842,-519 842,-519 842,-513 848,-507 854,-507 854,-507 888,-507 888,-507 894,-507 900,-513 900,-519 900,-519 900,-531 900,-531 900,-537 894,-543 888,-543"/>
<text text-anchor="middle" x="871" y="-521.3" font-family="Times,serif" font-size="14.00">Verifier</text>
</g>
<!-- Relative Rotations -->
<g id="node5" class="node">
<title>Relative Rotations</title>
<path fill="gainsboro" stroke="black" d="M575.5,-468C575.5,-468 482.5,-468 482.5,-468 476.5,-468 470.5,-462 470.5,-456 470.5,-456 470.5,-444 470.5,-444 470.5,-438 476.5,-432 482.5,-432 482.5,-432 575.5,-432 575.5,-432 581.5,-432 587.5,-438 587.5,-444 587.5,-444 587.5,-456 587.5,-456 587.5,-462 581.5,-468 575.5,-468"/>
<text text-anchor="middle" x="529" y="-446.3" font-family="Times,serif" font-size="14.00">Relative Rotations</text>
</g>
<!-- Verifier&#45;&gt;Relative Rotations -->
<g id="edge4" class="edge">
<title>Verifier&#45;&gt;Relative Rotations</title>
<path fill="none" stroke="#bfbfbf" d="M841.81,-522.97C799.75,-520.96 719.93,-515.18 654,-499 627.21,-492.43 598.4,-481.63 575.2,-471.95"/>
<polygon fill="#bfbfbf" stroke="#bfbfbf" points="576.52,-468.71 565.95,-468.02 573.79,-475.15 576.52,-468.71"/>
</g>
<!-- Relative Translations -->
<g id="node6" class="node">
<title>Relative Translations</title>
<path fill="gainsboro" stroke="black" d="M575.5,-324C575.5,-324 468.5,-324 468.5,-324 462.5,-324 456.5,-318 456.5,-312 456.5,-312 456.5,-300 456.5,-300 456.5,-294 462.5,-288 468.5,-288 468.5,-288 575.5,-288 575.5,-288 581.5,-288 587.5,-294 587.5,-300 587.5,-300 587.5,-312 587.5,-312 587.5,-318 581.5,-324 575.5,-324"/>
<text text-anchor="middle" x="522" y="-302.3" font-family="Times,serif" font-size="14.00">Relative Translations</text>
</g>
<!-- Verifier&#45;&gt;Relative Translations -->
<g id="edge5" class="edge">
<title>Verifier&#45;&gt;Relative Translations</title>
<path fill="none" stroke="#bfbfbf" d="M843.61,-506.97C781.2,-468.17 628.41,-373.16 558.27,-329.55"/>
<polygon fill="#bfbfbf" stroke="#bfbfbf" points="560.08,-326.56 549.74,-324.25 556.39,-332.5 560.08,-326.56"/>
</g>
<!-- Correspondences -->
<g id="node7" class="node">
<title>Correspondences</title>
<path fill="gainsboro" stroke="black" d="M1005,-324C1005,-324 919,-324 919,-324 913,-324 907,-318 907,-312 907,-312 907,-300 907,-300 907,-294 913,-288 919,-288 919,-288 1005,-288 1005,-288 1011,-288 1017,-294 1017,-300 1017,-300 1017,-312 1017,-312 1017,-318 1011,-324 1005,-324"/>
<text text-anchor="middle" x="962" y="-302.3" font-family="Times,serif" font-size="14.00">Correspondences</text>
</g>
<!-- Verifier&#45;&gt;Correspondences -->
<g id="edge6" class="edge">
<title>Verifier&#45;&gt;Correspondences</title>
<path fill="none" stroke="#bfbfbf" d="M873.13,-506.94C875.84,-488.13 881.37,-457.19 891,-432 904.9,-395.67 928.19,-357.24 944.29,-332.74"/>
<polygon fill="#bfbfbf" stroke="#bfbfbf" points="947.23,-334.63 949.86,-324.37 941.4,-330.75 947.23,-334.63"/>
</g>
<!-- Inlier Ratio -->
<g id="node8" class="node">
<title>Inlier Ratio</title>
<path fill="gainsboro" stroke="black" d="M966.5,-468C966.5,-468 911.5,-468 911.5,-468 905.5,-468 899.5,-462 899.5,-456 899.5,-456 899.5,-444 899.5,-444 899.5,-438 905.5,-432 911.5,-432 911.5,-432 966.5,-432 966.5,-432 972.5,-432 978.5,-438 978.5,-444 978.5,-444 978.5,-456 978.5,-456 978.5,-462 972.5,-468 966.5,-468"/>
<text text-anchor="middle" x="939" y="-446.3" font-family="Times,serif" font-size="14.00">Inlier Ratio</text>
</g>
<!-- Verifier&#45;&gt;Inlier Ratio -->
<g id="edge7" class="edge">
<title>Verifier&#45;&gt;Inlier Ratio</title>
<path fill="none" stroke="#bfbfbf" d="M887.12,-506.7C895.75,-497.43 906.54,-485.84 916.04,-475.64"/>
<polygon fill="#bfbfbf" stroke="#bfbfbf" points="918.75,-477.88 923,-468.18 913.62,-473.11 918.75,-477.88"/>
</g>
<!-- Keypoints -->
<g id="node2" class="node">
<title>Keypoints</title>
<path fill="gainsboro" stroke="black" d="M1107,-615C1107,-615 1059,-615 1059,-615 1053,-615 1047,-609 1047,-603 1047,-603 1047,-591 1047,-591 1047,-585 1053,-579 1059,-579 1059,-579 1107,-579 1107,-579 1113,-579 1119,-585 1119,-591 1119,-591 1119,-603 1119,-603 1119,-609 1113,-615 1107,-615"/>
<text text-anchor="middle" x="1083" y="-593.3" font-family="Times,serif" font-size="14.00">Keypoints</text>
</g>
<!-- Keypoints&#45;&gt;Verifier -->
<g id="edge1" class="edge">
<title>Keypoints&#45;&gt;Verifier</title>
<path fill="none" stroke="#bfbfbf" d="M1046.56,-583.97C1008.52,-571.41 949.09,-551.78 910.09,-538.91"/>
<polygon fill="#bfbfbf" stroke="#bfbfbf" points="910.75,-535.44 900.16,-535.63 908.56,-542.09 910.75,-535.44"/>
</g>
<!-- View&#45;Graph Estimator -->
<g id="node9" class="node">
<title>View&#45;Graph Estimator</title>
<path fill="lightskyblue" stroke="black" d="M1177,-252C1177,-252 1061,-252 1061,-252 1055,-252 1049,-246 1049,-240 1049,-240 1049,-228 1049,-228 1049,-222 1055,-216 1061,-216 1061,-216 1177,-216 1177,-216 1183,-216 1189,-222 1189,-228 1189,-228 1189,-240 1189,-240 1189,-246 1183,-252 1177,-252"/>
<text text-anchor="middle" x="1119" y="-230.3" font-family="Times,serif" font-size="14.00">View&#45;Graph Estimator</text>
</g>
<!-- Keypoints&#45;&gt;View&#45;Graph Estimator -->
<g id="edge12" class="edge">
<title>Keypoints&#45;&gt;View&#45;Graph Estimator</title>
<path fill="none" stroke="#bfbfbf" d="M1090.51,-578.97C1101.58,-552.26 1121,-498.62 1121,-451 1121,-451 1121,-451 1121,-377 1121,-336.99 1120.2,-290.65 1119.61,-262.08"/>
<polygon fill="#bfbfbf" stroke="#bfbfbf" points="1123.11,-261.97 1119.4,-252.05 1116.11,-262.12 1123.11,-261.97"/>
</g>
<!-- Tracks Estimator -->
<g id="node30" class="node">
<title>Tracks Estimator</title>
<path fill="lightskyblue" stroke="black" d="M1502,-108C1502,-108 1416,-108 1416,-108 1410,-108 1404,-102 1404,-96 1404,-96 1404,-84 1404,-84 1404,-78 1410,-72 1416,-72 1416,-72 1502,-72 1502,-72 1508,-72 1514,-78 1514,-84 1514,-84 1514,-96 1514,-96 1514,-102 1508,-108 1502,-108"/>
<text text-anchor="middle" x="1459" y="-86.3" font-family="Times,serif" font-size="14.00">Tracks Estimator</text>
</g>
<!-- Keypoints&#45;&gt;Tracks Estimator -->
<g id="edge36" class="edge">
<title>Keypoints&#45;&gt;Tracks Estimator</title>
<path fill="none" stroke="#bfbfbf" d="M1119.06,-595.05C1248.35,-590.66 1681,-567.31 1681,-451 1681,-451 1681,-451 1681,-233 1681,-189.07 1692.68,-167.45 1662,-136 1643.03,-116.56 1576.23,-104.43 1524.38,-97.73"/>
<polygon fill="#bfbfbf" stroke="#bfbfbf" points="1524.58,-94.22 1514.23,-96.46 1523.72,-101.17 1524.58,-94.22"/>
</g>
<!-- Two&#45;View Estimator -->
<g id="node33" class="node">
<title>Two&#45;View Estimator</title>
<path fill="lightskyblue" stroke="black" d="M1016.5,-252C1016.5,-252 909.5,-252 909.5,-252 903.5,-252 897.5,-246 897.5,-240 897.5,-240 897.5,-228 897.5,-228 897.5,-222 903.5,-216 909.5,-216 909.5,-216 1016.5,-216 1016.5,-216 1022.5,-216 1028.5,-222 1028.5,-228 1028.5,-228 1028.5,-240 1028.5,-240 1028.5,-246 1022.5,-252 1016.5,-252"/>
<text text-anchor="middle" x="963" y="-230.3" font-family="Times,serif" font-size="14.00">Two&#45;View Estimator</text>
</g>
<!-- Keypoints&#45;&gt;Two&#45;View Estimator -->
<g id="edge39" class="edge">
<title>Keypoints&#45;&gt;Two&#45;View Estimator</title>
<path fill="none" stroke="#bfbfbf" d="M1083.71,-578.95C1085,-530.04 1083.32,-386.46 1026,-288 1019.36,-276.6 1009.32,-266.52 999.19,-258.31"/>
<polygon fill="#bfbfbf" stroke="#bfbfbf" points="1001.18,-255.42 991.11,-252.13 996.92,-260.98 1001.18,-255.42"/>
</g>
<!-- Camera Intrinsics -->
<g id="node3" class="node">
<title>Camera Intrinsics</title>
<path fill="gainsboro" stroke="black" d="M966.5,-615C966.5,-615 877.5,-615 877.5,-615 871.5,-615 865.5,-609 865.5,-603 865.5,-603 865.5,-591 865.5,-591 865.5,-585 871.5,-579 877.5,-579 877.5,-579 966.5,-579 966.5,-579 972.5,-579 978.5,-585 978.5,-591 978.5,-591 978.5,-603 978.5,-603 978.5,-609 972.5,-615 966.5,-615"/>
<text text-anchor="middle" x="922" y="-593.3" font-family="Times,serif" font-size="14.00">Camera Intrinsics</text>
</g>
<!-- Camera Intrinsics&#45;&gt;Verifier -->
<g id="edge2" class="edge">
<title>Camera Intrinsics&#45;&gt;Verifier</title>
<path fill="none" stroke="#bfbfbf" d="M909.39,-578.7C903.4,-570.47 896.12,-560.48 889.52,-551.42"/>
<polygon fill="#bfbfbf" stroke="#bfbfbf" points="892.18,-549.13 883.46,-543.1 886.52,-553.25 892.18,-549.13"/>
</g>
<!-- Matches -->
<g id="node4" class="node">
<title>Matches</title>
<path fill="gainsboro" stroke="black" d="M835.5,-615C835.5,-615 796.5,-615 796.5,-615 790.5,-615 784.5,-609 784.5,-603 784.5,-603 784.5,-591 784.5,-591 784.5,-585 790.5,-579 796.5,-579 796.5,-579 835.5,-579 835.5,-579 841.5,-579 847.5,-585 847.5,-591 847.5,-591 847.5,-603 847.5,-603 847.5,-609 841.5,-615 835.5,-615"/>
<text text-anchor="middle" x="816" y="-593.3" font-family="Times,serif" font-size="14.00">Matches</text>
</g>
<!-- Matches&#45;&gt;Verifier -->
<g id="edge3" class="edge">
<title>Matches&#45;&gt;Verifier</title>
<path fill="none" stroke="#bfbfbf" d="M829.6,-578.7C836.12,-570.39 844.07,-560.28 851.25,-551.14"/>
<polygon fill="#bfbfbf" stroke="#bfbfbf" points="854.13,-553.13 857.56,-543.1 848.63,-548.81 854.13,-553.13"/>
</g>
<!-- Relative Rotations&#45;&gt;View&#45;Graph Estimator -->
<g id="edge8" class="edge">
<title>Relative Rotations&#45;&gt;View&#45;Graph Estimator</title>
<path fill="none" stroke="#bfbfbf" d="M587.68,-446.14C685.75,-438.89 885.95,-413.41 1026,-324 1053.81,-306.24 1080.48,-279.36 1098.07,-259.79"/>
<polygon fill="#bfbfbf" stroke="#bfbfbf" points="1100.81,-261.97 1104.81,-252.16 1095.56,-257.34 1100.81,-261.97"/>
</g>
<!-- Rotation Averaging -->
<g id="node29" class="node">
<title>Rotation Averaging</title>
<path fill="lightskyblue" stroke="black" d="M438,-396C438,-396 340,-396 340,-396 334,-396 328,-390 328,-384 328,-384 328,-372 328,-372 328,-366 334,-360 340,-360 340,-360 438,-360 438,-360 444,-360 450,-366 450,-372 450,-372 450,-384 450,-384 450,-390 444,-396 438,-396"/>
<text text-anchor="middle" x="389" y="-374.3" font-family="Times,serif" font-size="14.00">Rotation Averaging</text>
</g>
<!-- Relative Rotations&#45;&gt;Rotation Averaging -->
<g id="edge33" class="edge">
<title>Relative Rotations&#45;&gt;Rotation Averaging</title>
<path fill="none" stroke="#bfbfbf" d="M494.75,-431.88C475.94,-422.47 452.42,-410.71 432.33,-400.67"/>
<polygon fill="#bfbfbf" stroke="#bfbfbf" points="433.89,-397.53 423.38,-396.19 430.76,-403.79 433.89,-397.53"/>
</g>
<!-- Relative Rotations&#45;&gt;Two&#45;View Estimator -->
<g id="edge41" class="edge">
<title>Relative Rotations&#45;&gt;Two&#45;View Estimator</title>
<path fill="none" stroke="#bfbfbf" d="M587.74,-449.28C647.38,-447.07 740.45,-436.56 809,-396 862.53,-364.33 853.9,-331.87 898,-288 908.36,-277.69 920.6,-267.31 931.64,-258.51"/>
<polygon fill="#bfbfbf" stroke="#bfbfbf" points="934.09,-261.04 939.8,-252.11 929.77,-255.53 934.09,-261.04"/>
</g>
<!-- Relative Translations&#45;&gt;View&#45;Graph Estimator -->
<g id="edge9" class="edge">
<title>Relative Translations&#45;&gt;View&#45;Graph Estimator</title>
<path fill="none" stroke="#bfbfbf" d="M587.75,-289.54C590.87,-288.98 593.96,-288.47 597,-288 791.38,-258.19 843.39,-280.25 1038,-252 1038.22,-251.97 1038.44,-251.94 1038.67,-251.9"/>
<polygon fill="#bfbfbf" stroke="#bfbfbf" points="1039.52,-255.31 1048.85,-250.28 1038.42,-248.4 1039.52,-255.31"/>
</g>
<!-- Translation Averaging -->
<g id="node19" class="node">
<title>Translation Averaging</title>
<path fill="lightskyblue" stroke="black" d="M291.5,-252C291.5,-252 178.5,-252 178.5,-252 172.5,-252 166.5,-246 166.5,-240 166.5,-240 166.5,-228 166.5,-228 166.5,-222 172.5,-216 178.5,-216 178.5,-216 291.5,-216 291.5,-216 297.5,-216 303.5,-222 303.5,-228 303.5,-228 303.5,-240 303.5,-240 303.5,-246 297.5,-252 291.5,-252"/>
<text text-anchor="middle" x="235" y="-230.3" font-family="Times,serif" font-size="14.00">Translation Averaging</text>
</g>
<!-- Relative Translations&#45;&gt;Translation Averaging -->
<g id="edge22" class="edge">
<title>Relative Translations&#45;&gt;Translation Averaging</title>
<path fill="none" stroke="#bfbfbf" d="M456.16,-288.94C413.69,-278.58 358.24,-265.06 313.49,-254.14"/>
<polygon fill="#bfbfbf" stroke="#bfbfbf" points="314.08,-250.68 303.53,-251.72 312.42,-257.49 314.08,-250.68"/>
</g>
<!-- Relative Translations&#45;&gt;Two&#45;View Estimator -->
<g id="edge42" class="edge">
<title>Relative Translations&#45;&gt;Two&#45;View Estimator</title>
<path fill="none" stroke="#bfbfbf" d="M587.79,-289.78C590.9,-289.16 593.98,-288.56 597,-288 696.78,-269.5 812.88,-253.64 887.1,-244.21"/>
<polygon fill="#bfbfbf" stroke="#bfbfbf" points="887.81,-247.65 897.29,-242.92 886.93,-240.7 887.81,-247.65"/>
</g>
<!-- Correspondences&#45;&gt;View&#45;Graph Estimator -->
<g id="edge11" class="edge">
<title>Correspondences&#45;&gt;View&#45;Graph Estimator</title>
<path fill="none" stroke="#bfbfbf" d="M1000.41,-287.88C1021.87,-278.31 1048.8,-266.3 1071.57,-256.15"/>
<polygon fill="#bfbfbf" stroke="#bfbfbf" points="1073.01,-259.34 1080.72,-252.07 1070.16,-252.94 1073.01,-259.34"/>
</g>
<!-- Correspondences&#45;&gt;Two&#45;View Estimator -->
<g id="edge40" class="edge">
<title>Correspondences&#45;&gt;Two&#45;View Estimator</title>
<path fill="none" stroke="#bfbfbf" d="M962.25,-287.7C962.36,-279.98 962.49,-270.71 962.61,-262.11"/>
<polygon fill="#bfbfbf" stroke="#bfbfbf" points="966.11,-262.15 962.76,-252.1 959.11,-262.05 966.11,-262.15"/>
</g>
<!-- View&#45;Graph Edges -->
<g id="node11" class="node">
<title>View&#45;Graph Edges</title>
<path fill="gainsboro" stroke="black" d="M1641,-180C1641,-180 1545,-180 1545,-180 1539,-180 1533,-174 1533,-168 1533,-168 1533,-156 1533,-156 1533,-150 1539,-144 1545,-144 1545,-144 1641,-144 1641,-144 1647,-144 1653,-150 1653,-156 1653,-156 1653,-168 1653,-168 1653,-174 1647,-180 1641,-180"/>
<text text-anchor="middle" x="1593" y="-158.3" font-family="Times,serif" font-size="14.00">View&#45;Graph Edges</text>
</g>
<!-- View&#45;Graph Estimator&#45;&gt;View&#45;Graph Edges -->
<g id="edge13" class="edge">
<title>View&#45;Graph Estimator&#45;&gt;View&#45;Graph Edges</title>
<path fill="none" stroke="#bfbfbf" d="M1189.25,-226.21C1268.18,-218.04 1400.25,-202.75 1522.93,-180.09"/>
<polygon fill="#bfbfbf" stroke="#bfbfbf" points="1523.69,-183.51 1532.88,-178.23 1522.4,-176.63 1523.69,-183.51"/>
</g>
<!-- Calibrations -->
<g id="node10" class="node">
<title>Calibrations</title>
<path fill="gainsboro" stroke="black" d="M1220.5,-324C1220.5,-324 1161.5,-324 1161.5,-324 1155.5,-324 1149.5,-318 1149.5,-312 1149.5,-312 1149.5,-300 1149.5,-300 1149.5,-294 1155.5,-288 1161.5,-288 1161.5,-288 1220.5,-288 1220.5,-288 1226.5,-288 1232.5,-294 1232.5,-300 1232.5,-300 1232.5,-312 1232.5,-312 1232.5,-318 1226.5,-324 1220.5,-324"/>
<text text-anchor="middle" x="1191" y="-302.3" font-family="Times,serif" font-size="14.00">Calibrations</text>
</g>
<!-- Calibrations&#45;&gt;View&#45;Graph Estimator -->
<g id="edge10" class="edge">
<title>Calibrations&#45;&gt;View&#45;Graph Estimator</title>
<path fill="none" stroke="#bfbfbf" d="M1173.2,-287.7C1164.4,-279.14 1153.62,-268.66 1144,-259.3"/>
<polygon fill="#bfbfbf" stroke="#bfbfbf" points="1146.2,-256.57 1136.59,-252.1 1141.32,-261.58 1146.2,-256.57"/>
</g>
<!-- Image Retriever -->
<g id="node12" class="node">
<title>Image Retriever</title>
<path fill="lightskyblue" stroke="black" d="M949.5,-831C949.5,-831 868.5,-831 868.5,-831 862.5,-831 856.5,-825 856.5,-819 856.5,-819 856.5,-807 856.5,-807 856.5,-801 862.5,-795 868.5,-795 868.5,-795 949.5,-795 949.5,-795 955.5,-795 961.5,-801 961.5,-807 961.5,-807 961.5,-819 961.5,-819 961.5,-825 955.5,-831 949.5,-831"/>
<text text-anchor="middle" x="909" y="-809.3" font-family="Times,serif" font-size="14.00">Image Retriever</text>
</g>
<!-- Images -->
<g id="node14" class="node">
<title>Images</title>
<path fill="gainsboro" stroke="black" d="M925,-759C925,-759 893,-759 893,-759 887,-759 881,-753 881,-747 881,-747 881,-735 881,-735 881,-729 887,-723 893,-723 893,-723 925,-723 925,-723 931,-723 937,-729 937,-735 937,-735 937,-747 937,-747 937,-753 931,-759 925,-759"/>
<text text-anchor="middle" x="909" y="-737.3" font-family="Times,serif" font-size="14.00">Images</text>
</g>
<!-- Image Retriever&#45;&gt;Images -->
<g id="edge15" class="edge">
<title>Image Retriever&#45;&gt;Images</title>
<path fill="none" stroke="#bfbfbf" d="M909,-794.7C909,-786.98 909,-777.71 909,-769.11"/>
<polygon fill="#bfbfbf" stroke="#bfbfbf" points="912.5,-769.1 909,-759.1 905.5,-769.1 912.5,-769.1"/>
</g>
<!-- Image Loader -->
<g id="node13" class="node">
<title>Image Loader</title>
<path fill="gainsboro" stroke="black" d="M943.5,-903C943.5,-903 874.5,-903 874.5,-903 868.5,-903 862.5,-897 862.5,-891 862.5,-891 862.5,-879 862.5,-879 862.5,-873 868.5,-867 874.5,-867 874.5,-867 943.5,-867 943.5,-867 949.5,-867 955.5,-873 955.5,-879 955.5,-879 955.5,-891 955.5,-891 955.5,-897 949.5,-903 943.5,-903"/>
<text text-anchor="middle" x="909" y="-881.3" font-family="Times,serif" font-size="14.00">Image Loader</text>
</g>
<!-- Image Loader&#45;&gt;Image Retriever -->
<g id="edge14" class="edge">
<title>Image Loader&#45;&gt;Image Retriever</title>
<path fill="none" stroke="#bfbfbf" d="M909,-866.7C909,-858.98 909,-849.71 909,-841.11"/>
<polygon fill="#bfbfbf" stroke="#bfbfbf" points="912.5,-841.1 909,-831.1 905.5,-841.1 912.5,-841.1"/>
</g>
<!-- DetectorDescriptor -->
<g id="node15" class="node">
<title>DetectorDescriptor</title>
<path fill="lightskyblue" stroke="black" d="M1055,-687C1055,-687 959,-687 959,-687 953,-687 947,-681 947,-675 947,-675 947,-663 947,-663 947,-657 953,-651 959,-651 959,-651 1055,-651 1055,-651 1061,-651 1067,-657 1067,-663 1067,-663 1067,-675 1067,-675 1067,-681 1061,-687 1055,-687"/>
<text text-anchor="middle" x="1007" y="-665.3" font-family="Times,serif" font-size="14.00">DetectorDescriptor</text>
</g>
<!-- Images&#45;&gt;DetectorDescriptor -->
<g id="edge16" class="edge">
<title>Images&#45;&gt;DetectorDescriptor</title>
<path fill="none" stroke="#bfbfbf" d="M932.97,-722.88C945.55,-713.89 961.13,-702.76 974.75,-693.03"/>
<polygon fill="#bfbfbf" stroke="#bfbfbf" points="976.83,-695.85 982.93,-687.19 972.76,-690.15 976.83,-695.85"/>
</g>
<!-- Multi&#45;view Stereo -->
<g id="node16" class="node">
<title>Multi&#45;view Stereo</title>
<path fill="lightskyblue" stroke="black" d="M843,-687C843,-687 751,-687 751,-687 745,-687 739,-681 739,-675 739,-675 739,-663 739,-663 739,-657 745,-651 751,-651 751,-651 843,-651 843,-651 849,-651 855,-657 855,-663 855,-663 855,-675 855,-675 855,-681 849,-687 843,-687"/>
<text text-anchor="middle" x="797" y="-665.3" font-family="Times,serif" font-size="14.00">Multi&#45;view Stereo</text>
</g>
<!-- Images&#45;&gt;Multi&#45;view Stereo -->
<g id="edge19" class="edge">
<title>Images&#45;&gt;Multi&#45;view Stereo</title>
<path fill="none" stroke="#bfbfbf" d="M881.6,-722.88C867.09,-713.81 849.08,-702.55 833.41,-692.76"/>
<polygon fill="#bfbfbf" stroke="#bfbfbf" points="834.84,-689.52 824.5,-687.19 831.13,-695.46 834.84,-689.52"/>
</g>
<!-- DetectorDescriptor&#45;&gt;Keypoints -->
<g id="edge17" class="edge">
<title>DetectorDescriptor&#45;&gt;Keypoints</title>
<path fill="none" stroke="#bfbfbf" d="M1025.79,-650.7C1035.17,-642.05 1046.68,-631.45 1056.91,-622.03"/>
<polygon fill="#bfbfbf" stroke="#bfbfbf" points="1059.45,-624.45 1064.43,-615.1 1054.7,-619.3 1059.45,-624.45"/>
</g>
<!-- DetectorDescriptor&#45;&gt;Correspondences -->
<g id="edge18" class="edge">
<title>DetectorDescriptor&#45;&gt;Correspondences</title>
<path fill="none" stroke="#bfbfbf" d="M1007,-650.95C1007,-624.29 1007,-571.11 1007,-526 1007,-526 1007,-526 1007,-449 1007,-407.13 989,-361.42 975.77,-333.48"/>
<polygon fill="#bfbfbf" stroke="#bfbfbf" points="978.85,-331.82 971.32,-324.37 972.56,-334.89 978.85,-331.82"/>
</g>
<!-- Dense Points -->
<g id="node18" class="node">
<title>Dense Points</title>
<path fill="gainsboro" stroke="black" d="M754,-615C754,-615 690,-615 690,-615 684,-615 678,-609 678,-603 678,-603 678,-591 678,-591 678,-585 684,-579 690,-579 690,-579 754,-579 754,-579 760,-579 766,-585 766,-591 766,-591 766,-603 766,-603 766,-609 760,-615 754,-615"/>
<text text-anchor="middle" x="722" y="-593.3" font-family="Times,serif" font-size="14.00">Dense Points</text>
</g>
<!-- Multi&#45;view Stereo&#45;&gt;Dense Points -->
<g id="edge21" class="edge">
<title>Multi&#45;view Stereo&#45;&gt;Dense Points</title>
<path fill="none" stroke="#bfbfbf" d="M778.46,-650.7C769.2,-642.05 757.84,-631.45 747.74,-622.03"/>
<polygon fill="#bfbfbf" stroke="#bfbfbf" points="750.02,-619.37 740.33,-615.1 745.25,-624.49 750.02,-619.37"/>
</g>
<!-- SFM Result -->
<g id="node17" class="node">
<title>SFM Result</title>
<path fill="gainsboro" stroke="black" d="M826.5,-759C826.5,-759 767.5,-759 767.5,-759 761.5,-759 755.5,-753 755.5,-747 755.5,-747 755.5,-735 755.5,-735 755.5,-729 761.5,-723 767.5,-723 767.5,-723 826.5,-723 826.5,-723 832.5,-723 838.5,-729 838.5,-735 838.5,-735 838.5,-747 838.5,-747 838.5,-753 832.5,-759 826.5,-759"/>
<text text-anchor="middle" x="797" y="-737.3" font-family="Times,serif" font-size="14.00">SFM Result</text>
</g>
<!-- SFM Result&#45;&gt;Multi&#45;view Stereo -->
<g id="edge20" class="edge">
<title>SFM Result&#45;&gt;Multi&#45;view Stereo</title>
<path fill="none" stroke="#bfbfbf" d="M797,-722.7C797,-714.98 797,-705.71 797,-697.11"/>
<polygon fill="#bfbfbf" stroke="#bfbfbf" points="800.5,-697.1 797,-687.1 793.5,-697.1 800.5,-697.1"/>
</g>
<!-- Global Translations -->
<g id="node24" class="node">
<title>Global Translations</title>
<path fill="gainsboro" stroke="black" d="M284.5,-180C284.5,-180 185.5,-180 185.5,-180 179.5,-180 173.5,-174 173.5,-168 173.5,-168 173.5,-156 173.5,-156 173.5,-150 179.5,-144 185.5,-144 185.5,-144 284.5,-144 284.5,-144 290.5,-144 296.5,-150 296.5,-156 296.5,-156 296.5,-168 296.5,-168 296.5,-174 290.5,-180 284.5,-180"/>
<text text-anchor="middle" x="235" y="-158.3" font-family="Times,serif" font-size="14.00">Global Translations</text>
</g>
<!-- Translation Averaging&#45;&gt;Global Translations -->
<g id="edge27" class="edge">
<title>Translation Averaging&#45;&gt;Global Translations</title>
<path fill="none" stroke="#bfbfbf" d="M235,-215.7C235,-207.98 235,-198.71 235,-190.11"/>
<polygon fill="#bfbfbf" stroke="#bfbfbf" points="238.5,-190.1 235,-180.1 231.5,-190.1 238.5,-190.1"/>
</g>
<!-- Global Rotations -->
<g id="node20" class="node">
<title>Global Rotations</title>
<path fill="gainsboro" stroke="black" d="M277.5,-324C277.5,-324 192.5,-324 192.5,-324 186.5,-324 180.5,-318 180.5,-312 180.5,-312 180.5,-300 180.5,-300 180.5,-294 186.5,-288 192.5,-288 192.5,-288 277.5,-288 277.5,-288 283.5,-288 289.5,-294 289.5,-300 289.5,-300 289.5,-312 289.5,-312 289.5,-318 283.5,-324 277.5,-324"/>
<text text-anchor="middle" x="235" y="-302.3" font-family="Times,serif" font-size="14.00">Global Rotations</text>
</g>
<!-- Global Rotations&#45;&gt;Translation Averaging -->
<g id="edge23" class="edge">
<title>Global Rotations&#45;&gt;Translation Averaging</title>
<path fill="none" stroke="#bfbfbf" d="M235,-287.7C235,-279.98 235,-270.71 235,-262.11"/>
<polygon fill="#bfbfbf" stroke="#bfbfbf" points="238.5,-262.1 235,-252.1 231.5,-262.1 238.5,-262.1"/>
</g>
<!-- Absolute Pose Priors -->
<g id="node21" class="node">
<title>Absolute Pose Priors</title>
<path fill="gainsboro" stroke="black" d="M426.5,-324C426.5,-324 319.5,-324 319.5,-324 313.5,-324 307.5,-318 307.5,-312 307.5,-312 307.5,-300 307.5,-300 307.5,-294 313.5,-288 319.5,-288 319.5,-288 426.5,-288 426.5,-288 432.5,-288 438.5,-294 438.5,-300 438.5,-300 438.5,-312 438.5,-312 438.5,-318 432.5,-324 426.5,-324"/>
<text text-anchor="middle" x="373" y="-302.3" font-family="Times,serif" font-size="14.00">Absolute Pose Priors</text>
</g>
<!-- Absolute Pose Priors&#45;&gt;Translation Averaging -->
<g id="edge24" class="edge">
<title>Absolute Pose Priors&#45;&gt;Translation Averaging</title>
<path fill="none" stroke="#bfbfbf" d="M339.24,-287.88C320.78,-278.51 297.72,-266.81 277.98,-256.8"/>
<polygon fill="#bfbfbf" stroke="#bfbfbf" points="279.39,-253.59 268.89,-252.19 276.22,-259.83 279.39,-253.59"/>
</g>
<!-- Bundle Adjustment -->
<g id="node25" class="node">
<title>Bundle Adjustment</title>
<path fill="lightskyblue" stroke="black" d="M731,-252C731,-252 633,-252 633,-252 627,-252 621,-246 621,-240 621,-240 621,-228 621,-228 621,-222 627,-216 633,-216 633,-216 731,-216 731,-216 737,-216 743,-222 743,-228 743,-228 743,-240 743,-240 743,-246 737,-252 731,-252"/>
<text text-anchor="middle" x="682" y="-230.3" font-family="Times,serif" font-size="14.00">Bundle Adjustment</text>
</g>
<!-- Absolute Pose Priors&#45;&gt;Bundle Adjustment -->
<g id="edge29" class="edge">
<title>Absolute Pose Priors&#45;&gt;Bundle Adjustment</title>
<path fill="none" stroke="#bfbfbf" d="M438.85,-290.07C441.94,-289.37 445.01,-288.68 448,-288 502.69,-275.61 564.57,-261.59 610.95,-251.09"/>
<polygon fill="#bfbfbf" stroke="#bfbfbf" points="611.93,-254.46 620.91,-248.83 610.38,-247.63 611.93,-254.46"/>
</g>
<!-- Relative Pose Priors -->
<g id="node22" class="node">
<title>Relative Pose Priors</title>
<path fill="gainsboro" stroke="black" d="M440.5,-468C440.5,-468 337.5,-468 337.5,-468 331.5,-468 325.5,-462 325.5,-456 325.5,-456 325.5,-444 325.5,-444 325.5,-438 331.5,-432 337.5,-432 337.5,-432 440.5,-432 440.5,-432 446.5,-432 452.5,-438 452.5,-444 452.5,-444 452.5,-456 452.5,-456 452.5,-462 446.5,-468 440.5,-468"/>
<text text-anchor="middle" x="389" y="-446.3" font-family="Times,serif" font-size="14.00">Relative Pose Priors</text>
</g>
<!-- Relative Pose Priors&#45;&gt;Translation Averaging -->
<g id="edge25" class="edge">
<title>Relative Pose Priors&#45;&gt;Translation Averaging</title>
<path fill="none" stroke="#bfbfbf" d="M325.73,-431.93C273.94,-414.25 204.02,-381 171,-324 162.98,-310.16 164.19,-302.48 171,-288 176.52,-276.26 186.07,-266.22 196.12,-258.15"/>
<polygon fill="#bfbfbf" stroke="#bfbfbf" points="198.31,-260.88 204.23,-252.09 194.12,-255.27 198.31,-260.88"/>
</g>
<!-- Relative Pose Priors&#45;&gt;Bundle Adjustment -->
<g id="edge30" class="edge">
<title>Relative Pose Priors&#45;&gt;Bundle Adjustment</title>
<path fill="none" stroke="#bfbfbf" d="M448,-431.9C542.92,-403.81 720.7,-348.57 738,-324 747.21,-310.92 744.33,-302.7 738,-288 733.21,-276.87 724.81,-266.99 715.95,-258.86"/>
<polygon fill="#bfbfbf" stroke="#bfbfbf" points="718,-256.01 708.12,-252.18 713.46,-261.34 718,-256.01"/>
</g>
<!-- Relative Pose Priors&#45;&gt;Rotation Averaging -->
<g id="edge34" class="edge">
<title>Relative Pose Priors&#45;&gt;Rotation Averaging</title>
<path fill="none" stroke="#bfbfbf" d="M389,-431.7C389,-423.98 389,-414.71 389,-406.11"/>
<polygon fill="#bfbfbf" stroke="#bfbfbf" points="392.5,-406.1 389,-396.1 385.5,-406.1 392.5,-406.1"/>
</g>
<!-- Relative Pose Priors&#45;&gt;Two&#45;View Estimator -->
<g id="edge43" class="edge">
<title>Relative Pose Priors&#45;&gt;Two&#45;View Estimator</title>
<path fill="none" stroke="#bfbfbf" d="M452.69,-434.1C455.83,-433.38 458.95,-432.68 462,-432 536.52,-415.34 557.78,-420.8 630,-396 688.1,-376.05 845.34,-296 921.09,-256.82"/>
<polygon fill="#bfbfbf" stroke="#bfbfbf" points="923.08,-259.73 930.35,-252.03 919.86,-253.52 923.08,-259.73"/>
</g>
<!-- Ground Truth Poses -->
<g id="node23" class="node">
<title>Ground Truth Poses</title>
<path fill="gainsboro" stroke="black" d="M129.5,-324C129.5,-324 28.5,-324 28.5,-324 22.5,-324 16.5,-318 16.5,-312 16.5,-312 16.5,-300 16.5,-300 16.5,-294 22.5,-288 28.5,-288 28.5,-288 129.5,-288 129.5,-288 135.5,-288 141.5,-294 141.5,-300 141.5,-300 141.5,-312 141.5,-312 141.5,-318 135.5,-324 129.5,-324"/>
<text text-anchor="middle" x="79" y="-302.3" font-family="Times,serif" font-size="14.00">Ground Truth Poses</text>
</g>
<!-- Ground Truth Poses&#45;&gt;Translation Averaging -->
<g id="edge26" class="edge">
<title>Ground Truth Poses&#45;&gt;Translation Averaging</title>
<path fill="none" stroke="#bfbfbf" d="M117.16,-287.88C138.39,-278.35 165.01,-266.41 187.57,-256.28"/>
<polygon fill="#bfbfbf" stroke="#bfbfbf" points="189.27,-259.36 196.96,-252.07 186.41,-252.97 189.27,-259.36"/>
</g>
<!-- Optimized Camera Poses -->
<g id="node27" class="node">
<title>Optimized Camera Poses</title>
<path fill="gainsboro" stroke="black" d="M747.5,-180C747.5,-180 616.5,-180 616.5,-180 610.5,-180 604.5,-174 604.5,-168 604.5,-168 604.5,-156 604.5,-156 604.5,-150 610.5,-144 616.5,-144 616.5,-144 747.5,-144 747.5,-144 753.5,-144 759.5,-150 759.5,-156 759.5,-156 759.5,-168 759.5,-168 759.5,-174 753.5,-180 747.5,-180"/>
<text text-anchor="middle" x="682" y="-158.3" font-family="Times,serif" font-size="14.00">Optimized Camera Poses</text>
</g>
<!-- Bundle Adjustment&#45;&gt;Optimized Camera Poses -->
<g id="edge31" class="edge">
<title>Bundle Adjustment&#45;&gt;Optimized Camera Poses</title>
<path fill="none" stroke="#bfbfbf" d="M682,-215.7C682,-207.98 682,-198.71 682,-190.11"/>
<polygon fill="#bfbfbf" stroke="#bfbfbf" points="685.5,-190.1 682,-180.1 678.5,-190.1 685.5,-190.1"/>
</g>
<!-- Filtered Optimized Camera Poses -->
<g id="node28" class="node">
<title>Filtered Optimized Camera Poses</title>
<path fill="gainsboro" stroke="black" d="M966.5,-180C966.5,-180 789.5,-180 789.5,-180 783.5,-180 777.5,-174 777.5,-168 777.5,-168 777.5,-156 777.5,-156 777.5,-150 783.5,-144 789.5,-144 789.5,-144 966.5,-144 966.5,-144 972.5,-144 978.5,-150 978.5,-156 978.5,-156 978.5,-168 978.5,-168 978.5,-174 972.5,-180 966.5,-180"/>
<text text-anchor="middle" x="878" y="-158.3" font-family="Times,serif" font-size="14.00">Filtered Optimized Camera Poses</text>
</g>
<!-- Bundle Adjustment&#45;&gt;Filtered Optimized Camera Poses -->
<g id="edge32" class="edge">
<title>Bundle Adjustment&#45;&gt;Filtered Optimized Camera Poses</title>
<path fill="none" stroke="#bfbfbf" d="M729.7,-215.97C757.08,-206.19 791.66,-193.84 820.53,-183.52"/>
<polygon fill="#bfbfbf" stroke="#bfbfbf" points="821.85,-186.77 830.09,-180.11 819.5,-180.18 821.85,-186.77"/>
</g>
<!-- Initialized Cameras -->
<g id="node26" class="node">
<title>Initialized Cameras</title>
<path fill="gainsboro" stroke="black" d="M716.5,-324C716.5,-324 617.5,-324 617.5,-324 611.5,-324 605.5,-318 605.5,-312 605.5,-312 605.5,-300 605.5,-300 605.5,-294 611.5,-288 617.5,-288 617.5,-288 716.5,-288 716.5,-288 722.5,-288 728.5,-294 728.5,-300 728.5,-300 728.5,-312 728.5,-312 728.5,-318 722.5,-324 716.5,-324"/>
<text text-anchor="middle" x="667" y="-302.3" font-family="Times,serif" font-size="14.00">Initialized Cameras</text>
</g>
<!-- Initialized Cameras&#45;&gt;Bundle Adjustment -->
<g id="edge28" class="edge">
<title>Initialized Cameras&#45;&gt;Bundle Adjustment</title>
<path fill="none" stroke="#bfbfbf" d="M670.71,-287.7C672.36,-279.98 674.35,-270.71 676.19,-262.11"/>
<polygon fill="#bfbfbf" stroke="#bfbfbf" points="679.66,-262.62 678.33,-252.1 672.82,-261.15 679.66,-262.62"/>
</g>
<!-- Rotation Averaging&#45;&gt;Global Rotations -->
<g id="edge35" class="edge">
<title>Rotation Averaging&#45;&gt;Global Rotations</title>
<path fill="none" stroke="#bfbfbf" d="M351.33,-359.88C330.37,-350.35 304.1,-338.41 281.82,-328.28"/>
<polygon fill="#bfbfbf" stroke="#bfbfbf" points="283.1,-325.02 272.55,-324.07 280.21,-331.39 283.1,-325.02"/>
</g>
<!-- 2D Tracks -->
<g id="node32" class="node">
<title>2D Tracks</title>
<path fill="gainsboro" stroke="black" d="M1483.5,-36C1483.5,-36 1434.5,-36 1434.5,-36 1428.5,-36 1422.5,-30 1422.5,-24 1422.5,-24 1422.5,-12 1422.5,-12 1422.5,-6 1428.5,0 1434.5,0 1434.5,0 1483.5,0 1483.5,0 1489.5,0 1495.5,-6 1495.5,-12 1495.5,-12 1495.5,-24 1495.5,-24 1495.5,-30 1489.5,-36 1483.5,-36"/>
<text text-anchor="middle" x="1459" y="-14.3" font-family="Times,serif" font-size="14.00">2D Tracks</text>
</g>
<!-- Tracks Estimator&#45;&gt;2D Tracks -->
<g id="edge38" class="edge">
<title>Tracks Estimator&#45;&gt;2D Tracks</title>
<path fill="none" stroke="#bfbfbf" d="M1459,-71.7C1459,-63.98 1459,-54.71 1459,-46.11"/>
<polygon fill="#bfbfbf" stroke="#bfbfbf" points="1462.5,-46.1 1459,-36.1 1455.5,-46.1 1462.5,-46.1"/>
</g>
<!-- Pairwise Feature Matches -->
<g id="node31" class="node">
<title>Pairwise Feature Matches</title>
<path fill="gainsboro" stroke="black" d="M1305,-180C1305,-180 1171,-180 1171,-180 1165,-180 1159,-174 1159,-168 1159,-168 1159,-156 1159,-156 1159,-150 1165,-144 1171,-144 1171,-144 1305,-144 1305,-144 1311,-144 1317,-150 1317,-156 1317,-156 1317,-168 1317,-168 1317,-174 1311,-180 1305,-180"/>
<text text-anchor="middle" x="1238" y="-158.3" font-family="Times,serif" font-size="14.00">Pairwise Feature Matches</text>
</g>
<!-- Pairwise Feature Matches&#45;&gt;Tracks Estimator -->
<g id="edge37" class="edge">
<title>Pairwise Feature Matches&#45;&gt;Tracks Estimator</title>
<path fill="none" stroke="#bfbfbf" d="M1291.78,-143.97C1322.93,-134.1 1362.32,-121.62 1395.05,-111.25"/>
<polygon fill="#bfbfbf" stroke="#bfbfbf" points="1396.5,-114.47 1404.98,-108.11 1394.39,-107.79 1396.5,-114.47"/>
</g>
<!-- Two&#45;View Estimator&#45;&gt;Pairwise Feature Matches -->
<g id="edge46" class="edge">
<title>Two&#45;View Estimator&#45;&gt;Pairwise Feature Matches</title>
<path fill="none" stroke="#bfbfbf" d="M1028.52,-216.32C1068.38,-206.18 1119.47,-193.17 1161.22,-182.54"/>
<polygon fill="#bfbfbf" stroke="#bfbfbf" points="1162.24,-185.9 1171.07,-180.04 1160.52,-179.11 1162.24,-185.9"/>
</g>
<!-- Optimized Relative Rotations -->
<g id="node34" class="node">
<title>Optimized Relative Rotations</title>
<path fill="gainsboro" stroke="black" d="M1502.5,-180C1502.5,-180 1347.5,-180 1347.5,-180 1341.5,-180 1335.5,-174 1335.5,-168 1335.5,-168 1335.5,-156 1335.5,-156 1335.5,-150 1341.5,-144 1347.5,-144 1347.5,-144 1502.5,-144 1502.5,-144 1508.5,-144 1514.5,-150 1514.5,-156 1514.5,-156 1514.5,-168 1514.5,-168 1514.5,-174 1508.5,-180 1502.5,-180"/>
<text text-anchor="middle" x="1425" y="-158.3" font-family="Times,serif" font-size="14.00">Optimized Relative Rotations</text>
</g>
<!-- Two&#45;View Estimator&#45;&gt;Optimized Relative Rotations -->
<g id="edge44" class="edge">
<title>Two&#45;View Estimator&#45;&gt;Optimized Relative Rotations</title>
<path fill="none" stroke="#bfbfbf" d="M1028.87,-218.04C1032.63,-217.32 1036.36,-216.63 1040,-216 1163.03,-194.72 1197.54,-198.63 1325.27,-180.06"/>
<polygon fill="#bfbfbf" stroke="#bfbfbf" points="1326.07,-183.48 1335.45,-178.56 1325.05,-176.56 1326.07,-183.48"/>
</g>
<!-- Optimized Translations -->
<g id="node35" class="node">
<title>Optimized Translations</title>
<path fill="gainsboro" stroke="black" d="M1129,-180C1129,-180 1009,-180 1009,-180 1003,-180 997,-174 997,-168 997,-168 997,-156 997,-156 997,-150 1003,-144 1009,-144 1009,-144 1129,-144 1129,-144 1135,-144 1141,-150 1141,-156 1141,-156 1141,-168 1141,-168 1141,-174 1135,-180 1129,-180"/>
<text text-anchor="middle" x="1069" y="-158.3" font-family="Times,serif" font-size="14.00">Optimized Translations</text>
</g>
<!-- Two&#45;View Estimator&#45;&gt;Optimized Translations -->
<g id="edge45" class="edge">
<title>Two&#45;View Estimator&#45;&gt;Optimized Translations</title>
<path fill="none" stroke="#bfbfbf" d="M988.93,-215.88C1002.66,-206.81 1019.71,-195.55 1034.54,-185.76"/>
<polygon fill="#bfbfbf" stroke="#bfbfbf" points="1036.55,-188.62 1042.97,-180.19 1032.7,-182.78 1036.55,-188.62"/>
</g>
</g>
</svg>
