<?xml version="1.0" encoding="UTF-8" standalone="no"?>
<!DOCTYPE svg PUBLIC "-//W3C//DTD SVG 1.1//EN"
 "http://www.w3.org/Graphics/SVG/1.1/DTD/svg11.dtd">
<!-- Generated by graphviz version 2.49.0 (20210829.0051)
 -->
<!-- Title: G Pages: 1 -->
<svg width="1781pt" height="1536pt"
 viewBox="0.00 0.00 1781.00 1536.00" xmlns="http://www.w3.org/2000/svg" xmlns:xlink="http://www.w3.org/1999/xlink">
<g id="graph0" class="graph" transform="scale(1 1) rotate(0) translate(4 1532)">
<title>G</title>
<polygon fill="white" stroke="transparent" points="-4,4 -4,-1532 1777,-1532 1777,4 -4,4"/>
<g id="clust1" class="cluster">
<title>cluster_Loader and Retriever</title>
<polygon fill="white" stroke="black" points="870,-1254 870,-1484 1765,-1484 1765,-1254 870,-1254"/>
<text text-anchor="middle" x="1317.5" y="-1468.8" font-family="Veranda" font-size="14.00">Loader and Retriever</text>
</g>
<g id="clust2" class="cluster">
<title>cluster_Two&#45;View Estimator</title>
<polygon fill="white" stroke="black" points="170,-894 170,-1329 862,-1329 862,-894 170,-894"/>
<text text-anchor="middle" x="516" y="-1313.8" font-family="Veranda" font-size="14.00">Two&#45;View Estimator</text>
</g>
<g id="clust3" class="cluster">
<title>cluster_Dense Reconstruction</title>
<polygon fill="white" stroke="black" points="801,-8 801,-155 1049,-155 1049,-8 801,-8"/>
<text text-anchor="middle" x="925" y="-139.8" font-family="Veranda" font-size="14.00">Dense Reconstruction</text>
</g>
<g id="clust4" class="cluster">
<title>cluster_Sparse Reconstruction</title>
<polygon fill="white" stroke="black" points="770,-163 770,-886 1234,-886 1234,-163 770,-163"/>
<text text-anchor="middle" x="1002" y="-870.8" font-family="Veranda" font-size="14.00">Sparse Reconstruction</text>
</g>
<g id="clust5" class="cluster">
<title>cluster_Feature Extractor</title>
<polygon fill="white" stroke="black" points="185,-1337 185,-1484 407,-1484 407,-1337 185,-1337"/>
<text text-anchor="middle" x="296" y="-1468.8" font-family="Veranda" font-size="14.00">Feature Extractor</text>
</g>
<!-- Data Association -->
<g id="node1" class="node">
<title>Data Association</title>
<path fill="lightskyblue" stroke="black" d="M1180,-423C1180,-423 1068,-423 1068,-423 1062,-423 1056,-417 1056,-411 1056,-411 1056,-399 1056,-399 1056,-393 1062,-387 1068,-387 1068,-387 1180,-387 1180,-387 1186,-387 1192,-393 1192,-399 1192,-399 1192,-411 1192,-411 1192,-417 1186,-423 1180,-423"/>
<text text-anchor="middle" x="1124" y="-401.3" font-family="Times,serif" font-size="14.00">Data Association</text>
</g>
<!-- 3D Tracks -->
<g id="node2" class="node">
<title>3D Tracks</title>
<path fill="gainsboro" stroke="black" d="M1156.5,-351C1156.5,-351 1091.5,-351 1091.5,-351 1085.5,-351 1079.5,-345 1079.5,-339 1079.5,-339 1079.5,-327 1079.5,-327 1079.5,-321 1085.5,-315 1091.5,-315 1091.5,-315 1156.5,-315 1156.5,-315 1162.5,-315 1168.5,-321 1168.5,-327 1168.5,-327 1168.5,-339 1168.5,-339 1168.5,-345 1162.5,-351 1156.5,-351"/>
<text text-anchor="middle" x="1124" y="-329.3" font-family="Times,serif" font-size="14.00">3D Tracks</text>
</g>
<!-- Data Association&#45;&gt;3D Tracks -->
<g id="edge1" class="edge">
<title>Data Association&#45;&gt;3D Tracks</title>
<path fill="none" stroke="#bfbfbf" d="M1124,-386.7C1124,-378.98 1124,-369.71 1124,-361.11"/>
<polygon fill="#bfbfbf" stroke="#bfbfbf" points="1127.5,-361.1 1124,-351.1 1120.5,-361.1 1127.5,-361.1"/>
</g>
<!-- Global Bundle Adjustment -->
<g id="node11" class="node">
<title>Global Bundle Adjustment</title>
<path fill="lightskyblue" stroke="black" d="M1214,-279C1214,-279 1034,-279 1034,-279 1028,-279 1022,-273 1022,-267 1022,-267 1022,-255 1022,-255 1022,-249 1028,-243 1034,-243 1034,-243 1214,-243 1214,-243 1220,-243 1226,-249 1226,-255 1226,-255 1226,-267 1226,-267 1226,-273 1220,-279 1214,-279"/>
<text text-anchor="middle" x="1124" y="-257.3" font-family="Times,serif" font-size="14.00">Global Bundle Adjustment</text>
</g>
<!-- 3D Tracks&#45;&gt;Global Bundle Adjustment -->
<g id="edge16" class="edge">
<title>3D Tracks&#45;&gt;Global Bundle Adjustment</title>
<path fill="none" stroke="#bfbfbf" d="M1124,-314.7C1124,-306.98 1124,-297.71 1124,-289.11"/>
<polygon fill="#bfbfbf" stroke="#bfbfbf" points="1127.5,-289.1 1124,-279.1 1120.5,-289.1 1127.5,-289.1"/>
</g>
<!-- View&#45;Graph Correspondences -->
<g id="node3" class="node">
<title>View&#45;Graph Correspondences</title>
<path fill="gainsboro" stroke="black" d="M1060,-639C1060,-639 856,-639 856,-639 850,-639 844,-633 844,-627 844,-627 844,-615 844,-615 844,-609 850,-603 856,-603 856,-603 1060,-603 1060,-603 1066,-603 1072,-609 1072,-615 1072,-615 1072,-627 1072,-627 1072,-633 1066,-639 1060,-639"/>
<text text-anchor="middle" x="958" y="-617.3" font-family="Times,serif" font-size="14.00">View&#45;Graph Correspondences</text>
</g>
<!-- View&#45;Graph Correspondences&#45;&gt;Data Association -->
<g id="edge2" class="edge">
<title>View&#45;Graph Correspondences&#45;&gt;Data Association</title>
<path fill="none" stroke="#bfbfbf" d="M1067.2,-602.97C1086.54,-595.08 1104.47,-583.61 1117,-567 1132.36,-546.64 1129.39,-473.64 1126.41,-433.29"/>
<polygon fill="#bfbfbf" stroke="#bfbfbf" points="1129.88,-432.78 1125.61,-423.09 1122.9,-433.33 1129.88,-432.78"/>
</g>
<!-- Global Rotations -->
<g id="node4" class="node">
<title>Global Rotations</title>
<path fill="gainsboro" stroke="black" d="M1213.5,-639C1213.5,-639 1102.5,-639 1102.5,-639 1096.5,-639 1090.5,-633 1090.5,-627 1090.5,-627 1090.5,-615 1090.5,-615 1090.5,-609 1096.5,-603 1102.5,-603 1102.5,-603 1213.5,-603 1213.5,-603 1219.5,-603 1225.5,-609 1225.5,-615 1225.5,-615 1225.5,-627 1225.5,-627 1225.5,-633 1219.5,-639 1213.5,-639"/>
<text text-anchor="middle" x="1158" y="-617.3" font-family="Times,serif" font-size="14.00">Global Rotations</text>
</g>
<!-- Global Rotations&#45;&gt;Data Association -->
<g id="edge3" class="edge">
<title>Global Rotations&#45;&gt;Data Association</title>
<path fill="none" stroke="#bfbfbf" d="M1155.28,-602.85C1149.39,-565.83 1135.47,-478.18 1128.35,-433.39"/>
<polygon fill="#bfbfbf" stroke="#bfbfbf" points="1131.76,-432.56 1126.74,-423.23 1124.85,-433.66 1131.76,-432.56"/>
</g>
<!-- Global Rotations&#45;&gt;Global Bundle Adjustment -->
<g id="edge15" class="edge">
<title>Global Rotations&#45;&gt;Global Bundle Adjustment</title>
<path fill="none" stroke="#bfbfbf" d="M1168.98,-602.84C1184.51,-576.89 1211,-525.63 1211,-478 1211,-478 1211,-478 1211,-404 1211,-361.81 1200.94,-350.41 1178,-315 1171.2,-304.51 1162,-294.5 1153.12,-286.06"/>
<polygon fill="#bfbfbf" stroke="#bfbfbf" points="1155.21,-283.23 1145.47,-279.07 1150.49,-288.4 1155.21,-283.23"/>
</g>
<!-- Translation Averaging -->
<g id="node27" class="node">
<title>Translation Averaging</title>
<path fill="lightskyblue" stroke="black" d="M1096,-567C1096,-567 946,-567 946,-567 940,-567 934,-561 934,-555 934,-555 934,-543 934,-543 934,-537 940,-531 946,-531 946,-531 1096,-531 1096,-531 1102,-531 1108,-537 1108,-543 1108,-543 1108,-555 1108,-555 1108,-561 1102,-567 1096,-567"/>
<text text-anchor="middle" x="1021" y="-545.3" font-family="Times,serif" font-size="14.00">Translation Averaging</text>
</g>
<!-- Global Rotations&#45;&gt;Translation Averaging -->
<g id="edge38" class="edge">
<title>Global Rotations&#45;&gt;Translation Averaging</title>
<path fill="none" stroke="#bfbfbf" d="M1124.49,-602.88C1106.16,-593.51 1083.26,-581.81 1063.67,-571.8"/>
<polygon fill="#bfbfbf" stroke="#bfbfbf" points="1065.14,-568.62 1054.64,-567.19 1061.96,-574.86 1065.14,-568.62"/>
</g>
<!-- Global Translations -->
<g id="node5" class="node">
<title>Global Translations</title>
<path fill="gainsboro" stroke="black" d="M1095.5,-495C1095.5,-495 964.5,-495 964.5,-495 958.5,-495 952.5,-489 952.5,-483 952.5,-483 952.5,-471 952.5,-471 952.5,-465 958.5,-459 964.5,-459 964.5,-459 1095.5,-459 1095.5,-459 1101.5,-459 1107.5,-465 1107.5,-471 1107.5,-471 1107.5,-483 1107.5,-483 1107.5,-489 1101.5,-495 1095.5,-495"/>
<text text-anchor="middle" x="1030" y="-473.3" font-family="Times,serif" font-size="14.00">Global Translations</text>
</g>
<!-- Global Translations&#45;&gt;Data Association -->
<g id="edge4" class="edge">
<title>Global Translations&#45;&gt;Data Association</title>
<path fill="none" stroke="#bfbfbf" d="M1053.24,-458.7C1065.19,-449.8 1079.92,-438.82 1092.85,-429.2"/>
<polygon fill="#bfbfbf" stroke="#bfbfbf" points="1095.1,-431.88 1101.03,-423.1 1090.92,-426.27 1095.1,-431.88"/>
</g>
<!-- Global Translations&#45;&gt;Global Bundle Adjustment -->
<g id="edge14" class="edge">
<title>Global Translations&#45;&gt;Global Bundle Adjustment</title>
<path fill="none" stroke="#bfbfbf" d="M1031.03,-458.71C1033.56,-427.72 1042.19,-361.62 1071,-315 1077.51,-304.47 1086.5,-294.45 1095.23,-286.01"/>
<polygon fill="#bfbfbf" stroke="#bfbfbf" points="1097.8,-288.39 1102.76,-279.03 1093.05,-283.26 1097.8,-288.39"/>
</g>
<!-- Camera Intrinsics -->
<g id="node6" class="node">
<title>Camera Intrinsics</title>
<path fill="gainsboro" stroke="black" d="M1414,-1381C1414,-1381 1294,-1381 1294,-1381 1288,-1381 1282,-1375 1282,-1369 1282,-1369 1282,-1357 1282,-1357 1282,-1351 1288,-1345 1294,-1345 1294,-1345 1414,-1345 1414,-1345 1420,-1345 1426,-1351 1426,-1357 1426,-1357 1426,-1369 1426,-1369 1426,-1375 1420,-1381 1414,-1381"/>
<text text-anchor="middle" x="1354" y="-1359.3" font-family="Times,serif" font-size="14.00">Camera Intrinsics</text>
</g>
<!-- Camera Intrinsics&#45;&gt;Data Association -->
<g id="edge5" class="edge">
<title>Camera Intrinsics&#45;&gt;Data Association</title>
<path fill="none" stroke="#bfbfbf" d="M1304.28,-1344.94C1294.03,-1341.91 1283.24,-1339.06 1273,-1337 1255.27,-1333.43 1204.15,-1342.4 1192,-1329 1169.62,-1304.3 1183.97,-1286.35 1192,-1254 1223.6,-1126.64 1330,-1124.22 1330,-993 1330,-993 1330,-993 1330,-548 1330,-483.19 1260.03,-445.69 1201.65,-425.69"/>
<polygon fill="#bfbfbf" stroke="#bfbfbf" points="1202.62,-422.32 1192.02,-422.5 1200.42,-428.96 1202.62,-422.32"/>
</g>
<!-- Camera Intrinsics&#45;&gt;Global Bundle Adjustment -->
<g id="edge13" class="edge">
<title>Camera Intrinsics&#45;&gt;Global Bundle Adjustment</title>
<path fill="none" stroke="#bfbfbf" d="M1404.81,-1344.97C1415.05,-1341.97 1425.8,-1339.14 1436,-1337 1450.89,-1333.88 1492.58,-1339.05 1504,-1329 1545.28,-1292.69 1534,-1263.97 1534,-1209 1534,-1209 1534,-1209 1534,-404 1534,-340.07 1479.32,-341.18 1421,-315 1363.19,-289.05 1293.68,-275.79 1236.45,-269.02"/>
<polygon fill="#bfbfbf" stroke="#bfbfbf" points="1236.61,-265.52 1226.28,-267.87 1235.82,-272.48 1236.61,-265.52"/>
</g>
<!-- Two&#45;View Bundle Adjustment -->
<g id="node29" class="node">
<title>Two&#45;View Bundle Adjustment</title>
<path fill="lightskyblue" stroke="black" d="M687.5,-1010C687.5,-1010 484.5,-1010 484.5,-1010 478.5,-1010 472.5,-1004 472.5,-998 472.5,-998 472.5,-986 472.5,-986 472.5,-980 478.5,-974 484.5,-974 484.5,-974 687.5,-974 687.5,-974 693.5,-974 699.5,-980 699.5,-986 699.5,-986 699.5,-998 699.5,-998 699.5,-1004 693.5,-1010 687.5,-1010"/>
<text text-anchor="middle" x="586" y="-988.3" font-family="Times,serif" font-size="14.00">Two&#45;View Bundle Adjustment</text>
</g>
<!-- Camera Intrinsics&#45;&gt;Two&#45;View Bundle Adjustment -->
<g id="edge48" class="edge">
<title>Camera Intrinsics&#45;&gt;Two&#45;View Bundle Adjustment</title>
<path fill="none" stroke="#bfbfbf" d="M1305.65,-1344.96C1295.01,-1341.81 1283.72,-1338.92 1273,-1337 1256.9,-1334.12 1138.36,-1339.71 1126,-1329 1084.89,-1293.39 1102,-1263.39 1102,-1209 1102,-1209 1102,-1209 1102,-1135 1102,-1094.55 1113.05,-1073.07 1083,-1046 1055.78,-1021.47 848.14,-1006.24 710,-998.71"/>
<polygon fill="#bfbfbf" stroke="#bfbfbf" points="709.94,-995.21 699.76,-998.16 709.56,-1002.2 709.94,-995.21"/>
</g>
<!-- Verifier -->
<g id="node37" class="node">
<title>Verifier</title>
<path fill="lightskyblue" stroke="black" d="M500,-1154C500,-1154 454,-1154 454,-1154 448,-1154 442,-1148 442,-1142 442,-1142 442,-1130 442,-1130 442,-1124 448,-1118 454,-1118 454,-1118 500,-1118 500,-1118 506,-1118 512,-1124 512,-1130 512,-1130 512,-1142 512,-1142 512,-1148 506,-1154 500,-1154"/>
<text text-anchor="middle" x="477" y="-1132.3" font-family="Times,serif" font-size="14.00">Verifier</text>
</g>
<!-- Camera Intrinsics&#45;&gt;Verifier -->
<g id="edge57" class="edge">
<title>Camera Intrinsics&#45;&gt;Verifier</title>
<path fill="none" stroke="#bfbfbf" d="M1305.66,-1344.87C1295.03,-1341.73 1283.73,-1338.86 1273,-1337 1191.91,-1322.97 1169.06,-1343.24 1088,-1329 869.67,-1290.66 620.84,-1195.59 521.43,-1155.41"/>
<polygon fill="#bfbfbf" stroke="#bfbfbf" points="522.58,-1152.1 512,-1151.58 519.95,-1158.58 522.58,-1152.1"/>
</g>
<!-- View&#45;Graph Estimator -->
<g id="node39" class="node">
<title>View&#45;Graph Estimator</title>
<path fill="lightskyblue" stroke="black" d="M952,-855C952,-855 800,-855 800,-855 794,-855 788,-849 788,-843 788,-843 788,-831 788,-831 788,-825 794,-819 800,-819 800,-819 952,-819 952,-819 958,-819 964,-825 964,-831 964,-831 964,-843 964,-843 964,-849 958,-855 952,-855"/>
<text text-anchor="middle" x="876" y="-833.3" font-family="Times,serif" font-size="14.00">View&#45;Graph Estimator</text>
</g>
<!-- Camera Intrinsics&#45;&gt;View&#45;Graph Estimator -->
<g id="edge63" class="edge">
<title>Camera Intrinsics&#45;&gt;View&#45;Graph Estimator</title>
<path fill="none" stroke="#bfbfbf" d="M1305.19,-1344.99C1294.68,-1341.88 1283.56,-1338.99 1273,-1337 1261.07,-1334.75 1173.11,-1337.03 1164,-1329 1115.88,-1286.57 1138.78,-1101.73 1107,-1046 1059.24,-962.24 965.63,-894.08 913.43,-860.55"/>
<polygon fill="#bfbfbf" stroke="#bfbfbf" points="915.12,-857.48 904.8,-855.08 911.38,-863.39 915.12,-857.48"/>
</g>
<!-- DetectorDescriptor -->
<g id="node7" class="node">
<title>DetectorDescriptor</title>
<path fill="lightskyblue" stroke="black" d="M386.5,-1453C386.5,-1453 255.5,-1453 255.5,-1453 249.5,-1453 243.5,-1447 243.5,-1441 243.5,-1441 243.5,-1429 243.5,-1429 243.5,-1423 249.5,-1417 255.5,-1417 255.5,-1417 386.5,-1417 386.5,-1417 392.5,-1417 398.5,-1423 398.5,-1429 398.5,-1429 398.5,-1441 398.5,-1441 398.5,-1447 392.5,-1453 386.5,-1453"/>
<text text-anchor="middle" x="321" y="-1431.3" font-family="Times,serif" font-size="14.00">DetectorDescriptor</text>
</g>
<!-- Keypoints -->
<g id="node8" class="node">
<title>Keypoints</title>
<path fill="gainsboro" stroke="black" d="M269,-1381C269,-1381 205,-1381 205,-1381 199,-1381 193,-1375 193,-1369 193,-1369 193,-1357 193,-1357 193,-1351 199,-1345 205,-1345 205,-1345 269,-1345 269,-1345 275,-1345 281,-1351 281,-1357 281,-1357 281,-1369 281,-1369 281,-1375 275,-1381 269,-1381"/>
<text text-anchor="middle" x="237" y="-1359.3" font-family="Times,serif" font-size="14.00">Keypoints</text>
</g>
<!-- DetectorDescriptor&#45;&gt;Keypoints -->
<g id="edge6" class="edge">
<title>DetectorDescriptor&#45;&gt;Keypoints</title>
<path fill="none" stroke="#bfbfbf" d="M300.24,-1416.7C289.76,-1407.97 276.89,-1397.24 265.5,-1387.75"/>
<polygon fill="#bfbfbf" stroke="#bfbfbf" points="267.45,-1384.82 257.53,-1381.1 262.97,-1390.19 267.45,-1384.82"/>
</g>
<!-- Descriptors -->
<g id="node9" class="node">
<title>Descriptors</title>
<path fill="gainsboro" stroke="black" d="M387,-1381C387,-1381 311,-1381 311,-1381 305,-1381 299,-1375 299,-1369 299,-1369 299,-1357 299,-1357 299,-1351 305,-1345 311,-1345 311,-1345 387,-1345 387,-1345 393,-1345 399,-1351 399,-1357 399,-1357 399,-1369 399,-1369 399,-1375 393,-1381 387,-1381"/>
<text text-anchor="middle" x="349" y="-1359.3" font-family="Times,serif" font-size="14.00">Descriptors</text>
</g>
<!-- DetectorDescriptor&#45;&gt;Descriptors -->
<g id="edge7" class="edge">
<title>DetectorDescriptor&#45;&gt;Descriptors</title>
<path fill="none" stroke="#bfbfbf" d="M327.92,-1416.7C331.07,-1408.81 334.88,-1399.3 338.38,-1390.55"/>
<polygon fill="#bfbfbf" stroke="#bfbfbf" points="341.69,-1391.69 342.16,-1381.1 335.19,-1389.09 341.69,-1391.69"/>
</g>
<!-- Matcher -->
<g id="node21" class="node">
<title>Matcher</title>
<path fill="lightskyblue" stroke="black" d="M389.5,-1298C389.5,-1298 336.5,-1298 336.5,-1298 330.5,-1298 324.5,-1292 324.5,-1286 324.5,-1286 324.5,-1274 324.5,-1274 324.5,-1268 330.5,-1262 336.5,-1262 336.5,-1262 389.5,-1262 389.5,-1262 395.5,-1262 401.5,-1268 401.5,-1274 401.5,-1274 401.5,-1286 401.5,-1286 401.5,-1292 395.5,-1298 389.5,-1298"/>
<text text-anchor="middle" x="363" y="-1276.3" font-family="Times,serif" font-size="14.00">Matcher</text>
</g>
<!-- Keypoints&#45;&gt;Matcher -->
<g id="edge26" class="edge">
<title>Keypoints&#45;&gt;Matcher</title>
<path fill="none" stroke="#bfbfbf" d="M263.72,-1344.82C282.35,-1332.85 307.39,-1316.75 327.67,-1303.71"/>
<polygon fill="#bfbfbf" stroke="#bfbfbf" points="329.8,-1306.51 336.32,-1298.15 326.01,-1300.62 329.8,-1306.51"/>
</g>
<!-- Keypoints&#45;&gt;Two&#45;View Bundle Adjustment -->
<g id="edge49" class="edge">
<title>Keypoints&#45;&gt;Two&#45;View Bundle Adjustment</title>
<path fill="none" stroke="#bfbfbf" d="M196.37,-1344.81C148.68,-1321.59 76,-1275.32 76,-1209 76,-1209 76,-1209 76,-1135 76,-1074.16 124.42,-1070.74 180,-1046 229.05,-1024.16 361.58,-1009.64 461.99,-1001.41"/>
<polygon fill="#bfbfbf" stroke="#bfbfbf" points="462.54,-1004.88 472.22,-1000.58 461.97,-997.9 462.54,-1004.88"/>
</g>
<!-- Keypoints&#45;&gt;Verifier -->
<g id="edge55" class="edge">
<title>Keypoints&#45;&gt;Verifier</title>
<path fill="none" stroke="#bfbfbf" d="M241.47,-1344.96C251.32,-1310.73 278.04,-1233.2 328,-1190 357.33,-1164.64 399.64,-1151.13 431.69,-1144.12"/>
<polygon fill="#bfbfbf" stroke="#bfbfbf" points="432.61,-1147.5 441.7,-1142.06 431.2,-1140.64 432.61,-1147.5"/>
</g>
<!-- Keypoints&#45;&gt;View&#45;Graph Estimator -->
<g id="edge65" class="edge">
<title>Keypoints&#45;&gt;View&#45;Graph Estimator</title>
<path fill="none" stroke="#bfbfbf" d="M192.88,-1357.08C153.97,-1351.93 101.03,-1342.66 85,-1329 41.4,-1291.85 38,-1266.28 38,-1209 38,-1209 38,-1209 38,-991 38,-919.62 99.29,-919.38 166,-894 275.14,-852.47 609.77,-841.74 777.71,-838.97"/>
<polygon fill="#bfbfbf" stroke="#bfbfbf" points="777.85,-842.46 787.79,-838.81 777.74,-835.46 777.85,-842.46"/>
</g>
<!-- Descriptors&#45;&gt;Matcher -->
<g id="edge27" class="edge">
<title>Descriptors&#45;&gt;Matcher</title>
<path fill="none" stroke="#bfbfbf" d="M351.97,-1344.82C353.81,-1334.19 356.21,-1320.31 358.3,-1308.2"/>
<polygon fill="#bfbfbf" stroke="#bfbfbf" points="361.78,-1308.6 360.04,-1298.15 354.88,-1307.41 361.78,-1308.6"/>
</g>
<!-- Images -->
<g id="node10" class="node">
<title>Images</title>
<path fill="gainsboro" stroke="black" d="M934,-1381C934,-1381 890,-1381 890,-1381 884,-1381 878,-1375 878,-1369 878,-1369 878,-1357 878,-1357 878,-1351 884,-1345 890,-1345 890,-1345 934,-1345 934,-1345 940,-1345 946,-1351 946,-1357 946,-1357 946,-1369 946,-1369 946,-1375 940,-1381 934,-1381"/>
<text text-anchor="middle" x="912" y="-1359.3" font-family="Times,serif" font-size="14.00">Images</text>
</g>
<!-- Images&#45;&gt;DetectorDescriptor -->
<g id="edge8" class="edge">
<title>Images&#45;&gt;DetectorDescriptor</title>
<path fill="none" stroke="#bfbfbf" d="M877.69,-1368.06C787.48,-1378.75 541.45,-1407.89 408.71,-1423.61"/>
<polygon fill="#bfbfbf" stroke="#bfbfbf" points="408.09,-1420.16 398.57,-1424.81 408.91,-1427.11 408.09,-1420.16"/>
</g>
<!-- Multi&#45;view Stereo -->
<g id="node23" class="node">
<title>Multi&#45;view Stereo</title>
<path fill="lightskyblue" stroke="black" d="M985,-124C985,-124 865,-124 865,-124 859,-124 853,-118 853,-112 853,-112 853,-100 853,-100 853,-94 859,-88 865,-88 865,-88 985,-88 985,-88 991,-88 997,-94 997,-100 997,-100 997,-112 997,-112 997,-118 991,-124 985,-124"/>
<text text-anchor="middle" x="925" y="-102.3" font-family="Times,serif" font-size="14.00">Multi&#45;view Stereo</text>
</g>
<!-- Images&#45;&gt;Multi&#45;view Stereo -->
<g id="edge30" class="edge">
<title>Images&#45;&gt;Multi&#45;view Stereo</title>
<path fill="none" stroke="#bfbfbf" d="M877.99,-1360.07C797.09,-1355.52 586.78,-1344.01 411,-1337 381.23,-1335.81 170.84,-1339.61 143,-1329 65.47,-1299.46 0,-1291.97 0,-1209 0,-1209 0,-1209 0,-260 0,-174.99 616.02,-126.83 842.63,-112"/>
<polygon fill="#bfbfbf" stroke="#bfbfbf" points="843.05,-115.48 852.8,-111.34 842.6,-108.49 843.05,-115.48"/>
</g>
<!-- Optimized Camera Poses -->
<g id="node12" class="node">
<title>Optimized Camera Poses</title>
<path fill="gainsboro" stroke="black" d="M1010.5,-207C1010.5,-207 839.5,-207 839.5,-207 833.5,-207 827.5,-201 827.5,-195 827.5,-195 827.5,-183 827.5,-183 827.5,-177 833.5,-171 839.5,-171 839.5,-171 1010.5,-171 1010.5,-171 1016.5,-171 1022.5,-177 1022.5,-183 1022.5,-183 1022.5,-195 1022.5,-195 1022.5,-201 1016.5,-207 1010.5,-207"/>
<text text-anchor="middle" x="925" y="-185.3" font-family="Times,serif" font-size="14.00">Optimized Camera Poses</text>
</g>
<!-- Global Bundle Adjustment&#45;&gt;Optimized Camera Poses -->
<g id="edge9" class="edge">
<title>Global Bundle Adjustment&#45;&gt;Optimized Camera Poses</title>
<path fill="none" stroke="#bfbfbf" d="M1075.57,-242.97C1047.77,-233.19 1012.66,-220.84 983.35,-210.52"/>
<polygon fill="#bfbfbf" stroke="#bfbfbf" points="984.24,-207.13 973.64,-207.11 981.92,-213.73 984.24,-207.13"/>
</g>
<!-- Optimized 3D Tracks -->
<g id="node13" class="node">
<title>Optimized 3D Tracks</title>
<path fill="gainsboro" stroke="black" d="M1195.5,-207C1195.5,-207 1052.5,-207 1052.5,-207 1046.5,-207 1040.5,-201 1040.5,-195 1040.5,-195 1040.5,-183 1040.5,-183 1040.5,-177 1046.5,-171 1052.5,-171 1052.5,-171 1195.5,-171 1195.5,-171 1201.5,-171 1207.5,-177 1207.5,-183 1207.5,-183 1207.5,-195 1207.5,-195 1207.5,-201 1201.5,-207 1195.5,-207"/>
<text text-anchor="middle" x="1124" y="-185.3" font-family="Times,serif" font-size="14.00">Optimized 3D Tracks</text>
</g>
<!-- Global Bundle Adjustment&#45;&gt;Optimized 3D Tracks -->
<g id="edge10" class="edge">
<title>Global Bundle Adjustment&#45;&gt;Optimized 3D Tracks</title>
<path fill="none" stroke="#bfbfbf" d="M1124,-242.7C1124,-234.98 1124,-225.71 1124,-217.11"/>
<polygon fill="#bfbfbf" stroke="#bfbfbf" points="1127.5,-217.1 1124,-207.1 1120.5,-217.1 1127.5,-217.1"/>
</g>
<!-- Optimized Camera Poses&#45;&gt;Multi&#45;view Stereo -->
<g id="edge31" class="edge">
<title>Optimized Camera Poses&#45;&gt;Multi&#45;view Stereo</title>
<path fill="none" stroke="#bfbfbf" d="M925,-170.82C925,-160.19 925,-146.31 925,-134.2"/>
<polygon fill="#bfbfbf" stroke="#bfbfbf" points="928.5,-134.15 925,-124.15 921.5,-134.15 928.5,-134.15"/>
</g>
<!-- Optimized 3D Tracks&#45;&gt;Multi&#45;view Stereo -->
<g id="edge32" class="edge">
<title>Optimized 3D Tracks&#45;&gt;Multi&#45;view Stereo</title>
<path fill="none" stroke="#bfbfbf" d="M1081.8,-170.82C1050.96,-158.27 1008.98,-141.18 976.21,-127.85"/>
<polygon fill="#bfbfbf" stroke="#bfbfbf" points="977.38,-124.54 966.8,-124.01 974.74,-131.03 977.38,-124.54"/>
</g>
<!-- Absolute Pose Priors -->
<g id="node14" class="node">
<title>Absolute Pose Priors</title>
<path fill="gainsboro" stroke="black" d="M1116,-1381C1116,-1381 976,-1381 976,-1381 970,-1381 964,-1375 964,-1369 964,-1369 964,-1357 964,-1357 964,-1351 970,-1345 976,-1345 976,-1345 1116,-1345 1116,-1345 1122,-1345 1128,-1351 1128,-1357 1128,-1357 1128,-1369 1128,-1369 1128,-1375 1122,-1381 1116,-1381"/>
<text text-anchor="middle" x="1046" y="-1359.3" font-family="Times,serif" font-size="14.00">Absolute Pose Priors</text>
</g>
<!-- Absolute Pose Priors&#45;&gt;Global Bundle Adjustment -->
<g id="edge11" class="edge">
<title>Absolute Pose Priors&#45;&gt;Global Bundle Adjustment</title>
<path fill="none" stroke="#bfbfbf" d="M1100.03,-1344.99C1112.39,-1341.75 1125.55,-1338.81 1138,-1337 1156.7,-1334.28 1463.83,-1341.5 1478,-1329 1518.45,-1293.33 1496,-1262.93 1496,-1209 1496,-1209 1496,-1209 1496,-404 1496,-346.63 1339.6,-303.96 1229.62,-281.04"/>
<polygon fill="#bfbfbf" stroke="#bfbfbf" points="1230.3,-277.61 1219.8,-279.02 1228.89,-284.46 1230.3,-277.61"/>
</g>
<!-- Absolute Pose Priors&#45;&gt;Translation Averaging -->
<g id="edge39" class="edge">
<title>Absolute Pose Priors&#45;&gt;Translation Averaging</title>
<path fill="none" stroke="#bfbfbf" d="M993.07,-1344.99C980.7,-1341.71 967.49,-1338.75 955,-1337 944.15,-1335.48 173.84,-1336.65 166,-1329 126.93,-1290.88 149,-892.59 149,-838 149,-838 149,-838 149,-692 149,-614.25 696.01,-570.58 923.54,-555.78"/>
<polygon fill="#bfbfbf" stroke="#bfbfbf" points="924.05,-559.26 933.8,-555.12 923.59,-552.27 924.05,-559.26"/>
</g>
<!-- Relative Pose Priors -->
<g id="node15" class="node">
<title>Relative Pose Priors</title>
<path fill="gainsboro" stroke="black" d="M1593.5,-1381C1593.5,-1381 1456.5,-1381 1456.5,-1381 1450.5,-1381 1444.5,-1375 1444.5,-1369 1444.5,-1369 1444.5,-1357 1444.5,-1357 1444.5,-1351 1450.5,-1345 1456.5,-1345 1456.5,-1345 1593.5,-1345 1593.5,-1345 1599.5,-1345 1605.5,-1351 1605.5,-1357 1605.5,-1357 1605.5,-1369 1605.5,-1369 1605.5,-1375 1599.5,-1381 1593.5,-1381"/>
<text text-anchor="middle" x="1525" y="-1359.3" font-family="Times,serif" font-size="14.00">Relative Pose Priors</text>
</g>
<!-- Relative Pose Priors&#45;&gt;Global Bundle Adjustment -->
<g id="edge12" class="edge">
<title>Relative Pose Priors&#45;&gt;Global Bundle Adjustment</title>
<path fill="none" stroke="#bfbfbf" d="M1534.06,-1344.63C1547.72,-1316.8 1572,-1260.13 1572,-1209 1572,-1209 1572,-1209 1572,-404 1572,-346.14 1529.07,-340.21 1477,-315 1435.55,-294.93 1323.26,-280.3 1236.35,-271.56"/>
<polygon fill="#bfbfbf" stroke="#bfbfbf" points="1236.45,-268.05 1226.15,-270.55 1235.76,-275.02 1236.45,-268.05"/>
</g>
<!-- Rotation Averaging -->
<g id="node25" class="node">
<title>Rotation Averaging</title>
<path fill="lightskyblue" stroke="black" d="M1214,-711C1214,-711 1084,-711 1084,-711 1078,-711 1072,-705 1072,-699 1072,-699 1072,-687 1072,-687 1072,-681 1078,-675 1084,-675 1084,-675 1214,-675 1214,-675 1220,-675 1226,-681 1226,-687 1226,-687 1226,-699 1226,-699 1226,-705 1220,-711 1214,-711"/>
<text text-anchor="middle" x="1149" y="-689.3" font-family="Times,serif" font-size="14.00">Rotation Averaging</text>
</g>
<!-- Relative Pose Priors&#45;&gt;Rotation Averaging -->
<g id="edge35" class="edge">
<title>Relative Pose Priors&#45;&gt;Rotation Averaging</title>
<path fill="none" stroke="#bfbfbf" d="M1471.17,-1344.97C1459.36,-1341.82 1446.85,-1338.92 1435,-1337 1417.76,-1334.2 1291.22,-1340.41 1278,-1329 1236.83,-1293.46 1254,-1263.39 1254,-1209 1254,-1209 1254,-1209 1254,-836 1254,-795.55 1258.32,-780.05 1235,-747 1226.13,-734.42 1213.23,-724.24 1200.12,-716.29"/>
<polygon fill="#bfbfbf" stroke="#bfbfbf" points="1201.47,-713.04 1191.05,-711.14 1198.02,-719.12 1201.47,-713.04"/>
</g>
<!-- Relative Pose Priors&#45;&gt;Translation Averaging -->
<g id="edge40" class="edge">
<title>Relative Pose Priors&#45;&gt;Translation Averaging</title>
<path fill="none" stroke="#bfbfbf" d="M1470.67,-1344.97C1459.01,-1341.86 1446.67,-1338.98 1435,-1337 1421.39,-1334.7 1321.2,-1338.3 1311,-1329 1271.09,-1292.63 1292,-1263 1292,-1209 1292,-1209 1292,-1209 1292,-692 1292,-611.01 1195.86,-576.12 1118.1,-561.15"/>
<polygon fill="#bfbfbf" stroke="#bfbfbf" points="1118.71,-557.7 1108.24,-559.34 1117.44,-564.59 1118.71,-557.7"/>
</g>
<!-- Relative Pose Priors&#45;&gt;Two&#45;View Bundle Adjustment -->
<g id="edge47" class="edge">
<title>Relative Pose Priors&#45;&gt;Two&#45;View Bundle Adjustment</title>
<path fill="none" stroke="#bfbfbf" d="M1471.19,-1344.89C1459.38,-1341.74 1446.85,-1338.86 1435,-1337 1413.58,-1333.63 1258.06,-1341 1240,-1329 1182.11,-1290.56 1163.7,-1086.17 1107,-1046 1075.3,-1023.54 853.74,-1007.45 709.94,-999.23"/>
<polygon fill="#bfbfbf" stroke="#bfbfbf" points="709.9,-995.72 699.72,-998.65 709.51,-1002.71 709.9,-995.72"/>
</g>
<!-- Image Loader -->
<g id="node16" class="node">
<title>Image Loader</title>
<path fill="lightskyblue" stroke="black" d="M1324.5,-1453C1324.5,-1453 1233.5,-1453 1233.5,-1453 1227.5,-1453 1221.5,-1447 1221.5,-1441 1221.5,-1441 1221.5,-1429 1221.5,-1429 1221.5,-1423 1227.5,-1417 1233.5,-1417 1233.5,-1417 1324.5,-1417 1324.5,-1417 1330.5,-1417 1336.5,-1423 1336.5,-1429 1336.5,-1429 1336.5,-1441 1336.5,-1441 1336.5,-1447 1330.5,-1453 1324.5,-1453"/>
<text text-anchor="middle" x="1279" y="-1431.3" font-family="Times,serif" font-size="14.00">Image Loader</text>
</g>
<!-- Image Loader&#45;&gt;Camera Intrinsics -->
<g id="edge18" class="edge">
<title>Image Loader&#45;&gt;Camera Intrinsics</title>
<path fill="none" stroke="#bfbfbf" d="M1297.54,-1416.7C1306.8,-1408.05 1318.16,-1397.45 1328.26,-1388.03"/>
<polygon fill="#bfbfbf" stroke="#bfbfbf" points="1330.75,-1390.49 1335.67,-1381.1 1325.98,-1385.37 1330.75,-1390.49"/>
</g>
<!-- Image Loader&#45;&gt;Images -->
<g id="edge17" class="edge">
<title>Image Loader&#45;&gt;Images</title>
<path fill="none" stroke="#bfbfbf" d="M1221.43,-1428.35C1158.13,-1421.31 1053.49,-1407.2 955.78,-1380.89"/>
<polygon fill="#bfbfbf" stroke="#bfbfbf" points="956.61,-1377.49 946.04,-1378.22 954.76,-1384.24 956.61,-1377.49"/>
</g>
<!-- Image Loader&#45;&gt;Absolute Pose Priors -->
<g id="edge21" class="edge">
<title>Image Loader&#45;&gt;Absolute Pose Priors</title>
<path fill="none" stroke="#bfbfbf" d="M1222.3,-1416.97C1189.32,-1407.06 1147.57,-1394.51 1112.97,-1384.12"/>
<polygon fill="#bfbfbf" stroke="#bfbfbf" points="1113.54,-1380.64 1102.95,-1381.11 1111.52,-1387.34 1113.54,-1380.64"/>
</g>
<!-- Image Loader&#45;&gt;Relative Pose Priors -->
<g id="edge20" class="edge">
<title>Image Loader&#45;&gt;Relative Pose Priors</title>
<path fill="none" stroke="#bfbfbf" d="M1336.68,-1417.59C1372.13,-1407.5 1417.8,-1394.5 1455.28,-1383.84"/>
<polygon fill="#bfbfbf" stroke="#bfbfbf" points="1456.46,-1387.14 1465.12,-1381.04 1454.54,-1380.41 1456.46,-1387.14"/>
</g>
<!-- Image Shapes -->
<g id="node17" class="node">
<title>Image Shapes</title>
<path fill="gainsboro" stroke="black" d="M1251.5,-1381C1251.5,-1381 1158.5,-1381 1158.5,-1381 1152.5,-1381 1146.5,-1375 1146.5,-1369 1146.5,-1369 1146.5,-1357 1146.5,-1357 1146.5,-1351 1152.5,-1345 1158.5,-1345 1158.5,-1345 1251.5,-1345 1251.5,-1345 1257.5,-1345 1263.5,-1351 1263.5,-1357 1263.5,-1357 1263.5,-1369 1263.5,-1369 1263.5,-1375 1257.5,-1381 1251.5,-1381"/>
<text text-anchor="middle" x="1205" y="-1359.3" font-family="Times,serif" font-size="14.00">Image Shapes</text>
</g>
<!-- Image Loader&#45;&gt;Image Shapes -->
<g id="edge19" class="edge">
<title>Image Loader&#45;&gt;Image Shapes</title>
<path fill="none" stroke="#bfbfbf" d="M1260.71,-1416.7C1251.57,-1408.05 1240.36,-1397.45 1230.4,-1388.03"/>
<polygon fill="#bfbfbf" stroke="#bfbfbf" points="1232.75,-1385.43 1223.08,-1381.1 1227.94,-1390.52 1232.75,-1385.43"/>
</g>
<!-- Image Retriever -->
<g id="node19" class="node">
<title>Image Retriever</title>
<path fill="lightskyblue" stroke="black" d="M1744.5,-1381C1744.5,-1381 1635.5,-1381 1635.5,-1381 1629.5,-1381 1623.5,-1375 1623.5,-1369 1623.5,-1369 1623.5,-1357 1623.5,-1357 1623.5,-1351 1629.5,-1345 1635.5,-1345 1635.5,-1345 1744.5,-1345 1744.5,-1345 1750.5,-1345 1756.5,-1351 1756.5,-1357 1756.5,-1357 1756.5,-1369 1756.5,-1369 1756.5,-1375 1750.5,-1381 1744.5,-1381"/>
<text text-anchor="middle" x="1690" y="-1359.3" font-family="Times,serif" font-size="14.00">Image Retriever</text>
</g>
<!-- Image Loader&#45;&gt;Image Retriever -->
<g id="edge24" class="edge">
<title>Image Loader&#45;&gt;Image Retriever</title>
<path fill="none" stroke="#bfbfbf" d="M1336.57,-1426.11C1401.56,-1416.93 1510.63,-1400.73 1613.46,-1381.24"/>
<polygon fill="#bfbfbf" stroke="#bfbfbf" points="1614.23,-1384.65 1623.39,-1379.34 1612.91,-1377.78 1614.23,-1384.65"/>
</g>
<!-- Image Shapes&#45;&gt;Matcher -->
<g id="edge28" class="edge">
<title>Image Shapes&#45;&gt;Matcher</title>
<path fill="none" stroke="#bfbfbf" d="M1165.35,-1344.97C1156.2,-1341.73 1146.39,-1338.8 1137,-1337 1069.32,-1324.05 895.77,-1333.44 827,-1329 675.13,-1319.2 496.21,-1297.92 411.78,-1287.3"/>
<polygon fill="#bfbfbf" stroke="#bfbfbf" points="412.08,-1283.81 401.72,-1286.03 411.2,-1290.76 412.08,-1283.81"/>
</g>
<!-- Source Directory -->
<g id="node18" class="node">
<title>Source Directory</title>
<ellipse fill="none" stroke="black" cx="1279" cy="-1510" rx="89.88" ry="18"/>
<text text-anchor="middle" x="1279" y="-1506.3" font-family="Times,serif" font-size="14.00">Source Directory</text>
</g>
<!-- Source Directory&#45;&gt;Image Loader -->
<g id="edge22" class="edge">
<title>Source Directory&#45;&gt;Image Loader</title>
<path fill="none" stroke="#bfbfbf" d="M1279,-1491.7C1279,-1483.25 1279,-1472.87 1279,-1463.37"/>
<polygon fill="#bfbfbf" stroke="#bfbfbf" points="1282.5,-1463.18 1279,-1453.18 1275.5,-1463.18 1282.5,-1463.18"/>
</g>
<!-- Image Pair Indices -->
<g id="node20" class="node">
<title>Image Pair Indices</title>
<path fill="gainsboro" stroke="black" d="M1456.5,-1298C1456.5,-1298 1331.5,-1298 1331.5,-1298 1325.5,-1298 1319.5,-1292 1319.5,-1286 1319.5,-1286 1319.5,-1274 1319.5,-1274 1319.5,-1268 1325.5,-1262 1331.5,-1262 1331.5,-1262 1456.5,-1262 1456.5,-1262 1462.5,-1262 1468.5,-1268 1468.5,-1274 1468.5,-1274 1468.5,-1286 1468.5,-1286 1468.5,-1292 1462.5,-1298 1456.5,-1298"/>
<text text-anchor="middle" x="1394" y="-1276.3" font-family="Times,serif" font-size="14.00">Image Pair Indices</text>
</g>
<!-- Image Retriever&#45;&gt;Image Pair Indices -->
<g id="edge23" class="edge">
<title>Image Retriever&#45;&gt;Image Pair Indices</title>
<path fill="none" stroke="#bfbfbf" d="M1640.54,-1344.94C1632.05,-1342.18 1623.3,-1339.43 1615,-1337 1569.55,-1323.69 1518.3,-1310.58 1476.61,-1300.4"/>
<polygon fill="#bfbfbf" stroke="#bfbfbf" points="1477.32,-1296.97 1466.78,-1298.01 1475.67,-1303.78 1477.32,-1296.97"/>
</g>
<!-- Putative Correspondences -->
<g id="node22" class="node">
<title>Putative Correspondences</title>
<path fill="gainsboro" stroke="black" d="M529.5,-1226C529.5,-1226 348.5,-1226 348.5,-1226 342.5,-1226 336.5,-1220 336.5,-1214 336.5,-1214 336.5,-1202 336.5,-1202 336.5,-1196 342.5,-1190 348.5,-1190 348.5,-1190 529.5,-1190 529.5,-1190 535.5,-1190 541.5,-1196 541.5,-1202 541.5,-1202 541.5,-1214 541.5,-1214 541.5,-1220 535.5,-1226 529.5,-1226"/>
<text text-anchor="middle" x="439" y="-1204.3" font-family="Times,serif" font-size="14.00">Putative Correspondences</text>
</g>
<!-- Matcher&#45;&gt;Putative Correspondences -->
<g id="edge25" class="edge">
<title>Matcher&#45;&gt;Putative Correspondences</title>
<path fill="none" stroke="#bfbfbf" d="M381.79,-1261.7C391.17,-1253.05 402.68,-1242.45 412.91,-1233.03"/>
<polygon fill="#bfbfbf" stroke="#bfbfbf" points="415.45,-1235.45 420.43,-1226.1 410.7,-1230.3 415.45,-1235.45"/>
</g>
<!-- Putative Correspondences&#45;&gt;Verifier -->
<g id="edge56" class="edge">
<title>Putative Correspondences&#45;&gt;Verifier</title>
<path fill="none" stroke="#bfbfbf" d="M448.39,-1189.7C452.76,-1181.64 458.06,-1171.89 462.9,-1162.98"/>
<polygon fill="#bfbfbf" stroke="#bfbfbf" points="466.02,-1164.56 467.71,-1154.1 459.87,-1161.22 466.02,-1164.56"/>
</g>
<!-- Dense Colored 3D Point Cloud -->
<g id="node24" class="node">
<title>Dense Colored 3D Point Cloud</title>
<path fill="gainsboro" stroke="black" d="M1029.5,-52C1029.5,-52 820.5,-52 820.5,-52 814.5,-52 808.5,-46 808.5,-40 808.5,-40 808.5,-28 808.5,-28 808.5,-22 814.5,-16 820.5,-16 820.5,-16 1029.5,-16 1029.5,-16 1035.5,-16 1041.5,-22 1041.5,-28 1041.5,-28 1041.5,-40 1041.5,-40 1041.5,-46 1035.5,-52 1029.5,-52"/>
<text text-anchor="middle" x="925" y="-30.3" font-family="Times,serif" font-size="14.00">Dense Colored 3D Point Cloud</text>
</g>
<!-- Multi&#45;view Stereo&#45;&gt;Dense Colored 3D Point Cloud -->
<g id="edge29" class="edge">
<title>Multi&#45;view Stereo&#45;&gt;Dense Colored 3D Point Cloud</title>
<path fill="none" stroke="#bfbfbf" d="M925,-87.7C925,-79.98 925,-70.71 925,-62.11"/>
<polygon fill="#bfbfbf" stroke="#bfbfbf" points="928.5,-62.1 925,-52.1 921.5,-62.1 928.5,-62.1"/>
</g>
<!-- Rotation Averaging&#45;&gt;Global Rotations -->
<g id="edge33" class="edge">
<title>Rotation Averaging&#45;&gt;Global Rotations</title>
<path fill="none" stroke="#bfbfbf" d="M1151.22,-674.7C1152.22,-666.98 1153.41,-657.71 1154.51,-649.11"/>
<polygon fill="#bfbfbf" stroke="#bfbfbf" points="1158,-649.47 1155.8,-639.1 1151.05,-648.58 1158,-649.47"/>
</g>
<!-- View&#45;Graph Relative Rotations -->
<g id="node26" class="node">
<title>View&#45;Graph Relative Rotations</title>
<path fill="gainsboro" stroke="black" d="M1214,-783C1214,-783 1002,-783 1002,-783 996,-783 990,-777 990,-771 990,-771 990,-759 990,-759 990,-753 996,-747 1002,-747 1002,-747 1214,-747 1214,-747 1220,-747 1226,-753 1226,-759 1226,-759 1226,-771 1226,-771 1226,-777 1220,-783 1214,-783"/>
<text text-anchor="middle" x="1108" y="-761.3" font-family="Times,serif" font-size="14.00">View&#45;Graph Relative Rotations</text>
</g>
<!-- View&#45;Graph Relative Rotations&#45;&gt;Rotation Averaging -->
<g id="edge34" class="edge">
<title>View&#45;Graph Relative Rotations&#45;&gt;Rotation Averaging</title>
<path fill="none" stroke="#bfbfbf" d="M1118.13,-746.7C1122.85,-738.64 1128.56,-728.89 1133.78,-719.98"/>
<polygon fill="#bfbfbf" stroke="#bfbfbf" points="1136.95,-721.5 1138.98,-711.1 1130.91,-717.96 1136.95,-721.5"/>
</g>
<!-- Translation Averaging&#45;&gt;Global Translations -->
<g id="edge36" class="edge">
<title>Translation Averaging&#45;&gt;Global Translations</title>
<path fill="none" stroke="#bfbfbf" d="M1023.22,-530.7C1024.22,-522.98 1025.41,-513.71 1026.51,-505.11"/>
<polygon fill="#bfbfbf" stroke="#bfbfbf" points="1030,-505.47 1027.8,-495.1 1023.05,-504.58 1030,-505.47"/>
</g>
<!-- View&#45;Graph Relative Translations -->
<g id="node28" class="node">
<title>View&#45;Graph Relative Translations</title>
<path fill="gainsboro" stroke="black" d="M1022,-711C1022,-711 790,-711 790,-711 784,-711 778,-705 778,-699 778,-699 778,-687 778,-687 778,-681 784,-675 790,-675 790,-675 1022,-675 1022,-675 1028,-675 1034,-681 1034,-687 1034,-687 1034,-699 1034,-699 1034,-705 1028,-711 1022,-711"/>
<text text-anchor="middle" x="906" y="-689.3" font-family="Times,serif" font-size="14.00">View&#45;Graph Relative Translations</text>
</g>
<!-- View&#45;Graph Relative Translations&#45;&gt;Translation Averaging -->
<g id="edge37" class="edge">
<title>View&#45;Graph Relative Translations&#45;&gt;Translation Averaging</title>
<path fill="none" stroke="#bfbfbf" d="M870.83,-674.94C857.02,-666.25 842.65,-654.26 835,-639 827.83,-624.7 825.36,-615.77 835,-603 846.59,-587.65 885.04,-575.43 924,-566.6"/>
<polygon fill="#bfbfbf" stroke="#bfbfbf" points="924.88,-569.99 933.9,-564.44 923.38,-563.16 924.88,-569.99"/>
</g>
<!-- Optimized Relative Rotation -->
<g id="node30" class="node">
<title>Optimized Relative Rotation</title>
<path fill="gainsboro" stroke="black" d="M842,-938C842,-938 648,-938 648,-938 642,-938 636,-932 636,-926 636,-926 636,-914 636,-914 636,-908 642,-902 648,-902 648,-902 842,-902 842,-902 848,-902 854,-908 854,-914 854,-914 854,-926 854,-926 854,-932 848,-938 842,-938"/>
<text text-anchor="middle" x="745" y="-916.3" font-family="Times,serif" font-size="14.00">Optimized Relative Rotation</text>
</g>
<!-- Two&#45;View Bundle Adjustment&#45;&gt;Optimized Relative Rotation -->
<g id="edge41" class="edge">
<title>Two&#45;View Bundle Adjustment&#45;&gt;Optimized Relative Rotation</title>
<path fill="none" stroke="#bfbfbf" d="M624.9,-973.88C646.63,-964.31 673.9,-952.3 696.96,-942.15"/>
<polygon fill="#bfbfbf" stroke="#bfbfbf" points="698.49,-945.3 706.23,-938.07 695.67,-938.89 698.49,-945.3"/>
</g>
<!-- Optimized Relative Translation -->
<g id="node31" class="node">
<title>Optimized Relative Translation</title>
<path fill="gainsboro" stroke="black" d="M404.5,-938C404.5,-938 189.5,-938 189.5,-938 183.5,-938 177.5,-932 177.5,-926 177.5,-926 177.5,-914 177.5,-914 177.5,-908 183.5,-902 189.5,-902 189.5,-902 404.5,-902 404.5,-902 410.5,-902 416.5,-908 416.5,-914 416.5,-914 416.5,-926 416.5,-926 416.5,-932 410.5,-938 404.5,-938"/>
<text text-anchor="middle" x="297" y="-916.3" font-family="Times,serif" font-size="14.00">Optimized Relative Translation</text>
</g>
<!-- Two&#45;View Bundle Adjustment&#45;&gt;Optimized Relative Translation -->
<g id="edge42" class="edge">
<title>Two&#45;View Bundle Adjustment&#45;&gt;Optimized Relative Translation</title>
<path fill="none" stroke="#bfbfbf" d="M515.67,-973.97C473.9,-963.85 420.78,-950.98 377.35,-940.46"/>
<polygon fill="#bfbfbf" stroke="#bfbfbf" points="377.94,-937 367.39,-938.05 376.29,-943.81 377.94,-937"/>
</g>
<!-- Inlier Correspondences -->
<g id="node32" class="node">
<title>Inlier Correspondences</title>
<path fill="gainsboro" stroke="black" d="M605.5,-938C605.5,-938 446.5,-938 446.5,-938 440.5,-938 434.5,-932 434.5,-926 434.5,-926 434.5,-914 434.5,-914 434.5,-908 440.5,-902 446.5,-902 446.5,-902 605.5,-902 605.5,-902 611.5,-902 617.5,-908 617.5,-914 617.5,-914 617.5,-926 617.5,-926 617.5,-932 611.5,-938 605.5,-938"/>
<text text-anchor="middle" x="526" y="-916.3" font-family="Times,serif" font-size="14.00">Inlier Correspondences</text>
</g>
<!-- Two&#45;View Bundle Adjustment&#45;&gt;Inlier Correspondences -->
<g id="edge43" class="edge">
<title>Two&#45;View Bundle Adjustment&#45;&gt;Inlier Correspondences</title>
<path fill="none" stroke="#bfbfbf" d="M571.17,-973.7C563.98,-965.3 555.2,-955.07 547.31,-945.86"/>
<polygon fill="#bfbfbf" stroke="#bfbfbf" points="549.83,-943.42 540.66,-938.1 544.51,-947.97 549.83,-943.42"/>
</g>
<!-- Optimized Relative Rotation&#45;&gt;View&#45;Graph Estimator -->
<g id="edge61" class="edge">
<title>Optimized Relative Rotation&#45;&gt;View&#45;Graph Estimator</title>
<path fill="none" stroke="#bfbfbf" d="M772.78,-901.82C792.23,-889.79 818.42,-873.6 839.55,-860.54"/>
<polygon fill="#bfbfbf" stroke="#bfbfbf" points="841.59,-863.39 848.26,-855.15 837.91,-857.44 841.59,-863.39"/>
</g>
<!-- Optimized Relative Translation&#45;&gt;View&#45;Graph Estimator -->
<g id="edge62" class="edge">
<title>Optimized Relative Translation&#45;&gt;View&#45;Graph Estimator</title>
<path fill="none" stroke="#bfbfbf" d="M380.47,-901.97C395.59,-899.13 411.24,-896.35 426,-894 546.66,-874.82 686.39,-858.32 777.73,-848.29"/>
<polygon fill="#bfbfbf" stroke="#bfbfbf" points="778.24,-851.76 787.8,-847.19 777.48,-844.8 778.24,-851.76"/>
</g>
<!-- Inlier Correspondences&#45;&gt;View&#45;Graph Estimator -->
<g id="edge64" class="edge">
<title>Inlier Correspondences&#45;&gt;View&#45;Graph Estimator</title>
<path fill="none" stroke="#bfbfbf" d="M593.86,-901.99C604.93,-899.28 616.28,-896.53 627,-894 680.44,-881.38 740.5,-867.85 788.24,-857.26"/>
<polygon fill="#bfbfbf" stroke="#bfbfbf" points="789.23,-860.62 798.23,-855.04 787.71,-853.79 789.23,-860.62"/>
</g>
<!-- Relative Rotation -->
<g id="node33" class="node">
<title>Relative Rotation</title>
<path fill="gainsboro" stroke="black" d="M535,-1082C535,-1082 419,-1082 419,-1082 413,-1082 407,-1076 407,-1070 407,-1070 407,-1058 407,-1058 407,-1052 413,-1046 419,-1046 419,-1046 535,-1046 535,-1046 541,-1046 547,-1052 547,-1058 547,-1058 547,-1070 547,-1070 547,-1076 541,-1082 535,-1082"/>
<text text-anchor="middle" x="477" y="-1060.3" font-family="Times,serif" font-size="14.00">Relative Rotation</text>
</g>
<!-- Relative Rotation&#45;&gt;Two&#45;View Bundle Adjustment -->
<g id="edge44" class="edge">
<title>Relative Rotation&#45;&gt;Two&#45;View Bundle Adjustment</title>
<path fill="none" stroke="#bfbfbf" d="M503.66,-1045.88C517.78,-1036.81 535.31,-1025.55 550.56,-1015.76"/>
<polygon fill="#bfbfbf" stroke="#bfbfbf" points="552.71,-1018.54 559.23,-1010.19 548.93,-1012.65 552.71,-1018.54"/>
</g>
<!-- Relative Translation -->
<g id="node34" class="node">
<title>Relative Translation</title>
<path fill="gainsboro" stroke="black" d="M714.5,-1082C714.5,-1082 577.5,-1082 577.5,-1082 571.5,-1082 565.5,-1076 565.5,-1070 565.5,-1070 565.5,-1058 565.5,-1058 565.5,-1052 571.5,-1046 577.5,-1046 577.5,-1046 714.5,-1046 714.5,-1046 720.5,-1046 726.5,-1052 726.5,-1058 726.5,-1058 726.5,-1070 726.5,-1070 726.5,-1076 720.5,-1082 714.5,-1082"/>
<text text-anchor="middle" x="646" y="-1060.3" font-family="Times,serif" font-size="14.00">Relative Translation</text>
</g>
<!-- Relative Translation&#45;&gt;Two&#45;View Bundle Adjustment -->
<g id="edge45" class="edge">
<title>Relative Translation&#45;&gt;Two&#45;View Bundle Adjustment</title>
<path fill="none" stroke="#bfbfbf" d="M631.17,-1045.7C623.98,-1037.3 615.2,-1027.07 607.31,-1017.86"/>
<polygon fill="#bfbfbf" stroke="#bfbfbf" points="609.83,-1015.42 600.66,-1010.1 604.51,-1019.97 609.83,-1015.42"/>
</g>
<!-- Triangulated Points -->
<g id="node35" class="node">
<title>Triangulated Points</title>
<ellipse fill="none" stroke="black" cx="972" cy="-1064" rx="102.08" ry="18"/>
<text text-anchor="middle" x="972" y="-1060.3" font-family="Times,serif" font-size="14.00">Triangulated Points</text>
</g>
<!-- Triangulated Points&#45;&gt;Two&#45;View Bundle Adjustment -->
<g id="edge46" class="edge">
<title>Triangulated Points&#45;&gt;Two&#45;View Bundle Adjustment</title>
<path fill="none" stroke="#bfbfbf" d="M903.44,-1050.57C844.17,-1039.82 757.63,-1024.12 689.86,-1011.84"/>
<polygon fill="#bfbfbf" stroke="#bfbfbf" points="690.47,-1008.39 680.01,-1010.05 689.22,-1015.28 690.47,-1008.39"/>
</g>
<!-- Verified Correspondences -->
<g id="node36" class="node">
<title>Verified Correspondences</title>
<path fill="gainsboro" stroke="black" d="M377,-1082C377,-1082 201,-1082 201,-1082 195,-1082 189,-1076 189,-1070 189,-1070 189,-1058 189,-1058 189,-1052 195,-1046 201,-1046 201,-1046 377,-1046 377,-1046 383,-1046 389,-1052 389,-1058 389,-1058 389,-1070 389,-1070 389,-1076 383,-1082 377,-1082"/>
<text text-anchor="middle" x="289" y="-1060.3" font-family="Times,serif" font-size="14.00">Verified Correspondences</text>
</g>
<!-- Verified Correspondences&#45;&gt;Two&#45;View Bundle Adjustment -->
<g id="edge50" class="edge">
<title>Verified Correspondences&#45;&gt;Two&#45;View Bundle Adjustment</title>
<path fill="none" stroke="#bfbfbf" d="M361.27,-1045.97C404.3,-1035.83 459.03,-1022.93 503.7,-1012.4"/>
<polygon fill="#bfbfbf" stroke="#bfbfbf" points="504.73,-1015.75 513.66,-1010.05 503.12,-1008.94 504.73,-1015.75"/>
</g>
<!-- Verifier&#45;&gt;Relative Rotation -->
<g id="edge51" class="edge">
<title>Verifier&#45;&gt;Relative Rotation</title>
<path fill="none" stroke="#bfbfbf" d="M477,-1117.7C477,-1109.98 477,-1100.71 477,-1092.11"/>
<polygon fill="#bfbfbf" stroke="#bfbfbf" points="480.5,-1092.1 477,-1082.1 473.5,-1092.1 480.5,-1092.1"/>
</g>
<!-- Verifier&#45;&gt;Relative Translation -->
<g id="edge52" class="edge">
<title>Verifier&#45;&gt;Relative Translation</title>
<path fill="none" stroke="#bfbfbf" d="M512.02,-1120.5C536.15,-1110.5 568.59,-1097.06 595.5,-1085.92"/>
<polygon fill="#bfbfbf" stroke="#bfbfbf" points="596.87,-1089.14 604.77,-1082.08 594.19,-1082.67 596.87,-1089.14"/>
</g>
<!-- Verifier&#45;&gt;Verified Correspondences -->
<g id="edge53" class="edge">
<title>Verifier&#45;&gt;Verified Correspondences</title>
<path fill="none" stroke="#bfbfbf" d="M441.64,-1121.83C414.26,-1111.64 375.84,-1097.33 344.39,-1085.62"/>
<polygon fill="#bfbfbf" stroke="#bfbfbf" points="345.47,-1082.29 334.88,-1082.08 343.03,-1088.85 345.47,-1082.29"/>
</g>
<!-- Inlier Ratio -->
<g id="node38" class="node">
<title>Inlier Ratio</title>
<path fill="gainsboro" stroke="black" d="M829.5,-1082C829.5,-1082 756.5,-1082 756.5,-1082 750.5,-1082 744.5,-1076 744.5,-1070 744.5,-1070 744.5,-1058 744.5,-1058 744.5,-1052 750.5,-1046 756.5,-1046 756.5,-1046 829.5,-1046 829.5,-1046 835.5,-1046 841.5,-1052 841.5,-1058 841.5,-1058 841.5,-1070 841.5,-1070 841.5,-1076 835.5,-1082 829.5,-1082"/>
<text text-anchor="middle" x="793" y="-1060.3" font-family="Times,serif" font-size="14.00">Inlier Ratio</text>
</g>
<!-- Verifier&#45;&gt;Inlier Ratio -->
<g id="edge54" class="edge">
<title>Verifier&#45;&gt;Inlier Ratio</title>
<path fill="none" stroke="#bfbfbf" d="M512.41,-1128.78C560.64,-1120.07 649.82,-1103.2 734.49,-1082.28"/>
<polygon fill="#bfbfbf" stroke="#bfbfbf" points="735.4,-1085.66 744.26,-1079.84 733.71,-1078.87 735.4,-1085.66"/>
</g>
<!-- View&#45;Graph Estimator&#45;&gt;View&#45;Graph Correspondences -->
<g id="edge60" class="edge">
<title>View&#45;Graph Estimator&#45;&gt;View&#45;Graph Correspondences</title>
<path fill="none" stroke="#bfbfbf" d="M894.16,-818.88C914.48,-800.14 948.79,-769.74 981,-747 1007.03,-728.63 1027.1,-738.61 1043,-711 1050.98,-697.13 1050.76,-688.99 1043,-675 1035.87,-662.15 1024.19,-652.01 1011.73,-644.19"/>
<polygon fill="#bfbfbf" stroke="#bfbfbf" points="1013.44,-641.13 1003.03,-639.14 1009.92,-647.19 1013.44,-641.13"/>
</g>
<!-- View&#45;Graph Estimator&#45;&gt;View&#45;Graph Relative Rotations -->
<g id="edge58" class="edge">
<title>View&#45;Graph Estimator&#45;&gt;View&#45;Graph Relative Rotations</title>
<path fill="none" stroke="#bfbfbf" d="M932.46,-818.97C965.3,-809.06 1006.87,-796.51 1041.31,-786.12"/>
<polygon fill="#bfbfbf" stroke="#bfbfbf" points="1042.73,-789.35 1051.29,-783.11 1040.71,-782.65 1042.73,-789.35"/>
</g>
<!-- View&#45;Graph Estimator&#45;&gt;View&#45;Graph Relative Translations -->
<g id="edge59" class="edge">
<title>View&#45;Graph Estimator&#45;&gt;View&#45;Graph Relative Translations</title>
<path fill="none" stroke="#bfbfbf" d="M879.62,-818.87C884.75,-794.56 894.21,-749.82 900.29,-721.01"/>
<polygon fill="#bfbfbf" stroke="#bfbfbf" points="903.73,-721.7 902.37,-711.19 896.88,-720.25 903.73,-721.7"/>
</g>
</g>
</svg>
