<?xml version="1.0" encoding="UTF-8" standalone="no"?>
<!DOCTYPE svg PUBLIC "-//W3C//DTD SVG 1.1//EN"
 "http://www.w3.org/Graphics/SVG/1.1/DTD/svg11.dtd">
<!-- Generated by graphviz version 5.0.1 (20220821.0811)
 -->
<!-- Title: G Pages: 1 -->
<svg width="1781pt" height="1536pt"
 viewBox="0.00 0.00 1781.00 1536.00" xmlns="http://www.w3.org/2000/svg" xmlns:xlink="http://www.w3.org/1999/xlink">
<g id="graph0" class="graph" transform="scale(1 1) rotate(0) translate(4 1532)">
<title>G</title>
<polygon fill="white" stroke="none" points="-4,4 -4,-1532 1777,-1532 1777,4 -4,4"/>
<g id="clust1" class="cluster">
<title>cluster_Loader and Retriever</title>
<polygon fill="white" stroke="black" points="870,-1254 870,-1484 1765,-1484 1765,-1254 870,-1254"/>
<text text-anchor="middle" x="1317.5" y="-1468.8" font-family="Veranda" font-size="14.00">Loader and Retriever</text>
</g>
<g id="clust2" class="cluster">
<title>cluster_Two&#45;View Estimator</title>
<polygon fill="white" stroke="black" points="170,-894 170,-1329 862,-1329 862,-894 170,-894"/>
<text text-anchor="middle" x="516" y="-1313.8" font-family="Veranda" font-size="14.00">Two&#45;View Estimator</text>
</g>
<g id="clust3" class="cluster">
<title>cluster_Dense Reconstruction</title>
<polygon fill="white" stroke="black" points="801,-8 801,-155 1049,-155 1049,-8 801,-8"/>
<text text-anchor="middle" x="925" y="-139.8" font-family="Veranda" font-size="14.00">Dense Reconstruction</text>
</g>
<g id="clust4" class="cluster">
<title>cluster_Sparse Reconstruction</title>
<polygon fill="white" stroke="black" points="768,-163 768,-886 1234,-886 1234,-163 768,-163"/>
<text text-anchor="middle" x="1001" y="-870.8" font-family="Veranda" font-size="14.00">Sparse Reconstruction</text>
</g>
<g id="clust5" class="cluster">
<title>cluster_Feature Extractor</title>
<polygon fill="white" stroke="black" points="192,-1337 192,-1484 414,-1484 414,-1337 192,-1337"/>
<text text-anchor="middle" x="303" y="-1468.8" font-family="Veranda" font-size="14.00">Feature Extractor</text>
</g>
<!-- Data Association -->
<g id="node1" class="node">
<title>Data Association</title>
<path fill="lightskyblue" stroke="black" d="M1180,-423C1180,-423 1068,-423 1068,-423 1062,-423 1056,-417 1056,-411 1056,-411 1056,-399 1056,-399 1056,-393 1062,-387 1068,-387 1068,-387 1180,-387 1180,-387 1186,-387 1192,-393 1192,-399 1192,-399 1192,-411 1192,-411 1192,-417 1186,-423 1180,-423"/>
<text text-anchor="middle" x="1124" y="-401.3" font-family="Times,serif" font-size="14.00">Data Association</text>
</g>
<!-- 3D Tracks -->
<g id="node2" class="node">
<title>3D Tracks</title>
<path fill="gainsboro" stroke="black" d="M1156.5,-351C1156.5,-351 1091.5,-351 1091.5,-351 1085.5,-351 1079.5,-345 1079.5,-339 1079.5,-339 1079.5,-327 1079.5,-327 1079.5,-321 1085.5,-315 1091.5,-315 1091.5,-315 1156.5,-315 1156.5,-315 1162.5,-315 1168.5,-321 1168.5,-327 1168.5,-327 1168.5,-339 1168.5,-339 1168.5,-345 1162.5,-351 1156.5,-351"/>
<text text-anchor="middle" x="1124" y="-329.3" font-family="Times,serif" font-size="14.00">3D Tracks</text>
</g>
<!-- Data Association&#45;&gt;3D Tracks -->
<g id="edge1" class="edge">
<title>Data Association&#45;&gt;3D Tracks</title>
<path fill="none" stroke="#bfbfbf" d="M1124,-386.7C1124,-378.98 1124,-369.71 1124,-361.11"/>
<polygon fill="#bfbfbf" stroke="#bfbfbf" points="1127.5,-361.1 1124,-351.1 1120.5,-361.1 1127.5,-361.1"/>
</g>
<!-- Global Bundle Adjustment -->
<g id="node11" class="node">
<title>Global Bundle Adjustment</title>
<path fill="lightskyblue" stroke="black" d="M1214,-279C1214,-279 1034,-279 1034,-279 1028,-279 1022,-273 1022,-267 1022,-267 1022,-255 1022,-255 1022,-249 1028,-243 1034,-243 1034,-243 1214,-243 1214,-243 1220,-243 1226,-249 1226,-255 1226,-255 1226,-267 1226,-267 1226,-273 1220,-279 1214,-279"/>
<text text-anchor="middle" x="1124" y="-257.3" font-family="Times,serif" font-size="14.00">Global Bundle Adjustment</text>
</g>
<!-- 3D Tracks&#45;&gt;Global Bundle Adjustment -->
<g id="edge16" class="edge">
<title>3D Tracks&#45;&gt;Global Bundle Adjustment</title>
<path fill="none" stroke="#bfbfbf" d="M1124,-314.7C1124,-306.98 1124,-297.71 1124,-289.11"/>
<polygon fill="#bfbfbf" stroke="#bfbfbf" points="1127.5,-289.1 1124,-279.1 1120.5,-289.1 1127.5,-289.1"/>
</g>
<!-- View&#45;Graph Correspondences -->
<g id="node3" class="node">
<title>View&#45;Graph Correspondences</title>
<path fill="gainsboro" stroke="black" d="M1060,-639C1060,-639 856,-639 856,-639 850,-639 844,-633 844,-627 844,-627 844,-615 844,-615 844,-609 850,-603 856,-603 856,-603 1060,-603 1060,-603 1066,-603 1072,-609 1072,-615 1072,-615 1072,-627 1072,-627 1072,-633 1066,-639 1060,-639"/>
<text text-anchor="middle" x="958" y="-617.3" font-family="Times,serif" font-size="14.00">View&#45;Graph Correspondences</text>
</g>
<!-- View&#45;Graph Correspondences&#45;&gt;Data Association -->
<g id="edge2" class="edge">
<title>View&#45;Graph Correspondences&#45;&gt;Data Association</title>
<path fill="none" stroke="#bfbfbf" d="M1069.94,-602.85C1089.04,-594.94 1106.67,-583.5 1119,-567 1134.26,-546.59 1130.32,-473.61 1126.79,-433.28"/>
<polygon fill="#bfbfbf" stroke="#bfbfbf" points="1130.25,-432.71 1125.84,-423.08 1123.28,-433.36 1130.25,-432.71"/>
</g>
<!-- Global Rotations -->
<g id="node4" class="node">
<title>Global Rotations</title>
<path fill="gainsboro" stroke="black" d="M1213.5,-639C1213.5,-639 1102.5,-639 1102.5,-639 1096.5,-639 1090.5,-633 1090.5,-627 1090.5,-627 1090.5,-615 1090.5,-615 1090.5,-609 1096.5,-603 1102.5,-603 1102.5,-603 1213.5,-603 1213.5,-603 1219.5,-603 1225.5,-609 1225.5,-615 1225.5,-615 1225.5,-627 1225.5,-627 1225.5,-633 1219.5,-639 1213.5,-639"/>
<text text-anchor="middle" x="1158" y="-617.3" font-family="Times,serif" font-size="14.00">Global Rotations</text>
</g>
<!-- Global Rotations&#45;&gt;Data Association -->
<g id="edge3" class="edge">
<title>Global Rotations&#45;&gt;Data Association</title>
<path fill="none" stroke="#bfbfbf" d="M1155.63,-602.57C1151.55,-573 1142.8,-511.11 1134,-459 1132.58,-450.56 1130.89,-441.39 1129.32,-433.09"/>
<polygon fill="#bfbfbf" stroke="#bfbfbf" points="1132.73,-432.32 1127.41,-423.16 1125.86,-433.64 1132.73,-432.32"/>
</g>
<!-- Global Rotations&#45;&gt;Global Bundle Adjustment -->
<g id="edge15" class="edge">
<title>Global Rotations&#45;&gt;Global Bundle Adjustment</title>
<path fill="none" stroke="#bfbfbf" d="M1168.98,-602.84C1184.51,-576.89 1211,-525.63 1211,-478 1211,-478 1211,-478 1211,-404 1211,-361.81 1200.94,-350.41 1178,-315 1171.2,-304.51 1162,-294.5 1153.12,-286.06"/>
<polygon fill="#bfbfbf" stroke="#bfbfbf" points="1155.21,-283.23 1145.47,-279.07 1150.49,-288.4 1155.21,-283.23"/>
</g>
<!-- Translation Averaging -->
<g id="node27" class="node">
<title>Translation Averaging</title>
<path fill="lightskyblue" stroke="black" d="M1097.5,-567C1097.5,-567 946.5,-567 946.5,-567 940.5,-567 934.5,-561 934.5,-555 934.5,-555 934.5,-543 934.5,-543 934.5,-537 940.5,-531 946.5,-531 946.5,-531 1097.5,-531 1097.5,-531 1103.5,-531 1109.5,-537 1109.5,-543 1109.5,-543 1109.5,-555 1109.5,-555 1109.5,-561 1103.5,-567 1097.5,-567"/>
<text text-anchor="middle" x="1022" y="-545.3" font-family="Times,serif" font-size="14.00">Translation Averaging</text>
</g>
<!-- Global Rotations&#45;&gt;Translation Averaging -->
<g id="edge38" class="edge">
<title>Global Rotations&#45;&gt;Translation Averaging</title>
<path fill="none" stroke="#bfbfbf" d="M1124.73,-602.88C1106.54,-593.51 1083.81,-581.81 1064.36,-571.8"/>
<polygon fill="#bfbfbf" stroke="#bfbfbf" points="1065.89,-568.65 1055.4,-567.19 1062.69,-574.88 1065.89,-568.65"/>
</g>
<!-- Global Translations -->
<g id="node5" class="node">
<title>Global Translations</title>
<path fill="gainsboro" stroke="black" d="M1097.5,-495C1097.5,-495 966.5,-495 966.5,-495 960.5,-495 954.5,-489 954.5,-483 954.5,-483 954.5,-471 954.5,-471 954.5,-465 960.5,-459 966.5,-459 966.5,-459 1097.5,-459 1097.5,-459 1103.5,-459 1109.5,-465 1109.5,-471 1109.5,-471 1109.5,-483 1109.5,-483 1109.5,-489 1103.5,-495 1097.5,-495"/>
<text text-anchor="middle" x="1032" y="-473.3" font-family="Times,serif" font-size="14.00">Global Translations</text>
</g>
<!-- Global Translations&#45;&gt;Data Association -->
<g id="edge4" class="edge">
<title>Global Translations&#45;&gt;Data Association</title>
<path fill="none" stroke="#bfbfbf" d="M1054.74,-458.7C1066.44,-449.8 1080.86,-438.82 1093.51,-429.2"/>
<polygon fill="#bfbfbf" stroke="#bfbfbf" points="1095.68,-431.94 1101.52,-423.1 1091.44,-426.37 1095.68,-431.94"/>
</g>
<!-- Global Translations&#45;&gt;Global Bundle Adjustment -->
<g id="edge14" class="edge">
<title>Global Translations&#45;&gt;Global Bundle Adjustment</title>
<path fill="none" stroke="#bfbfbf" d="M1032.71,-458.68C1034.7,-427.65 1042.27,-361.48 1071,-315 1077.51,-304.47 1086.5,-294.45 1095.23,-286.01"/>
<polygon fill="#bfbfbf" stroke="#bfbfbf" points="1097.8,-288.39 1102.76,-279.03 1093.05,-283.26 1097.8,-288.39"/>
</g>
<!-- Camera Intrinsics -->
<g id="node6" class="node">
<title>Camera Intrinsics</title>
<path fill="gainsboro" stroke="black" d="M1414,-1381C1414,-1381 1294,-1381 1294,-1381 1288,-1381 1282,-1375 1282,-1369 1282,-1369 1282,-1357 1282,-1357 1282,-1351 1288,-1345 1294,-1345 1294,-1345 1414,-1345 1414,-1345 1420,-1345 1426,-1351 1426,-1357 1426,-1357 1426,-1369 1426,-1369 1426,-1375 1420,-1381 1414,-1381"/>
<text text-anchor="middle" x="1354" y="-1359.3" font-family="Times,serif" font-size="14.00">Camera Intrinsics</text>
</g>
<!-- Camera Intrinsics&#45;&gt;Data Association -->
<g id="edge5" class="edge">
<title>Camera Intrinsics&#45;&gt;Data Association</title>
<path fill="none" stroke="#bfbfbf" d="M1304.28,-1344.94C1294.03,-1341.91 1283.24,-1339.06 1273,-1337 1255.27,-1333.43 1204.15,-1342.4 1192,-1329 1169.62,-1304.3 1183.97,-1286.35 1192,-1254 1223.6,-1126.64 1330,-1124.22 1330,-993 1330,-993 1330,-993 1330,-548 1330,-483.19 1260.03,-445.69 1201.65,-425.69"/>
<polygon fill="#bfbfbf" stroke="#bfbfbf" points="1202.62,-422.32 1192.02,-422.5 1200.42,-428.96 1202.62,-422.32"/>
</g>
<!-- Camera Intrinsics&#45;&gt;Global Bundle Adjustment -->
<g id="edge13" class="edge">
<title>Camera Intrinsics&#45;&gt;Global Bundle Adjustment</title>
<path fill="none" stroke="#bfbfbf" d="M1404.81,-1344.97C1415.05,-1341.97 1425.8,-1339.14 1436,-1337 1450.89,-1333.88 1492.58,-1339.05 1504,-1329 1545.28,-1292.69 1534,-1263.97 1534,-1209 1534,-1209 1534,-1209 1534,-404 1534,-340.07 1479.32,-341.18 1421,-315 1363.19,-289.05 1293.68,-275.79 1236.45,-269.02"/>
<polygon fill="#bfbfbf" stroke="#bfbfbf" points="1236.61,-265.52 1226.28,-267.87 1235.82,-272.48 1236.61,-265.52"/>
</g>
<!-- Two&#45;View Bundle Adjustment -->
<g id="node29" class="node">
<title>Two&#45;View Bundle Adjustment</title>
<path fill="lightskyblue" stroke="black" d="M686,-1010C686,-1010 484,-1010 484,-1010 478,-1010 472,-1004 472,-998 472,-998 472,-986 472,-986 472,-980 478,-974 484,-974 484,-974 686,-974 686,-974 692,-974 698,-980 698,-986 698,-986 698,-998 698,-998 698,-1004 692,-1010 686,-1010"/>
<text text-anchor="middle" x="585" y="-988.3" font-family="Times,serif" font-size="14.00">Two&#45;View Bundle Adjustment</text>
</g>
<!-- Camera Intrinsics&#45;&gt;Two&#45;View Bundle Adjustment -->
<g id="edge48" class="edge">
<title>Camera Intrinsics&#45;&gt;Two&#45;View Bundle Adjustment</title>
<path fill="none" stroke="#bfbfbf" d="M1305.65,-1344.96C1295.01,-1341.81 1283.72,-1338.92 1273,-1337 1256.9,-1334.12 1138.36,-1339.71 1126,-1329 1084.89,-1293.39 1102,-1263.39 1102,-1209 1102,-1209 1102,-1209 1102,-1135 1102,-1094.55 1113.05,-1073.07 1083,-1046 1055.66,-1021.38 846.77,-1006.14 708.35,-998.65"/>
<polygon fill="#bfbfbf" stroke="#bfbfbf" points="708.27,-995.14 698.09,-998.1 707.89,-1002.13 708.27,-995.14"/>
</g>
<!-- Verifier -->
<g id="node37" class="node">
<title>Verifier</title>
<path fill="lightskyblue" stroke="black" d="M498.5,-1154C498.5,-1154 453.5,-1154 453.5,-1154 447.5,-1154 441.5,-1148 441.5,-1142 441.5,-1142 441.5,-1130 441.5,-1130 441.5,-1124 447.5,-1118 453.5,-1118 453.5,-1118 498.5,-1118 498.5,-1118 504.5,-1118 510.5,-1124 510.5,-1130 510.5,-1130 510.5,-1142 510.5,-1142 510.5,-1148 504.5,-1154 498.5,-1154"/>
<text text-anchor="middle" x="476" y="-1132.3" font-family="Times,serif" font-size="14.00">Verifier</text>
</g>
<!-- Camera Intrinsics&#45;&gt;Verifier -->
<g id="edge57" class="edge">
<title>Camera Intrinsics&#45;&gt;Verifier</title>
<path fill="none" stroke="#bfbfbf" d="M1305.66,-1344.87C1295.03,-1341.73 1283.73,-1338.86 1273,-1337 1191.91,-1322.97 1169.06,-1343.22 1088,-1329 869.07,-1290.61 619.49,-1195.36 520.14,-1155.26"/>
<polygon fill="#bfbfbf" stroke="#bfbfbf" points="521.31,-1151.95 510.73,-1151.44 518.68,-1158.44 521.31,-1151.95"/>
</g>
<!-- View&#45;Graph Estimator -->
<g id="node39" class="node">
<title>View&#45;Graph Estimator</title>
<path fill="lightskyblue" stroke="black" d="M950,-855C950,-855 798,-855 798,-855 792,-855 786,-849 786,-843 786,-843 786,-831 786,-831 786,-825 792,-819 798,-819 798,-819 950,-819 950,-819 956,-819 962,-825 962,-831 962,-831 962,-843 962,-843 962,-849 956,-855 950,-855"/>
<text text-anchor="middle" x="874" y="-833.3" font-family="Times,serif" font-size="14.00">View&#45;Graph Estimator</text>
</g>
<!-- Camera Intrinsics&#45;&gt;View&#45;Graph Estimator -->
<g id="edge63" class="edge">
<title>Camera Intrinsics&#45;&gt;View&#45;Graph Estimator</title>
<path fill="none" stroke="#bfbfbf" d="M1305.19,-1344.99C1294.68,-1341.88 1283.56,-1338.99 1273,-1337 1261.07,-1334.75 1173.11,-1337.03 1164,-1329 1115.88,-1286.57 1138.9,-1101.66 1107,-1046 1058.83,-961.94 964.41,-893.9 911.76,-860.46"/>
<polygon fill="#bfbfbf" stroke="#bfbfbf" points="913.39,-857.36 903.05,-855.01 909.67,-863.29 913.39,-857.36"/>
</g>
<!-- DetectorDescriptor -->
<g id="node7" class="node">
<title>DetectorDescriptor</title>
<path fill="lightskyblue" stroke="black" d="M393.5,-1453C393.5,-1453 262.5,-1453 262.5,-1453 256.5,-1453 250.5,-1447 250.5,-1441 250.5,-1441 250.5,-1429 250.5,-1429 250.5,-1423 256.5,-1417 262.5,-1417 262.5,-1417 393.5,-1417 393.5,-1417 399.5,-1417 405.5,-1423 405.5,-1429 405.5,-1429 405.5,-1441 405.5,-1441 405.5,-1447 399.5,-1453 393.5,-1453"/>
<text text-anchor="middle" x="328" y="-1431.3" font-family="Times,serif" font-size="14.00">DetectorDescriptor</text>
</g>
<!-- Keypoints -->
<g id="node8" class="node">
<title>Keypoints</title>
<path fill="gainsboro" stroke="black" d="M275.5,-1381C275.5,-1381 212.5,-1381 212.5,-1381 206.5,-1381 200.5,-1375 200.5,-1369 200.5,-1369 200.5,-1357 200.5,-1357 200.5,-1351 206.5,-1345 212.5,-1345 212.5,-1345 275.5,-1345 275.5,-1345 281.5,-1345 287.5,-1351 287.5,-1357 287.5,-1357 287.5,-1369 287.5,-1369 287.5,-1375 281.5,-1381 275.5,-1381"/>
<text text-anchor="middle" x="244" y="-1359.3" font-family="Times,serif" font-size="14.00">Keypoints</text>
</g>
<!-- DetectorDescriptor&#45;&gt;Keypoints -->
<g id="edge6" class="edge">
<title>DetectorDescriptor&#45;&gt;Keypoints</title>
<path fill="none" stroke="#bfbfbf" d="M307.24,-1416.7C296.76,-1407.97 283.89,-1397.24 272.5,-1387.75"/>
<polygon fill="#bfbfbf" stroke="#bfbfbf" points="274.45,-1384.82 264.53,-1381.1 269.97,-1390.19 274.45,-1384.82"/>
</g>
<!-- Descriptors -->
<g id="node9" class="node">
<title>Descriptors</title>
<path fill="gainsboro" stroke="black" d="M394,-1381C394,-1381 318,-1381 318,-1381 312,-1381 306,-1375 306,-1369 306,-1369 306,-1357 306,-1357 306,-1351 312,-1345 318,-1345 318,-1345 394,-1345 394,-1345 400,-1345 406,-1351 406,-1357 406,-1357 406,-1369 406,-1369 406,-1375 400,-1381 394,-1381"/>
<text text-anchor="middle" x="356" y="-1359.3" font-family="Times,serif" font-size="14.00">Descriptors</text>
</g>
<!-- DetectorDescriptor&#45;&gt;Descriptors -->
<g id="edge7" class="edge">
<title>DetectorDescriptor&#45;&gt;Descriptors</title>
<path fill="none" stroke="#bfbfbf" d="M334.92,-1416.7C338.07,-1408.81 341.88,-1399.3 345.38,-1390.55"/>
<polygon fill="#bfbfbf" stroke="#bfbfbf" points="348.69,-1391.69 349.16,-1381.1 342.19,-1389.09 348.69,-1391.69"/>
</g>
<!-- Matcher -->
<g id="node21" class="node">
<title>Matcher</title>
<path fill="lightskyblue" stroke="black" d="M403.5,-1298C403.5,-1298 350.5,-1298 350.5,-1298 344.5,-1298 338.5,-1292 338.5,-1286 338.5,-1286 338.5,-1274 338.5,-1274 338.5,-1268 344.5,-1262 350.5,-1262 350.5,-1262 403.5,-1262 403.5,-1262 409.5,-1262 415.5,-1268 415.5,-1274 415.5,-1274 415.5,-1286 415.5,-1286 415.5,-1292 409.5,-1298 403.5,-1298"/>
<text text-anchor="middle" x="377" y="-1276.3" font-family="Times,serif" font-size="14.00">Matcher</text>
</g>
<!-- Keypoints&#45;&gt;Matcher -->
<g id="edge26" class="edge">
<title>Keypoints&#45;&gt;Matcher</title>
<path fill="none" stroke="#bfbfbf" d="M272.21,-1344.82C292.04,-1332.74 318.78,-1316.46 340.28,-1303.36"/>
<polygon fill="#bfbfbf" stroke="#bfbfbf" points="342.11,-1306.34 348.83,-1298.15 338.47,-1300.37 342.11,-1306.34"/>
</g>
<!-- Keypoints&#45;&gt;Two&#45;View Bundle Adjustment -->
<g id="edge49" class="edge">
<title>Keypoints&#45;&gt;Two&#45;View Bundle Adjustment</title>
<path fill="none" stroke="#bfbfbf" d="M200.74,-1344.91C150.96,-1322.06 76,-1276.46 76,-1209 76,-1209 76,-1209 76,-1135 76,-1074.5 123.79,-1070.74 179,-1046 228.08,-1024.01 360.96,-1009.5 461.45,-1001.31"/>
<polygon fill="#bfbfbf" stroke="#bfbfbf" points="462,-1004.78 471.68,-1000.49 461.44,-997.8 462,-1004.78"/>
</g>
<!-- Keypoints&#45;&gt;Verifier -->
<g id="edge55" class="edge">
<title>Keypoints&#45;&gt;Verifier</title>
<path fill="none" stroke="#bfbfbf" d="M248.27,-1344.75C257.62,-1310.47 283.05,-1233.39 332,-1190 359.94,-1165.23 400.45,-1151.7 431.39,-1144.52"/>
<polygon fill="#bfbfbf" stroke="#bfbfbf" points="432.46,-1147.87 441.48,-1142.32 430.97,-1141.03 432.46,-1147.87"/>
</g>
<!-- Keypoints&#45;&gt;View&#45;Graph Estimator -->
<g id="edge65" class="edge">
<title>Keypoints&#45;&gt;View&#45;Graph Estimator</title>
<path fill="none" stroke="#bfbfbf" d="M200.49,-1357.54C159.88,-1352.58 103.07,-1343.32 86,-1329 42,-1292.08 38,-1266.44 38,-1209 38,-1209 38,-1209 38,-991 38,-919.62 99.29,-919.39 166,-894 274.76,-852.6 608.09,-841.81 775.66,-838.99"/>
<polygon fill="#bfbfbf" stroke="#bfbfbf" points="775.78,-842.49 785.72,-838.83 775.66,-835.49 775.78,-842.49"/>
</g>
<!-- Descriptors&#45;&gt;Matcher -->
<g id="edge27" class="edge">
<title>Descriptors&#45;&gt;Matcher</title>
<path fill="none" stroke="#bfbfbf" d="M360.45,-1344.82C363.24,-1334.08 366.88,-1320.03 370.04,-1307.84"/>
<polygon fill="#bfbfbf" stroke="#bfbfbf" points="373.43,-1308.71 372.55,-1298.15 366.66,-1306.95 373.43,-1308.71"/>
</g>
<!-- Images -->
<g id="node10" class="node">
<title>Images</title>
<path fill="gainsboro" stroke="black" d="M934,-1381C934,-1381 890,-1381 890,-1381 884,-1381 878,-1375 878,-1369 878,-1369 878,-1357 878,-1357 878,-1351 884,-1345 890,-1345 890,-1345 934,-1345 934,-1345 940,-1345 946,-1351 946,-1357 946,-1357 946,-1369 946,-1369 946,-1375 940,-1381 934,-1381"/>
<text text-anchor="middle" x="912" y="-1359.3" font-family="Times,serif" font-size="14.00">Images</text>
</g>
<!-- Images&#45;&gt;DetectorDescriptor -->
<g id="edge8" class="edge">
<title>Images&#45;&gt;DetectorDescriptor</title>
<path fill="none" stroke="#bfbfbf" d="M877.89,-1368.09C788.78,-1378.77 546.87,-1407.77 415.58,-1423.5"/>
<polygon fill="#bfbfbf" stroke="#bfbfbf" points="415.06,-1420.04 405.55,-1424.7 415.9,-1426.99 415.06,-1420.04"/>
</g>
<!-- Multi&#45;view Stereo -->
<g id="node23" class="node">
<title>Multi&#45;view Stereo</title>
<path fill="lightskyblue" stroke="black" d="M985,-124C985,-124 865,-124 865,-124 859,-124 853,-118 853,-112 853,-112 853,-100 853,-100 853,-94 859,-88 865,-88 865,-88 985,-88 985,-88 991,-88 997,-94 997,-100 997,-100 997,-112 997,-112 997,-118 991,-124 985,-124"/>
<text text-anchor="middle" x="925" y="-102.3" font-family="Times,serif" font-size="14.00">Multi&#45;view Stereo</text>
</g>
<!-- Images&#45;&gt;Multi&#45;view Stereo -->
<g id="edge30" class="edge">
<title>Images&#45;&gt;Multi&#45;view Stereo</title>
<path fill="none" stroke="#bfbfbf" d="M877.87,-1360.02C797.67,-1355.42 590.9,-1343.89 418,-1337 387.46,-1335.78 171.57,-1339.87 143,-1329 65.46,-1299.49 0,-1291.97 0,-1209 0,-1209 0,-1209 0,-260 0,-174.99 616.02,-126.83 842.63,-112"/>
<polygon fill="#bfbfbf" stroke="#bfbfbf" points="843.05,-115.48 852.8,-111.34 842.6,-108.49 843.05,-115.48"/>
</g>
<!-- Optimized Camera Poses -->
<g id="node12" class="node">
<title>Optimized Camera Poses</title>
<path fill="gainsboro" stroke="black" d="M1010.5,-207C1010.5,-207 839.5,-207 839.5,-207 833.5,-207 827.5,-201 827.5,-195 827.5,-195 827.5,-183 827.5,-183 827.5,-177 833.5,-171 839.5,-171 839.5,-171 1010.5,-171 1010.5,-171 1016.5,-171 1022.5,-177 1022.5,-183 1022.5,-183 1022.5,-195 1022.5,-195 1022.5,-201 1016.5,-207 1010.5,-207"/>
<text text-anchor="middle" x="925" y="-185.3" font-family="Times,serif" font-size="14.00">Optimized Camera Poses</text>
</g>
<!-- Global Bundle Adjustment&#45;&gt;Optimized Camera Poses -->
<g id="edge9" class="edge">
<title>Global Bundle Adjustment&#45;&gt;Optimized Camera Poses</title>
<path fill="none" stroke="#bfbfbf" d="M1075.57,-242.97C1047.77,-233.19 1012.66,-220.84 983.35,-210.52"/>
<polygon fill="#bfbfbf" stroke="#bfbfbf" points="984.24,-207.13 973.64,-207.11 981.92,-213.73 984.24,-207.13"/>
</g>
<!-- Optimized 3D Tracks -->
<g id="node13" class="node">
<title>Optimized 3D Tracks</title>
<path fill="gainsboro" stroke="black" d="M1195.5,-207C1195.5,-207 1052.5,-207 1052.5,-207 1046.5,-207 1040.5,-201 1040.5,-195 1040.5,-195 1040.5,-183 1040.5,-183 1040.5,-177 1046.5,-171 1052.5,-171 1052.5,-171 1195.5,-171 1195.5,-171 1201.5,-171 1207.5,-177 1207.5,-183 1207.5,-183 1207.5,-195 1207.5,-195 1207.5,-201 1201.5,-207 1195.5,-207"/>
<text text-anchor="middle" x="1124" y="-185.3" font-family="Times,serif" font-size="14.00">Optimized 3D Tracks</text>
</g>
<!-- Global Bundle Adjustment&#45;&gt;Optimized 3D Tracks -->
<g id="edge10" class="edge">
<title>Global Bundle Adjustment&#45;&gt;Optimized 3D Tracks</title>
<path fill="none" stroke="#bfbfbf" d="M1124,-242.7C1124,-234.98 1124,-225.71 1124,-217.11"/>
<polygon fill="#bfbfbf" stroke="#bfbfbf" points="1127.5,-217.1 1124,-207.1 1120.5,-217.1 1127.5,-217.1"/>
</g>
<!-- Optimized Camera Poses&#45;&gt;Multi&#45;view Stereo -->
<g id="edge31" class="edge">
<title>Optimized Camera Poses&#45;&gt;Multi&#45;view Stereo</title>
<path fill="none" stroke="#bfbfbf" d="M925,-170.82C925,-160.19 925,-146.31 925,-134.2"/>
<polygon fill="#bfbfbf" stroke="#bfbfbf" points="928.5,-134.15 925,-124.15 921.5,-134.15 928.5,-134.15"/>
</g>
<!-- Optimized 3D Tracks&#45;&gt;Multi&#45;view Stereo -->
<g id="edge32" class="edge">
<title>Optimized 3D Tracks&#45;&gt;Multi&#45;view Stereo</title>
<path fill="none" stroke="#bfbfbf" d="M1081.8,-170.82C1050.96,-158.27 1008.98,-141.18 976.21,-127.85"/>
<polygon fill="#bfbfbf" stroke="#bfbfbf" points="977.38,-124.54 966.8,-124.01 974.74,-131.03 977.38,-124.54"/>
</g>
<!-- Absolute Pose Priors -->
<g id="node14" class="node">
<title>Absolute Pose Priors</title>
<path fill="gainsboro" stroke="black" d="M1116,-1381C1116,-1381 976,-1381 976,-1381 970,-1381 964,-1375 964,-1369 964,-1369 964,-1357 964,-1357 964,-1351 970,-1345 976,-1345 976,-1345 1116,-1345 1116,-1345 1122,-1345 1128,-1351 1128,-1357 1128,-1357 1128,-1369 1128,-1369 1128,-1375 1122,-1381 1116,-1381"/>
<text text-anchor="middle" x="1046" y="-1359.3" font-family="Times,serif" font-size="14.00">Absolute Pose Priors</text>
</g>
<!-- Absolute Pose Priors&#45;&gt;Global Bundle Adjustment -->
<g id="edge11" class="edge">
<title>Absolute Pose Priors&#45;&gt;Global Bundle Adjustment</title>
<path fill="none" stroke="#bfbfbf" d="M1100.03,-1344.99C1112.39,-1341.75 1125.55,-1338.81 1138,-1337 1156.7,-1334.28 1463.83,-1341.5 1478,-1329 1518.45,-1293.33 1496,-1262.93 1496,-1209 1496,-1209 1496,-1209 1496,-404 1496,-346.63 1339.6,-303.96 1229.62,-281.04"/>
<polygon fill="#bfbfbf" stroke="#bfbfbf" points="1230.3,-277.61 1219.8,-279.02 1228.89,-284.46 1230.3,-277.61"/>
</g>
<!-- Absolute Pose Priors&#45;&gt;Translation Averaging -->
<g id="edge39" class="edge">
<title>Absolute Pose Priors&#45;&gt;Translation Averaging</title>
<path fill="none" stroke="#bfbfbf" d="M993.07,-1344.99C980.7,-1341.71 967.49,-1338.75 955,-1337 944.15,-1335.48 173.84,-1336.65 166,-1329 126.93,-1290.88 149,-892.59 149,-838 149,-838 149,-838 149,-692 149,-614.21 695.97,-570.6 924.01,-555.8"/>
<polygon fill="#bfbfbf" stroke="#bfbfbf" points="924.54,-559.27 934.3,-555.14 924.09,-552.29 924.54,-559.27"/>
</g>
<!-- Relative Pose Priors -->
<g id="node15" class="node">
<title>Relative Pose Priors</title>
<path fill="gainsboro" stroke="black" d="M1593.5,-1381C1593.5,-1381 1456.5,-1381 1456.5,-1381 1450.5,-1381 1444.5,-1375 1444.5,-1369 1444.5,-1369 1444.5,-1357 1444.5,-1357 1444.5,-1351 1450.5,-1345 1456.5,-1345 1456.5,-1345 1593.5,-1345 1593.5,-1345 1599.5,-1345 1605.5,-1351 1605.5,-1357 1605.5,-1357 1605.5,-1369 1605.5,-1369 1605.5,-1375 1599.5,-1381 1593.5,-1381"/>
<text text-anchor="middle" x="1525" y="-1359.3" font-family="Times,serif" font-size="14.00">Relative Pose Priors</text>
</g>
<!-- Relative Pose Priors&#45;&gt;Global Bundle Adjustment -->
<g id="edge12" class="edge">
<title>Relative Pose Priors&#45;&gt;Global Bundle Adjustment</title>
<path fill="none" stroke="#bfbfbf" d="M1534.06,-1344.63C1547.72,-1316.8 1572,-1260.13 1572,-1209 1572,-1209 1572,-1209 1572,-404 1572,-346.14 1529.07,-340.21 1477,-315 1435.55,-294.93 1323.26,-280.3 1236.35,-271.56"/>
<polygon fill="#bfbfbf" stroke="#bfbfbf" points="1236.45,-268.05 1226.15,-270.55 1235.76,-275.02 1236.45,-268.05"/>
</g>
<!-- Rotation Averaging -->
<g id="node25" class="node">
<title>Rotation Averaging</title>
<path fill="lightskyblue" stroke="black" d="M1213.5,-711C1213.5,-711 1082.5,-711 1082.5,-711 1076.5,-711 1070.5,-705 1070.5,-699 1070.5,-699 1070.5,-687 1070.5,-687 1070.5,-681 1076.5,-675 1082.5,-675 1082.5,-675 1213.5,-675 1213.5,-675 1219.5,-675 1225.5,-681 1225.5,-687 1225.5,-687 1225.5,-699 1225.5,-699 1225.5,-705 1219.5,-711 1213.5,-711"/>
<text text-anchor="middle" x="1148" y="-689.3" font-family="Times,serif" font-size="14.00">Rotation Averaging</text>
</g>
<!-- Relative Pose Priors&#45;&gt;Rotation Averaging -->
<g id="edge35" class="edge">
<title>Relative Pose Priors&#45;&gt;Rotation Averaging</title>
<path fill="none" stroke="#bfbfbf" d="M1471.17,-1344.97C1459.36,-1341.82 1446.85,-1338.92 1435,-1337 1417.76,-1334.2 1291.22,-1340.41 1278,-1329 1236.83,-1293.46 1254,-1263.39 1254,-1209 1254,-1209 1254,-1209 1254,-836 1254,-795.55 1258.4,-779.99 1235,-747 1225.93,-734.22 1212.72,-723.94 1199.32,-715.96"/>
<polygon fill="#bfbfbf" stroke="#bfbfbf" points="1200.97,-712.87 1190.53,-711.04 1197.55,-718.97 1200.97,-712.87"/>
</g>
<!-- Relative Pose Priors&#45;&gt;Translation Averaging -->
<g id="edge40" class="edge">
<title>Relative Pose Priors&#45;&gt;Translation Averaging</title>
<path fill="none" stroke="#bfbfbf" d="M1470.67,-1344.97C1459.01,-1341.86 1446.67,-1338.98 1435,-1337 1421.39,-1334.7 1321.2,-1338.3 1311,-1329 1271.09,-1292.63 1292,-1263 1292,-1209 1292,-1209 1292,-1209 1292,-692 1292,-611.66 1197.2,-576.67 1119.95,-561.5"/>
<polygon fill="#bfbfbf" stroke="#bfbfbf" points="1120.13,-557.97 1109.66,-559.57 1118.85,-564.85 1120.13,-557.97"/>
</g>
<!-- Relative Pose Priors&#45;&gt;Two&#45;View Bundle Adjustment -->
<g id="edge47" class="edge">
<title>Relative Pose Priors&#45;&gt;Two&#45;View Bundle Adjustment</title>
<path fill="none" stroke="#bfbfbf" d="M1471.19,-1344.89C1459.38,-1341.74 1446.85,-1338.86 1435,-1337 1413.58,-1333.63 1258.06,-1341 1240,-1329 1182.11,-1290.56 1163.7,-1086.17 1107,-1046 1075.17,-1023.46 852.3,-1007.35 708.25,-999.17"/>
<polygon fill="#bfbfbf" stroke="#bfbfbf" points="708.2,-995.66 698.02,-998.59 707.81,-1002.65 708.2,-995.66"/>
</g>
<!-- Image Loader -->
<g id="node16" class="node">
<title>Image Loader</title>
<path fill="lightskyblue" stroke="black" d="M1324.5,-1453C1324.5,-1453 1233.5,-1453 1233.5,-1453 1227.5,-1453 1221.5,-1447 1221.5,-1441 1221.5,-1441 1221.5,-1429 1221.5,-1429 1221.5,-1423 1227.5,-1417 1233.5,-1417 1233.5,-1417 1324.5,-1417 1324.5,-1417 1330.5,-1417 1336.5,-1423 1336.5,-1429 1336.5,-1429 1336.5,-1441 1336.5,-1441 1336.5,-1447 1330.5,-1453 1324.5,-1453"/>
<text text-anchor="middle" x="1279" y="-1431.3" font-family="Times,serif" font-size="14.00">Image Loader</text>
</g>
<!-- Image Loader&#45;&gt;Camera Intrinsics -->
<g id="edge18" class="edge">
<title>Image Loader&#45;&gt;Camera Intrinsics</title>
<path fill="none" stroke="#bfbfbf" d="M1297.54,-1416.7C1306.8,-1408.05 1318.16,-1397.45 1328.26,-1388.03"/>
<polygon fill="#bfbfbf" stroke="#bfbfbf" points="1330.75,-1390.49 1335.67,-1381.1 1325.98,-1385.37 1330.75,-1390.49"/>
</g>
<!-- Image Loader&#45;&gt;Images -->
<g id="edge17" class="edge">
<title>Image Loader&#45;&gt;Images</title>
<path fill="none" stroke="#bfbfbf" d="M1221.43,-1428.35C1158.13,-1421.31 1053.49,-1407.2 955.78,-1380.89"/>
<polygon fill="#bfbfbf" stroke="#bfbfbf" points="956.61,-1377.49 946.04,-1378.22 954.76,-1384.24 956.61,-1377.49"/>
</g>
<!-- Image Loader&#45;&gt;Absolute Pose Priors -->
<g id="edge21" class="edge">
<title>Image Loader&#45;&gt;Absolute Pose Priors</title>
<path fill="none" stroke="#bfbfbf" d="M1222.3,-1416.97C1189.32,-1407.06 1147.57,-1394.51 1112.97,-1384.12"/>
<polygon fill="#bfbfbf" stroke="#bfbfbf" points="1113.54,-1380.64 1102.95,-1381.11 1111.52,-1387.34 1113.54,-1380.64"/>
</g>
<!-- Image Loader&#45;&gt;Relative Pose Priors -->
<g id="edge20" class="edge">
<title>Image Loader&#45;&gt;Relative Pose Priors</title>
<path fill="none" stroke="#bfbfbf" d="M1336.68,-1417.59C1372.13,-1407.5 1417.8,-1394.5 1455.28,-1383.84"/>
<polygon fill="#bfbfbf" stroke="#bfbfbf" points="1456.46,-1387.14 1465.12,-1381.04 1454.54,-1380.41 1456.46,-1387.14"/>
</g>
<!-- Image Shapes -->
<g id="node17" class="node">
<title>Image Shapes</title>
<path fill="gainsboro" stroke="black" d="M1251.5,-1381C1251.5,-1381 1158.5,-1381 1158.5,-1381 1152.5,-1381 1146.5,-1375 1146.5,-1369 1146.5,-1369 1146.5,-1357 1146.5,-1357 1146.5,-1351 1152.5,-1345 1158.5,-1345 1158.5,-1345 1251.5,-1345 1251.5,-1345 1257.5,-1345 1263.5,-1351 1263.5,-1357 1263.5,-1357 1263.5,-1369 1263.5,-1369 1263.5,-1375 1257.5,-1381 1251.5,-1381"/>
<text text-anchor="middle" x="1205" y="-1359.3" font-family="Times,serif" font-size="14.00">Image Shapes</text>
</g>
<!-- Image Loader&#45;&gt;Image Shapes -->
<g id="edge19" class="edge">
<title>Image Loader&#45;&gt;Image Shapes</title>
<path fill="none" stroke="#bfbfbf" d="M1260.71,-1416.7C1251.57,-1408.05 1240.36,-1397.45 1230.4,-1388.03"/>
<polygon fill="#bfbfbf" stroke="#bfbfbf" points="1232.75,-1385.43 1223.08,-1381.1 1227.94,-1390.52 1232.75,-1385.43"/>
</g>
<!-- Image Retriever -->
<g id="node19" class="node">
<title>Image Retriever</title>
<path fill="lightskyblue" stroke="black" d="M1744.5,-1381C1744.5,-1381 1635.5,-1381 1635.5,-1381 1629.5,-1381 1623.5,-1375 1623.5,-1369 1623.5,-1369 1623.5,-1357 1623.5,-1357 1623.5,-1351 1629.5,-1345 1635.5,-1345 1635.5,-1345 1744.5,-1345 1744.5,-1345 1750.5,-1345 1756.5,-1351 1756.5,-1357 1756.5,-1357 1756.5,-1369 1756.5,-1369 1756.5,-1375 1750.5,-1381 1744.5,-1381"/>
<text text-anchor="middle" x="1690" y="-1359.3" font-family="Times,serif" font-size="14.00">Image Retriever</text>
</g>
<!-- Image Loader&#45;&gt;Image Retriever -->
<g id="edge24" class="edge">
<title>Image Loader&#45;&gt;Image Retriever</title>
<path fill="none" stroke="#bfbfbf" d="M1336.57,-1426.11C1401.56,-1416.93 1510.63,-1400.73 1613.46,-1381.24"/>
<polygon fill="#bfbfbf" stroke="#bfbfbf" points="1614.23,-1384.65 1623.39,-1379.34 1612.91,-1377.78 1614.23,-1384.65"/>
</g>
<!-- Image Shapes&#45;&gt;Matcher -->
<g id="edge28" class="edge">
<title>Image Shapes&#45;&gt;Matcher</title>
<path fill="none" stroke="#bfbfbf" d="M1165.35,-1344.96C1156.2,-1341.72 1146.39,-1338.79 1137,-1337 1067.13,-1323.66 887.97,-1333.75 817,-1329 674.65,-1319.47 507.34,-1298.52 426.16,-1287.72"/>
<polygon fill="#bfbfbf" stroke="#bfbfbf" points="426.13,-1284.19 415.75,-1286.33 425.2,-1291.12 426.13,-1284.19"/>
</g>
<!-- Source Directory -->
<g id="node18" class="node">
<title>Source Directory</title>
<ellipse fill="none" stroke="black" cx="1279" cy="-1510" rx="89.88" ry="18"/>
<text text-anchor="middle" x="1279" y="-1506.3" font-family="Times,serif" font-size="14.00">Source Directory</text>
</g>
<!-- Source Directory&#45;&gt;Image Loader -->
<g id="edge22" class="edge">
<title>Source Directory&#45;&gt;Image Loader</title>
<path fill="none" stroke="#bfbfbf" d="M1279,-1491.7C1279,-1483.25 1279,-1472.87 1279,-1463.37"/>
<polygon fill="#bfbfbf" stroke="#bfbfbf" points="1282.5,-1463.18 1279,-1453.18 1275.5,-1463.18 1282.5,-1463.18"/>
</g>
<!-- Image Pair Indices -->
<g id="node20" class="node">
<title>Image Pair Indices</title>
<path fill="gainsboro" stroke="black" d="M1456.5,-1298C1456.5,-1298 1331.5,-1298 1331.5,-1298 1325.5,-1298 1319.5,-1292 1319.5,-1286 1319.5,-1286 1319.5,-1274 1319.5,-1274 1319.5,-1268 1325.5,-1262 1331.5,-1262 1331.5,-1262 1456.5,-1262 1456.5,-1262 1462.5,-1262 1468.5,-1268 1468.5,-1274 1468.5,-1274 1468.5,-1286 1468.5,-1286 1468.5,-1292 1462.5,-1298 1456.5,-1298"/>
<text text-anchor="middle" x="1394" y="-1276.3" font-family="Times,serif" font-size="14.00">Image Pair Indices</text>
</g>
<!-- Image Retriever&#45;&gt;Image Pair Indices -->
<g id="edge23" class="edge">
<title>Image Retriever&#45;&gt;Image Pair Indices</title>
<path fill="none" stroke="#bfbfbf" d="M1640.54,-1344.94C1632.05,-1342.18 1623.3,-1339.43 1615,-1337 1569.55,-1323.69 1518.3,-1310.58 1476.61,-1300.4"/>
<polygon fill="#bfbfbf" stroke="#bfbfbf" points="1477.32,-1296.97 1466.78,-1298.01 1475.67,-1303.78 1477.32,-1296.97"/>
</g>
<!-- Putative Correspondences -->
<g id="node22" class="node">
<title>Putative Correspondences</title>
<path fill="gainsboro" stroke="black" d="M533.5,-1226C533.5,-1226 352.5,-1226 352.5,-1226 346.5,-1226 340.5,-1220 340.5,-1214 340.5,-1214 340.5,-1202 340.5,-1202 340.5,-1196 346.5,-1190 352.5,-1190 352.5,-1190 533.5,-1190 533.5,-1190 539.5,-1190 545.5,-1196 545.5,-1202 545.5,-1202 545.5,-1214 545.5,-1214 545.5,-1220 539.5,-1226 533.5,-1226"/>
<text text-anchor="middle" x="443" y="-1204.3" font-family="Times,serif" font-size="14.00">Putative Correspondences</text>
</g>
<!-- Matcher&#45;&gt;Putative Correspondences -->
<g id="edge25" class="edge">
<title>Matcher&#45;&gt;Putative Correspondences</title>
<path fill="none" stroke="#bfbfbf" d="M393.31,-1261.7C401.31,-1253.22 411.07,-1242.86 419.82,-1233.58"/>
<polygon fill="#bfbfbf" stroke="#bfbfbf" points="422.56,-1235.78 426.87,-1226.1 417.47,-1230.98 422.56,-1235.78"/>
</g>
<!-- Putative Correspondences&#45;&gt;Verifier -->
<g id="edge56" class="edge">
<title>Putative Correspondences&#45;&gt;Verifier</title>
<path fill="none" stroke="#bfbfbf" d="M451.16,-1189.7C454.91,-1181.73 459.45,-1172.1 463.62,-1163.26"/>
<polygon fill="#bfbfbf" stroke="#bfbfbf" points="466.84,-1164.64 467.94,-1154.1 460.51,-1161.66 466.84,-1164.64"/>
</g>
<!-- Dense Colored 3D Point Cloud -->
<g id="node24" class="node">
<title>Dense Colored 3D Point Cloud</title>
<path fill="gainsboro" stroke="black" d="M1029.5,-52C1029.5,-52 820.5,-52 820.5,-52 814.5,-52 808.5,-46 808.5,-40 808.5,-40 808.5,-28 808.5,-28 808.5,-22 814.5,-16 820.5,-16 820.5,-16 1029.5,-16 1029.5,-16 1035.5,-16 1041.5,-22 1041.5,-28 1041.5,-28 1041.5,-40 1041.5,-40 1041.5,-46 1035.5,-52 1029.5,-52"/>
<text text-anchor="middle" x="925" y="-30.3" font-family="Times,serif" font-size="14.00">Dense Colored 3D Point Cloud</text>
</g>
<!-- Multi&#45;view Stereo&#45;&gt;Dense Colored 3D Point Cloud -->
<g id="edge29" class="edge">
<title>Multi&#45;view Stereo&#45;&gt;Dense Colored 3D Point Cloud</title>
<path fill="none" stroke="#bfbfbf" d="M925,-87.7C925,-79.98 925,-70.71 925,-62.11"/>
<polygon fill="#bfbfbf" stroke="#bfbfbf" points="928.5,-62.1 925,-52.1 921.5,-62.1 928.5,-62.1"/>
</g>
<!-- Rotation Averaging&#45;&gt;Global Rotations -->
<g id="edge33" class="edge">
<title>Rotation Averaging&#45;&gt;Global Rotations</title>
<path fill="none" stroke="#bfbfbf" d="M1150.47,-674.7C1151.57,-666.98 1152.9,-657.71 1154.13,-649.11"/>
<polygon fill="#bfbfbf" stroke="#bfbfbf" points="1157.61,-649.5 1155.56,-639.1 1150.68,-648.51 1157.61,-649.5"/>
</g>
<!-- View&#45;Graph Relative Rotations -->
<g id="node26" class="node">
<title>View&#45;Graph Relative Rotations</title>
<path fill="gainsboro" stroke="black" d="M1214,-783C1214,-783 1002,-783 1002,-783 996,-783 990,-777 990,-771 990,-771 990,-759 990,-759 990,-753 996,-747 1002,-747 1002,-747 1214,-747 1214,-747 1220,-747 1226,-753 1226,-759 1226,-759 1226,-771 1226,-771 1226,-777 1220,-783 1214,-783"/>
<text text-anchor="middle" x="1108" y="-761.3" font-family="Times,serif" font-size="14.00">View&#45;Graph Relative Rotations</text>
</g>
<!-- View&#45;Graph Relative Rotations&#45;&gt;Rotation Averaging -->
<g id="edge34" class="edge">
<title>View&#45;Graph Relative Rotations&#45;&gt;Rotation Averaging</title>
<path fill="none" stroke="#bfbfbf" d="M1117.89,-746.7C1122.49,-738.64 1128.06,-728.89 1133.15,-719.98"/>
<polygon fill="#bfbfbf" stroke="#bfbfbf" points="1136.3,-721.52 1138.23,-711.1 1130.23,-718.05 1136.3,-721.52"/>
</g>
<!-- Translation Averaging&#45;&gt;Global Translations -->
<g id="edge36" class="edge">
<title>Translation Averaging&#45;&gt;Global Translations</title>
<path fill="none" stroke="#bfbfbf" d="M1024.47,-530.7C1025.57,-522.98 1026.9,-513.71 1028.13,-505.11"/>
<polygon fill="#bfbfbf" stroke="#bfbfbf" points="1031.61,-505.5 1029.56,-495.1 1024.68,-504.51 1031.61,-505.5"/>
</g>
<!-- View&#45;Graph Relative Translations -->
<g id="node28" class="node">
<title>View&#45;Graph Relative Translations</title>
<path fill="gainsboro" stroke="black" d="M1020,-711C1020,-711 788,-711 788,-711 782,-711 776,-705 776,-699 776,-699 776,-687 776,-687 776,-681 782,-675 788,-675 788,-675 1020,-675 1020,-675 1026,-675 1032,-681 1032,-687 1032,-687 1032,-699 1032,-699 1032,-705 1026,-711 1020,-711"/>
<text text-anchor="middle" x="904" y="-689.3" font-family="Times,serif" font-size="14.00">View&#45;Graph Relative Translations</text>
</g>
<!-- View&#45;Graph Relative Translations&#45;&gt;Translation Averaging -->
<g id="edge37" class="edge">
<title>View&#45;Graph Relative Translations&#45;&gt;Translation Averaging</title>
<path fill="none" stroke="#bfbfbf" d="M870.16,-674.96C856.62,-666.22 842.48,-654.17 835,-639 827.93,-624.65 825.35,-615.76 835,-603 846.65,-587.58 885.32,-575.35 924.48,-566.54"/>
<polygon fill="#bfbfbf" stroke="#bfbfbf" points="925.41,-569.92 934.44,-564.38 923.92,-563.08 925.41,-569.92"/>
</g>
<!-- Optimized Relative Rotation -->
<g id="node30" class="node">
<title>Optimized Relative Rotation</title>
<path fill="gainsboro" stroke="black" d="M842,-938C842,-938 648,-938 648,-938 642,-938 636,-932 636,-926 636,-926 636,-914 636,-914 636,-908 642,-902 648,-902 648,-902 842,-902 842,-902 848,-902 854,-908 854,-914 854,-914 854,-926 854,-926 854,-932 848,-938 842,-938"/>
<text text-anchor="middle" x="745" y="-916.3" font-family="Times,serif" font-size="14.00">Optimized Relative Rotation</text>
</g>
<!-- Two&#45;View Bundle Adjustment&#45;&gt;Optimized Relative Rotation -->
<g id="edge41" class="edge">
<title>Two&#45;View Bundle Adjustment&#45;&gt;Optimized Relative Rotation</title>
<path fill="none" stroke="#bfbfbf" d="M624.14,-973.88C646.01,-964.31 673.46,-952.3 696.66,-942.15"/>
<polygon fill="#bfbfbf" stroke="#bfbfbf" points="698.23,-945.28 705.99,-938.07 695.42,-938.87 698.23,-945.28"/>
</g>
<!-- Optimized Relative Translation -->
<g id="node31" class="node">
<title>Optimized Relative Translation</title>
<path fill="gainsboro" stroke="black" d="M404.5,-938C404.5,-938 189.5,-938 189.5,-938 183.5,-938 177.5,-932 177.5,-926 177.5,-926 177.5,-914 177.5,-914 177.5,-908 183.5,-902 189.5,-902 189.5,-902 404.5,-902 404.5,-902 410.5,-902 416.5,-908 416.5,-914 416.5,-914 416.5,-926 416.5,-926 416.5,-932 410.5,-938 404.5,-938"/>
<text text-anchor="middle" x="297" y="-916.3" font-family="Times,serif" font-size="14.00">Optimized Relative Translation</text>
</g>
<!-- Two&#45;View Bundle Adjustment&#45;&gt;Optimized Relative Translation -->
<g id="edge42" class="edge">
<title>Two&#45;View Bundle Adjustment&#45;&gt;Optimized Relative Translation</title>
<path fill="none" stroke="#bfbfbf" d="M514.92,-973.97C473.36,-963.87 420.55,-951.03 377.32,-940.52"/>
<polygon fill="#bfbfbf" stroke="#bfbfbf" points="377.94,-937.07 367.4,-938.11 376.29,-943.87 377.94,-937.07"/>
</g>
<!-- Inlier Correspondences -->
<g id="node32" class="node">
<title>Inlier Correspondences</title>
<path fill="gainsboro" stroke="black" d="M605.5,-938C605.5,-938 446.5,-938 446.5,-938 440.5,-938 434.5,-932 434.5,-926 434.5,-926 434.5,-914 434.5,-914 434.5,-908 440.5,-902 446.5,-902 446.5,-902 605.5,-902 605.5,-902 611.5,-902 617.5,-908 617.5,-914 617.5,-914 617.5,-926 617.5,-926 617.5,-932 611.5,-938 605.5,-938"/>
<text text-anchor="middle" x="526" y="-916.3" font-family="Times,serif" font-size="14.00">Inlier Correspondences</text>
</g>
<!-- Two&#45;View Bundle Adjustment&#45;&gt;Inlier Correspondences -->
<g id="edge43" class="edge">
<title>Two&#45;View Bundle Adjustment&#45;&gt;Inlier Correspondences</title>
<path fill="none" stroke="#bfbfbf" d="M570.42,-973.7C563.34,-965.3 554.72,-955.07 546.95,-945.86"/>
<polygon fill="#bfbfbf" stroke="#bfbfbf" points="549.54,-943.49 540.42,-938.1 544.19,-948.01 549.54,-943.49"/>
</g>
<!-- Optimized Relative Rotation&#45;&gt;View&#45;Graph Estimator -->
<g id="edge61" class="edge">
<title>Optimized Relative Rotation&#45;&gt;View&#45;Graph Estimator</title>
<path fill="none" stroke="#bfbfbf" d="M772.36,-901.82C791.51,-889.79 817.3,-873.6 838.1,-860.54"/>
<polygon fill="#bfbfbf" stroke="#bfbfbf" points="840.07,-863.44 846.68,-855.15 836.35,-857.51 840.07,-863.44"/>
</g>
<!-- Optimized Relative Translation&#45;&gt;View&#45;Graph Estimator -->
<g id="edge62" class="edge">
<title>Optimized Relative Translation&#45;&gt;View&#45;Graph Estimator</title>
<path fill="none" stroke="#bfbfbf" d="M380.47,-901.98C395.59,-899.13 411.24,-896.35 426,-894 545.94,-874.9 684.8,-858.41 775.75,-848.36"/>
<polygon fill="#bfbfbf" stroke="#bfbfbf" points="776.21,-851.83 785.77,-847.26 775.45,-844.87 776.21,-851.83"/>
</g>
<!-- Inlier Correspondences&#45;&gt;View&#45;Graph Estimator -->
<g id="edge64" class="edge">
<title>Inlier Correspondences&#45;&gt;View&#45;Graph Estimator</title>
<path fill="none" stroke="#bfbfbf" d="M594.14,-901.94C605.12,-899.25 616.37,-896.52 627,-894 680.12,-881.4 739.82,-867.85 787.22,-857.24"/>
<polygon fill="#bfbfbf" stroke="#bfbfbf" points="788.15,-860.62 797.14,-855.02 786.62,-853.78 788.15,-860.62"/>
</g>
<!-- Relative Rotation -->
<g id="node33" class="node">
<title>Relative Rotation</title>
<path fill="gainsboro" stroke="black" d="M534,-1082C534,-1082 418,-1082 418,-1082 412,-1082 406,-1076 406,-1070 406,-1070 406,-1058 406,-1058 406,-1052 412,-1046 418,-1046 418,-1046 534,-1046 534,-1046 540,-1046 546,-1052 546,-1058 546,-1058 546,-1070 546,-1070 546,-1076 540,-1082 534,-1082"/>
<text text-anchor="middle" x="476" y="-1060.3" font-family="Times,serif" font-size="14.00">Relative Rotation</text>
</g>
<!-- Relative Rotation&#45;&gt;Two&#45;View Bundle Adjustment -->
<g id="edge44" class="edge">
<title>Relative Rotation&#45;&gt;Two&#45;View Bundle Adjustment</title>
<path fill="none" stroke="#bfbfbf" d="M502.66,-1045.88C516.78,-1036.81 534.31,-1025.55 549.56,-1015.76"/>
<polygon fill="#bfbfbf" stroke="#bfbfbf" points="551.71,-1018.54 558.23,-1010.19 547.93,-1012.65 551.71,-1018.54"/>
</g>
<!-- Relative Translation -->
<g id="node34" class="node">
<title>Relative Translation</title>
<path fill="gainsboro" stroke="black" d="M713.5,-1082C713.5,-1082 576.5,-1082 576.5,-1082 570.5,-1082 564.5,-1076 564.5,-1070 564.5,-1070 564.5,-1058 564.5,-1058 564.5,-1052 570.5,-1046 576.5,-1046 576.5,-1046 713.5,-1046 713.5,-1046 719.5,-1046 725.5,-1052 725.5,-1058 725.5,-1058 725.5,-1070 725.5,-1070 725.5,-1076 719.5,-1082 713.5,-1082"/>
<text text-anchor="middle" x="645" y="-1060.3" font-family="Times,serif" font-size="14.00">Relative Translation</text>
</g>
<!-- Relative Translation&#45;&gt;Two&#45;View Bundle Adjustment -->
<g id="edge45" class="edge">
<title>Relative Translation&#45;&gt;Two&#45;View Bundle Adjustment</title>
<path fill="none" stroke="#bfbfbf" d="M630.17,-1045.7C622.98,-1037.3 614.2,-1027.07 606.31,-1017.86"/>
<polygon fill="#bfbfbf" stroke="#bfbfbf" points="608.83,-1015.42 599.66,-1010.1 603.51,-1019.97 608.83,-1015.42"/>
</g>
<!-- Triangulated Points -->
<g id="node35" class="node">
<title>Triangulated Points</title>
<ellipse fill="none" stroke="black" cx="972" cy="-1064" rx="102.08" ry="18"/>
<text text-anchor="middle" x="972" y="-1060.3" font-family="Times,serif" font-size="14.00">Triangulated Points</text>
</g>
<!-- Triangulated Points&#45;&gt;Two&#45;View Bundle Adjustment -->
<g id="edge46" class="edge">
<title>Triangulated Points&#45;&gt;Two&#45;View Bundle Adjustment</title>
<path fill="none" stroke="#bfbfbf" d="M903.26,-1050.57C843.84,-1039.82 757.07,-1024.12 689.13,-1011.84"/>
<polygon fill="#bfbfbf" stroke="#bfbfbf" points="689.71,-1008.38 679.25,-1010.05 688.47,-1015.27 689.71,-1008.38"/>
</g>
<!-- Verified Correspondences -->
<g id="node36" class="node">
<title>Verified Correspondences</title>
<path fill="gainsboro" stroke="black" d="M376,-1082C376,-1082 200,-1082 200,-1082 194,-1082 188,-1076 188,-1070 188,-1070 188,-1058 188,-1058 188,-1052 194,-1046 200,-1046 200,-1046 376,-1046 376,-1046 382,-1046 388,-1052 388,-1058 388,-1058 388,-1070 388,-1070 388,-1076 382,-1082 376,-1082"/>
<text text-anchor="middle" x="288" y="-1060.3" font-family="Times,serif" font-size="14.00">Verified Correspondences</text>
</g>
<!-- Verified Correspondences&#45;&gt;Two&#45;View Bundle Adjustment -->
<g id="edge50" class="edge">
<title>Verified Correspondences&#45;&gt;Two&#45;View Bundle Adjustment</title>
<path fill="none" stroke="#bfbfbf" d="M360.27,-1045.97C403.3,-1035.83 458.03,-1022.93 502.7,-1012.4"/>
<polygon fill="#bfbfbf" stroke="#bfbfbf" points="503.73,-1015.75 512.66,-1010.05 502.12,-1008.94 503.73,-1015.75"/>
</g>
<!-- Verifier&#45;&gt;Relative Rotation -->
<g id="edge51" class="edge">
<title>Verifier&#45;&gt;Relative Rotation</title>
<path fill="none" stroke="#bfbfbf" d="M476,-1117.7C476,-1109.98 476,-1100.71 476,-1092.11"/>
<polygon fill="#bfbfbf" stroke="#bfbfbf" points="479.5,-1092.1 476,-1082.1 472.5,-1092.1 479.5,-1092.1"/>
</g>
<!-- Verifier&#45;&gt;Relative Translation -->
<g id="edge52" class="edge">
<title>Verifier&#45;&gt;Relative Translation</title>
<path fill="none" stroke="#bfbfbf" d="M510.61,-1120.67C534.79,-1110.65 567.48,-1097.11 594.56,-1085.89"/>
<polygon fill="#bfbfbf" stroke="#bfbfbf" points="595.98,-1089.09 603.88,-1082.03 593.3,-1082.62 595.98,-1089.09"/>
</g>
<!-- Verifier&#45;&gt;Verified Correspondences -->
<g id="edge53" class="edge">
<title>Verifier&#45;&gt;Verified Correspondences</title>
<path fill="none" stroke="#bfbfbf" d="M441.08,-1122C413.65,-1111.79 374.94,-1097.37 343.31,-1085.59"/>
<polygon fill="#bfbfbf" stroke="#bfbfbf" points="344.34,-1082.24 333.74,-1082.03 341.89,-1088.8 344.34,-1082.24"/>
</g>
<!-- Inlier Ratio -->
<g id="node38" class="node">
<title>Inlier Ratio</title>
<path fill="gainsboro" stroke="black" d="M828.5,-1082C828.5,-1082 755.5,-1082 755.5,-1082 749.5,-1082 743.5,-1076 743.5,-1070 743.5,-1070 743.5,-1058 743.5,-1058 743.5,-1052 749.5,-1046 755.5,-1046 755.5,-1046 828.5,-1046 828.5,-1046 834.5,-1046 840.5,-1052 840.5,-1058 840.5,-1058 840.5,-1070 840.5,-1070 840.5,-1076 834.5,-1082 828.5,-1082"/>
<text text-anchor="middle" x="792" y="-1060.3" font-family="Times,serif" font-size="14.00">Inlier Ratio</text>
</g>
<!-- Verifier&#45;&gt;Inlier Ratio -->
<g id="edge54" class="edge">
<title>Verifier&#45;&gt;Inlier Ratio</title>
<path fill="none" stroke="#bfbfbf" d="M510.57,-1128.93C558.59,-1120.27 648.33,-1103.31 733.44,-1082.29"/>
<polygon fill="#bfbfbf" stroke="#bfbfbf" points="734.4,-1085.66 743.26,-1079.84 732.71,-1078.87 734.4,-1085.66"/>
</g>
<!-- View&#45;Graph Estimator&#45;&gt;View&#45;Graph Correspondences -->
<g id="edge60" class="edge">
<title>View&#45;Graph Estimator&#45;&gt;View&#45;Graph Correspondences</title>
<path fill="none" stroke="#bfbfbf" d="M893,-818.66C913.86,-800.01 948.68,-769.93 981,-747 1006.36,-729 1025.68,-738.06 1041,-711 1048.88,-697.08 1048.69,-689.03 1041,-675 1034.06,-662.33 1022.66,-652.25 1010.5,-644.43"/>
<polygon fill="#bfbfbf" stroke="#bfbfbf" points="1011.95,-641.22 1001.56,-639.13 1008.38,-647.24 1011.95,-641.22"/>
</g>
<!-- View&#45;Graph Estimator&#45;&gt;View&#45;Graph Relative Rotations -->
<g id="edge58" class="edge">
<title>View&#45;Graph Estimator&#45;&gt;View&#45;Graph Relative Rotations</title>
<path fill="none" stroke="#bfbfbf" d="M930.94,-818.97C964.21,-809.01 1006.36,-796.41 1041.19,-785.99"/>
<polygon fill="#bfbfbf" stroke="#bfbfbf" points="1042.22,-789.33 1050.8,-783.11 1040.22,-782.62 1042.22,-789.33"/>
</g>
<!-- View&#45;Graph Estimator&#45;&gt;View&#45;Graph Relative Translations -->
<g id="edge59" class="edge">
<title>View&#45;Graph Estimator&#45;&gt;View&#45;Graph Relative Translations</title>
<path fill="none" stroke="#bfbfbf" d="M877.62,-818.87C882.75,-794.56 892.21,-749.82 898.29,-721.01"/>
<polygon fill="#bfbfbf" stroke="#bfbfbf" points="901.73,-721.7 900.37,-711.19 894.88,-720.25 901.73,-721.7"/>
</g>
</g>
</svg>
