<?xml version="1.0" encoding="UTF-8" standalone="no"?>
<!DOCTYPE svg PUBLIC "-//W3C//DTD SVG 1.1//EN"
 "http://www.w3.org/Graphics/SVG/1.1/DTD/svg11.dtd">
<!-- Generated by graphviz version 5.0.1 (20220821.0811)
 -->
<!-- Title: G Pages: 1 -->
<svg width="2037pt" height="1384pt"
 viewBox="0.00 0.00 2037.00 1384.00" xmlns="http://www.w3.org/2000/svg" xmlns:xlink="http://www.w3.org/1999/xlink">
<g id="graph0" class="graph" transform="scale(1 1) rotate(0) translate(4 1380)">
<title>G</title>
<polygon fill="white" stroke="none" points="-4,4 -4,-1380 2033,-1380 2033,4 -4,4"/>
<g id="clust1" class="cluster">
<title>cluster_Loader and Retriever</title>
<polygon fill="white" stroke="black" points="8,-1110 8,-1332 903,-1332 903,-1110 8,-1110"/>
<text text-anchor="middle" x="455.5" y="-1316.8" font-family="Veranda" font-size="14.00">Loader and Retriever</text>
</g>
<g id="clust3" class="cluster">
<title>cluster_Two&#45;View Estimator</title>
<polygon fill="white" stroke="black" points="911,-894 911,-1185 1604,-1185 1604,-894 911,-894"/>
<text text-anchor="middle" x="1257.5" y="-1169.8" font-family="Veranda" font-size="14.00">Two&#45;View Estimator</text>
</g>
<g id="clust4" class="cluster">
<title>cluster_Dense Reconstruction</title>
<polygon fill="white" stroke="black" points="843,-8 843,-155 1091,-155 1091,-8 843,-8"/>
<text text-anchor="middle" x="967" y="-139.8" font-family="Veranda" font-size="14.00">Dense Reconstruction</text>
</g>
<g id="clust5" class="cluster">
<title>cluster_Sparse Reconstruction</title>
<polygon fill="white" stroke="black" points="658,-163 658,-886 1124,-886 1124,-163 658,-163"/>
<text text-anchor="middle" x="891" y="-870.8" font-family="Veranda" font-size="14.00">Sparse Reconstruction</text>
</g>
<g id="clust6" class="cluster">
<title>cluster_DetDescCorrespondenceGenerator</title>
<polygon fill="white" stroke="black" points="1770,-1038 1770,-1332 2021,-1332 2021,-1038 1770,-1038"/>
<text text-anchor="middle" x="1895.5" y="-1316.8" font-family="Veranda" font-size="14.00">DetDescCorrespondenceGenerator</text>
</g>
<!-- Data Association -->
<g id="node1" class="node">
<title>Data Association</title>
<path fill="lightskyblue" stroke="black" d="M920,-423C920,-423 808,-423 808,-423 802,-423 796,-417 796,-411 796,-411 796,-399 796,-399 796,-393 802,-387 808,-387 808,-387 920,-387 920,-387 926,-387 932,-393 932,-399 932,-399 932,-411 932,-411 932,-417 926,-423 920,-423"/>
<text text-anchor="middle" x="864" y="-401.3" font-family="Times,serif" font-size="14.00">Data Association</text>
</g>
<!-- 3D Tracks -->
<g id="node2" class="node">
<title>3D Tracks</title>
<path fill="gainsboro" stroke="black" d="M882.5,-351C882.5,-351 817.5,-351 817.5,-351 811.5,-351 805.5,-345 805.5,-339 805.5,-339 805.5,-327 805.5,-327 805.5,-321 811.5,-315 817.5,-315 817.5,-315 882.5,-315 882.5,-315 888.5,-315 894.5,-321 894.5,-327 894.5,-327 894.5,-339 894.5,-339 894.5,-345 888.5,-351 882.5,-351"/>
<text text-anchor="middle" x="850" y="-329.3" font-family="Times,serif" font-size="14.00">3D Tracks</text>
</g>
<!-- Data Association&#45;&gt;3D Tracks -->
<g id="edge1" class="edge">
<title>Data Association&#45;&gt;3D Tracks</title>
<path fill="none" stroke="#bfbfbf" d="M860.54,-386.7C859,-378.98 857.14,-369.71 855.42,-361.11"/>
<polygon fill="#bfbfbf" stroke="#bfbfbf" points="858.81,-360.22 853.42,-351.1 851.95,-361.6 858.81,-360.22"/>
</g>
<!-- Global Bundle Adjustment -->
<g id="node11" class="node">
<title>Global Bundle Adjustment</title>
<path fill="lightskyblue" stroke="black" d="M858,-279C858,-279 678,-279 678,-279 672,-279 666,-273 666,-267 666,-267 666,-255 666,-255 666,-249 672,-243 678,-243 678,-243 858,-243 858,-243 864,-243 870,-249 870,-255 870,-255 870,-267 870,-267 870,-273 864,-279 858,-279"/>
<text text-anchor="middle" x="768" y="-257.3" font-family="Times,serif" font-size="14.00">Global Bundle Adjustment</text>
</g>
<!-- 3D Tracks&#45;&gt;Global Bundle Adjustment -->
<g id="edge16" class="edge">
<title>3D Tracks&#45;&gt;Global Bundle Adjustment</title>
<path fill="none" stroke="#bfbfbf" d="M829.73,-314.7C819.5,-305.97 806.94,-295.24 795.82,-285.75"/>
<polygon fill="#bfbfbf" stroke="#bfbfbf" points="797.91,-282.94 788.04,-279.1 793.37,-288.26 797.91,-282.94"/>
</g>
<!-- View&#45;Graph Correspondences -->
<g id="node3" class="node">
<title>View&#45;Graph Correspondences</title>
<path fill="gainsboro" stroke="black" d="M1104,-639C1104,-639 900,-639 900,-639 894,-639 888,-633 888,-627 888,-627 888,-615 888,-615 888,-609 894,-603 900,-603 900,-603 1104,-603 1104,-603 1110,-603 1116,-609 1116,-615 1116,-615 1116,-627 1116,-627 1116,-633 1110,-639 1104,-639"/>
<text text-anchor="middle" x="1002" y="-617.3" font-family="Times,serif" font-size="14.00">View&#45;Graph Correspondences</text>
</g>
<!-- View&#45;Graph Correspondences&#45;&gt;Data Association -->
<g id="edge2" class="edge">
<title>View&#45;Graph Correspondences&#45;&gt;Data Association</title>
<path fill="none" stroke="#bfbfbf" d="M1000.52,-602.9C997,-571.35 985.66,-503.18 951,-459 941.15,-446.44 927.43,-436.15 913.8,-428.09"/>
<polygon fill="#bfbfbf" stroke="#bfbfbf" points="915.34,-424.94 904.9,-423.12 911.92,-431.05 915.34,-424.94"/>
</g>
<!-- Global Rotations -->
<g id="node4" class="node">
<title>Global Rotations</title>
<path fill="gainsboro" stroke="black" d="M808.5,-639C808.5,-639 697.5,-639 697.5,-639 691.5,-639 685.5,-633 685.5,-627 685.5,-627 685.5,-615 685.5,-615 685.5,-609 691.5,-603 697.5,-603 697.5,-603 808.5,-603 808.5,-603 814.5,-603 820.5,-609 820.5,-615 820.5,-615 820.5,-627 820.5,-627 820.5,-633 814.5,-639 808.5,-639"/>
<text text-anchor="middle" x="753" y="-617.3" font-family="Times,serif" font-size="14.00">Global Rotations</text>
</g>
<!-- Global Rotations&#45;&gt;Data Association -->
<g id="edge3" class="edge">
<title>Global Rotations&#45;&gt;Data Association</title>
<path fill="none" stroke="#bfbfbf" d="M751.24,-602.84C748.9,-571.48 748.11,-504 778,-459 786.44,-446.3 799.06,-436.11 812.06,-428.2"/>
<polygon fill="#bfbfbf" stroke="#bfbfbf" points="814.1,-431.06 821.06,-423.08 810.64,-424.97 814.1,-431.06"/>
</g>
<!-- Global Rotations&#45;&gt;Global Bundle Adjustment -->
<g id="edge15" class="edge">
<title>Global Rotations&#45;&gt;Global Bundle Adjustment</title>
<path fill="none" stroke="#bfbfbf" d="M750.83,-602.98C747.62,-576.37 742,-523.25 742,-478 742,-478 742,-478 742,-404 742,-363.55 752.33,-317.67 759.97,-289.28"/>
<polygon fill="#bfbfbf" stroke="#bfbfbf" points="763.44,-289.87 762.74,-279.3 756.69,-288 763.44,-289.87"/>
</g>
<!-- Translation Averaging -->
<g id="node27" class="node">
<title>Translation Averaging</title>
<path fill="lightskyblue" stroke="black" d="M944.5,-567C944.5,-567 793.5,-567 793.5,-567 787.5,-567 781.5,-561 781.5,-555 781.5,-555 781.5,-543 781.5,-543 781.5,-537 787.5,-531 793.5,-531 793.5,-531 944.5,-531 944.5,-531 950.5,-531 956.5,-537 956.5,-543 956.5,-543 956.5,-555 956.5,-555 956.5,-561 950.5,-567 944.5,-567"/>
<text text-anchor="middle" x="869" y="-545.3" font-family="Times,serif" font-size="14.00">Translation Averaging</text>
</g>
<!-- Global Rotations&#45;&gt;Translation Averaging -->
<g id="edge38" class="edge">
<title>Global Rotations&#45;&gt;Translation Averaging</title>
<path fill="none" stroke="#bfbfbf" d="M781.38,-602.88C796.54,-593.72 815.41,-582.34 831.74,-572.48"/>
<polygon fill="#bfbfbf" stroke="#bfbfbf" points="833.76,-575.35 840.51,-567.19 830.14,-569.36 833.76,-575.35"/>
</g>
<!-- Global Translations -->
<g id="node5" class="node">
<title>Global Translations</title>
<path fill="gainsboro" stroke="black" d="M929.5,-495C929.5,-495 798.5,-495 798.5,-495 792.5,-495 786.5,-489 786.5,-483 786.5,-483 786.5,-471 786.5,-471 786.5,-465 792.5,-459 798.5,-459 798.5,-459 929.5,-459 929.5,-459 935.5,-459 941.5,-465 941.5,-471 941.5,-471 941.5,-483 941.5,-483 941.5,-489 935.5,-495 929.5,-495"/>
<text text-anchor="middle" x="864" y="-473.3" font-family="Times,serif" font-size="14.00">Global Translations</text>
</g>
<!-- Global Translations&#45;&gt;Data Association -->
<g id="edge4" class="edge">
<title>Global Translations&#45;&gt;Data Association</title>
<path fill="none" stroke="#bfbfbf" d="M864,-458.7C864,-450.98 864,-441.71 864,-433.11"/>
<polygon fill="#bfbfbf" stroke="#bfbfbf" points="867.5,-433.1 864,-423.1 860.5,-433.1 867.5,-433.1"/>
</g>
<!-- Global Translations&#45;&gt;Global Bundle Adjustment -->
<g id="edge14" class="edge">
<title>Global Translations&#45;&gt;Global Bundle Adjustment</title>
<path fill="none" stroke="#bfbfbf" d="M826.43,-458.86C811.73,-450.22 796.22,-438.29 787,-423 762.08,-381.68 762.02,-323.49 764.69,-289.57"/>
<polygon fill="#bfbfbf" stroke="#bfbfbf" points="768.19,-289.74 765.63,-279.45 761.22,-289.09 768.19,-289.74"/>
</g>
<!-- Camera Intrinsics -->
<g id="node6" class="node">
<title>Camera Intrinsics</title>
<path fill="gainsboro" stroke="black" d="M661,-1229C661,-1229 541,-1229 541,-1229 535,-1229 529,-1223 529,-1217 529,-1217 529,-1205 529,-1205 529,-1199 535,-1193 541,-1193 541,-1193 661,-1193 661,-1193 667,-1193 673,-1199 673,-1205 673,-1205 673,-1217 673,-1217 673,-1223 667,-1229 661,-1229"/>
<text text-anchor="middle" x="601" y="-1207.3" font-family="Times,serif" font-size="14.00">Camera Intrinsics</text>
</g>
<!-- Camera Intrinsics&#45;&gt;Data Association -->
<g id="edge5" class="edge">
<title>Camera Intrinsics&#45;&gt;Data Association</title>
<path fill="none" stroke="#bfbfbf" d="M673.31,-1194.08C676.24,-1193.67 679.14,-1193.31 682,-1193 695.22,-1191.57 1628.43,-1193.06 1639,-1185 1687.51,-1148.03 1714,-981.99 1714,-921 1714,-921 1714,-921 1714,-548 1714,-470.17 1152.37,-425.04 942.16,-410.88"/>
<polygon fill="#bfbfbf" stroke="#bfbfbf" points="942.33,-407.38 932.12,-410.21 941.87,-414.37 942.33,-407.38"/>
</g>
<!-- Camera Intrinsics&#45;&gt;Global Bundle Adjustment -->
<g id="edge13" class="edge">
<title>Camera Intrinsics&#45;&gt;Global Bundle Adjustment</title>
<path fill="none" stroke="#bfbfbf" d="M591.69,-1192.71C578.25,-1166.08 555,-1113.07 555,-1065 555,-1065 555,-1065 555,-404 555,-339.17 624.16,-302.11 683.67,-282.23"/>
<polygon fill="#bfbfbf" stroke="#bfbfbf" points="685.05,-285.46 693.5,-279.07 682.91,-278.8 685.05,-285.46"/>
</g>
<!-- Two&#45;View Bundle Adjustment -->
<g id="node29" class="node">
<title>Two&#45;View Bundle Adjustment</title>
<path fill="lightskyblue" stroke="black" d="M1220,-1010C1220,-1010 1018,-1010 1018,-1010 1012,-1010 1006,-1004 1006,-998 1006,-998 1006,-986 1006,-986 1006,-980 1012,-974 1018,-974 1018,-974 1220,-974 1220,-974 1226,-974 1232,-980 1232,-986 1232,-986 1232,-998 1232,-998 1232,-1004 1226,-1010 1220,-1010"/>
<text text-anchor="middle" x="1119" y="-988.3" font-family="Times,serif" font-size="14.00">Two&#45;View Bundle Adjustment</text>
</g>
<!-- Camera Intrinsics&#45;&gt;Two&#45;View Bundle Adjustment -->
<g id="edge48" class="edge">
<title>Camera Intrinsics&#45;&gt;Two&#45;View Bundle Adjustment</title>
<path fill="none" stroke="#bfbfbf" d="M637.04,-1192.86C639.99,-1190.51 642.71,-1187.89 645,-1185 687.24,-1131.62 635.72,-1081.6 688,-1038 711.32,-1018.55 876.59,-1005.74 995.53,-998.93"/>
<polygon fill="#bfbfbf" stroke="#bfbfbf" points="996.02,-1002.4 1005.81,-998.35 995.62,-995.41 996.02,-1002.4"/>
</g>
<!-- Verifier -->
<g id="node37" class="node">
<title>Verifier</title>
<path fill="lightskyblue" stroke="black" d="M1398.5,-1154C1398.5,-1154 1353.5,-1154 1353.5,-1154 1347.5,-1154 1341.5,-1148 1341.5,-1142 1341.5,-1142 1341.5,-1130 1341.5,-1130 1341.5,-1124 1347.5,-1118 1353.5,-1118 1353.5,-1118 1398.5,-1118 1398.5,-1118 1404.5,-1118 1410.5,-1124 1410.5,-1130 1410.5,-1130 1410.5,-1142 1410.5,-1142 1410.5,-1148 1404.5,-1154 1398.5,-1154"/>
<text text-anchor="middle" x="1376" y="-1132.3" font-family="Times,serif" font-size="14.00">Verifier</text>
</g>
<!-- Camera Intrinsics&#45;&gt;Verifier -->
<g id="edge57" class="edge">
<title>Camera Intrinsics&#45;&gt;Verifier</title>
<path fill="none" stroke="#bfbfbf" d="M673.32,-1194.18C676.25,-1193.74 679.15,-1193.35 682,-1193 781.33,-1180.9 807.17,-1191.88 907,-1185 1063.22,-1174.24 1247.88,-1152.75 1331.23,-1142.58"/>
<polygon fill="#bfbfbf" stroke="#bfbfbf" points="1331.85,-1146.03 1341.35,-1141.34 1331,-1139.09 1331.85,-1146.03"/>
</g>
<!-- View&#45;Graph Estimator -->
<g id="node39" class="node">
<title>View&#45;Graph Estimator</title>
<path fill="lightskyblue" stroke="black" d="M1104,-855C1104,-855 952,-855 952,-855 946,-855 940,-849 940,-843 940,-843 940,-831 940,-831 940,-825 946,-819 952,-819 952,-819 1104,-819 1104,-819 1110,-819 1116,-825 1116,-831 1116,-831 1116,-843 1116,-843 1116,-849 1110,-855 1104,-855"/>
<text text-anchor="middle" x="1028" y="-833.3" font-family="Times,serif" font-size="14.00">View&#45;Graph Estimator</text>
</g>
<!-- Camera Intrinsics&#45;&gt;View&#45;Graph Estimator -->
<g id="edge63" class="edge">
<title>Camera Intrinsics&#45;&gt;View&#45;Graph Estimator</title>
<path fill="none" stroke="#bfbfbf" d="M606.93,-1192.83C615.67,-1165.92 631,-1112.04 631,-1065 631,-1065 631,-1065 631,-991 631,-927.12 812.22,-879.72 929.78,-855.69"/>
<polygon fill="#bfbfbf" stroke="#bfbfbf" points="930.78,-859.06 939.89,-853.65 929.4,-852.2 930.78,-859.06"/>
</g>
<!-- DetectorDescriptor -->
<g id="node7" class="node">
<title>DetectorDescriptor</title>
<path fill="lightskyblue" stroke="black" d="M1921.5,-1301C1921.5,-1301 1790.5,-1301 1790.5,-1301 1784.5,-1301 1778.5,-1295 1778.5,-1289 1778.5,-1289 1778.5,-1277 1778.5,-1277 1778.5,-1271 1784.5,-1265 1790.5,-1265 1790.5,-1265 1921.5,-1265 1921.5,-1265 1927.5,-1265 1933.5,-1271 1933.5,-1277 1933.5,-1277 1933.5,-1289 1933.5,-1289 1933.5,-1295 1927.5,-1301 1921.5,-1301"/>
<text text-anchor="middle" x="1856" y="-1279.3" font-family="Times,serif" font-size="14.00">DetectorDescriptor</text>
</g>
<!-- Keypoints -->
<g id="node8" class="node">
<title>Keypoints</title>
<path fill="gainsboro" stroke="black" d="M1853.5,-1229C1853.5,-1229 1790.5,-1229 1790.5,-1229 1784.5,-1229 1778.5,-1223 1778.5,-1217 1778.5,-1217 1778.5,-1205 1778.5,-1205 1778.5,-1199 1784.5,-1193 1790.5,-1193 1790.5,-1193 1853.5,-1193 1853.5,-1193 1859.5,-1193 1865.5,-1199 1865.5,-1205 1865.5,-1205 1865.5,-1217 1865.5,-1217 1865.5,-1223 1859.5,-1229 1853.5,-1229"/>
<text text-anchor="middle" x="1822" y="-1207.3" font-family="Times,serif" font-size="14.00">Keypoints</text>
</g>
<!-- DetectorDescriptor&#45;&gt;Keypoints -->
<g id="edge6" class="edge">
<title>DetectorDescriptor&#45;&gt;Keypoints</title>
<path fill="none" stroke="#bfbfbf" d="M1847.6,-1264.7C1843.73,-1256.73 1839.05,-1247.1 1834.76,-1238.26"/>
<polygon fill="#bfbfbf" stroke="#bfbfbf" points="1837.83,-1236.57 1830.31,-1229.1 1831.53,-1239.63 1837.83,-1236.57"/>
</g>
<!-- Descriptors -->
<g id="node9" class="node">
<title>Descriptors</title>
<path fill="gainsboro" stroke="black" d="M1972,-1229C1972,-1229 1896,-1229 1896,-1229 1890,-1229 1884,-1223 1884,-1217 1884,-1217 1884,-1205 1884,-1205 1884,-1199 1890,-1193 1896,-1193 1896,-1193 1972,-1193 1972,-1193 1978,-1193 1984,-1199 1984,-1205 1984,-1205 1984,-1217 1984,-1217 1984,-1223 1978,-1229 1972,-1229"/>
<text text-anchor="middle" x="1934" y="-1207.3" font-family="Times,serif" font-size="14.00">Descriptors</text>
</g>
<!-- DetectorDescriptor&#45;&gt;Descriptors -->
<g id="edge7" class="edge">
<title>DetectorDescriptor&#45;&gt;Descriptors</title>
<path fill="none" stroke="#bfbfbf" d="M1875.28,-1264.7C1884.92,-1256.05 1896.73,-1245.45 1907.23,-1236.03"/>
<polygon fill="#bfbfbf" stroke="#bfbfbf" points="1909.84,-1238.39 1914.94,-1229.1 1905.16,-1233.18 1909.84,-1238.39"/>
</g>
<!-- Matcher -->
<g id="node21" class="node">
<title>Matcher</title>
<path fill="lightskyblue" stroke="black" d="M1878.5,-1154C1878.5,-1154 1825.5,-1154 1825.5,-1154 1819.5,-1154 1813.5,-1148 1813.5,-1142 1813.5,-1142 1813.5,-1130 1813.5,-1130 1813.5,-1124 1819.5,-1118 1825.5,-1118 1825.5,-1118 1878.5,-1118 1878.5,-1118 1884.5,-1118 1890.5,-1124 1890.5,-1130 1890.5,-1130 1890.5,-1142 1890.5,-1142 1890.5,-1148 1884.5,-1154 1878.5,-1154"/>
<text text-anchor="middle" x="1852" y="-1132.3" font-family="Times,serif" font-size="14.00">Matcher</text>
</g>
<!-- Keypoints&#45;&gt;Matcher -->
<g id="edge26" class="edge">
<title>Keypoints&#45;&gt;Matcher</title>
<path fill="none" stroke="#bfbfbf" d="M1829.11,-1192.7C1832.7,-1183.97 1837.12,-1173.2 1841.13,-1163.46"/>
<polygon fill="#bfbfbf" stroke="#bfbfbf" points="1844.38,-1164.76 1844.94,-1154.18 1837.9,-1162.09 1844.38,-1164.76"/>
</g>
<!-- Keypoints&#45;&gt;Two&#45;View Bundle Adjustment -->
<g id="edge49" class="edge">
<title>Keypoints&#45;&gt;Two&#45;View Bundle Adjustment</title>
<path fill="none" stroke="#bfbfbf" d="M1778.24,-1200.85C1765.11,-1197.06 1751.01,-1191.89 1739,-1185 1655.81,-1137.26 1668.45,-1077.39 1581,-1038 1522.5,-1011.65 1358.03,-1000.67 1242.05,-996.13"/>
<polygon fill="#bfbfbf" stroke="#bfbfbf" points="1242.16,-992.63 1232.04,-995.75 1241.9,-999.63 1242.16,-992.63"/>
</g>
<!-- Keypoints&#45;&gt;Verifier -->
<g id="edge55" class="edge">
<title>Keypoints&#45;&gt;Verifier</title>
<path fill="none" stroke="#bfbfbf" d="M1778.29,-1206.94C1730.76,-1203.24 1652.65,-1196.11 1586,-1185 1528.28,-1175.38 1462.68,-1159.59 1420.38,-1148.77"/>
<polygon fill="#bfbfbf" stroke="#bfbfbf" points="1421.23,-1145.37 1410.68,-1146.26 1419.48,-1152.15 1421.23,-1145.37"/>
</g>
<!-- Keypoints&#45;&gt;View&#45;Graph Estimator -->
<g id="edge65" class="edge">
<title>Keypoints&#45;&gt;View&#45;Graph Estimator</title>
<path fill="none" stroke="#bfbfbf" d="M1810.29,-1192.79C1808.52,-1190.18 1806.71,-1187.52 1805,-1185 1717.31,-1055.76 1742.28,-973.76 1608,-894 1529.01,-847.08 1270.12,-838.55 1126.38,-837.55"/>
<polygon fill="#bfbfbf" stroke="#bfbfbf" points="1126.26,-834.05 1116.24,-837.49 1126.22,-841.05 1126.26,-834.05"/>
</g>
<!-- Descriptors&#45;&gt;Matcher -->
<g id="edge27" class="edge">
<title>Descriptors&#45;&gt;Matcher</title>
<path fill="none" stroke="#bfbfbf" d="M1914.57,-1192.7C1903.95,-1183.25 1890.63,-1171.39 1879.01,-1161.05"/>
<polygon fill="#bfbfbf" stroke="#bfbfbf" points="1881.09,-1158.21 1871.29,-1154.18 1876.44,-1163.44 1881.09,-1158.21"/>
</g>
<!-- Images -->
<g id="node10" class="node">
<title>Images</title>
<path fill="gainsboro" stroke="black" d="M747,-1229C747,-1229 703,-1229 703,-1229 697,-1229 691,-1223 691,-1217 691,-1217 691,-1205 691,-1205 691,-1199 697,-1193 703,-1193 703,-1193 747,-1193 747,-1193 753,-1193 759,-1199 759,-1205 759,-1205 759,-1217 759,-1217 759,-1223 753,-1229 747,-1229"/>
<text text-anchor="middle" x="725" y="-1207.3" font-family="Times,serif" font-size="14.00">Images</text>
</g>
<!-- Images&#45;&gt;DetectorDescriptor -->
<g id="edge8" class="edge">
<title>Images&#45;&gt;DetectorDescriptor</title>
<path fill="none" stroke="#bfbfbf" d="M759.27,-1226.44C762.52,-1227.44 765.8,-1228.32 769,-1229 959.01,-1269.24 1544.89,-1279.03 1768.26,-1281.33"/>
<polygon fill="#bfbfbf" stroke="#bfbfbf" points="1768.26,-1284.83 1778.3,-1281.43 1768.33,-1277.83 1768.26,-1284.83"/>
</g>
<!-- Multi&#45;view Stereo -->
<g id="node23" class="node">
<title>Multi&#45;view Stereo</title>
<path fill="lightskyblue" stroke="black" d="M1027,-124C1027,-124 907,-124 907,-124 901,-124 895,-118 895,-112 895,-112 895,-100 895,-100 895,-94 901,-88 907,-88 907,-88 1027,-88 1027,-88 1033,-88 1039,-94 1039,-100 1039,-100 1039,-112 1039,-112 1039,-118 1033,-124 1027,-124"/>
<text text-anchor="middle" x="967" y="-102.3" font-family="Times,serif" font-size="14.00">Multi&#45;view Stereo</text>
</g>
<!-- Images&#45;&gt;Multi&#45;view Stereo -->
<g id="edge30" class="edge">
<title>Images&#45;&gt;Multi&#45;view Stereo</title>
<path fill="none" stroke="#bfbfbf" d="M759.24,-1195.43C762.5,-1194.45 765.78,-1193.61 769,-1193 793.69,-1188.28 1653.21,-1199.13 1674,-1185 1750.18,-1133.23 1752,-1085.11 1752,-993 1752,-993 1752,-993 1752,-260 1752,-188.99 1250.74,-133.77 1049.32,-114.45"/>
<polygon fill="#bfbfbf" stroke="#bfbfbf" points="1049.38,-110.94 1039.09,-113.47 1048.72,-117.9 1049.38,-110.94"/>
</g>
<!-- Optimized Camera Poses -->
<g id="node12" class="node">
<title>Optimized Camera Poses</title>
<path fill="gainsboro" stroke="black" d="M853.5,-207C853.5,-207 682.5,-207 682.5,-207 676.5,-207 670.5,-201 670.5,-195 670.5,-195 670.5,-183 670.5,-183 670.5,-177 676.5,-171 682.5,-171 682.5,-171 853.5,-171 853.5,-171 859.5,-171 865.5,-177 865.5,-183 865.5,-183 865.5,-195 865.5,-195 865.5,-201 859.5,-207 853.5,-207"/>
<text text-anchor="middle" x="768" y="-185.3" font-family="Times,serif" font-size="14.00">Optimized Camera Poses</text>
</g>
<!-- Global Bundle Adjustment&#45;&gt;Optimized Camera Poses -->
<g id="edge9" class="edge">
<title>Global Bundle Adjustment&#45;&gt;Optimized Camera Poses</title>
<path fill="none" stroke="#bfbfbf" d="M768,-242.7C768,-234.98 768,-225.71 768,-217.11"/>
<polygon fill="#bfbfbf" stroke="#bfbfbf" points="771.5,-217.1 768,-207.1 764.5,-217.1 771.5,-217.1"/>
</g>
<!-- Optimized 3D Tracks -->
<g id="node13" class="node">
<title>Optimized 3D Tracks</title>
<path fill="gainsboro" stroke="black" d="M1038.5,-207C1038.5,-207 895.5,-207 895.5,-207 889.5,-207 883.5,-201 883.5,-195 883.5,-195 883.5,-183 883.5,-183 883.5,-177 889.5,-171 895.5,-171 895.5,-171 1038.5,-171 1038.5,-171 1044.5,-171 1050.5,-177 1050.5,-183 1050.5,-183 1050.5,-195 1050.5,-195 1050.5,-201 1044.5,-207 1038.5,-207"/>
<text text-anchor="middle" x="967" y="-185.3" font-family="Times,serif" font-size="14.00">Optimized 3D Tracks</text>
</g>
<!-- Global Bundle Adjustment&#45;&gt;Optimized 3D Tracks -->
<g id="edge10" class="edge">
<title>Global Bundle Adjustment&#45;&gt;Optimized 3D Tracks</title>
<path fill="none" stroke="#bfbfbf" d="M816.43,-242.97C844.23,-233.19 879.34,-220.84 908.65,-210.52"/>
<polygon fill="#bfbfbf" stroke="#bfbfbf" points="910.08,-213.73 918.36,-207.11 907.76,-207.13 910.08,-213.73"/>
</g>
<!-- Optimized Camera Poses&#45;&gt;Multi&#45;view Stereo -->
<g id="edge31" class="edge">
<title>Optimized Camera Poses&#45;&gt;Multi&#45;view Stereo</title>
<path fill="none" stroke="#bfbfbf" d="M810.2,-170.82C841.04,-158.27 883.02,-141.18 915.79,-127.85"/>
<polygon fill="#bfbfbf" stroke="#bfbfbf" points="917.26,-131.03 925.2,-124.01 914.62,-124.54 917.26,-131.03"/>
</g>
<!-- Optimized 3D Tracks&#45;&gt;Multi&#45;view Stereo -->
<g id="edge32" class="edge">
<title>Optimized 3D Tracks&#45;&gt;Multi&#45;view Stereo</title>
<path fill="none" stroke="#bfbfbf" d="M967,-170.82C967,-160.19 967,-146.31 967,-134.2"/>
<polygon fill="#bfbfbf" stroke="#bfbfbf" points="970.5,-134.15 967,-124.15 963.5,-134.15 970.5,-134.15"/>
</g>
<!-- Absolute Pose Priors -->
<g id="node14" class="node">
<title>Absolute Pose Priors</title>
<path fill="gainsboro" stroke="black" d="M499,-1229C499,-1229 359,-1229 359,-1229 353,-1229 347,-1223 347,-1217 347,-1217 347,-1205 347,-1205 347,-1199 353,-1193 359,-1193 359,-1193 499,-1193 499,-1193 505,-1193 511,-1199 511,-1205 511,-1205 511,-1217 511,-1217 511,-1223 505,-1229 499,-1229"/>
<text text-anchor="middle" x="429" y="-1207.3" font-family="Times,serif" font-size="14.00">Absolute Pose Priors</text>
</g>
<!-- Absolute Pose Priors&#45;&gt;Global Bundle Adjustment -->
<g id="edge11" class="edge">
<title>Absolute Pose Priors&#45;&gt;Global Bundle Adjustment</title>
<path fill="none" stroke="#bfbfbf" d="M483.44,-1192.9C486.6,-1190.59 489.5,-1187.97 492,-1185 527.06,-1143.3 517,-1119.48 517,-1065 517,-1065 517,-1065 517,-404 517,-358.19 532.56,-342.77 569,-315 594.08,-295.89 625.51,-283.65 655.92,-275.83"/>
<polygon fill="#bfbfbf" stroke="#bfbfbf" points="656.86,-279.2 665.75,-273.44 655.21,-272.4 656.86,-279.2"/>
</g>
<!-- Absolute Pose Priors&#45;&gt;Translation Averaging -->
<g id="edge39" class="edge">
<title>Absolute Pose Priors&#45;&gt;Translation Averaging</title>
<path fill="none" stroke="#bfbfbf" d="M511.25,-1193.96C514.2,-1193.6 517.12,-1193.28 520,-1193 535.04,-1191.55 1596.56,-1194.87 1608,-1185 1667.09,-1134.02 1662,-916.04 1662,-838 1662,-838 1662,-838 1662,-692 1662,-622.12 1178.71,-574.81 966.71,-557.41"/>
<polygon fill="#bfbfbf" stroke="#bfbfbf" points="966.76,-553.9 956.51,-556.58 966.2,-560.88 966.76,-553.9"/>
</g>
<!-- Relative Pose Priors -->
<g id="node15" class="node">
<title>Relative Pose Priors</title>
<path fill="gainsboro" stroke="black" d="M316.5,-1229C316.5,-1229 179.5,-1229 179.5,-1229 173.5,-1229 167.5,-1223 167.5,-1217 167.5,-1217 167.5,-1205 167.5,-1205 167.5,-1199 173.5,-1193 179.5,-1193 179.5,-1193 316.5,-1193 316.5,-1193 322.5,-1193 328.5,-1199 328.5,-1205 328.5,-1205 328.5,-1217 328.5,-1217 328.5,-1223 322.5,-1229 316.5,-1229"/>
<text text-anchor="middle" x="248" y="-1207.3" font-family="Times,serif" font-size="14.00">Relative Pose Priors</text>
</g>
<!-- Relative Pose Priors&#45;&gt;Global Bundle Adjustment -->
<g id="edge12" class="edge">
<title>Relative Pose Priors&#45;&gt;Global Bundle Adjustment</title>
<path fill="none" stroke="#bfbfbf" d="M264.54,-1192.85C287.44,-1167.24 326,-1116.45 326,-1065 326,-1065 326,-1065 326,-404 326,-334.82 524.72,-294.57 655.67,-275.56"/>
<polygon fill="#bfbfbf" stroke="#bfbfbf" points="656.36,-279 665.76,-274.12 655.37,-272.07 656.36,-279"/>
</g>
<!-- Rotation Averaging -->
<g id="node25" class="node">
<title>Rotation Averaging</title>
<path fill="lightskyblue" stroke="black" d="M809.5,-711C809.5,-711 678.5,-711 678.5,-711 672.5,-711 666.5,-705 666.5,-699 666.5,-699 666.5,-687 666.5,-687 666.5,-681 672.5,-675 678.5,-675 678.5,-675 809.5,-675 809.5,-675 815.5,-675 821.5,-681 821.5,-687 821.5,-687 821.5,-699 821.5,-699 821.5,-705 815.5,-711 809.5,-711"/>
<text text-anchor="middle" x="744" y="-689.3" font-family="Times,serif" font-size="14.00">Rotation Averaging</text>
</g>
<!-- Relative Pose Priors&#45;&gt;Rotation Averaging -->
<g id="edge35" class="edge">
<title>Relative Pose Priors&#45;&gt;Rotation Averaging</title>
<path fill="none" stroke="#bfbfbf" d="M328.88,-1194.25C331.96,-1193.8 335,-1193.38 338,-1193 363.85,-1189.69 432.86,-1198.75 455,-1185 466.96,-1177.57 702.66,-759.01 710,-747 715.5,-738 721.69,-728.26 727.26,-719.61"/>
<polygon fill="#bfbfbf" stroke="#bfbfbf" points="730.29,-721.36 732.79,-711.07 724.41,-717.56 730.29,-721.36"/>
</g>
<!-- Relative Pose Priors&#45;&gt;Translation Averaging -->
<g id="edge40" class="edge">
<title>Relative Pose Priors&#45;&gt;Translation Averaging</title>
<path fill="none" stroke="#bfbfbf" d="M327.75,-1192.79C332.07,-1190.51 336.2,-1187.93 340,-1185 576.93,-1002.77 440.44,-785.7 677,-603 704.03,-582.12 738.79,-569.46 771.29,-561.79"/>
<polygon fill="#bfbfbf" stroke="#bfbfbf" points="772.29,-565.15 781.29,-559.57 770.77,-558.32 772.29,-565.15"/>
</g>
<!-- Relative Pose Priors&#45;&gt;Two&#45;View Bundle Adjustment -->
<g id="edge47" class="edge">
<title>Relative Pose Priors&#45;&gt;Two&#45;View Bundle Adjustment</title>
<path fill="none" stroke="#bfbfbf" d="M328.87,-1194.19C331.95,-1193.76 335,-1193.36 338,-1193 372.25,-1188.9 461.08,-1198.05 493,-1185 584.22,-1147.7 568.67,-1077.39 659,-1038 717.37,-1012.55 880.17,-1001.36 995.48,-996.53"/>
<polygon fill="#bfbfbf" stroke="#bfbfbf" points="995.93,-1000.02 1005.78,-996.11 995.65,-993.02 995.93,-1000.02"/>
</g>
<!-- Image Loader -->
<g id="node16" class="node">
<title>Image Loader</title>
<path fill="lightskyblue" stroke="black" d="M560.5,-1301C560.5,-1301 469.5,-1301 469.5,-1301 463.5,-1301 457.5,-1295 457.5,-1289 457.5,-1289 457.5,-1277 457.5,-1277 457.5,-1271 463.5,-1265 469.5,-1265 469.5,-1265 560.5,-1265 560.5,-1265 566.5,-1265 572.5,-1271 572.5,-1277 572.5,-1277 572.5,-1289 572.5,-1289 572.5,-1295 566.5,-1301 560.5,-1301"/>
<text text-anchor="middle" x="515" y="-1279.3" font-family="Times,serif" font-size="14.00">Image Loader</text>
</g>
<!-- Image Loader&#45;&gt;Camera Intrinsics -->
<g id="edge18" class="edge">
<title>Image Loader&#45;&gt;Camera Intrinsics</title>
<path fill="none" stroke="#bfbfbf" d="M536.26,-1264.7C547.09,-1255.88 560.42,-1245.03 572.16,-1235.47"/>
<polygon fill="#bfbfbf" stroke="#bfbfbf" points="574.44,-1238.13 579.99,-1229.1 570.02,-1232.7 574.44,-1238.13"/>
</g>
<!-- Image Loader&#45;&gt;Images -->
<g id="edge17" class="edge">
<title>Image Loader&#45;&gt;Images</title>
<path fill="none" stroke="#bfbfbf" d="M572.14,-1264.94C602.27,-1255.69 640,-1243.73 681.37,-1229.12"/>
<polygon fill="#bfbfbf" stroke="#bfbfbf" points="682.56,-1232.41 690.81,-1225.76 680.22,-1225.82 682.56,-1232.41"/>
</g>
<!-- Image Loader&#45;&gt;Absolute Pose Priors -->
<g id="edge21" class="edge">
<title>Image Loader&#45;&gt;Absolute Pose Priors</title>
<path fill="none" stroke="#bfbfbf" d="M493.74,-1264.7C482.91,-1255.88 469.58,-1245.03 457.84,-1235.47"/>
<polygon fill="#bfbfbf" stroke="#bfbfbf" points="459.98,-1232.7 450.01,-1229.1 455.56,-1238.13 459.98,-1232.7"/>
</g>
<!-- Image Loader&#45;&gt;Relative Pose Priors -->
<g id="edge20" class="edge">
<title>Image Loader&#45;&gt;Relative Pose Priors</title>
<path fill="none" stroke="#bfbfbf" d="M457.39,-1266.9C418,-1256.57 365.4,-1242.78 322.77,-1231.6"/>
<polygon fill="#bfbfbf" stroke="#bfbfbf" points="323.57,-1228.19 313.01,-1229.04 321.79,-1234.96 323.57,-1228.19"/>
</g>
<!-- Image Shapes -->
<g id="node17" class="node">
<title>Image Shapes</title>
<path fill="gainsboro" stroke="black" d="M882.5,-1229C882.5,-1229 789.5,-1229 789.5,-1229 783.5,-1229 777.5,-1223 777.5,-1217 777.5,-1217 777.5,-1205 777.5,-1205 777.5,-1199 783.5,-1193 789.5,-1193 789.5,-1193 882.5,-1193 882.5,-1193 888.5,-1193 894.5,-1199 894.5,-1205 894.5,-1205 894.5,-1217 894.5,-1217 894.5,-1223 888.5,-1229 882.5,-1229"/>
<text text-anchor="middle" x="836" y="-1207.3" font-family="Times,serif" font-size="14.00">Image Shapes</text>
</g>
<!-- Image Loader&#45;&gt;Image Shapes -->
<g id="edge19" class="edge">
<title>Image Loader&#45;&gt;Image Shapes</title>
<path fill="none" stroke="#bfbfbf" d="M572.66,-1270.58C621.83,-1260.69 694.61,-1245.7 767.6,-1229.05"/>
<polygon fill="#bfbfbf" stroke="#bfbfbf" points="768.46,-1232.44 777.43,-1226.79 766.9,-1225.62 768.46,-1232.44"/>
</g>
<!-- Image Retriever -->
<g id="node19" class="node">
<title>Image Retriever</title>
<path fill="lightskyblue" stroke="black" d="M137.5,-1229C137.5,-1229 28.5,-1229 28.5,-1229 22.5,-1229 16.5,-1223 16.5,-1217 16.5,-1217 16.5,-1205 16.5,-1205 16.5,-1199 22.5,-1193 28.5,-1193 28.5,-1193 137.5,-1193 137.5,-1193 143.5,-1193 149.5,-1199 149.5,-1205 149.5,-1205 149.5,-1217 149.5,-1217 149.5,-1223 143.5,-1229 137.5,-1229"/>
<text text-anchor="middle" x="83" y="-1207.3" font-family="Times,serif" font-size="14.00">Image Retriever</text>
</g>
<!-- Image Loader&#45;&gt;Image Retriever -->
<g id="edge24" class="edge">
<title>Image Loader&#45;&gt;Image Retriever</title>
<path fill="none" stroke="#bfbfbf" d="M457.45,-1274.73C388.95,-1265.79 270.91,-1249.48 159.72,-1229.06"/>
<polygon fill="#bfbfbf" stroke="#bfbfbf" points="160.14,-1225.58 149.67,-1227.2 158.87,-1232.46 160.14,-1225.58"/>
</g>
<!-- Image Shapes&#45;&gt;Matcher -->
<g id="edge28" class="edge">
<title>Image Shapes&#45;&gt;Matcher</title>
<path fill="none" stroke="#bfbfbf" d="M894.63,-1209.52C1080.29,-1207.86 1647.82,-1201.46 1729,-1185 1756.35,-1179.46 1785.5,-1168.33 1808.55,-1158.19"/>
<polygon fill="#bfbfbf" stroke="#bfbfbf" points="1810.03,-1161.36 1817.71,-1154.07 1807.16,-1154.98 1810.03,-1161.36"/>
</g>
<!-- Source Directory -->
<g id="node18" class="node">
<title>Source Directory</title>
<ellipse fill="none" stroke="black" cx="515" cy="-1358" rx="89.88" ry="18"/>
<text text-anchor="middle" x="515" y="-1354.3" font-family="Times,serif" font-size="14.00">Source Directory</text>
</g>
<!-- Source Directory&#45;&gt;Image Loader -->
<g id="edge22" class="edge">
<title>Source Directory&#45;&gt;Image Loader</title>
<path fill="none" stroke="#bfbfbf" d="M515,-1339.7C515,-1331.25 515,-1320.87 515,-1311.37"/>
<polygon fill="#bfbfbf" stroke="#bfbfbf" points="518.5,-1311.18 515,-1301.18 511.5,-1311.18 518.5,-1311.18"/>
</g>
<!-- Image Pair Indices -->
<g id="node20" class="node">
<title>Image Pair Indices</title>
<path fill="gainsboro" stroke="black" d="M152.5,-1154C152.5,-1154 27.5,-1154 27.5,-1154 21.5,-1154 15.5,-1148 15.5,-1142 15.5,-1142 15.5,-1130 15.5,-1130 15.5,-1124 21.5,-1118 27.5,-1118 27.5,-1118 152.5,-1118 152.5,-1118 158.5,-1118 164.5,-1124 164.5,-1130 164.5,-1130 164.5,-1142 164.5,-1142 164.5,-1148 158.5,-1154 152.5,-1154"/>
<text text-anchor="middle" x="90" y="-1132.3" font-family="Times,serif" font-size="14.00">Image Pair Indices</text>
</g>
<!-- Image Retriever&#45;&gt;Image Pair Indices -->
<g id="edge23" class="edge">
<title>Image Retriever&#45;&gt;Image Pair Indices</title>
<path fill="none" stroke="#bfbfbf" d="M84.66,-1192.7C85.47,-1184.25 86.46,-1173.87 87.38,-1164.37"/>
<polygon fill="#bfbfbf" stroke="#bfbfbf" points="90.88,-1164.46 88.35,-1154.18 83.91,-1163.8 90.88,-1164.46"/>
</g>
<!-- Putative Correspondences -->
<g id="node22" class="node">
<title>Putative Correspondences</title>
<path fill="gainsboro" stroke="black" d="M1973.5,-1082C1973.5,-1082 1792.5,-1082 1792.5,-1082 1786.5,-1082 1780.5,-1076 1780.5,-1070 1780.5,-1070 1780.5,-1058 1780.5,-1058 1780.5,-1052 1786.5,-1046 1792.5,-1046 1792.5,-1046 1973.5,-1046 1973.5,-1046 1979.5,-1046 1985.5,-1052 1985.5,-1058 1985.5,-1058 1985.5,-1070 1985.5,-1070 1985.5,-1076 1979.5,-1082 1973.5,-1082"/>
<text text-anchor="middle" x="1883" y="-1060.3" font-family="Times,serif" font-size="14.00">Putative Correspondences</text>
</g>
<!-- Matcher&#45;&gt;Putative Correspondences -->
<g id="edge25" class="edge">
<title>Matcher&#45;&gt;Putative Correspondences</title>
<path fill="none" stroke="#bfbfbf" d="M1859.66,-1117.7C1863.19,-1109.73 1867.46,-1100.1 1871.37,-1091.26"/>
<polygon fill="#bfbfbf" stroke="#bfbfbf" points="1874.58,-1092.67 1875.43,-1082.1 1868.18,-1089.83 1874.58,-1092.67"/>
</g>
<!-- Putative Correspondences&#45;&gt;Verifier -->
<g id="edge56" class="edge">
<title>Putative Correspondences&#45;&gt;Verifier</title>
<path fill="none" stroke="#bfbfbf" d="M1780.37,-1079.17C1670.53,-1094.33 1501.28,-1117.7 1421.1,-1128.77"/>
<polygon fill="#bfbfbf" stroke="#bfbfbf" points="1420.28,-1125.35 1410.85,-1130.19 1421.23,-1132.29 1420.28,-1125.35"/>
</g>
<!-- Dense Colored 3D Point Cloud -->
<g id="node24" class="node">
<title>Dense Colored 3D Point Cloud</title>
<path fill="gainsboro" stroke="black" d="M1071.5,-52C1071.5,-52 862.5,-52 862.5,-52 856.5,-52 850.5,-46 850.5,-40 850.5,-40 850.5,-28 850.5,-28 850.5,-22 856.5,-16 862.5,-16 862.5,-16 1071.5,-16 1071.5,-16 1077.5,-16 1083.5,-22 1083.5,-28 1083.5,-28 1083.5,-40 1083.5,-40 1083.5,-46 1077.5,-52 1071.5,-52"/>
<text text-anchor="middle" x="967" y="-30.3" font-family="Times,serif" font-size="14.00">Dense Colored 3D Point Cloud</text>
</g>
<!-- Multi&#45;view Stereo&#45;&gt;Dense Colored 3D Point Cloud -->
<g id="edge29" class="edge">
<title>Multi&#45;view Stereo&#45;&gt;Dense Colored 3D Point Cloud</title>
<path fill="none" stroke="#bfbfbf" d="M967,-87.7C967,-79.98 967,-70.71 967,-62.11"/>
<polygon fill="#bfbfbf" stroke="#bfbfbf" points="970.5,-62.1 967,-52.1 963.5,-62.1 970.5,-62.1"/>
</g>
<!-- Rotation Averaging&#45;&gt;Global Rotations -->
<g id="edge33" class="edge">
<title>Rotation Averaging&#45;&gt;Global Rotations</title>
<path fill="none" stroke="#bfbfbf" d="M746.22,-674.7C747.22,-666.98 748.41,-657.71 749.51,-649.11"/>
<polygon fill="#bfbfbf" stroke="#bfbfbf" points="753,-649.47 750.8,-639.1 746.05,-648.58 753,-649.47"/>
</g>
<!-- View&#45;Graph Relative Rotations -->
<g id="node26" class="node">
<title>View&#45;Graph Relative Rotations</title>
<path fill="gainsboro" stroke="black" d="M943,-783C943,-783 731,-783 731,-783 725,-783 719,-777 719,-771 719,-771 719,-759 719,-759 719,-753 725,-747 731,-747 731,-747 943,-747 943,-747 949,-747 955,-753 955,-759 955,-759 955,-771 955,-771 955,-777 949,-783 943,-783"/>
<text text-anchor="middle" x="837" y="-761.3" font-family="Times,serif" font-size="14.00">View&#45;Graph Relative Rotations</text>
</g>
<!-- View&#45;Graph Relative Rotations&#45;&gt;Rotation Averaging -->
<g id="edge34" class="edge">
<title>View&#45;Graph Relative Rotations&#45;&gt;Rotation Averaging</title>
<path fill="none" stroke="#bfbfbf" d="M814.01,-746.7C802.19,-737.8 787.61,-726.82 774.82,-717.2"/>
<polygon fill="#bfbfbf" stroke="#bfbfbf" points="776.82,-714.32 766.72,-711.1 772.61,-719.91 776.82,-714.32"/>
</g>
<!-- Translation Averaging&#45;&gt;Global Translations -->
<g id="edge36" class="edge">
<title>Translation Averaging&#45;&gt;Global Translations</title>
<path fill="none" stroke="#bfbfbf" d="M867.76,-530.7C867.21,-522.98 866.55,-513.71 865.94,-505.11"/>
<polygon fill="#bfbfbf" stroke="#bfbfbf" points="869.43,-504.83 865.22,-495.1 862.44,-505.33 869.43,-504.83"/>
</g>
<!-- View&#45;Graph Relative Translations -->
<g id="node28" class="node">
<title>View&#45;Graph Relative Translations</title>
<path fill="gainsboro" stroke="black" d="M1084,-711C1084,-711 852,-711 852,-711 846,-711 840,-705 840,-699 840,-699 840,-687 840,-687 840,-681 846,-675 852,-675 852,-675 1084,-675 1084,-675 1090,-675 1096,-681 1096,-687 1096,-687 1096,-699 1096,-699 1096,-705 1090,-711 1084,-711"/>
<text text-anchor="middle" x="968" y="-689.3" font-family="Times,serif" font-size="14.00">View&#45;Graph Relative Translations</text>
</g>
<!-- View&#45;Graph Relative Translations&#45;&gt;Translation Averaging -->
<g id="edge37" class="edge">
<title>View&#45;Graph Relative Translations&#45;&gt;Translation Averaging</title>
<path fill="none" stroke="#bfbfbf" d="M922.32,-675C906.05,-666.64 889.23,-654.87 879,-639 867.25,-620.78 865.33,-596.01 866.02,-577.23"/>
<polygon fill="#bfbfbf" stroke="#bfbfbf" points="869.52,-577.42 866.65,-567.22 862.53,-576.98 869.52,-577.42"/>
</g>
<!-- Optimized Relative Rotation -->
<g id="node30" class="node">
<title>Optimized Relative Rotation</title>
<path fill="gainsboro" stroke="black" d="M1125,-938C1125,-938 931,-938 931,-938 925,-938 919,-932 919,-926 919,-926 919,-914 919,-914 919,-908 925,-902 931,-902 931,-902 1125,-902 1125,-902 1131,-902 1137,-908 1137,-914 1137,-914 1137,-926 1137,-926 1137,-932 1131,-938 1125,-938"/>
<text text-anchor="middle" x="1028" y="-916.3" font-family="Times,serif" font-size="14.00">Optimized Relative Rotation</text>
</g>
<!-- Two&#45;View Bundle Adjustment&#45;&gt;Optimized Relative Rotation -->
<g id="edge41" class="edge">
<title>Two&#45;View Bundle Adjustment&#45;&gt;Optimized Relative Rotation</title>
<path fill="none" stroke="#bfbfbf" d="M1096.51,-973.7C1085.04,-964.88 1070.94,-954.03 1058.52,-944.47"/>
<polygon fill="#bfbfbf" stroke="#bfbfbf" points="1060.3,-941.43 1050.24,-938.1 1056.03,-946.98 1060.3,-941.43"/>
</g>
<!-- Optimized Relative Translation -->
<g id="node31" class="node">
<title>Optimized Relative Translation</title>
<path fill="gainsboro" stroke="black" d="M1382.5,-938C1382.5,-938 1167.5,-938 1167.5,-938 1161.5,-938 1155.5,-932 1155.5,-926 1155.5,-926 1155.5,-914 1155.5,-914 1155.5,-908 1161.5,-902 1167.5,-902 1167.5,-902 1382.5,-902 1382.5,-902 1388.5,-902 1394.5,-908 1394.5,-914 1394.5,-914 1394.5,-926 1394.5,-926 1394.5,-932 1388.5,-938 1382.5,-938"/>
<text text-anchor="middle" x="1275" y="-916.3" font-family="Times,serif" font-size="14.00">Optimized Relative Translation</text>
</g>
<!-- Two&#45;View Bundle Adjustment&#45;&gt;Optimized Relative Translation -->
<g id="edge42" class="edge">
<title>Two&#45;View Bundle Adjustment&#45;&gt;Optimized Relative Translation</title>
<path fill="none" stroke="#bfbfbf" d="M1157.16,-973.88C1178.39,-964.35 1205.01,-952.41 1227.57,-942.28"/>
<polygon fill="#bfbfbf" stroke="#bfbfbf" points="1229.27,-945.36 1236.96,-938.07 1226.41,-938.97 1229.27,-945.36"/>
</g>
<!-- Inlier Correspondences -->
<g id="node32" class="node">
<title>Inlier Correspondences</title>
<path fill="gainsboro" stroke="black" d="M1583.5,-938C1583.5,-938 1424.5,-938 1424.5,-938 1418.5,-938 1412.5,-932 1412.5,-926 1412.5,-926 1412.5,-914 1412.5,-914 1412.5,-908 1418.5,-902 1424.5,-902 1424.5,-902 1583.5,-902 1583.5,-902 1589.5,-902 1595.5,-908 1595.5,-914 1595.5,-914 1595.5,-926 1595.5,-926 1595.5,-932 1589.5,-938 1583.5,-938"/>
<text text-anchor="middle" x="1504" y="-916.3" font-family="Times,serif" font-size="14.00">Inlier Correspondences</text>
</g>
<!-- Two&#45;View Bundle Adjustment&#45;&gt;Inlier Correspondences -->
<g id="edge43" class="edge">
<title>Two&#45;View Bundle Adjustment&#45;&gt;Inlier Correspondences</title>
<path fill="none" stroke="#bfbfbf" d="M1212.69,-973.97C1270.03,-963.54 1343.41,-950.2 1402.18,-939.51"/>
<polygon fill="#bfbfbf" stroke="#bfbfbf" points="1403.01,-942.92 1412.22,-937.69 1401.76,-936.03 1403.01,-942.92"/>
</g>
<!-- Optimized Relative Rotation&#45;&gt;View&#45;Graph Estimator -->
<g id="edge61" class="edge">
<title>Optimized Relative Rotation&#45;&gt;View&#45;Graph Estimator</title>
<path fill="none" stroke="#bfbfbf" d="M1028,-901.82C1028,-891.19 1028,-877.31 1028,-865.2"/>
<polygon fill="#bfbfbf" stroke="#bfbfbf" points="1031.5,-865.15 1028,-855.15 1024.5,-865.15 1031.5,-865.15"/>
</g>
<!-- Optimized Relative Translation&#45;&gt;View&#45;Graph Estimator -->
<g id="edge62" class="edge">
<title>Optimized Relative Translation&#45;&gt;View&#45;Graph Estimator</title>
<path fill="none" stroke="#bfbfbf" d="M1222.92,-901.92C1184,-889.16 1130.67,-871.67 1089.63,-858.21"/>
<polygon fill="#bfbfbf" stroke="#bfbfbf" points="1090.6,-854.85 1080.01,-855.06 1088.42,-861.5 1090.6,-854.85"/>
</g>
<!-- Inlier Correspondences&#45;&gt;View&#45;Graph Estimator -->
<g id="edge64" class="edge">
<title>Inlier Correspondences&#45;&gt;View&#45;Graph Estimator</title>
<path fill="none" stroke="#bfbfbf" d="M1439.66,-901.94C1427.84,-899.08 1415.58,-896.3 1404,-894 1310.3,-875.36 1202.35,-859.89 1126.22,-849.97"/>
<polygon fill="#bfbfbf" stroke="#bfbfbf" points="1126.53,-846.48 1116.17,-848.67 1125.63,-853.43 1126.53,-846.48"/>
</g>
<!-- Relative Rotation -->
<g id="node33" class="node">
<title>Relative Rotation</title>
<path fill="gainsboro" stroke="black" d="M1265,-1082C1265,-1082 1149,-1082 1149,-1082 1143,-1082 1137,-1076 1137,-1070 1137,-1070 1137,-1058 1137,-1058 1137,-1052 1143,-1046 1149,-1046 1149,-1046 1265,-1046 1265,-1046 1271,-1046 1277,-1052 1277,-1058 1277,-1058 1277,-1070 1277,-1070 1277,-1076 1271,-1082 1265,-1082"/>
<text text-anchor="middle" x="1207" y="-1060.3" font-family="Times,serif" font-size="14.00">Relative Rotation</text>
</g>
<!-- Relative Rotation&#45;&gt;Two&#45;View Bundle Adjustment -->
<g id="edge44" class="edge">
<title>Relative Rotation&#45;&gt;Two&#45;View Bundle Adjustment</title>
<path fill="none" stroke="#bfbfbf" d="M1185.25,-1045.7C1174.16,-1036.88 1160.53,-1026.03 1148.51,-1016.47"/>
<polygon fill="#bfbfbf" stroke="#bfbfbf" points="1150.51,-1013.59 1140.5,-1010.1 1146.15,-1019.07 1150.51,-1013.59"/>
</g>
<!-- Relative Translation -->
<g id="node34" class="node">
<title>Relative Translation</title>
<path fill="gainsboro" stroke="black" d="M1444.5,-1082C1444.5,-1082 1307.5,-1082 1307.5,-1082 1301.5,-1082 1295.5,-1076 1295.5,-1070 1295.5,-1070 1295.5,-1058 1295.5,-1058 1295.5,-1052 1301.5,-1046 1307.5,-1046 1307.5,-1046 1444.5,-1046 1444.5,-1046 1450.5,-1046 1456.5,-1052 1456.5,-1058 1456.5,-1058 1456.5,-1070 1456.5,-1070 1456.5,-1076 1450.5,-1082 1444.5,-1082"/>
<text text-anchor="middle" x="1376" y="-1060.3" font-family="Times,serif" font-size="14.00">Relative Translation</text>
</g>
<!-- Relative Translation&#45;&gt;Two&#45;View Bundle Adjustment -->
<g id="edge45" class="edge">
<title>Relative Translation&#45;&gt;Two&#45;View Bundle Adjustment</title>
<path fill="none" stroke="#bfbfbf" d="M1315.02,-1045.99C1305.31,-1043.31 1295.39,-1040.57 1286,-1038 1255.43,-1029.63 1221.67,-1020.52 1192.55,-1012.69"/>
<polygon fill="#bfbfbf" stroke="#bfbfbf" points="1193.43,-1009.3 1182.87,-1010.09 1191.62,-1016.06 1193.43,-1009.3"/>
</g>
<!-- Triangulated Points -->
<g id="node35" class="node">
<title>Triangulated Points</title>
<ellipse fill="none" stroke="black" cx="799" cy="-1064" rx="102.08" ry="18"/>
<text text-anchor="middle" x="799" y="-1060.3" font-family="Times,serif" font-size="14.00">Triangulated Points</text>
</g>
<!-- Triangulated Points&#45;&gt;Two&#45;View Bundle Adjustment -->
<g id="edge46" class="edge">
<title>Triangulated Points&#45;&gt;Two&#45;View Bundle Adjustment</title>
<path fill="none" stroke="#bfbfbf" d="M857.53,-1049.25C873.55,-1045.54 890.94,-1041.56 907,-1038 946.37,-1029.27 989.93,-1019.96 1027.27,-1012.09"/>
<polygon fill="#bfbfbf" stroke="#bfbfbf" points="1028.06,-1015.5 1037.13,-1010.01 1026.62,-1008.65 1028.06,-1015.5"/>
</g>
<!-- Verified Correspondences -->
<g id="node36" class="node">
<title>Verified Correspondences</title>
<path fill="gainsboro" stroke="black" d="M1107,-1082C1107,-1082 931,-1082 931,-1082 925,-1082 919,-1076 919,-1070 919,-1070 919,-1058 919,-1058 919,-1052 925,-1046 931,-1046 931,-1046 1107,-1046 1107,-1046 1113,-1046 1119,-1052 1119,-1058 1119,-1058 1119,-1070 1119,-1070 1119,-1076 1113,-1082 1107,-1082"/>
<text text-anchor="middle" x="1019" y="-1060.3" font-family="Times,serif" font-size="14.00">Verified Correspondences</text>
</g>
<!-- Verified Correspondences&#45;&gt;Two&#45;View Bundle Adjustment -->
<g id="edge50" class="edge">
<title>Verified Correspondences&#45;&gt;Two&#45;View Bundle Adjustment</title>
<path fill="none" stroke="#bfbfbf" d="M1043.46,-1045.88C1056.3,-1036.89 1072.2,-1025.76 1086.09,-1016.03"/>
<polygon fill="#bfbfbf" stroke="#bfbfbf" points="1088.26,-1018.79 1094.44,-1010.19 1084.24,-1013.06 1088.26,-1018.79"/>
</g>
<!-- Verifier&#45;&gt;Relative Rotation -->
<g id="edge51" class="edge">
<title>Verifier&#45;&gt;Relative Rotation</title>
<path fill="none" stroke="#bfbfbf" d="M1341.39,-1120.67C1317.21,-1110.65 1284.52,-1097.11 1257.44,-1085.89"/>
<polygon fill="#bfbfbf" stroke="#bfbfbf" points="1258.7,-1082.62 1248.12,-1082.03 1256.02,-1089.09 1258.7,-1082.62"/>
</g>
<!-- Verifier&#45;&gt;Relative Translation -->
<g id="edge52" class="edge">
<title>Verifier&#45;&gt;Relative Translation</title>
<path fill="none" stroke="#bfbfbf" d="M1376,-1117.7C1376,-1109.98 1376,-1100.71 1376,-1092.11"/>
<polygon fill="#bfbfbf" stroke="#bfbfbf" points="1379.5,-1092.1 1376,-1082.1 1372.5,-1092.1 1379.5,-1092.1"/>
</g>
<!-- Verifier&#45;&gt;Verified Correspondences -->
<g id="edge53" class="edge">
<title>Verifier&#45;&gt;Verified Correspondences</title>
<path fill="none" stroke="#bfbfbf" d="M1341.44,-1128.22C1289.78,-1118.09 1190.48,-1098.62 1115.66,-1083.95"/>
<polygon fill="#bfbfbf" stroke="#bfbfbf" points="1116.23,-1080.5 1105.74,-1082.01 1114.88,-1087.37 1116.23,-1080.5"/>
</g>
<!-- Inlier Ratio -->
<g id="node38" class="node">
<title>Inlier Ratio</title>
<path fill="gainsboro" stroke="black" d="M1559.5,-1082C1559.5,-1082 1486.5,-1082 1486.5,-1082 1480.5,-1082 1474.5,-1076 1474.5,-1070 1474.5,-1070 1474.5,-1058 1474.5,-1058 1474.5,-1052 1480.5,-1046 1486.5,-1046 1486.5,-1046 1559.5,-1046 1559.5,-1046 1565.5,-1046 1571.5,-1052 1571.5,-1058 1571.5,-1058 1571.5,-1070 1571.5,-1070 1571.5,-1076 1565.5,-1082 1559.5,-1082"/>
<text text-anchor="middle" x="1523" y="-1060.3" font-family="Times,serif" font-size="14.00">Inlier Ratio</text>
</g>
<!-- Verifier&#45;&gt;Inlier Ratio -->
<g id="edge54" class="edge">
<title>Verifier&#45;&gt;Inlier Ratio</title>
<path fill="none" stroke="#bfbfbf" d="M1410.84,-1118.41C1430.88,-1108.87 1456.28,-1096.77 1477.85,-1086.5"/>
<polygon fill="#bfbfbf" stroke="#bfbfbf" points="1479.61,-1089.54 1487.14,-1082.08 1476.6,-1083.22 1479.61,-1089.54"/>
</g>
<!-- View&#45;Graph Estimator&#45;&gt;View&#45;Graph Correspondences -->
<g id="edge60" class="edge">
<title>View&#45;Graph Estimator&#45;&gt;View&#45;Graph Correspondences</title>
<path fill="none" stroke="#bfbfbf" d="M1047.33,-818.96C1078.99,-788.92 1135.5,-724.99 1105,-675 1096.8,-661.55 1083.97,-651.37 1070.11,-643.72"/>
<polygon fill="#bfbfbf" stroke="#bfbfbf" points="1071.4,-640.44 1060.9,-639.04 1068.23,-646.69 1071.4,-640.44"/>
</g>
<!-- View&#45;Graph Estimator&#45;&gt;View&#45;Graph Relative Rotations -->
<g id="edge58" class="edge">
<title>View&#45;Graph Estimator&#45;&gt;View&#45;Graph Relative Rotations</title>
<path fill="none" stroke="#bfbfbf" d="M981.28,-818.88C954.7,-809.14 921.24,-796.87 893.23,-786.61"/>
<polygon fill="#bfbfbf" stroke="#bfbfbf" points="894.17,-783.22 883.57,-783.07 891.76,-789.8 894.17,-783.22"/>
</g>
<!-- View&#45;Graph Estimator&#45;&gt;View&#45;Graph Relative Translations -->
<g id="edge59" class="edge">
<title>View&#45;Graph Estimator&#45;&gt;View&#45;Graph Relative Translations</title>
<path fill="none" stroke="#bfbfbf" d="M1020.76,-818.87C1010.45,-794.46 991.42,-749.43 979.25,-720.64"/>
<polygon fill="#bfbfbf" stroke="#bfbfbf" points="982.38,-719.04 975.26,-711.19 975.93,-721.76 982.38,-719.04"/>
</g>
</g>
</svg>
