<?xml version="1.0" encoding="UTF-8" standalone="no"?>
<!DOCTYPE svg PUBLIC "-//W3C//DTD SVG 1.1//EN"
 "http://www.w3.org/Graphics/SVG/1.1/DTD/svg11.dtd">
<!-- Generated by graphviz version 5.0.0 (0)
 -->
<!-- Title: G Pages: 1 -->
<svg width="1617pt" height="1501pt"
 viewBox="0.00 0.00 1616.78 1501.00" xmlns="http://www.w3.org/2000/svg" xmlns:xlink="http://www.w3.org/1999/xlink">
<g id="graph0" class="graph" transform="scale(1 1) rotate(0) translate(4 1497)">
<title>G</title>
<polygon fill="white" stroke="transparent" points="-4,4 -4,-1497 1612.78,-1497 1612.78,4 -4,4"/>
<g id="clust1" class="cluster">
<title>cluster_Two&#45;View Estimator</title>
<polygon fill="white" stroke="black" points="629.5,-712 629.5,-1222 1511.5,-1222 1511.5,-712 629.5,-712"/>
<text text-anchor="middle" x="1070.5" y="-1206.8" font-family="Veranda" font-size="14.00">Two&#45;View Estimator</text>
</g>
<g id="clust2" class="cluster">
<title>cluster_Multi&#45;View Optimizer</title>
<polygon fill="white" stroke="black" points="205.5,-136 205.5,-859 621.5,-859 621.5,-136 205.5,-136"/>
<text text-anchor="middle" x="413.5" y="-843.8" font-family="Veranda" font-size="14.00">Multi&#45;View Optimizer</text>
</g>
<g id="clust3" class="cluster">
<title>cluster_Feature Extractor</title>
<polygon fill="white" stroke="black" points="1012.5,-1230 1012.5,-1377 1148.5,-1377 1148.5,-1230 1012.5,-1230"/>
<text text-anchor="middle" x="1080.5" y="-1361.8" font-family="Veranda" font-size="14.00">Feature Extractor</text>
</g>
<!-- Image Retriever -->
<g id="node1" class="node">
<title>Image Retriever</title>
<path fill="lightskyblue" stroke="black" d="M104,-1346C104,-1346 23,-1346 23,-1346 17,-1346 11,-1340 11,-1334 11,-1334 11,-1322 11,-1322 11,-1316 17,-1310 23,-1310 23,-1310 104,-1310 104,-1310 110,-1310 116,-1316 116,-1322 116,-1322 116,-1334 116,-1334 116,-1340 110,-1346 104,-1346"/>
<text text-anchor="middle" x="63.5" y="-1324.3" font-family="Times,serif" font-size="14.00">Image Retriever</text>
</g>
<!-- Image Pair Indices -->
<g id="node3" class="node">
<title>Image Pair Indices</title>
<path fill="gainsboro" stroke="black" d="M107,-1274C107,-1274 12,-1274 12,-1274 6,-1274 0,-1268 0,-1262 0,-1262 0,-1250 0,-1250 0,-1244 6,-1238 12,-1238 12,-1238 107,-1238 107,-1238 113,-1238 119,-1244 119,-1250 119,-1250 119,-1262 119,-1262 119,-1268 113,-1274 107,-1274"/>
<text text-anchor="middle" x="59.5" y="-1252.3" font-family="Times,serif" font-size="14.00">Image Pair Indices</text>
</g>
<!-- Image Retriever&#45;&gt;Image Pair Indices -->
<g id="edge2" class="edge">
<title>Image Retriever&#45;&gt;Image Pair Indices</title>
<path fill="none" stroke="#bfbfbf" d="M62.51,-1309.7C62.07,-1301.98 61.54,-1292.71 61.05,-1284.11"/>
<polygon fill="#bfbfbf" stroke="#bfbfbf" points="64.54,-1283.89 60.48,-1274.1 57.55,-1284.29 64.54,-1283.89"/>
</g>
<!-- Image Loader -->
<g id="node2" class="node">
<title>Image Loader</title>
<path fill="lightskyblue" stroke="black" d="M1089,-1421C1089,-1421 1020,-1421 1020,-1421 1014,-1421 1008,-1415 1008,-1409 1008,-1409 1008,-1397 1008,-1397 1008,-1391 1014,-1385 1020,-1385 1020,-1385 1089,-1385 1089,-1385 1095,-1385 1101,-1391 1101,-1397 1101,-1397 1101,-1409 1101,-1409 1101,-1415 1095,-1421 1089,-1421"/>
<text text-anchor="middle" x="1054.5" y="-1399.3" font-family="Times,serif" font-size="14.00">Image Loader</text>
</g>
<!-- Image Loader&#45;&gt;Image Retriever -->
<g id="edge1" class="edge">
<title>Image Loader&#45;&gt;Image Retriever</title>
<path fill="none" stroke="#bfbfbf" d="M1007.86,-1402.28C832.29,-1403.12 216.84,-1404.07 133.5,-1377 117.79,-1371.9 102.41,-1362.05 90.09,-1352.6"/>
<polygon fill="#bfbfbf" stroke="#bfbfbf" points="92.07,-1349.71 82.08,-1346.19 87.7,-1355.17 92.07,-1349.71"/>
</g>
<!-- Absolute Pose Priors -->
<g id="node4" class="node">
<title>Absolute Pose Priors</title>
<path fill="gainsboro" stroke="black" d="M371,-612C371,-612 264,-612 264,-612 258,-612 252,-606 252,-600 252,-600 252,-588 252,-588 252,-582 258,-576 264,-576 264,-576 371,-576 371,-576 377,-576 383,-582 383,-588 383,-588 383,-600 383,-600 383,-606 377,-612 371,-612"/>
<text text-anchor="middle" x="317.5" y="-590.3" font-family="Times,serif" font-size="14.00">Absolute Pose Priors</text>
</g>
<!-- Image Loader&#45;&gt;Absolute Pose Priors -->
<g id="edge44" class="edge">
<title>Image Loader&#45;&gt;Absolute Pose Priors</title>
<path fill="none" stroke="#bfbfbf" d="M1007.96,-1399.53C822.68,-1389.1 147.5,-1345.05 147.5,-1257 147.5,-1257 147.5,-1257 147.5,-737 147.5,-677.39 209.83,-637.91 259,-616.03"/>
<polygon fill="#bfbfbf" stroke="#bfbfbf" points="260.53,-619.19 268.33,-612.02 257.76,-612.76 260.53,-619.19"/>
</g>
<!-- Relative Pose Priors -->
<g id="node6" class="node">
<title>Relative Pose Priors</title>
<path fill="gainsboro" stroke="black" d="M1309,-903C1309,-903 1206,-903 1206,-903 1200,-903 1194,-897 1194,-891 1194,-891 1194,-879 1194,-879 1194,-873 1200,-867 1206,-867 1206,-867 1309,-867 1309,-867 1315,-867 1321,-873 1321,-879 1321,-879 1321,-891 1321,-891 1321,-897 1315,-903 1309,-903"/>
<text text-anchor="middle" x="1257.5" y="-881.3" font-family="Times,serif" font-size="14.00">Relative Pose Priors</text>
</g>
<!-- Image Loader&#45;&gt;Relative Pose Priors -->
<g id="edge43" class="edge">
<title>Image Loader&#45;&gt;Relative Pose Priors</title>
<path fill="none" stroke="#bfbfbf" d="M1101.2,-1401.79C1186.73,-1400.91 1365.09,-1396.7 1423.5,-1377 1515.31,-1346.04 1605.5,-1353.89 1605.5,-1257 1605.5,-1257 1605.5,-1257 1605.5,-1172 1605.5,-1027.3 1423.7,-942.36 1322.91,-906.39"/>
<polygon fill="#bfbfbf" stroke="#bfbfbf" points="1324.01,-903.07 1313.41,-903.06 1321.69,-909.67 1324.01,-903.07"/>
</g>
<!-- Camera Intrinsics -->
<g id="node7" class="node">
<title>Camera Intrinsics</title>
<path fill="gainsboro" stroke="black" d="M1323,-1047C1323,-1047 1234,-1047 1234,-1047 1228,-1047 1222,-1041 1222,-1035 1222,-1035 1222,-1023 1222,-1023 1222,-1017 1228,-1011 1234,-1011 1234,-1011 1323,-1011 1323,-1011 1329,-1011 1335,-1017 1335,-1023 1335,-1023 1335,-1035 1335,-1035 1335,-1041 1329,-1047 1323,-1047"/>
<text text-anchor="middle" x="1278.5" y="-1025.3" font-family="Times,serif" font-size="14.00">Camera Intrinsics</text>
</g>
<!-- Image Loader&#45;&gt;Camera Intrinsics -->
<g id="edge41" class="edge">
<title>Image Loader&#45;&gt;Camera Intrinsics</title>
<path fill="none" stroke="#bfbfbf" d="M1101.39,-1398.81C1228.03,-1388.9 1567.5,-1353.37 1567.5,-1257 1567.5,-1257 1567.5,-1257 1567.5,-1172 1567.5,-1073.56 1430.76,-1043.36 1345.4,-1034.1"/>
<polygon fill="#bfbfbf" stroke="#bfbfbf" points="1345.55,-1030.59 1335.25,-1033.07 1344.85,-1037.56 1345.55,-1030.59"/>
</g>
<!-- Images -->
<g id="node21" class="node">
<title>Images</title>
<path fill="gainsboro" stroke="black" d="M1096.5,-1346C1096.5,-1346 1064.5,-1346 1064.5,-1346 1058.5,-1346 1052.5,-1340 1052.5,-1334 1052.5,-1334 1052.5,-1322 1052.5,-1322 1052.5,-1316 1058.5,-1310 1064.5,-1310 1064.5,-1310 1096.5,-1310 1096.5,-1310 1102.5,-1310 1108.5,-1316 1108.5,-1322 1108.5,-1322 1108.5,-1334 1108.5,-1334 1108.5,-1340 1102.5,-1346 1096.5,-1346"/>
<text text-anchor="middle" x="1080.5" y="-1324.3" font-family="Times,serif" font-size="14.00">Images</text>
</g>
<!-- Image Loader&#45;&gt;Images -->
<g id="edge40" class="edge">
<title>Image Loader&#45;&gt;Images</title>
<path fill="none" stroke="#bfbfbf" d="M1060.66,-1384.7C1063.74,-1376.06 1067.53,-1365.42 1070.97,-1355.76"/>
<polygon fill="#bfbfbf" stroke="#bfbfbf" points="1074.32,-1356.77 1074.38,-1346.18 1067.73,-1354.42 1074.32,-1356.77"/>
</g>
<!-- Image Shapes -->
<g id="node29" class="node">
<title>Image Shapes</title>
<path fill="gainsboro" stroke="black" d="M964,-1191C964,-1191 895,-1191 895,-1191 889,-1191 883,-1185 883,-1179 883,-1179 883,-1167 883,-1167 883,-1161 889,-1155 895,-1155 895,-1155 964,-1155 964,-1155 970,-1155 976,-1161 976,-1167 976,-1167 976,-1179 976,-1179 976,-1185 970,-1191 964,-1191"/>
<text text-anchor="middle" x="929.5" y="-1169.3" font-family="Times,serif" font-size="14.00">Image Shapes</text>
</g>
<!-- Image Loader&#45;&gt;Image Shapes -->
<g id="edge42" class="edge">
<title>Image Loader&#45;&gt;Image Shapes</title>
<path fill="none" stroke="#bfbfbf" d="M1017.1,-1384.8C1013.96,-1382.46 1011.02,-1379.86 1008.5,-1377 962.63,-1324.92 941.93,-1243.18 933.88,-1201.07"/>
<polygon fill="#bfbfbf" stroke="#bfbfbf" points="937.29,-1200.24 932.06,-1191.03 930.4,-1201.49 937.29,-1200.24"/>
</g>
<!-- Global Bundle Adjustment -->
<g id="node5" class="node">
<title>Global Bundle Adjustment</title>
<path fill="lightskyblue" stroke="black" d="M588,-252C588,-252 449,-252 449,-252 443,-252 437,-246 437,-240 437,-240 437,-228 437,-228 437,-222 443,-216 449,-216 449,-216 588,-216 588,-216 594,-216 600,-222 600,-228 600,-228 600,-240 600,-240 600,-246 594,-252 588,-252"/>
<text text-anchor="middle" x="518.5" y="-230.3" font-family="Times,serif" font-size="14.00">Global Bundle Adjustment</text>
</g>
<!-- Absolute Pose Priors&#45;&gt;Global Bundle Adjustment -->
<g id="edge3" class="edge">
<title>Absolute Pose Priors&#45;&gt;Global Bundle Adjustment</title>
<path fill="none" stroke="#bfbfbf" d="M272.41,-575.83C256.33,-567.44 239.7,-555.71 229.5,-540 207.8,-506.57 218.5,-490.86 218.5,-451 218.5,-451 218.5,-451 218.5,-377 218.5,-283.65 338.64,-251.58 426.87,-240.62"/>
<polygon fill="#bfbfbf" stroke="#bfbfbf" points="427.39,-244.08 436.92,-239.44 426.58,-237.13 427.39,-244.08"/>
</g>
<!-- Translation Averaging -->
<g id="node24" class="node">
<title>Translation Averaging</title>
<path fill="lightskyblue" stroke="black" d="M363,-540C363,-540 250,-540 250,-540 244,-540 238,-534 238,-528 238,-528 238,-516 238,-516 238,-510 244,-504 250,-504 250,-504 363,-504 363,-504 369,-504 375,-510 375,-516 375,-516 375,-528 375,-528 375,-534 369,-540 363,-540"/>
<text text-anchor="middle" x="306.5" y="-518.3" font-family="Times,serif" font-size="14.00">Translation Averaging</text>
</g>
<!-- Absolute Pose Priors&#45;&gt;Translation Averaging -->
<g id="edge24" class="edge">
<title>Absolute Pose Priors&#45;&gt;Translation Averaging</title>
<path fill="none" stroke="#bfbfbf" d="M314.78,-575.7C313.57,-567.98 312.11,-558.71 310.76,-550.11"/>
<polygon fill="#bfbfbf" stroke="#bfbfbf" points="314.2,-549.44 309.19,-540.1 307.28,-550.53 314.2,-549.44"/>
</g>
<!-- Filtered Optimized Camera Poses -->
<g id="node11" class="node">
<title>Filtered Optimized Camera Poses</title>
<path fill="gainsboro" stroke="black" d="M403,-180C403,-180 226,-180 226,-180 220,-180 214,-174 214,-168 214,-168 214,-156 214,-156 214,-150 220,-144 226,-144 226,-144 403,-144 403,-144 409,-144 415,-150 415,-156 415,-156 415,-168 415,-168 415,-174 409,-180 403,-180"/>
<text text-anchor="middle" x="314.5" y="-158.3" font-family="Times,serif" font-size="14.00">Filtered Optimized Camera Poses</text>
</g>
<!-- Global Bundle Adjustment&#45;&gt;Filtered Optimized Camera Poses -->
<g id="edge9" class="edge">
<title>Global Bundle Adjustment&#45;&gt;Filtered Optimized Camera Poses</title>
<path fill="none" stroke="#bfbfbf" d="M468.86,-215.97C440.23,-206.14 404.05,-193.73 373.92,-183.39"/>
<polygon fill="#bfbfbf" stroke="#bfbfbf" points="374.96,-180.05 364.37,-180.11 372.69,-186.67 374.96,-180.05"/>
</g>
<!-- Filtered Optimized 3D Tracks -->
<g id="node12" class="node">
<title>Filtered Optimized 3D Tracks</title>
<path fill="gainsboro" stroke="black" d="M601.5,-180C601.5,-180 445.5,-180 445.5,-180 439.5,-180 433.5,-174 433.5,-168 433.5,-168 433.5,-156 433.5,-156 433.5,-150 439.5,-144 445.5,-144 445.5,-144 601.5,-144 601.5,-144 607.5,-144 613.5,-150 613.5,-156 613.5,-156 613.5,-168 613.5,-168 613.5,-174 607.5,-180 601.5,-180"/>
<text text-anchor="middle" x="523.5" y="-158.3" font-family="Times,serif" font-size="14.00">Filtered Optimized 3D Tracks</text>
</g>
<!-- Global Bundle Adjustment&#45;&gt;Filtered Optimized 3D Tracks -->
<g id="edge10" class="edge">
<title>Global Bundle Adjustment&#45;&gt;Filtered Optimized 3D Tracks</title>
<path fill="none" stroke="#bfbfbf" d="M519.74,-215.7C520.29,-207.98 520.95,-198.71 521.56,-190.11"/>
<polygon fill="#bfbfbf" stroke="#bfbfbf" points="525.06,-190.33 522.28,-180.1 518.07,-189.83 525.06,-190.33"/>
</g>
<!-- Relative Pose Priors&#45;&gt;Global Bundle Adjustment -->
<g id="edge4" class="edge">
<title>Relative Pose Priors&#45;&gt;Global Bundle Adjustment</title>
<path fill="none" stroke="#bfbfbf" d="M1257.3,-866.59C1257.01,-839.37 1256.5,-785.07 1256.5,-739 1256.5,-739 1256.5,-739 1256.5,-377 1256.5,-311.92 808.17,-262.02 610.38,-243.18"/>
<polygon fill="#bfbfbf" stroke="#bfbfbf" points="610.58,-239.68 600.3,-242.22 609.92,-246.65 610.58,-239.68"/>
</g>
<!-- Relative Pose Priors&#45;&gt;Translation Averaging -->
<g id="edge25" class="edge">
<title>Relative Pose Priors&#45;&gt;Translation Averaging</title>
<path fill="none" stroke="#bfbfbf" d="M1193.64,-868.15C1190.9,-867.71 1188.18,-867.33 1185.5,-867 1145.08,-862.07 491.99,-868.95 452.5,-859 341.08,-830.93 223.5,-853.91 223.5,-739 223.5,-739 223.5,-739 223.5,-665 223.5,-624.46 222.44,-610.64 243.5,-576 250.41,-564.63 260.63,-554.52 270.84,-546.25"/>
<polygon fill="#bfbfbf" stroke="#bfbfbf" points="273.14,-548.9 278.95,-540.04 268.89,-543.34 273.14,-548.9"/>
</g>
<!-- Rotation Averaging -->
<g id="node26" class="node">
<title>Rotation Averaging</title>
<path fill="lightskyblue" stroke="black" d="M601.5,-684C601.5,-684 503.5,-684 503.5,-684 497.5,-684 491.5,-678 491.5,-672 491.5,-672 491.5,-660 491.5,-660 491.5,-654 497.5,-648 503.5,-648 503.5,-648 601.5,-648 601.5,-648 607.5,-648 613.5,-654 613.5,-660 613.5,-660 613.5,-672 613.5,-672 613.5,-678 607.5,-684 601.5,-684"/>
<text text-anchor="middle" x="552.5" y="-662.3" font-family="Times,serif" font-size="14.00">Rotation Averaging</text>
</g>
<!-- Relative Pose Priors&#45;&gt;Rotation Averaging -->
<g id="edge28" class="edge">
<title>Relative Pose Priors&#45;&gt;Rotation Averaging</title>
<path fill="none" stroke="#bfbfbf" d="M1193.63,-868.27C1190.89,-867.8 1188.17,-867.37 1185.5,-867 1109.71,-856.38 1088.96,-871.73 1013.5,-859 854.45,-832.17 803.65,-839.25 665.5,-756 642.08,-741.89 643.69,-729.28 622.5,-712 612.79,-704.08 601.63,-696.36 591.11,-689.62"/>
<polygon fill="#bfbfbf" stroke="#bfbfbf" points="592.8,-686.55 582.47,-684.2 589.08,-692.48 592.8,-686.55"/>
</g>
<!-- Two&#45;View Bundle Adjustment -->
<g id="node36" class="node">
<title>Two&#45;View Bundle Adjustment</title>
<path fill="lightskyblue" stroke="black" d="M1193,-828C1193,-828 1034,-828 1034,-828 1028,-828 1022,-822 1022,-816 1022,-816 1022,-804 1022,-804 1022,-798 1028,-792 1034,-792 1034,-792 1193,-792 1193,-792 1199,-792 1205,-798 1205,-804 1205,-804 1205,-816 1205,-816 1205,-822 1199,-828 1193,-828"/>
<text text-anchor="middle" x="1113.5" y="-806.3" font-family="Times,serif" font-size="14.00">Two&#45;View Bundle Adjustment</text>
</g>
<!-- Relative Pose Priors&#45;&gt;Two&#45;View Bundle Adjustment -->
<g id="edge59" class="edge">
<title>Relative Pose Priors&#45;&gt;Two&#45;View Bundle Adjustment</title>
<path fill="none" stroke="#bfbfbf" d="M1223.74,-866.88C1203.52,-856.63 1177.63,-843.51 1156.02,-832.55"/>
<polygon fill="#bfbfbf" stroke="#bfbfbf" points="1157.55,-829.41 1147.05,-828.01 1154.39,-835.65 1157.55,-829.41"/>
</g>
<!-- Camera Intrinsics&#45;&gt;Global Bundle Adjustment -->
<g id="edge5" class="edge">
<title>Camera Intrinsics&#45;&gt;Global Bundle Adjustment</title>
<path fill="none" stroke="#bfbfbf" d="M1335.28,-1021.35C1409.87,-1009.1 1531.5,-975.41 1531.5,-886 1531.5,-886 1531.5,-886 1531.5,-377 1531.5,-284.44 859.64,-248.46 610.24,-238.29"/>
<polygon fill="#bfbfbf" stroke="#bfbfbf" points="610.25,-234.79 600.11,-237.89 609.96,-241.79 610.25,-234.79"/>
</g>
<!-- Verifier -->
<g id="node14" class="node">
<title>Verifier</title>
<path fill="lightskyblue" stroke="black" d="M1046.5,-975C1046.5,-975 1012.5,-975 1012.5,-975 1006.5,-975 1000.5,-969 1000.5,-963 1000.5,-963 1000.5,-951 1000.5,-951 1000.5,-945 1006.5,-939 1012.5,-939 1012.5,-939 1046.5,-939 1046.5,-939 1052.5,-939 1058.5,-945 1058.5,-951 1058.5,-951 1058.5,-963 1058.5,-963 1058.5,-969 1052.5,-975 1046.5,-975"/>
<text text-anchor="middle" x="1029.5" y="-953.3" font-family="Times,serif" font-size="14.00">Verifier</text>
</g>
<!-- Camera Intrinsics&#45;&gt;Verifier -->
<g id="edge13" class="edge">
<title>Camera Intrinsics&#45;&gt;Verifier</title>
<path fill="none" stroke="#bfbfbf" d="M1222,-1012.12C1175.07,-998.92 1109.56,-980.51 1068.34,-968.92"/>
<polygon fill="#bfbfbf" stroke="#bfbfbf" points="1069.24,-965.54 1058.67,-966.2 1067.35,-972.28 1069.24,-965.54"/>
</g>
<!-- Data Association -->
<g id="node31" class="node">
<title>Data Association</title>
<path fill="lightskyblue" stroke="black" d="M531,-396C531,-396 446,-396 446,-396 440,-396 434,-390 434,-384 434,-384 434,-372 434,-372 434,-366 440,-360 446,-360 446,-360 531,-360 531,-360 537,-360 543,-366 543,-372 543,-372 543,-384 543,-384 543,-390 537,-396 531,-396"/>
<text text-anchor="middle" x="488.5" y="-374.3" font-family="Times,serif" font-size="14.00">Data Association</text>
</g>
<!-- Camera Intrinsics&#45;&gt;Data Association -->
<g id="edge37" class="edge">
<title>Camera Intrinsics&#45;&gt;Data Association</title>
<path fill="none" stroke="#bfbfbf" d="M1221.89,-1021.86C1191.04,-1018.55 1152.18,-1014.45 1117.5,-1011 906.72,-990.02 185.5,-1022.83 185.5,-811 185.5,-811 185.5,-811 185.5,-521 185.5,-416.53 335,-388.76 423.97,-381.49"/>
<polygon fill="#bfbfbf" stroke="#bfbfbf" points="424.27,-384.98 433.98,-380.73 423.75,-378 424.27,-384.98"/>
</g>
<!-- View&#45;Graph Estimator -->
<g id="node34" class="node">
<title>View&#45;Graph Estimator</title>
<path fill="lightskyblue" stroke="black" d="M589.5,-828C589.5,-828 473.5,-828 473.5,-828 467.5,-828 461.5,-822 461.5,-816 461.5,-816 461.5,-804 461.5,-804 461.5,-798 467.5,-792 473.5,-792 473.5,-792 589.5,-792 589.5,-792 595.5,-792 601.5,-798 601.5,-804 601.5,-804 601.5,-816 601.5,-816 601.5,-822 595.5,-828 589.5,-828"/>
<text text-anchor="middle" x="531.5" y="-806.3" font-family="Times,serif" font-size="14.00">View&#45;Graph Estimator</text>
</g>
<!-- Camera Intrinsics&#45;&gt;View&#45;Graph Estimator -->
<g id="edge50" class="edge">
<title>Camera Intrinsics&#45;&gt;View&#45;Graph Estimator</title>
<path fill="none" stroke="#bfbfbf" d="M1221.93,-1021.25C1083.9,-1004.12 733.58,-956.54 629.5,-903 597.99,-886.79 569.38,-857.44 551.32,-836.25"/>
<polygon fill="#bfbfbf" stroke="#bfbfbf" points="553.78,-833.74 544.7,-828.29 548.4,-838.21 553.78,-833.74"/>
</g>
<!-- Camera Intrinsics&#45;&gt;Two&#45;View Bundle Adjustment -->
<g id="edge60" class="edge">
<title>Camera Intrinsics&#45;&gt;Two&#45;View Bundle Adjustment</title>
<path fill="none" stroke="#bfbfbf" d="M1293.5,-1010.71C1319,-979.14 1364.86,-911.35 1330.5,-867 1315.73,-847.94 1264.39,-834.2 1215.35,-825.11"/>
<polygon fill="#bfbfbf" stroke="#bfbfbf" points="1215.72,-821.62 1205.26,-823.3 1214.48,-828.51 1215.72,-821.62"/>
</g>
<!-- Global Translations -->
<g id="node8" class="node">
<title>Global Translations</title>
<path fill="gainsboro" stroke="black" d="M457,-468C457,-468 358,-468 358,-468 352,-468 346,-462 346,-456 346,-456 346,-444 346,-444 346,-438 352,-432 358,-432 358,-432 457,-432 457,-432 463,-432 469,-438 469,-444 469,-444 469,-456 469,-456 469,-462 463,-468 457,-468"/>
<text text-anchor="middle" x="407.5" y="-446.3" font-family="Times,serif" font-size="14.00">Global Translations</text>
</g>
<!-- Global Translations&#45;&gt;Global Bundle Adjustment -->
<g id="edge6" class="edge">
<title>Global Translations&#45;&gt;Global Bundle Adjustment</title>
<path fill="none" stroke="#bfbfbf" d="M408.57,-431.82C411.31,-400.42 420.84,-332.9 453.5,-288 461.69,-276.74 472.83,-266.5 483.57,-258.08"/>
<polygon fill="#bfbfbf" stroke="#bfbfbf" points="485.76,-260.82 491.66,-252.02 481.56,-255.22 485.76,-260.82"/>
</g>
<!-- Global Translations&#45;&gt;Data Association -->
<g id="edge36" class="edge">
<title>Global Translations&#45;&gt;Data Association</title>
<path fill="none" stroke="#bfbfbf" d="M427.52,-431.7C437.63,-422.97 450.04,-412.24 461.02,-402.75"/>
<polygon fill="#bfbfbf" stroke="#bfbfbf" points="463.43,-405.29 468.71,-396.1 458.85,-399.99 463.43,-405.29"/>
</g>
<!-- Global Rotations -->
<g id="node9" class="node">
<title>Global Rotations</title>
<path fill="gainsboro" stroke="black" d="M598,-612C598,-612 513,-612 513,-612 507,-612 501,-606 501,-600 501,-600 501,-588 501,-588 501,-582 507,-576 513,-576 513,-576 598,-576 598,-576 604,-576 610,-582 610,-588 610,-588 610,-600 610,-600 610,-606 604,-612 598,-612"/>
<text text-anchor="middle" x="555.5" y="-590.3" font-family="Times,serif" font-size="14.00">Global Rotations</text>
</g>
<!-- Global Rotations&#45;&gt;Global Bundle Adjustment -->
<g id="edge7" class="edge">
<title>Global Rotations&#45;&gt;Global Bundle Adjustment</title>
<path fill="none" stroke="#bfbfbf" d="M568.17,-575.57C574.97,-565.56 583.05,-552.52 588.5,-540 604.84,-502.43 612.5,-491.97 612.5,-451 612.5,-451 612.5,-451 612.5,-377 612.5,-329.17 574.96,-285.08 547.32,-259.11"/>
<polygon fill="#bfbfbf" stroke="#bfbfbf" points="549.58,-256.42 539.83,-252.27 544.86,-261.6 549.58,-256.42"/>
</g>
<!-- Global Rotations&#45;&gt;Translation Averaging -->
<g id="edge23" class="edge">
<title>Global Rotations&#45;&gt;Translation Averaging</title>
<path fill="none" stroke="#bfbfbf" d="M500.86,-577.64C464.43,-567.4 416.21,-553.84 376.91,-542.8"/>
<polygon fill="#bfbfbf" stroke="#bfbfbf" points="377.7,-539.38 367.13,-540.04 375.81,-546.12 377.7,-539.38"/>
</g>
<!-- Global Rotations&#45;&gt;Data Association -->
<g id="edge35" class="edge">
<title>Global Rotations&#45;&gt;Data Association</title>
<path fill="none" stroke="#bfbfbf" d="M567.1,-575.85C577.77,-557.86 590.79,-528.81 582.5,-504 569.15,-464.03 537.44,-426.58 514.53,-403.29"/>
<polygon fill="#bfbfbf" stroke="#bfbfbf" points="517,-400.8 507.44,-396.24 512.06,-405.77 517,-400.8"/>
</g>
<!-- 3D Tracks -->
<g id="node10" class="node">
<title>3D Tracks</title>
<path fill="gainsboro" stroke="black" d="M523,-324C523,-324 474,-324 474,-324 468,-324 462,-318 462,-312 462,-312 462,-300 462,-300 462,-294 468,-288 474,-288 474,-288 523,-288 523,-288 529,-288 535,-294 535,-300 535,-300 535,-312 535,-312 535,-318 529,-324 523,-324"/>
<text text-anchor="middle" x="498.5" y="-302.3" font-family="Times,serif" font-size="14.00">3D Tracks</text>
</g>
<!-- 3D Tracks&#45;&gt;Global Bundle Adjustment -->
<g id="edge8" class="edge">
<title>3D Tracks&#45;&gt;Global Bundle Adjustment</title>
<path fill="none" stroke="#bfbfbf" d="M503.44,-287.7C505.67,-279.9 508.35,-270.51 510.83,-261.83"/>
<polygon fill="#bfbfbf" stroke="#bfbfbf" points="514.23,-262.68 513.61,-252.1 507.5,-260.76 514.23,-262.68"/>
</g>
<!-- Multi&#45;view Stereo -->
<g id="node20" class="node">
<title>Multi&#45;view Stereo</title>
<path fill="lightskyblue" stroke="black" d="M569.5,-108C569.5,-108 477.5,-108 477.5,-108 471.5,-108 465.5,-102 465.5,-96 465.5,-96 465.5,-84 465.5,-84 465.5,-78 471.5,-72 477.5,-72 477.5,-72 569.5,-72 569.5,-72 575.5,-72 581.5,-78 581.5,-84 581.5,-84 581.5,-96 581.5,-96 581.5,-102 575.5,-108 569.5,-108"/>
<text text-anchor="middle" x="523.5" y="-86.3" font-family="Times,serif" font-size="14.00">Multi&#45;view Stereo</text>
</g>
<!-- Filtered Optimized Camera Poses&#45;&gt;Multi&#45;view Stereo -->
<g id="edge19" class="edge">
<title>Filtered Optimized Camera Poses&#45;&gt;Multi&#45;view Stereo</title>
<path fill="none" stroke="#bfbfbf" d="M365.36,-143.97C394.69,-134.14 431.75,-121.73 462.62,-111.39"/>
<polygon fill="#bfbfbf" stroke="#bfbfbf" points="464.04,-114.61 472.41,-108.11 461.82,-107.97 464.04,-114.61"/>
</g>
<!-- Filtered Optimized 3D Tracks&#45;&gt;Multi&#45;view Stereo -->
<g id="edge20" class="edge">
<title>Filtered Optimized 3D Tracks&#45;&gt;Multi&#45;view Stereo</title>
<path fill="none" stroke="#bfbfbf" d="M523.5,-143.7C523.5,-135.98 523.5,-126.71 523.5,-118.11"/>
<polygon fill="#bfbfbf" stroke="#bfbfbf" points="527,-118.1 523.5,-108.1 520,-118.1 527,-118.1"/>
</g>
<!-- Keypoints -->
<g id="node13" class="node">
<title>Keypoints</title>
<path fill="gainsboro" stroke="black" d="M1151.5,-1191C1151.5,-1191 1103.5,-1191 1103.5,-1191 1097.5,-1191 1091.5,-1185 1091.5,-1179 1091.5,-1179 1091.5,-1167 1091.5,-1167 1091.5,-1161 1097.5,-1155 1103.5,-1155 1103.5,-1155 1151.5,-1155 1151.5,-1155 1157.5,-1155 1163.5,-1161 1163.5,-1167 1163.5,-1167 1163.5,-1179 1163.5,-1179 1163.5,-1185 1157.5,-1191 1151.5,-1191"/>
<text text-anchor="middle" x="1127.5" y="-1169.3" font-family="Times,serif" font-size="14.00">Keypoints</text>
</g>
<!-- Keypoints&#45;&gt;Verifier -->
<g id="edge11" class="edge">
<title>Keypoints&#45;&gt;Verifier</title>
<path fill="none" stroke="#bfbfbf" d="M1131.26,-1154.98C1137.16,-1123.84 1145.25,-1056.73 1117.5,-1011 1106.39,-992.69 1086.34,-979.9 1068.19,-971.47"/>
<polygon fill="#bfbfbf" stroke="#bfbfbf" points="1069.49,-968.22 1058.92,-967.46 1066.71,-974.65 1069.49,-968.22"/>
</g>
<!-- Matcher -->
<g id="node27" class="node">
<title>Matcher</title>
<path fill="lightskyblue" stroke="black" d="M1050.5,-1119C1050.5,-1119 1012.5,-1119 1012.5,-1119 1006.5,-1119 1000.5,-1113 1000.5,-1107 1000.5,-1107 1000.5,-1095 1000.5,-1095 1000.5,-1089 1006.5,-1083 1012.5,-1083 1012.5,-1083 1050.5,-1083 1050.5,-1083 1056.5,-1083 1062.5,-1089 1062.5,-1095 1062.5,-1095 1062.5,-1107 1062.5,-1107 1062.5,-1113 1056.5,-1119 1050.5,-1119"/>
<text text-anchor="middle" x="1031.5" y="-1097.3" font-family="Times,serif" font-size="14.00">Matcher</text>
</g>
<!-- Keypoints&#45;&gt;Matcher -->
<g id="edge30" class="edge">
<title>Keypoints&#45;&gt;Matcher</title>
<path fill="none" stroke="#bfbfbf" d="M1103.77,-1154.7C1091.56,-1145.8 1076.51,-1134.82 1063.32,-1125.2"/>
<polygon fill="#bfbfbf" stroke="#bfbfbf" points="1065.1,-1122.17 1054.96,-1119.1 1060.98,-1127.82 1065.1,-1122.17"/>
</g>
<!-- Keypoints&#45;&gt;View&#45;Graph Estimator -->
<g id="edge52" class="edge">
<title>Keypoints&#45;&gt;View&#45;Graph Estimator</title>
<path fill="none" stroke="#bfbfbf" d="M1091.37,-1157.58C1088.39,-1156.63 1085.41,-1155.75 1082.5,-1155 895.73,-1106.74 223.5,-1222.9 223.5,-1030 223.5,-1030 223.5,-1030 223.5,-956 223.5,-855.31 359.9,-824.42 451.16,-815.02"/>
<polygon fill="#bfbfbf" stroke="#bfbfbf" points="451.61,-818.49 461.22,-814.05 450.94,-811.53 451.61,-818.49"/>
</g>
<!-- Keypoints&#45;&gt;Two&#45;View Bundle Adjustment -->
<g id="edge61" class="edge">
<title>Keypoints&#45;&gt;Two&#45;View Bundle Adjustment</title>
<path fill="none" stroke="#bfbfbf" d="M1163.65,-1166.91C1229.1,-1155.44 1360.5,-1121.07 1360.5,-1030 1360.5,-1030 1360.5,-1030 1360.5,-956 1360.5,-915.55 1369.66,-896.03 1341.5,-867 1323.47,-848.41 1267.17,-834.48 1215.03,-825.16"/>
<polygon fill="#bfbfbf" stroke="#bfbfbf" points="1215.47,-821.69 1205.02,-823.42 1214.27,-828.58 1215.47,-821.69"/>
</g>
<!-- Relative Rotations -->
<g id="node16" class="node">
<title>Relative Rotations</title>
<path fill="gainsboro" stroke="black" d="M743,-903C743,-903 650,-903 650,-903 644,-903 638,-897 638,-891 638,-891 638,-879 638,-879 638,-873 644,-867 650,-867 650,-867 743,-867 743,-867 749,-867 755,-873 755,-879 755,-879 755,-891 755,-891 755,-897 749,-903 743,-903"/>
<text text-anchor="middle" x="696.5" y="-881.3" font-family="Times,serif" font-size="14.00">Relative Rotations</text>
</g>
<!-- Verifier&#45;&gt;Relative Rotations -->
<g id="edge14" class="edge">
<title>Verifier&#45;&gt;Relative Rotations</title>
<path fill="none" stroke="#bfbfbf" d="M1000.39,-950.65C953.22,-941.87 856.95,-923.55 765.09,-903.07"/>
<polygon fill="#bfbfbf" stroke="#bfbfbf" points="765.59,-899.6 755.06,-900.83 764.06,-906.43 765.59,-899.6"/>
</g>
<!-- Relative Translations -->
<g id="node17" class="node">
<title>Relative Translations</title>
<path fill="gainsboro" stroke="black" d="M892,-903C892,-903 785,-903 785,-903 779,-903 773,-897 773,-891 773,-891 773,-879 773,-879 773,-873 779,-867 785,-867 785,-867 892,-867 892,-867 898,-867 904,-873 904,-879 904,-879 904,-891 904,-891 904,-897 898,-903 892,-903"/>
<text text-anchor="middle" x="838.5" y="-881.3" font-family="Times,serif" font-size="14.00">Relative Translations</text>
</g>
<!-- Verifier&#45;&gt;Relative Translations -->
<g id="edge15" class="edge">
<title>Verifier&#45;&gt;Relative Translations</title>
<path fill="none" stroke="#bfbfbf" d="M1000.49,-945.37C972.45,-935.09 929.21,-919.25 894.46,-906.51"/>
<polygon fill="#bfbfbf" stroke="#bfbfbf" points="895.5,-903.16 884.91,-903.01 893.09,-909.74 895.5,-903.16"/>
</g>
<!-- Verified Correspondences -->
<g id="node18" class="node">
<title>Verified Correspondences</title>
<path fill="gainsboro" stroke="black" d="M1164,-903C1164,-903 1031,-903 1031,-903 1025,-903 1019,-897 1019,-891 1019,-891 1019,-879 1019,-879 1019,-873 1025,-867 1031,-867 1031,-867 1164,-867 1164,-867 1170,-867 1176,-873 1176,-879 1176,-879 1176,-891 1176,-891 1176,-897 1170,-903 1164,-903"/>
<text text-anchor="middle" x="1097.5" y="-881.3" font-family="Times,serif" font-size="14.00">Verified Correspondences</text>
</g>
<!-- Verifier&#45;&gt;Verified Correspondences -->
<g id="edge16" class="edge">
<title>Verifier&#45;&gt;Verified Correspondences</title>
<path fill="none" stroke="#bfbfbf" d="M1046.31,-938.7C1054.63,-930.14 1064.81,-919.66 1073.89,-910.3"/>
<polygon fill="#bfbfbf" stroke="#bfbfbf" points="1076.43,-912.72 1080.88,-903.1 1071.41,-907.84 1076.43,-912.72"/>
</g>
<!-- Inlier Ratio -->
<g id="node19" class="node">
<title>Inlier Ratio</title>
<path fill="gainsboro" stroke="black" d="M989,-903C989,-903 934,-903 934,-903 928,-903 922,-897 922,-891 922,-891 922,-879 922,-879 922,-873 928,-867 934,-867 934,-867 989,-867 989,-867 995,-867 1001,-873 1001,-879 1001,-879 1001,-891 1001,-891 1001,-897 995,-903 989,-903"/>
<text text-anchor="middle" x="961.5" y="-881.3" font-family="Times,serif" font-size="14.00">Inlier Ratio</text>
</g>
<!-- Verifier&#45;&gt;Inlier Ratio -->
<g id="edge17" class="edge">
<title>Verifier&#45;&gt;Inlier Ratio</title>
<path fill="none" stroke="#bfbfbf" d="M1012.69,-938.7C1004.37,-930.14 994.19,-919.66 985.11,-910.3"/>
<polygon fill="#bfbfbf" stroke="#bfbfbf" points="987.59,-907.84 978.12,-903.1 982.57,-912.72 987.59,-907.84"/>
</g>
<!-- Putative Correspondences -->
<g id="node15" class="node">
<title>Putative Correspondences</title>
<path fill="gainsboro" stroke="black" d="M1096.5,-1047C1096.5,-1047 962.5,-1047 962.5,-1047 956.5,-1047 950.5,-1041 950.5,-1035 950.5,-1035 950.5,-1023 950.5,-1023 950.5,-1017 956.5,-1011 962.5,-1011 962.5,-1011 1096.5,-1011 1096.5,-1011 1102.5,-1011 1108.5,-1017 1108.5,-1023 1108.5,-1023 1108.5,-1035 1108.5,-1035 1108.5,-1041 1102.5,-1047 1096.5,-1047"/>
<text text-anchor="middle" x="1029.5" y="-1025.3" font-family="Times,serif" font-size="14.00">Putative Correspondences</text>
</g>
<!-- Putative Correspondences&#45;&gt;Verifier -->
<g id="edge12" class="edge">
<title>Putative Correspondences&#45;&gt;Verifier</title>
<path fill="none" stroke="#bfbfbf" d="M1029.5,-1010.7C1029.5,-1002.98 1029.5,-993.71 1029.5,-985.11"/>
<polygon fill="#bfbfbf" stroke="#bfbfbf" points="1033,-985.1 1029.5,-975.1 1026,-985.1 1033,-985.1"/>
</g>
<!-- Relative Rotations&#45;&gt;View&#45;Graph Estimator -->
<g id="edge48" class="edge">
<title>Relative Rotations&#45;&gt;View&#45;Graph Estimator</title>
<path fill="none" stroke="#bfbfbf" d="M645.38,-866.92C638.64,-864.4 631.86,-861.73 625.5,-859 607.31,-851.2 587.74,-841.43 571.19,-832.75"/>
<polygon fill="#bfbfbf" stroke="#bfbfbf" points="572.81,-829.65 562.33,-828.06 569.53,-835.84 572.81,-829.65"/>
</g>
<!-- Relative Rotations&#45;&gt;Two&#45;View Bundle Adjustment -->
<g id="edge56" class="edge">
<title>Relative Rotations&#45;&gt;Two&#45;View Bundle Adjustment</title>
<path fill="none" stroke="#bfbfbf" d="M755.03,-869.03C758.23,-868.32 761.4,-867.63 764.5,-867 847.3,-850.04 942.02,-835.12 1011.87,-824.95"/>
<polygon fill="#bfbfbf" stroke="#bfbfbf" points="1012.6,-828.39 1021.99,-823.49 1011.59,-821.46 1012.6,-828.39"/>
</g>
<!-- Relative Translations&#45;&gt;View&#45;Graph Estimator -->
<g id="edge49" class="edge">
<title>Relative Translations&#45;&gt;View&#45;Graph Estimator</title>
<path fill="none" stroke="#bfbfbf" d="M772.84,-868.31C770.03,-867.83 767.24,-867.39 764.5,-867 703.24,-858.26 685.22,-875.2 625.5,-859 605.06,-853.46 583.91,-843.13 566.86,-833.48"/>
<polygon fill="#bfbfbf" stroke="#bfbfbf" points="568.25,-830.23 557.85,-828.21 564.72,-836.28 568.25,-830.23"/>
</g>
<!-- Relative Translations&#45;&gt;Two&#45;View Bundle Adjustment -->
<g id="edge57" class="edge">
<title>Relative Translations&#45;&gt;Two&#45;View Bundle Adjustment</title>
<path fill="none" stroke="#bfbfbf" d="M902.63,-866.98C943.56,-856.11 996.76,-841.99 1039.49,-830.65"/>
<polygon fill="#bfbfbf" stroke="#bfbfbf" points="1040.5,-834 1049.27,-828.05 1038.71,-827.23 1040.5,-834"/>
</g>
<!-- Verified Correspondences&#45;&gt;Two&#45;View Bundle Adjustment -->
<g id="edge62" class="edge">
<title>Verified Correspondences&#45;&gt;Two&#45;View Bundle Adjustment</title>
<path fill="none" stroke="#bfbfbf" d="M1101.29,-866.7C1103.16,-858.15 1105.47,-847.65 1107.57,-838.07"/>
<polygon fill="#bfbfbf" stroke="#bfbfbf" points="1111.01,-838.69 1109.74,-828.18 1104.18,-837.19 1111.01,-838.69"/>
</g>
<!-- Dense Colored 3D Point Cloud -->
<g id="node22" class="node">
<title>Dense Colored 3D Point Cloud</title>
<path fill="gainsboro" stroke="black" d="M605,-36C605,-36 442,-36 442,-36 436,-36 430,-30 430,-24 430,-24 430,-12 430,-12 430,-6 436,0 442,0 442,0 605,0 605,0 611,0 617,-6 617,-12 617,-12 617,-24 617,-24 617,-30 611,-36 605,-36"/>
<text text-anchor="middle" x="523.5" y="-14.3" font-family="Times,serif" font-size="14.00">Dense Colored 3D Point Cloud</text>
</g>
<!-- Multi&#45;view Stereo&#45;&gt;Dense Colored 3D Point Cloud -->
<g id="edge21" class="edge">
<title>Multi&#45;view Stereo&#45;&gt;Dense Colored 3D Point Cloud</title>
<path fill="none" stroke="#bfbfbf" d="M523.5,-71.7C523.5,-63.98 523.5,-54.71 523.5,-46.11"/>
<polygon fill="#bfbfbf" stroke="#bfbfbf" points="527,-46.1 523.5,-36.1 520,-46.1 527,-46.1"/>
</g>
<!-- Images&#45;&gt;Multi&#45;view Stereo -->
<g id="edge18" class="edge">
<title>Images&#45;&gt;Multi&#45;view Stereo</title>
<path fill="none" stroke="#bfbfbf" d="M1108.78,-1323.91C1195.64,-1313.88 1456.25,-1279.47 1515.5,-1222 1626.63,-1114.2 1607.5,-1040.83 1607.5,-886 1607.5,-886 1607.5,-886 1607.5,-233 1607.5,-130.14 830.22,-99.66 592.04,-92.73"/>
<polygon fill="#bfbfbf" stroke="#bfbfbf" points="591.88,-89.23 581.78,-92.44 591.68,-96.23 591.88,-89.23"/>
</g>
<!-- DetectorDescriptor -->
<g id="node33" class="node">
<title>DetectorDescriptor</title>
<path fill="lightskyblue" stroke="black" d="M1128.5,-1274C1128.5,-1274 1032.5,-1274 1032.5,-1274 1026.5,-1274 1020.5,-1268 1020.5,-1262 1020.5,-1262 1020.5,-1250 1020.5,-1250 1020.5,-1244 1026.5,-1238 1032.5,-1238 1032.5,-1238 1128.5,-1238 1128.5,-1238 1134.5,-1238 1140.5,-1244 1140.5,-1250 1140.5,-1250 1140.5,-1262 1140.5,-1262 1140.5,-1268 1134.5,-1274 1128.5,-1274"/>
<text text-anchor="middle" x="1080.5" y="-1252.3" font-family="Times,serif" font-size="14.00">DetectorDescriptor</text>
</g>
<!-- Images&#45;&gt;DetectorDescriptor -->
<g id="edge45" class="edge">
<title>Images&#45;&gt;DetectorDescriptor</title>
<path fill="none" stroke="#bfbfbf" d="M1080.5,-1309.7C1080.5,-1301.98 1080.5,-1292.71 1080.5,-1284.11"/>
<polygon fill="#bfbfbf" stroke="#bfbfbf" points="1084,-1284.1 1080.5,-1274.1 1077,-1284.1 1084,-1284.1"/>
</g>
<!-- View&#45;Graph Relative Translations -->
<g id="node23" class="node">
<title>View&#45;Graph Relative Translations</title>
<path fill="gainsboro" stroke="black" d="M441.5,-684C441.5,-684 263.5,-684 263.5,-684 257.5,-684 251.5,-678 251.5,-672 251.5,-672 251.5,-660 251.5,-660 251.5,-654 257.5,-648 263.5,-648 263.5,-648 441.5,-648 441.5,-648 447.5,-648 453.5,-654 453.5,-660 453.5,-660 453.5,-672 453.5,-672 453.5,-678 447.5,-684 441.5,-684"/>
<text text-anchor="middle" x="352.5" y="-662.3" font-family="Times,serif" font-size="14.00">View&#45;Graph Relative Translations</text>
</g>
<!-- View&#45;Graph Relative Translations&#45;&gt;Translation Averaging -->
<g id="edge22" class="edge">
<title>View&#45;Graph Relative Translations&#45;&gt;Translation Averaging</title>
<path fill="none" stroke="#bfbfbf" d="M369.83,-647.84C386.06,-629.6 405.96,-600.11 392.5,-576 385.28,-563.06 373.45,-552.89 360.85,-545.07"/>
<polygon fill="#bfbfbf" stroke="#bfbfbf" points="362.46,-541.96 352.05,-540.02 358.98,-548.03 362.46,-541.96"/>
</g>
<!-- Translation Averaging&#45;&gt;Global Translations -->
<g id="edge26" class="edge">
<title>Translation Averaging&#45;&gt;Global Translations</title>
<path fill="none" stroke="#bfbfbf" d="M331.21,-503.88C344.17,-494.89 360.23,-483.76 374.27,-474.03"/>
<polygon fill="#bfbfbf" stroke="#bfbfbf" points="376.47,-476.76 382.7,-468.19 372.48,-471.01 376.47,-476.76"/>
</g>
<!-- View&#45;Graph Relative Rotations -->
<g id="node25" class="node">
<title>View&#45;Graph Relative Rotations</title>
<path fill="gainsboro" stroke="black" d="M601.5,-756C601.5,-756 437.5,-756 437.5,-756 431.5,-756 425.5,-750 425.5,-744 425.5,-744 425.5,-732 425.5,-732 425.5,-726 431.5,-720 437.5,-720 437.5,-720 601.5,-720 601.5,-720 607.5,-720 613.5,-726 613.5,-732 613.5,-732 613.5,-744 613.5,-744 613.5,-750 607.5,-756 601.5,-756"/>
<text text-anchor="middle" x="519.5" y="-734.3" font-family="Times,serif" font-size="14.00">View&#45;Graph Relative Rotations</text>
</g>
<!-- View&#45;Graph Relative Rotations&#45;&gt;Rotation Averaging -->
<g id="edge27" class="edge">
<title>View&#45;Graph Relative Rotations&#45;&gt;Rotation Averaging</title>
<path fill="none" stroke="#bfbfbf" d="M527.66,-719.7C531.41,-711.73 535.95,-702.1 540.12,-693.26"/>
<polygon fill="#bfbfbf" stroke="#bfbfbf" points="543.34,-694.64 544.44,-684.1 537.01,-691.66 543.34,-694.64"/>
</g>
<!-- Rotation Averaging&#45;&gt;Global Rotations -->
<g id="edge29" class="edge">
<title>Rotation Averaging&#45;&gt;Global Rotations</title>
<path fill="none" stroke="#bfbfbf" d="M553.24,-647.7C553.57,-639.98 553.97,-630.71 554.34,-622.11"/>
<polygon fill="#bfbfbf" stroke="#bfbfbf" points="557.84,-622.25 554.77,-612.1 550.84,-621.95 557.84,-622.25"/>
</g>
<!-- Matcher&#45;&gt;Putative Correspondences -->
<g id="edge33" class="edge">
<title>Matcher&#45;&gt;Putative Correspondences</title>
<path fill="none" stroke="#bfbfbf" d="M1031.01,-1082.7C1030.79,-1074.98 1030.52,-1065.71 1030.27,-1057.11"/>
<polygon fill="#bfbfbf" stroke="#bfbfbf" points="1033.77,-1057 1029.99,-1047.1 1026.78,-1057.2 1033.77,-1057"/>
</g>
<!-- Descriptors -->
<g id="node28" class="node">
<title>Descriptors</title>
<path fill="gainsboro" stroke="black" d="M1061,-1191C1061,-1191 1006,-1191 1006,-1191 1000,-1191 994,-1185 994,-1179 994,-1179 994,-1167 994,-1167 994,-1161 1000,-1155 1006,-1155 1006,-1155 1061,-1155 1061,-1155 1067,-1155 1073,-1161 1073,-1167 1073,-1167 1073,-1179 1073,-1179 1073,-1185 1067,-1191 1061,-1191"/>
<text text-anchor="middle" x="1033.5" y="-1169.3" font-family="Times,serif" font-size="14.00">Descriptors</text>
</g>
<!-- Descriptors&#45;&gt;Matcher -->
<g id="edge31" class="edge">
<title>Descriptors&#45;&gt;Matcher</title>
<path fill="none" stroke="#bfbfbf" d="M1033.01,-1154.7C1032.79,-1146.98 1032.52,-1137.71 1032.27,-1129.11"/>
<polygon fill="#bfbfbf" stroke="#bfbfbf" points="1035.77,-1129 1031.99,-1119.1 1028.78,-1129.2 1035.77,-1129"/>
</g>
<!-- Image Shapes&#45;&gt;Matcher -->
<g id="edge32" class="edge">
<title>Image Shapes&#45;&gt;Matcher</title>
<path fill="none" stroke="#bfbfbf" d="M954.45,-1154.88C967.54,-1145.89 983.76,-1134.76 997.94,-1125.03"/>
<polygon fill="#bfbfbf" stroke="#bfbfbf" points="1000.19,-1127.73 1006.45,-1119.19 996.23,-1121.96 1000.19,-1127.73"/>
</g>
<!-- View&#45;Graph Correspondences -->
<g id="node30" class="node">
<title>View&#45;Graph Correspondences</title>
<path fill="gainsboro" stroke="black" d="M561.5,-540C561.5,-540 405.5,-540 405.5,-540 399.5,-540 393.5,-534 393.5,-528 393.5,-528 393.5,-516 393.5,-516 393.5,-510 399.5,-504 405.5,-504 405.5,-504 561.5,-504 561.5,-504 567.5,-504 573.5,-510 573.5,-516 573.5,-516 573.5,-528 573.5,-528 573.5,-534 567.5,-540 561.5,-540"/>
<text text-anchor="middle" x="483.5" y="-518.3" font-family="Times,serif" font-size="14.00">View&#45;Graph Correspondences</text>
</g>
<!-- View&#45;Graph Correspondences&#45;&gt;Data Association -->
<g id="edge34" class="edge">
<title>View&#45;Graph Correspondences&#45;&gt;Data Association</title>
<path fill="none" stroke="#bfbfbf" d="M484.1,-503.87C484.96,-479.67 486.52,-435.21 487.54,-406.39"/>
<polygon fill="#bfbfbf" stroke="#bfbfbf" points="491.04,-406.31 487.89,-396.19 484.04,-406.06 491.04,-406.31"/>
</g>
<!-- Data Association&#45;&gt;3D Tracks -->
<g id="edge38" class="edge">
<title>Data Association&#45;&gt;3D Tracks</title>
<path fill="none" stroke="#bfbfbf" d="M490.97,-359.7C492.07,-351.98 493.4,-342.71 494.63,-334.11"/>
<polygon fill="#bfbfbf" stroke="#bfbfbf" points="498.11,-334.5 496.06,-324.1 491.18,-333.51 498.11,-334.5"/>
</g>
<!-- Source Directory -->
<g id="node32" class="node">
<title>Source Directory</title>
<path fill="gainsboro" stroke="black" d="M1097.5,-1493C1097.5,-1493 1011.5,-1493 1011.5,-1493 1005.5,-1493 999.5,-1487 999.5,-1481 999.5,-1481 999.5,-1469 999.5,-1469 999.5,-1463 1005.5,-1457 1011.5,-1457 1011.5,-1457 1097.5,-1457 1097.5,-1457 1103.5,-1457 1109.5,-1463 1109.5,-1469 1109.5,-1469 1109.5,-1481 1109.5,-1481 1109.5,-1487 1103.5,-1493 1097.5,-1493"/>
<text text-anchor="middle" x="1054.5" y="-1471.3" font-family="Times,serif" font-size="14.00">Source Directory</text>
</g>
<!-- Source Directory&#45;&gt;Image Loader -->
<g id="edge39" class="edge">
<title>Source Directory&#45;&gt;Image Loader</title>
<path fill="none" stroke="#bfbfbf" d="M1054.5,-1456.7C1054.5,-1448.98 1054.5,-1439.71 1054.5,-1431.11"/>
<polygon fill="#bfbfbf" stroke="#bfbfbf" points="1058,-1431.1 1054.5,-1421.1 1051,-1431.1 1058,-1431.1"/>
</g>
<!-- DetectorDescriptor&#45;&gt;Keypoints -->
<g id="edge46" class="edge">
<title>DetectorDescriptor&#45;&gt;Keypoints</title>
<path fill="none" stroke="#bfbfbf" d="M1090.47,-1237.82C1096.82,-1226.87 1105.18,-1212.46 1112.35,-1200.11"/>
<polygon fill="#bfbfbf" stroke="#bfbfbf" points="1115.56,-1201.56 1117.55,-1191.15 1109.5,-1198.05 1115.56,-1201.56"/>
</g>
<!-- DetectorDescriptor&#45;&gt;Descriptors -->
<g id="edge47" class="edge">
<title>DetectorDescriptor&#45;&gt;Descriptors</title>
<path fill="none" stroke="#bfbfbf" d="M1070.53,-1237.82C1064.18,-1226.87 1055.82,-1212.46 1048.65,-1200.11"/>
<polygon fill="#bfbfbf" stroke="#bfbfbf" points="1051.5,-1198.05 1043.45,-1191.15 1045.44,-1201.56 1051.5,-1198.05"/>
</g>
<!-- View&#45;Graph Estimator&#45;&gt;View&#45;Graph Relative Translations -->
<g id="edge54" class="edge">
<title>View&#45;Graph Estimator&#45;&gt;View&#45;Graph Relative Translations</title>
<path fill="none" stroke="#bfbfbf" d="M465.79,-792C443.52,-783.84 419.71,-772.2 401.5,-756 382.65,-739.22 369.57,-713.4 361.69,-693.89"/>
<polygon fill="#bfbfbf" stroke="#bfbfbf" points="364.88,-692.43 358.04,-684.34 358.34,-694.93 364.88,-692.43"/>
</g>
<!-- View&#45;Graph Estimator&#45;&gt;View&#45;Graph Relative Rotations -->
<g id="edge53" class="edge">
<title>View&#45;Graph Estimator&#45;&gt;View&#45;Graph Relative Rotations</title>
<path fill="none" stroke="#bfbfbf" d="M528.53,-791.7C527.21,-783.98 525.62,-774.71 524.15,-766.11"/>
<polygon fill="#bfbfbf" stroke="#bfbfbf" points="527.57,-765.37 522.43,-756.1 520.67,-766.55 527.57,-765.37"/>
</g>
<!-- View&#45;Graph Estimator&#45;&gt;View&#45;Graph Correspondences -->
<g id="edge55" class="edge">
<title>View&#45;Graph Estimator&#45;&gt;View&#45;Graph Correspondences</title>
<path fill="none" stroke="#bfbfbf" d="M462.3,-791.93C444.36,-784.03 427.11,-772.57 416.5,-756 405.96,-739.53 406.92,-729.05 416.5,-712 428.23,-691.14 449.45,-704.06 462.5,-684 489,-643.28 489.33,-584.42 486.73,-550.29"/>
<polygon fill="#bfbfbf" stroke="#bfbfbf" points="490.19,-549.78 485.81,-540.14 483.22,-550.41 490.19,-549.78"/>
</g>
<!-- Inlier Correspondences -->
<g id="node35" class="node">
<title>Inlier Correspondences</title>
<path fill="gainsboro" stroke="black" d="M805,-756C805,-756 686,-756 686,-756 680,-756 674,-750 674,-744 674,-744 674,-732 674,-732 674,-726 680,-720 686,-720 686,-720 805,-720 805,-720 811,-720 817,-726 817,-732 817,-732 817,-744 817,-744 817,-750 811,-756 805,-756"/>
<text text-anchor="middle" x="745.5" y="-734.3" font-family="Times,serif" font-size="14.00">Inlier Correspondences</text>
</g>
<!-- Inlier Correspondences&#45;&gt;View&#45;Graph Estimator -->
<g id="edge51" class="edge">
<title>Inlier Correspondences&#45;&gt;View&#45;Graph Estimator</title>
<path fill="none" stroke="#bfbfbf" d="M693.19,-756.11C662.99,-765.99 624.84,-778.47 593.18,-788.83"/>
<polygon fill="#bfbfbf" stroke="#bfbfbf" points="591.99,-785.53 583.58,-791.97 594.17,-792.18 591.99,-785.53"/>
</g>
<!-- Two&#45;View Bundle Adjustment&#45;&gt;Inlier Correspondences -->
<g id="edge65" class="edge">
<title>Two&#45;View Bundle Adjustment&#45;&gt;Inlier Correspondences</title>
<path fill="none" stroke="#bfbfbf" d="M1021.96,-792.55C965.78,-782.32 892.41,-768.74 827.5,-756 827.29,-755.96 827.07,-755.92 826.86,-755.87"/>
<polygon fill="#bfbfbf" stroke="#bfbfbf" points="827.53,-752.44 817.04,-753.92 826.16,-759.3 827.53,-752.44"/>
</g>
<!-- Optimized Relative Rotations -->
<g id="node38" class="node">
<title>Optimized Relative Rotations</title>
<path fill="gainsboro" stroke="black" d="M1003,-756C1003,-756 848,-756 848,-756 842,-756 836,-750 836,-744 836,-744 836,-732 836,-732 836,-726 842,-720 848,-720 848,-720 1003,-720 1003,-720 1009,-720 1015,-726 1015,-732 1015,-732 1015,-744 1015,-744 1015,-750 1009,-756 1003,-756"/>
<text text-anchor="middle" x="925.5" y="-734.3" font-family="Times,serif" font-size="14.00">Optimized Relative Rotations</text>
</g>
<!-- Two&#45;View Bundle Adjustment&#45;&gt;Optimized Relative Rotations -->
<g id="edge63" class="edge">
<title>Two&#45;View Bundle Adjustment&#45;&gt;Optimized Relative Rotations</title>
<path fill="none" stroke="#bfbfbf" d="M1067.51,-791.88C1041.35,-782.14 1008.41,-769.87 980.85,-759.61"/>
<polygon fill="#bfbfbf" stroke="#bfbfbf" points="981.93,-756.28 971.34,-756.07 979.49,-762.84 981.93,-756.28"/>
</g>
<!-- Optimized Relative Translations -->
<g id="node39" class="node">
<title>Optimized Relative Translations</title>
<path fill="gainsboro" stroke="black" d="M1214,-756C1214,-756 1045,-756 1045,-756 1039,-756 1033,-750 1033,-744 1033,-744 1033,-732 1033,-732 1033,-726 1039,-720 1045,-720 1045,-720 1214,-720 1214,-720 1220,-720 1226,-726 1226,-732 1226,-732 1226,-744 1226,-744 1226,-750 1220,-756 1214,-756"/>
<text text-anchor="middle" x="1129.5" y="-734.3" font-family="Times,serif" font-size="14.00">Optimized Relative Translations</text>
</g>
<!-- Two&#45;View Bundle Adjustment&#45;&gt;Optimized Relative Translations -->
<g id="edge64" class="edge">
<title>Two&#45;View Bundle Adjustment&#45;&gt;Optimized Relative Translations</title>
<path fill="none" stroke="#bfbfbf" d="M1117.46,-791.7C1119.22,-783.98 1121.34,-774.71 1123.3,-766.11"/>
<polygon fill="#bfbfbf" stroke="#bfbfbf" points="1126.77,-766.63 1125.59,-756.1 1119.95,-765.07 1126.77,-766.63"/>
</g>
<!-- Triangulated Points -->
<g id="node37" class="node">
<title>Triangulated Points</title>
<path fill="gainsboro" stroke="black" d="M1491,-903C1491,-903 1392,-903 1392,-903 1386,-903 1380,-897 1380,-891 1380,-891 1380,-879 1380,-879 1380,-873 1386,-867 1392,-867 1392,-867 1491,-867 1491,-867 1497,-867 1503,-873 1503,-879 1503,-879 1503,-891 1503,-891 1503,-897 1497,-903 1491,-903"/>
<text text-anchor="middle" x="1441.5" y="-881.3" font-family="Times,serif" font-size="14.00">Triangulated Points</text>
</g>
<!-- Triangulated Points&#45;&gt;Two&#45;View Bundle Adjustment -->
<g id="edge58" class="edge">
<title>Triangulated Points&#45;&gt;Two&#45;View Bundle Adjustment</title>
<path fill="none" stroke="#bfbfbf" d="M1379.7,-870.17C1374.9,-869.1 1370.12,-868.03 1365.5,-867 1310.46,-854.73 1248.64,-840.99 1200.01,-830.19"/>
<polygon fill="#bfbfbf" stroke="#bfbfbf" points="1200.67,-826.76 1190.15,-828 1199.16,-833.59 1200.67,-826.76"/>
</g>
</g>
</svg>
